<svg xmlns="http://www.w3.org/2000/svg" width="182.395" height="250" viewBox="1.75 1 182.395 250"><!-- Source: https://football-logos.cc --><defs data-source="https://football-logos.cc"><clipPath id="a" clipPathUnits="userSpaceOnUse"><path d="M21.249 655.347h100.677v122.086H21.249Z"></path></clipPath><clipPath id="b" clipPathUnits="userSpaceOnUse"><path d="M34.806 769.537c-1-.212-2.004-.433-3.003-.662q-.442-.103-.586-.318-.149-.218-.148-.605v-7.002q-.001-.387.148-.53.144-.14.586-.039 1.538.354 3.077.679.615.13 1.15.425.535.3.934.717.402.418.629.934.227.517.227 1.099 0 .303-.074.604a1.7 1.7 0 0 1-.235.542 1.5 1.5 0 0 1-.411.416 1.5 1.5 0 0 1-.597.237v.085q.419.313.684.809.263.494.264 1.003-.001.568-.203.934a1.38 1.38 0 0 1-.561.558 2 2 0 0 1-.841.209l-.156.003q-.418 0-.884-.098m-1.875-2.019a178 178 0 0 0 1.729.376q.394.085.625-.073.236-.155.235-.515a1 1 0 0 0-.086-.433 1 1 0 0 0-.221-.299 1.1 1.1 0 0 0-.302-.189 1.5 1.5 0 0 0-.311-.102 214 214 0 0 1-1.669-.364zm0-3.089q.882.196 1.766.384.59.124.89-.116.302-.24.302-.726 0-.168-.056-.375a1.2 1.2 0 0 0-.189-.39 1.4 1.4 0 0 0-.369-.337 1.7 1.7 0 0 0-.578-.224 214 214 0 0 1-1.766-.384z"></path></clipPath><clipPath id="c" clipPathUnits="userSpaceOnUse"><path d="M31.069 760.314h6.75v9.321h-6.75z"></path></clipPath><clipPath id="e" clipPathUnits="userSpaceOnUse"><path d="M43.734 771.179a3 3 0 0 1-.359-.038l-.743-.121a1.7 1.7 0 0 1-.327-.085.8.8 0 0 1-.248-.143.9.9 0 0 1-.185-.232 1.8 1.8 0 0 1-.143-.356q-1.283-4.018-2.566-8.053a.26.26 0 0 1 .006-.169q.033-.066.166-.041.721.132 1.444.259.173.031.239.095.069.068.107.195.24.812.48 1.622 1.415.242 2.834.46l.482-1.502q.037-.127.129-.145a.8.8 0 0 1 .231.005q.736.11 1.474.214.134.02.161.107a.3.3 0 0 1 0 .159q-1.29 3.617-2.576 7.217-.074.204-.155.327a.5.5 0 0 1-.193.175.5.5 0 0 1-.23.05zm-1.213-3.879.47 1.816.074.012.457-1.666q.237-.734.47-1.469c-.645-.101-1.295-.206-1.939-.316q.231.813.468 1.623"></path></clipPath><clipPath id="f" clipPathUnits="userSpaceOnUse"><path d="M39.147 761.924h7.784v9.256h-7.784z"></path></clipPath><clipPath id="h" clipPathUnits="userSpaceOnUse"><path d="M50.117 772.076q-.659-.08-1.316-.165a.4.4 0 0 1-.217-.084q-.067-.06-.068-.207v-6.009q.001-.411.097-.798a1.56 1.56 0 0 1 .361-.67q.263-.281.703-.421.44-.138 1.138-.056 1.795.21 3.593.382.238.021.237.276v1.079q0 .168-.049.207-.05.037-.188.024-1.582-.151-3.159-.332c-.248-.028-.451 0-.601.088q-.232.13-.232.591v5.874q0 .158-.056.2-.036.029-.126.029-.05 0-.117-.008"></path></clipPath><clipPath id="i" clipPathUnits="userSpaceOnUse"><path d="M48.516 763.611h6.13v8.473h-6.13z"></path></clipPath><clipPath id="k" clipPathUnits="userSpaceOnUse"><path d="m57.97 772.834-1.32-.105q-.15-.013-.219-.074-.067-.06-.068-.206v-7.971q.001-.144.068-.194.069-.049.219-.036.66.054 1.32.104.187.014.245.068.055.051.054.209v7.971q.002.159-.054.203-.044.033-.164.033z"></path></clipPath><clipPath id="l" clipPathUnits="userSpaceOnUse"><path d="M56.363 764.239h1.906v8.597h-1.906z"></path></clipPath><clipPath id="n" clipPathUnits="userSpaceOnUse"><path d="M71.195 773.332q-.415 0-.828-.003-.149 0-.218-.054-.072-.054-.071-.2v-6.664a3 3 0 0 0-.355-.057 6 6 0 0 0-.374-.028q-.183-.009-.332-.015-.151-.011-.235-.01-.6-.009-.983.099a1.3 1.3 0 0 0-.605.344q-.224.237-.312.604a3.6 3.6 0 0 0-.088.864v4.811q0 .156-.056.203c-.035.032-.119.047-.242.043a85 85 0 0 1-1.338-.043.35.35 0 0 1-.213-.061q-.074-.056-.074-.203c.005-1.564.007-3.133.011-4.699q0-1.066.225-1.761.227-.695.714-1.102.485-.41 1.254-.565.766-.159 1.842-.144l.425.011q.263.01.563.023.3.015.599.046.3.033.551.093.523.132.718.436.193.301.193.726v7.05q0 .158-.045.207-.043.05-.23.049z"></path></clipPath><clipPath id="o" clipPathUnits="userSpaceOnUse"><path d="M64.871 764.682h7.095v8.65H64.87Z"></path></clipPath><clipPath id="q" clipPathUnits="userSpaceOnUse"><path d="M75.109 773.302q-.427 0-.595-.177-.174-.184-.173-.657v-7.39q-.002-.145.066-.2.07-.057.22-.059.657-.013 1.311-.03.176-.005.231.042t.056.204v5.017l.063-.003q.6-.919 1.198-1.844.999-1.5 1.999-3.014a4 4 0 0 1 .197-.281.9.9 0 0 1 .19-.174.6.6 0 0 1 .23-.09q.131-.025.319-.035.263-.013.523-.028.488-.028.649.188.163.213.162.602v7.401q0 .254-.286.272l-1.312.073q-.172.008-.231-.044-.055-.051-.054-.197v-5.065q-.031.001-.064.005l-1.072 1.682a945 945 0 0 1-2.124 3.217 4 4 0 0 1-.2.284.615.615 0 0 1-.419.261 3 3 0 0 1-.317.026q-.263.006-.525.014z"></path></clipPath><clipPath id="r" clipPathUnits="userSpaceOnUse"><path d="M74.34 764.564h7.415v8.738h-7.414z"></path></clipPath><clipPath id="t" clipPathUnits="userSpaceOnUse"><path d="M84.355 772.788q-.068-.05-.067-.196v-7.971q-.001-.146.067-.205a.37.37 0 0 1 .219-.07q.66-.052 1.321-.107.187-.014.242.028.056.045.056.202v7.971q0 .157-.056.211-.057.053-.242.068-.66.056-1.321.107l-.053.001a.3.3 0 0 1-.166-.039"></path></clipPath><clipPath id="u" clipPathUnits="userSpaceOnUse"><path d="M84.287 764.229h1.906v8.598h-1.906z"></path></clipPath><clipPath id="w" clipPathUnits="userSpaceOnUse"><path d="M87.987 772.484q-.05-.044-.05-.201v-1.079q0-.241.236-.264 1.102-.106 2.203-.228v-6.651q0-.144.069-.207a.4.4 0 0 1 .216-.078c.442-.048.889-.1 1.331-.154q.186-.02.241.021.057.041.056.199v6.651q1.122-.135 2.248-.286.247-.032.247.21v1.077q.001.158-.049.213-.049.056-.198.074-3.176.427-6.364.734-.03.004-.058.004-.09 0-.128-.035"></path></clipPath><clipPath id="x" clipPathUnits="userSpaceOnUse"><path d="M87.938 763.608h6.845v8.91h-6.845z"></path></clipPath><clipPath id="z" clipPathUnits="userSpaceOnUse"><path d="M97.561 771.175a1.5 1.5 0 0 1-.699-.397 1.7 1.7 0 0 1-.392-.659 2.7 2.7 0 0 1-.122-.819v-4.021q0-.411.097-.825.1-.415.362-.768.258-.353.697-.613.44-.259 1.134-.369 1.831-.289 3.658-.615.148-.027.197.031t.049.202v1.03q0 .183-.043.244-.043.063-.203.092c-1.087.194-2.172.379-3.264.552q-.393.065-.598.247-.205.184-.205.608v1.38q1.776-.276 3.548-.587.148-.027.192.032.041.06.042.205v.944q0 .171-.042.239-.044.068-.192.094a186 186 0 0 1-3.548.588v.932q.001.316.16.51c.109.126.322.168.643.116a185 185 0 0 0 3.141-.533q.134-.023.182.022.053.046.049.204v1.028a.46.46 0 0 1-.041.239q-.043.068-.19.095-1.774.316-3.547.596a3.3 3.3 0 0 1-.523.045q-.301 0-.542-.069"></path></clipPath><clipPath id="A" clipPathUnits="userSpaceOnUse"><path d="M96.348 762.07h6.194v9.174h-6.194z"></path></clipPath><clipPath id="C" clipPathUnits="userSpaceOnUse"><path d="M104.565 769.977q-.148-.154-.151-.54v-7.003q0-.388.151-.593.147-.202.59-.289 1.216-.24 2.434-.498 1.08-.229 1.81-.034.726.196 1.17.688.437.49.623 1.223a6.825 6.825 0 0 1-.023 3.235 4.7 4.7 0 0 1-.674 1.494q-.466.677-1.213 1.181c-.501.338-1.108.583-1.829.735q-1.148.24-2.298.468-.16.031-.282.031-.215 0-.308-.098m2.717-7.234-.996.206v5.257q.479-.098.958-.199.648-.134 1.081-.429a2.3 2.3 0 0 0 .68-.693q.25-.402.351-.894a5.4 5.4 0 0 0 .098-1.051q0-.582-.098-1.052a1.8 1.8 0 0 0-.344-.765 1.24 1.24 0 0 0-.668-.406 1.7 1.7 0 0 0-.42-.048q-.287 0-.642.074"></path></clipPath><clipPath id="D" clipPathUnits="userSpaceOnUse"><path d="M104.414 760.89h6.962v9.185h-6.962z"></path></clipPath><clipPath id="F" clipPathUnits="userSpaceOnUse"><path d="M32.054 756.439c-1.324-.397-2.307-1.55-2.528-2.959-.125-.797-3.002-19.783.396-41.081 2.025-12.676 5.871-23.524 11.434-32.238 6.983-10.938 17.798-19.476 29.87-23.432 12.069 3.956 23.559 12.422 30.444 23.233 5.486 8.615 9.222 19.32 11.097 31.822 3.158 20.988.032 39.667-.103 40.452-.218 1.266-1.053 2.321-2.205 2.791-.606.247-15.073 6.019-39 6.019-23.756 0-38.779-4.421-39.405-4.607"></path></clipPath><clipPath id="G" clipPathUnits="userSpaceOnUse"><path d="M26.524 656.73h89.401v104.316h-89.4Z"></path></clipPath><clipPath id="I" clipPathUnits="userSpaceOnUse"><path d="M33.043 752.893s-11.794-75.774 38.545-91.8c0 0-.016-.025 0-.02v.02c50.338 16.026 37.568 90.5 37.568 90.5s-14.172 5.762-37.697 5.762-38.416-4.462-38.416-4.462m38.545-91.828c-.005-.003-.009-.005 0-.008zc.003.003.007.007 0 .008z"></path></clipPath><clipPath id="J" clipPathUnits="userSpaceOnUse"><path d="M21.25 661.057h100.676v96.298H21.249Z"></path></clipPath><clipPath id="L" clipPathUnits="userSpaceOnUse"><path d="M33.039 752.893s-11.74-75.774 38.368-91.8v-.02c-.009-.002-.005-.005 0-.008v-.001c-.005-.002-.009-.005 0-.007.009.002.004.005 0 .008.004.003.009.006 0 .008v.02c50.108 16.026 37.397 90.5 37.397 90.5s-14.108 5.762-37.528 5.762c-23.415 0-38.237-4.462-38.237-4.462"></path></clipPath><clipPath id="M" clipPathUnits="userSpaceOnUse"><path d="M25.978 760.277h90.899v-12.356H25.978Z"></path></clipPath><clipPath id="N" clipPathUnits="userSpaceOnUse"><path d="M25.979 747.921h90.898v12.356H25.979Z"></path></clipPath><clipPath id="O" clipPathUnits="userSpaceOnUse"><path d="M25.978 735.366h90.899v-12.357H25.978Z"></path></clipPath><clipPath id="P" clipPathUnits="userSpaceOnUse"><path d="M25.979 723.01h90.898v12.357H25.979Z"></path></clipPath><clipPath id="Q" clipPathUnits="userSpaceOnUse"><path d="M25.978 710.654h90.899v-12.356H25.978Z"></path></clipPath><clipPath id="R" clipPathUnits="userSpaceOnUse"><path d="M25.979 698.297h90.898v12.356H25.979Z"></path></clipPath><clipPath id="S" clipPathUnits="userSpaceOnUse"><path d="M25.978 685.742h90.899v-12.358H25.978Z"></path></clipPath><clipPath id="T" clipPathUnits="userSpaceOnUse"><path d="M25.979 673.384h90.898v12.357H25.979Z"></path></clipPath><clipPath id="U" clipPathUnits="userSpaceOnUse"><path d="M25.978 661.03h90.899v-12.358H25.978Z"></path></clipPath><clipPath id="V" clipPathUnits="userSpaceOnUse"><path d="M25.979 648.672h90.898v12.358H25.979Z"></path></clipPath><clipPath id="W" clipPathUnits="userSpaceOnUse"><path d="M62.471 668.26c0-4.909 4.076-8.89 9.103-8.89s9.105 3.981 9.105 8.89-4.077 8.892-9.105 8.892c-5.027 0-9.103-3.982-9.103-8.892"></path></clipPath><clipPath id="X" clipPathUnits="userSpaceOnUse"><path d="M62.47 659.37h18.21v17.782H62.47Z"></path></clipPath><clipPath id="Z" clipPathUnits="userSpaceOnUse"><path d="M64.001 668.261c0-4.084 3.389-7.397 7.575-7.397 4.182 0 7.574 3.313 7.574 7.397s-3.392 7.397-7.574 7.397c-4.186 0-7.575-3.313-7.575-7.397"></path></clipPath><clipPath id="aa" clipPathUnits="userSpaceOnUse"><path d="m56.643 669.026 14.149-15.697 15.716 14.167-14.149 15.697Z"></path></clipPath><clipPath id="ac" clipPathUnits="userSpaceOnUse"><path d="M21.249 655.347h100.677v122.086H21.249Z"></path></clipPath><clipPath id="ad" clipPathUnits="userSpaceOnUse"><path d="M56.994 747.703a54 54 0 0 0-1.408-1.226c-2.991-2.483-6.99-3.981-7.018-3.997a.38.38 0 0 1-.207-.328.38.38 0 0 1 .205-.332c.383-.215.766-1.781.879-3.078v-41.288c0-1.919-.901-5.523-.915-5.54a.36.36 0 0 1-.038-.405.43.43 0 0 1 .382-.214c1.126 0 4.798-1.773 6.253-3.067 2.954-2.629 6.199-5.955 10.514-6.611 3.171-.488 6.216.813 8.486 2.72.103.083.152.21.134.334a.38.38 0 0 1-.225.291l-2.02.96a.47.47 0 0 1-.475-.046c-1.405-1.072-2.901-1.665-4.753-1.406-3.247.456-5.17 2.903-6.971 5.216-2.281 2.934-1.793 7.377-1.794 8.151v17.268c1.935-2.893 3.147-3.079 3.793-3.079.186 0 .29.016.29.016.209.027.371.19.371.383v.908c0 .196-.162.362-.376.385-3.638.398-4.037 4.025-4.049 4.061-.007.018-.02.033-.029.051v2.361c.23.496.983 3.759 3.689 3.759.227 0 .414.158.429.362l.096 1.341a.37.37 0 0 1-.157.325.46.46 0 0 1-.385.074c-.141-.037-2.123-.77-3.672-2.393v17.63c0 .022.018 2.17 1.097 4.278 1.418 2.768 3.93 4.172 7.467 4.172 3.539 0 6.062-1.404 7.499-4.174 1.095-2.107 1.129-4.258 1.129-4.276v-17.926c0-.153.098-.291.252-.353 1.072-.436 1.418-1.76 1.421-1.769a.42.42 0 0 1 .383-.274.44.44 0 0 1 .419.229c1.874 3.864 7.218 3.857 7.826 3.854h.057a.42.42 0 0 1 .346.282.36.36 0 0 1-.144.399c-1.172.87-2.33 2-2.33 3.132v9.864c0 1.21.662 2.566.917 3.075a.35.35 0 0 1-.009.337.42.42 0 0 1-.298.204c-1.3.227-3.511 2.084-5.084 3.354-.674.544-1.31 1.058-1.919 1.492a21 21 0 0 0-1.248 1.002c-1.881 1.585-4.457 4.533-9.154 4.533-4.886 0-7.203-2.838-9.656-5.021"></path></clipPath><clipPath id="ae" clipPathUnits="userSpaceOnUse"><path d="m14.723 729.17 46.008-65.707 58.87 41.22-46.01 65.708z"></path></clipPath><clipPath id="ag" clipPathUnits="userSpaceOnUse"><path d="M71.409 725.025a.38.38 0 0 1-.23-.344v-1.212a.37.37 0 0 1 .195-.325c4.28-2.51 4.156-6.304 4.159-6.325V692.43c0-1.76-.637-2.849-.649-2.865a.35.35 0 0 1-.021-.397.43.43 0 0 1 .375-.204c.875 0 2.092-.693 2.487-.963a.46.46 0 0 1 .256-.074.3.3 0 0 1 .093.01.4.4 0 0 1 .286.196c1.132 1.944 6.31 3.699 6.36 3.719.122.056.21.163.232.29a.37.37 0 0 1-.127.338c-1.149.989-.966 2.147-.958 2.194q.006.032.005.064v13.949c0 2.084 2.486 3.829 2.511 3.847.147.102.204.276.147.432a.43.43 0 0 1-.406.264c-4.45 0-7.232 2.721-9.28 6.252-2.003 3.45-4.848 5.425-4.993 5.518a.47.47 0 0 1-.244.07.5.5 0 0 1-.198-.045"></path></clipPath><clipPath id="ah" clipPathUnits="userSpaceOnUse"><path d="m53.727 712.85 22.521-32.163 27.79 19.46-22.52 32.162z"></path></clipPath><clipPath id="aj" clipPathUnits="userSpaceOnUse"><path d="M73.955 717.776c-.192-.312-1.249-1.546-2.993-2.749a.38.38 0 0 1-.166-.309v-1.3a.38.38 0 0 1 .163-.306.46.46 0 0 1 .264-.083q.052.002.105.013c.807.185 2.521 2.11 3.294 2.753a.37.37 0 0 1 .137.283v1.517c0 .174-.133.326-.322.373a1 1 0 0 1-.108.011.44.44 0 0 1-.374-.203"></path></clipPath><clipPath id="ak" clipPathUnits="userSpaceOnUse"><path d="m68.47 716.35 3.63-5.182 4.985 3.49-3.63 5.183z"></path></clipPath><clipPath id="am" clipPathUnits="userSpaceOnUse"><path d="m60.709 738.242-.139-.126.128-.136c.022-.022 2.245-2.399 2.245-4.725v-27.37c0-6.319 3.891-20.171 15.452-20.171 7.327 0 11.035 3.019 14.017 5.451 1.884 1.533 4.225 2.745 6.095 2.745h.903l-.809.368c-.029.015-3.197 1.484-3.197 4.042v36.263c0 .117.045 2.868 3.741 2.868h1.956v1.663l-.221-.006c-.003 0-.487-.015-1.302-.015-3.12 0-8.291.217-12.669 2.246l-.453.211.153-.44c.012-.037 1.263-3.697 1.263-6.12v-38.165c-.003-.099-.419-9.92-9.283-9.92-.022 0-2.193.043-4.348 1.327-2.858 1.702-4.366 4.809-4.366 8.993v36.666c0 .027.03 2.731 2.121 3.816l.222.117-.164.177c-.055.058-5.264 6.021-5.703 10.327 0 0-1.093-5.967-5.642-10.086"></path></clipPath><clipPath id="an" clipPathUnits="userSpaceOnUse"><path d="M60.57 685.714h40.53v62.614H60.57Z"></path></clipPath><clipPath id="ap" clipPathUnits="userSpaceOnUse"><path d="M21.249 655.347h100.677v122.086H21.249Z"></path></clipPath><clipPath id="aq" clipPathUnits="userSpaceOnUse"><path d="M88.584 739.121h1.62v-45.817h-1.62z"></path></clipPath><clipPath id="ar" clipPathUnits="userSpaceOnUse"><path d="M88.584 693.306h1.619v45.815h-1.619z"></path></clipPath><clipPath id="as" clipPathUnits="userSpaceOnUse"><path d="M62.446 741.702h3.067v-37.885h-3.067z"></path></clipPath><clipPath id="at" clipPathUnits="userSpaceOnUse"><path d="M62.447 703.817h3.066v37.885h-3.066z"></path></clipPath><clipPath id="au" clipPathUnits="userSpaceOnUse"><path d="M50.583 743.38h3.527v-51.67h-3.527z"></path></clipPath><clipPath id="av" clipPathUnits="userSpaceOnUse"><path d="M50.584 691.711h3.526v51.669h-3.526Z"></path></clipPath><linearGradient id="d" x1="0" x2="1" y1="0" y2="0" gradientTransform="translate(31.939 764.95)scale(82.23869)" gradientUnits="userSpaceOnUse" spreadMethod="pad"><stop offset="0" style="stop-opacity:1;stop-color:#bfbcbd"></stop><stop offset=".261" style="stop-opacity:1;stop-color:#f7f8f9"></stop><stop offset=".448" style="stop-opacity:1;stop-color:#bfbcbd"></stop><stop offset=".582" style="stop-opacity:1;stop-color:#bfbcbd"></stop><stop offset=".83" style="stop-opacity:1;stop-color:#f6f5f7"></stop><stop offset="1" style="stop-opacity:1;stop-color:#c0bdbe"></stop></linearGradient><linearGradient id="g" x1="0" x2="1" y1="0" y2="0" gradientTransform="matrix(82.56663 0 0 82.56663 31.939 766.617)" gradientUnits="userSpaceOnUse" spreadMethod="pad"><stop offset="0" style="stop-opacity:1;stop-color:#bfbcbd"></stop><stop offset=".261" style="stop-opacity:1;stop-color:#f7f8f9"></stop><stop offset=".448" style="stop-opacity:1;stop-color:#bfbcbd"></stop><stop offset=".582" style="stop-opacity:1;stop-color:#bfbcbd"></stop><stop offset=".83" style="stop-opacity:1;stop-color:#f6f5f7"></stop><stop offset="1" style="stop-opacity:1;stop-color:#c0bdbe"></stop></linearGradient><linearGradient id="j" x1="0" x2="1" y1="0" y2="0" gradientTransform="matrix(82.33647 0 0 82.33647 31.97 767.77)" gradientUnits="userSpaceOnUse" spreadMethod="pad"><stop offset="0" style="stop-opacity:1;stop-color:#bfbcbd"></stop><stop offset=".261" style="stop-opacity:1;stop-color:#f7f8f9"></stop><stop offset=".448" style="stop-opacity:1;stop-color:#bfbcbd"></stop><stop offset=".582" style="stop-opacity:1;stop-color:#bfbcbd"></stop><stop offset=".83" style="stop-opacity:1;stop-color:#f6f5f7"></stop><stop offset="1" style="stop-opacity:1;stop-color:#c0bdbe"></stop></linearGradient><linearGradient id="m" x1="0" x2="1" y1="0" y2="0" gradientTransform="matrix(82.94937 0 0 82.94937 31.746 768.476)" gradientUnits="userSpaceOnUse" spreadMethod="pad"><stop offset="0" style="stop-opacity:1;stop-color:#bfbcbd"></stop><stop offset=".261" style="stop-opacity:1;stop-color:#f7f8f9"></stop><stop offset=".448" style="stop-opacity:1;stop-color:#bfbcbd"></stop><stop offset=".582" style="stop-opacity:1;stop-color:#bfbcbd"></stop><stop offset=".83" style="stop-opacity:1;stop-color:#f6f5f7"></stop><stop offset="1" style="stop-opacity:1;stop-color:#c0bdbe"></stop></linearGradient><linearGradient id="p" x1="0" x2="1" y1="0" y2="0" gradientTransform="translate(31.875 768.989)scale(82.38059)" gradientUnits="userSpaceOnUse" spreadMethod="pad"><stop offset="0" style="stop-opacity:1;stop-color:#bfbcbd"></stop><stop offset=".261" style="stop-opacity:1;stop-color:#f7f8f9"></stop><stop offset=".448" style="stop-opacity:1;stop-color:#bfbcbd"></stop><stop offset=".582" style="stop-opacity:1;stop-color:#bfbcbd"></stop><stop offset=".83" style="stop-opacity:1;stop-color:#f6f5f7"></stop><stop offset="1" style="stop-opacity:1;stop-color:#c0bdbe"></stop></linearGradient><linearGradient id="s" x1="0" x2="1" y1="0" y2="0" gradientTransform="matrix(82.07086 0 0 82.07086 32.131 768.925)" gradientUnits="userSpaceOnUse" spreadMethod="pad"><stop offset="0" style="stop-opacity:1;stop-color:#bfbcbd"></stop><stop offset=".261" style="stop-opacity:1;stop-color:#f7f8f9"></stop><stop offset=".448" style="stop-opacity:1;stop-color:#bfbcbd"></stop><stop offset=".582" style="stop-opacity:1;stop-color:#bfbcbd"></stop><stop offset=".83" style="stop-opacity:1;stop-color:#f6f5f7"></stop><stop offset="1" style="stop-opacity:1;stop-color:#c0bdbe"></stop></linearGradient><linearGradient id="v" x1="0" x2="1" y1="0" y2="0" gradientTransform="matrix(82.94404 0 0 82.94404 31.522 768.54)" gradientUnits="userSpaceOnUse" spreadMethod="pad"><stop offset="0" style="stop-opacity:1;stop-color:#bfbcbd"></stop><stop offset=".261" style="stop-opacity:1;stop-color:#f7f8f9"></stop><stop offset=".448" style="stop-opacity:1;stop-color:#bfbcbd"></stop><stop offset=".582" style="stop-opacity:1;stop-color:#bfbcbd"></stop><stop offset=".83" style="stop-opacity:1;stop-color:#f6f5f7"></stop><stop offset="1" style="stop-opacity:1;stop-color:#c0bdbe"></stop></linearGradient><linearGradient id="y" x1="0" x2="1" y1="0" y2="0" gradientTransform="matrix(81.98459 0 0 81.98459 32.195 768.027)" gradientUnits="userSpaceOnUse" spreadMethod="pad"><stop offset="0" style="stop-opacity:1;stop-color:#bfbcbd"></stop><stop offset=".261" style="stop-opacity:1;stop-color:#f7f8f9"></stop><stop offset=".448" style="stop-opacity:1;stop-color:#bfbcbd"></stop><stop offset=".582" style="stop-opacity:1;stop-color:#bfbcbd"></stop><stop offset=".83" style="stop-opacity:1;stop-color:#f6f5f7"></stop><stop offset="1" style="stop-opacity:1;stop-color:#c0bdbe"></stop></linearGradient><linearGradient id="B" x1="0" x2="1" y1="0" y2="0" gradientTransform="matrix(82.61058 0 0 82.61058 31.746 766.681)" gradientUnits="userSpaceOnUse" spreadMethod="pad"><stop offset="0" style="stop-opacity:1;stop-color:#bfbcbd"></stop><stop offset=".261" style="stop-opacity:1;stop-color:#f7f8f9"></stop><stop offset=".448" style="stop-opacity:1;stop-color:#bfbcbd"></stop><stop offset=".582" style="stop-opacity:1;stop-color:#bfbcbd"></stop><stop offset=".83" style="stop-opacity:1;stop-color:#f6f5f7"></stop><stop offset="1" style="stop-opacity:1;stop-color:#c0bdbe"></stop></linearGradient><linearGradient id="E" x1="0" x2="1" y1="0" y2="0" gradientTransform="matrix(82.6255 0 0 82.6255 31.65 765.463)" gradientUnits="userSpaceOnUse" spreadMethod="pad"><stop offset="0" style="stop-opacity:1;stop-color:#bfbcbd"></stop><stop offset=".261" style="stop-opacity:1;stop-color:#f7f8f9"></stop><stop offset=".448" style="stop-opacity:1;stop-color:#bfbcbd"></stop><stop offset=".582" style="stop-opacity:1;stop-color:#bfbcbd"></stop><stop offset=".83" style="stop-opacity:1;stop-color:#f6f5f7"></stop><stop offset="1" style="stop-opacity:1;stop-color:#c0bdbe"></stop></linearGradient><linearGradient id="H" x1="0" x2="1" y1="0" y2="0" gradientTransform="matrix(89.96718 0 0 89.96718 26.553 708.85)" gradientUnits="userSpaceOnUse" spreadMethod="pad"><stop offset="0" style="stop-opacity:1;stop-color:#f9b118"></stop><stop offset=".164" style="stop-opacity:1;stop-color:#faed28"></stop><stop offset=".339" style="stop-opacity:1;stop-color:#fbb715"></stop><stop offset=".412" style="stop-opacity:1;stop-color:#fbb715"></stop><stop offset=".467" style="stop-opacity:1;stop-color:#fabe16"></stop><stop offset=".497" style="stop-opacity:1;stop-color:#fcdf00"></stop><stop offset=".558" style="stop-opacity:1;stop-color:#efa91f"></stop><stop offset=".648" style="stop-opacity:1;stop-color:#efa91f"></stop><stop offset=".764" style="stop-opacity:1;stop-color:#a7772b"></stop><stop offset=".836" style="stop-opacity:1;stop-color:#a6752a"></stop><stop offset=".945" style="stop-opacity:1;stop-color:#d59629"></stop><stop offset="1" style="stop-opacity:1;stop-color:#d79129"></stop></linearGradient><linearGradient id="Y" x1="0" x2="1" y1="0" y2="0" gradientTransform="matrix(95.34695 0 0 95.34695 23.54 668.202)" gradientUnits="userSpaceOnUse" spreadMethod="pad"><stop offset="0" style="stop-opacity:1;stop-color:#f9b118"></stop><stop offset=".164" style="stop-opacity:1;stop-color:#faed28"></stop><stop offset=".339" style="stop-opacity:1;stop-color:#fbb715"></stop><stop offset=".412" style="stop-opacity:1;stop-color:#fbb715"></stop><stop offset=".467" style="stop-opacity:1;stop-color:#fabe16"></stop><stop offset=".497" style="stop-opacity:1;stop-color:#fcdf00"></stop><stop offset=".558" style="stop-opacity:1;stop-color:#efa91f"></stop><stop offset=".648" style="stop-opacity:1;stop-color:#efa91f"></stop><stop offset=".764" style="stop-opacity:1;stop-color:#a7772b"></stop><stop offset=".836" style="stop-opacity:1;stop-color:#a6752a"></stop><stop offset=".945" style="stop-opacity:1;stop-color:#d59629"></stop><stop offset="1" style="stop-opacity:1;stop-color:#d79129"></stop></linearGradient><linearGradient id="ab" x1="0" x2="1" y1="0" y2="0" gradientTransform="rotate(-47.968 790.159 261.176)scale(21.46957)" gradientUnits="userSpaceOnUse" spreadMethod="pad"><stop offset="0" style="stop-opacity:1;stop-color:#c6bcc3"></stop><stop offset=".011" style="stop-opacity:1;stop-color:#c6bcc3"></stop><stop offset=".191" style="stop-opacity:1;stop-color:#928c92"></stop><stop offset=".281" style="stop-opacity:1;stop-color:#fef4f8"></stop><stop offset=".551" style="stop-opacity:1;stop-color:#e3dde1"></stop><stop offset=".629" style="stop-opacity:1;stop-color:#8d848c"></stop><stop offset=".713" style="stop-opacity:1;stop-color:#b4abb1"></stop><stop offset=".787" style="stop-opacity:1;stop-color:#968e94"></stop><stop offset=".865" style="stop-opacity:1;stop-color:#b7adb4"></stop><stop offset=".966" style="stop-opacity:1;stop-color:#241319"></stop><stop offset="1" style="stop-opacity:1;stop-color:#241319"></stop></linearGradient><linearGradient id="af" x1="0" x2="1" y1="0" y2="0" gradientTransform="scale(70.35497)rotate(-55 10.443 4.52)" gradientUnits="userSpaceOnUse" spreadMethod="pad"><stop offset="0" style="stop-opacity:1;stop-color:#ddd9d6"></stop><stop offset="0" style="stop-opacity:1;stop-color:#ddd9d6"></stop><stop offset=".264" style="stop-opacity:1;stop-color:#908c92"></stop><stop offset=".522" style="stop-opacity:1;stop-color:#f3f4f4"></stop><stop offset=".876" style="stop-opacity:1;stop-color:#898489"></stop><stop offset="1" style="stop-opacity:1;stop-color:#d2d3d4"></stop><stop offset="1" style="stop-opacity:1;stop-color:#d2d3d4"></stop></linearGradient><linearGradient id="ai" x1="0" x2="1" y1="0" y2="0" gradientTransform="rotate(-55 737.774 315.485)scale(72.06888)" gradientUnits="userSpaceOnUse" spreadMethod="pad"><stop offset="0" style="stop-opacity:1;stop-color:#ddd9d6"></stop><stop offset="0" style="stop-opacity:1;stop-color:#ddd9d6"></stop><stop offset=".264" style="stop-opacity:1;stop-color:#908c92"></stop><stop offset=".522" style="stop-opacity:1;stop-color:#f3f4f4"></stop><stop offset=".876" style="stop-opacity:1;stop-color:#898489"></stop><stop offset="1" style="stop-opacity:1;stop-color:#d2d3d4"></stop><stop offset="1" style="stop-opacity:1;stop-color:#d2d3d4"></stop></linearGradient><linearGradient id="al" x1="0" x2="1" y1="0" y2="0" gradientTransform="rotate(-55 734.353 308.46)scale(53.8111)" gradientUnits="userSpaceOnUse" spreadMethod="pad"><stop offset="0" style="stop-opacity:1;stop-color:#ddd9d6"></stop><stop offset="0" style="stop-opacity:1;stop-color:#ddd9d6"></stop><stop offset=".264" style="stop-opacity:1;stop-color:#908c92"></stop><stop offset=".522" style="stop-opacity:1;stop-color:#f3f4f4"></stop><stop offset=".876" style="stop-opacity:1;stop-color:#898489"></stop><stop offset="1" style="stop-opacity:1;stop-color:#d2d3d4"></stop><stop offset="1" style="stop-opacity:1;stop-color:#d2d3d4"></stop></linearGradient><linearGradient id="ao" x1="0" x2="1" y1="0" y2="0" gradientTransform="matrix(40.54518 0 0 40.54518 60.566 717.025)" gradientUnits="userSpaceOnUse" spreadMethod="pad"><stop offset="0" style="stop-opacity:1;stop-color:#b22b30"></stop><stop offset=".198" style="stop-opacity:1;stop-color:#c8262d"></stop><stop offset=".306" style="stop-opacity:1;stop-color:#ba202f"></stop><stop offset=".471" style="stop-opacity:1;stop-color:#881a1c"></stop><stop offset=".632" style="stop-opacity:1;stop-color:#d92328"></stop><stop offset=".876" style="stop-opacity:1;stop-color:#b1272d"></stop><stop offset=".919" style="stop-opacity:1;stop-color:#8e1e2b"></stop><stop offset=".966" style="stop-opacity:1;stop-color:#4e1719"></stop><stop offset="1" style="stop-opacity:1;stop-color:#441a20"></stop></linearGradient><radialGradient id="K" cx="0" cy="0" r="1" fx="0" fy="0" gradientTransform="matrix(27.04941 0 0 28.01351 71.625 713.563)" gradientUnits="userSpaceOnUse" spreadMethod="pad"><stop offset="0" style="stop-opacity:1;stop-color:#fff"></stop><stop offset="1" style="stop-opacity:1;stop-color:#818285"></stop></radialGradient></defs><g clip-path="url(#a)" transform="matrix(2.04774 0 0 -2.04774 -52.889 1592.981)"><path d="M0 0c-.294 1.703-1.442 3.154-2.994 3.787-.15.06-15.707 6.109-40.355 6.109-24.398 0-40.493-4.612-40.65-4.66-1.788-.535-3.134-2.111-3.431-4.012-.204-1.314-2.123-35.198 1.29-56.576 2.053-12.862 5.966-23.88 11.626-32.752 7.161-11.217 18.285-19.95 30.521-23.96l.385-.126.382.126c12.673 4.152 24.318 13.036 31.149 23.763 5.589 8.773 9.388 19.657 11.296 32.345C2.378-34.933.209-1.22 0 0" style="fill:#231f20;fill-opacity:1;fill-rule:nonzero;stroke:none" transform="translate(114.834 767.537)"></path></g><g clip-path="url(#b)" transform="matrix(2.04774 0 0 -2.04774 -52.889 1592.981)"><g clip-path="url(#c)"><path d="M34.806 769.537c-1-.212-2.004-.433-3.003-.662q-.442-.103-.586-.318-.149-.218-.148-.605v-7.002q-.001-.387.148-.53.144-.14.586-.039 1.538.354 3.077.679.615.13 1.15.425.535.3.934.717.402.418.629.934.227.517.227 1.099 0 .303-.074.604a1.7 1.7 0 0 1-.235.542 1.5 1.5 0 0 1-.411.416 1.5 1.5 0 0 1-.597.237v.085q.419.313.684.809.263.494.264 1.003-.001.568-.203.934a1.38 1.38 0 0 1-.561.558 2 2 0 0 1-.841.209l-.156.003q-.418 0-.884-.098m-1.875-2.019a178 178 0 0 0 1.729.376q.394.085.625-.073.236-.155.235-.515a1 1 0 0 0-.086-.433 1 1 0 0 0-.221-.299 1.1 1.1 0 0 0-.302-.189 1.5 1.5 0 0 0-.311-.102 214 214 0 0 1-1.669-.364zm0-3.089q.882.196 1.766.384.59.124.89-.116.302-.24.302-.726 0-.168-.056-.375a1.2 1.2 0 0 0-.189-.39 1.4 1.4 0 0 0-.369-.337 1.7 1.7 0 0 0-.578-.224 214 214 0 0 1-1.766-.384z" style="fill:url(#d);stroke:none"></path></g></g><g clip-path="url(#e)" transform="matrix(2.04774 0 0 -2.04774 -52.889 1592.981)"><g clip-path="url(#f)"><path d="M43.734 771.179a3 3 0 0 1-.359-.038l-.743-.121a1.7 1.7 0 0 1-.327-.085.8.8 0 0 1-.248-.143.9.9 0 0 1-.185-.232 1.8 1.8 0 0 1-.143-.356q-1.283-4.018-2.566-8.053a.26.26 0 0 1 .006-.169q.033-.066.166-.041.721.132 1.444.259.173.031.239.095.069.068.107.195.24.812.48 1.622 1.415.242 2.834.46l.482-1.502q.037-.127.129-.145a.8.8 0 0 1 .231.005q.736.11 1.474.214.134.02.161.107a.3.3 0 0 1 0 .159q-1.29 3.617-2.576 7.217-.074.204-.155.327a.5.5 0 0 1-.193.175.5.5 0 0 1-.23.05zm-1.213-3.879.47 1.816.074.012.457-1.666q.237-.734.47-1.469c-.645-.101-1.295-.206-1.939-.316q.231.813.468 1.623" style="fill:url(#g);stroke:none"></path></g></g><g clip-path="url(#h)" transform="matrix(2.04774 0 0 -2.04774 -52.889 1592.981)"><g clip-path="url(#i)"><path d="M50.117 772.076q-.659-.08-1.316-.165a.4.4 0 0 1-.217-.084q-.067-.06-.068-.207v-6.009q.001-.411.097-.798a1.56 1.56 0 0 1 .361-.67q.263-.281.703-.421.44-.138 1.138-.056 1.795.21 3.593.382.238.021.237.276v1.079q0 .168-.049.207-.05.037-.188.024-1.582-.151-3.159-.332c-.248-.028-.451 0-.601.088q-.232.13-.232.591v5.874q0 .158-.056.2-.036.029-.126.029-.05 0-.117-.008" style="fill:url(#j);stroke:none"></path></g></g><g clip-path="url(#k)" transform="matrix(2.04774 0 0 -2.04774 -52.889 1592.981)"><g clip-path="url(#l)"><path d="m57.97 772.834-1.32-.105q-.15-.013-.219-.074-.067-.06-.068-.206v-7.971q.001-.144.068-.194.069-.049.219-.036.66.054 1.32.104.187.014.245.068.055.051.054.209v7.971q.002.159-.054.203-.044.033-.164.033z" style="fill:url(#m);stroke:none"></path></g></g><g clip-path="url(#n)" transform="matrix(2.04774 0 0 -2.04774 -52.889 1592.981)"><g clip-path="url(#o)"><path d="M71.195 773.332q-.415 0-.828-.003-.149 0-.218-.054-.072-.054-.071-.2v-6.664a3 3 0 0 0-.355-.057 6 6 0 0 0-.374-.028q-.183-.009-.332-.015-.151-.011-.235-.01-.6-.009-.983.099a1.3 1.3 0 0 0-.605.344q-.224.237-.312.604a3.6 3.6 0 0 0-.088.864v4.811q0 .156-.056.203c-.035.032-.119.047-.242.043a85 85 0 0 1-1.338-.043.35.35 0 0 1-.213-.061q-.074-.056-.074-.203c.005-1.564.007-3.133.011-4.699q0-1.066.225-1.761.227-.695.714-1.102.485-.41 1.254-.565.766-.159 1.842-.144l.425.011q.263.01.563.023.3.015.599.046.3.033.551.093.523.132.718.436.193.301.193.726v7.05q0 .158-.045.207-.043.05-.23.049z" style="fill:url(#p);stroke:none"></path></g></g><g clip-path="url(#q)" transform="matrix(2.04774 0 0 -2.04774 -52.889 1592.981)"><g clip-path="url(#r)"><path d="M75.109 773.302q-.427 0-.595-.177-.174-.184-.173-.657v-7.39q-.002-.145.066-.2.07-.057.22-.059.657-.013 1.311-.03.176-.005.231.042t.056.204v5.017l.063-.003q.6-.919 1.198-1.844.999-1.5 1.999-3.014a4 4 0 0 1 .197-.281.9.9 0 0 1 .19-.174.6.6 0 0 1 .23-.09q.131-.025.319-.035.263-.013.523-.028.488-.028.649.188.163.213.162.602v7.401q0 .254-.286.272l-1.312.073q-.172.008-.231-.044-.055-.051-.054-.197v-5.065q-.031.001-.064.005l-1.072 1.682a945 945 0 0 1-2.124 3.217 4 4 0 0 1-.2.284.615.615 0 0 1-.419.261 3 3 0 0 1-.317.026q-.263.006-.525.014z" style="fill:url(#s);stroke:none"></path></g></g><g clip-path="url(#t)" transform="matrix(2.04774 0 0 -2.04774 -52.889 1592.981)"><g clip-path="url(#u)"><path d="M84.355 772.788q-.068-.05-.067-.196v-7.971q-.001-.146.067-.205a.37.37 0 0 1 .219-.07q.66-.052 1.321-.107.187-.014.242.028.056.045.056.202v7.971q0 .157-.056.211-.057.053-.242.068-.66.056-1.321.107l-.053.001a.3.3 0 0 1-.166-.039" style="fill:url(#v);stroke:none"></path></g></g><g clip-path="url(#w)" transform="matrix(2.04774 0 0 -2.04774 -52.889 1592.981)"><g clip-path="url(#x)"><path d="M87.987 772.484q-.05-.044-.05-.201v-1.079q0-.241.236-.264 1.102-.106 2.203-.228v-6.651q0-.144.069-.207a.4.4 0 0 1 .216-.078c.442-.048.889-.1 1.331-.154q.186-.02.241.021.057.041.056.199v6.651q1.122-.135 2.248-.286.247-.032.247.21v1.077q.001.158-.049.213-.049.056-.198.074-3.176.427-6.364.734-.03.004-.058.004-.09 0-.128-.035" style="fill:url(#y);stroke:none"></path></g></g><g clip-path="url(#z)" transform="matrix(2.04774 0 0 -2.04774 -52.889 1592.981)"><g clip-path="url(#A)"><path d="M97.561 771.175a1.5 1.5 0 0 1-.699-.397 1.7 1.7 0 0 1-.392-.659 2.7 2.7 0 0 1-.122-.819v-4.021q0-.411.097-.825.1-.415.362-.768.258-.353.697-.613.44-.259 1.134-.369 1.831-.289 3.658-.615.148-.027.197.031t.049.202v1.03q0 .183-.043.244-.043.063-.203.092c-1.087.194-2.172.379-3.264.552q-.393.065-.598.247-.205.184-.205.608v1.38q1.776-.276 3.548-.587.148-.027.192.032.041.06.042.205v.944q0 .171-.042.239-.044.068-.192.094a186 186 0 0 1-3.548.588v.932q.001.316.16.51c.109.126.322.168.643.116a185 185 0 0 0 3.141-.533q.134-.023.182.022.053.046.049.204v1.028a.46.46 0 0 1-.041.239q-.043.068-.19.095-1.774.316-3.547.596a3.3 3.3 0 0 1-.523.045q-.301 0-.542-.069" style="fill:url(#B);stroke:none"></path></g></g><g clip-path="url(#C)" transform="matrix(2.04774 0 0 -2.04774 -52.889 1592.981)"><g clip-path="url(#D)"><path d="M104.565 769.977q-.148-.154-.151-.54v-7.003q0-.388.151-.593.147-.202.59-.289 1.216-.24 2.434-.498 1.08-.229 1.81-.034.726.196 1.17.688.437.49.623 1.223a6.825 6.825 0 0 1-.023 3.235 4.7 4.7 0 0 1-.674 1.494q-.466.677-1.213 1.181c-.501.338-1.108.583-1.829.735q-1.148.24-2.298.468-.16.031-.282.031-.215 0-.308-.098m2.717-7.234-.996.206v5.257q.479-.098.958-.199.648-.134 1.081-.429a2.3 2.3 0 0 0 .68-.693q.25-.402.351-.894a5.4 5.4 0 0 0 .098-1.051q0-.582-.098-1.052a1.8 1.8 0 0 0-.344-.765 1.24 1.24 0 0 0-.668-.406 1.7 1.7 0 0 0-.42-.048q-.287 0-.642.074" style="fill:url(#E);stroke:none"></path></g></g><g clip-path="url(#F)" transform="matrix(2.04774 0 0 -2.04774 -52.889 1592.981)"><g clip-path="url(#G)"><path d="M32.054 756.439c-1.324-.397-2.307-1.55-2.528-2.959-.125-.797-3.002-19.783.396-41.081 2.025-12.676 5.871-23.524 11.434-32.238 6.983-10.938 17.798-19.476 29.87-23.432 12.069 3.956 23.559 12.422 30.444 23.233 5.486 8.615 9.222 19.32 11.097 31.822 3.158 20.988.032 39.667-.103 40.452-.218 1.266-1.053 2.321-2.205 2.791-.606.247-15.073 6.019-39 6.019-23.756 0-38.779-4.421-39.405-4.607" style="fill:url(#H);stroke:none"></path></g></g><g clip-path="url(#I)" transform="matrix(2.04774 0 0 -2.04774 -52.889 1592.981)" data-source="https://football-logos.cc"><g clip-path="url(#J)"><path d="M33.043 752.893s-11.794-75.774 38.545-91.8c0 0-.016-.025 0-.02v.02c50.338 16.026 37.568 90.5 37.568 90.5s-14.172 5.762-37.697 5.762-38.416-4.462-38.416-4.462m38.545-91.828c-.005-.003-.009-.005 0-.008zc.003.003.007.007 0 .008z" style="fill:url(#K);stroke:none"></path></g></g><g clip-path="url(#L)" transform="matrix(2.04774 0 0 -2.04774 -51.323 1594.936)"><path d="M25.797 760.276h10.12V623.76h-10.12zM106.754 760.276h10.123V623.76h-10.123z" style="opacity:1;fill:#4b4c4e;fill-opacity:1;stroke:none;stroke-width:3;stroke-miterlimit:4;stroke-dasharray:none;stroke-opacity:1;paint-order:markers stroke fill"></path><path d="M96.636 760.276h10.118V623.983H96.636Z" style="opacity:1;fill:#8f8f90;fill-opacity:1;stroke:none;stroke-width:3;stroke-miterlimit:4;stroke-dasharray:none;stroke-opacity:1;paint-order:markers stroke fill"></path><path d="M86.514 760.276h10.122V623.76H86.514Z" style="opacity:1;fill:#4b4c4e;fill-opacity:1;stroke:none;stroke-width:3;stroke-miterlimit:4;stroke-dasharray:none;stroke-opacity:1;paint-order:markers stroke fill"></path><path d="M76.396 760.276h10.118V623.983H76.396Z" style="opacity:1;fill:#8f8f90;fill-opacity:1;stroke:none;stroke-width:3;stroke-miterlimit:4;stroke-dasharray:none;stroke-opacity:1;paint-order:markers stroke fill"></path><path d="M66.277 760.276h10.118V623.76H66.277Z" style="opacity:1;fill:#4b4c4e;fill-opacity:1;stroke:none;stroke-width:3;stroke-miterlimit:4;stroke-dasharray:none;stroke-opacity:1;paint-order:markers stroke fill"></path><path d="M56.156 760.276h10.122V623.76H56.156Z" style="opacity:1;fill:#8f8f90;fill-opacity:1;stroke:none;stroke-width:3;stroke-miterlimit:4;stroke-dasharray:none;stroke-opacity:1;paint-order:markers stroke fill"></path><path d="M46.037 760.276h10.119V623.76H46.037Z" style="opacity:1;fill:#4b4c4e;fill-opacity:1;stroke:none;stroke-width:3;stroke-miterlimit:4;stroke-dasharray:none;stroke-opacity:1;paint-order:markers stroke fill"></path><path d="M35.916 760.276h10.12V623.983h-10.12z" style="opacity:1;fill:#8f8f90;fill-opacity:1;stroke:none;stroke-width:3;stroke-miterlimit:4;stroke-dasharray:none;stroke-opacity:1;paint-order:markers stroke fill"></path><g clip-path="url(#M)"><g clip-path="url(#N)" style="opacity:.800003"><path d="M25.978 760.276h90.899V747.92H25.978Z" style="opacity:1;fill:#2b282a;fill-opacity:1;stroke:none;stroke-width:3;stroke-miterlimit:4;stroke-dasharray:none;stroke-opacity:1;paint-order:markers stroke fill"></path></g></g><g clip-path="url(#O)"><g clip-path="url(#P)" style="opacity:.800003"><path d="M25.978 735.366h90.899v-12.357H25.978Z" style="fill:#231f20;fill-opacity:1;fill-rule:nonzero;stroke:none"></path></g></g><g clip-path="url(#Q)"><g clip-path="url(#R)" style="opacity:.800003"><path d="M25.978 710.652h90.899v-12.355H25.978Z" style="fill:#231f20;fill-opacity:1;fill-rule:nonzero;stroke:none"></path></g></g><g clip-path="url(#S)"><g clip-path="url(#T)" style="opacity:.800003"><path d="M25.978 685.741h90.899v-12.357H25.978Z" style="opacity:1;fill:#2b282a;fill-opacity:1;stroke:none;stroke-width:3;stroke-miterlimit:4;stroke-dasharray:none;stroke-opacity:1;paint-order:markers stroke fill"></path></g></g><g clip-path="url(#U)"><g clip-path="url(#V)" style="opacity:.800003"><path d="M25.978 661.03h90.899v-12.358H25.978Z" style="fill:#231f20;fill-opacity:1;fill-rule:nonzero;stroke:none"></path></g></g></g><path d="M455.881 494.478c-1.045 7.62-6.117 49.62 1.14 94.99 4.674 29.209 13.47 54.077 26.139 73.914 15.643 24.486 37.299 41.346 64.38 50.11 27.08-8.762 48.61-25.46 64.008-49.615 12.474-19.57 20.996-44.07 25.322-72.813 6.769-44.912 1.06-86.408-.032-93.548-2.713-1.002-10.704-3.775-23.084-6.522-14.22-3.154-37.306-6.913-66.524-6.913-50.377 0-84.635 8.571-91.349 10.397m91.645 223.08c-.22 0-.434-.031-.643-.106a1.8 1.8 0 0 1-.49-.25c-28.041-9.048-50.459-26.48-66.625-51.805-12.957-20.303-21.93-45.675-26.677-75.42-8.062-50.498-1.036-96.845-.965-97.305a1.96 1.96 0 0 1 1.382-1.562c.363-.111 37.037-10.905 93.722-10.905 29.647 0 53.083 3.828 67.523 7.036 15.709 3.491 24.274 6.941 24.63 7.089.634.255 1.08.81 1.196 1.467.075.453 7.708 46.017.238 95.742-4.406 29.29-13.11 54.312-25.87 74.34-15.931 25.017-38.232 42.29-66.296 51.34-.335.223-.73.34-1.125.34" style="fill:#231f20;fill-opacity:1;fill-rule:nonzero;stroke:none;stroke-width:2.42452" transform="matrix(.8446 0 0 .8446 -368.703 -364.427)"></path><path d="M0 0c0-5.224-4.341-9.461-9.691-9.461-5.352 0-9.691 4.237-9.691 9.461 0 5.228 4.339 9.464 9.691 9.464C-4.341 9.464 0 5.228 0 0" style="fill:#231f20;fill-opacity:1;fill-rule:nonzero;stroke:none" transform="matrix(2.04774 0 0 -2.04774 113.522 224.558)"></path><path d="M0 0c0-5.224-4.341-9.461-9.691-9.461-5.352 0-9.691 4.237-9.691 9.461 0 5.228 4.339 9.464 9.691 9.464C-4.341 9.464 0 5.228 0 0Z" style="fill:none;stroke:#231f20;stroke-width:.561;stroke-linecap:butt;stroke-linejoin:miter;stroke-miterlimit:10;stroke-dasharray:none;stroke-opacity:1" transform="matrix(2.04774 0 0 -2.04774 113.522 224.558)"></path><g clip-path="url(#W)" transform="matrix(2.04774 0 0 -2.04774 -52.889 1592.981)"><g clip-path="url(#X)"><path d="M62.471 668.26c0-4.909 4.076-8.89 9.103-8.89s9.105 3.981 9.105 8.89-4.077 8.892-9.105 8.892c-5.027 0-9.103-3.982-9.103-8.892" style="fill:url(#Y);stroke:none"></path></g></g><g clip-path="url(#Z)" transform="matrix(2.04774 0 0 -2.04774 -52.889 1592.981)"><g clip-path="url(#aa)"><path d="M64.001 668.261c0-4.084 3.389-7.397 7.575-7.397 4.182 0 7.574 3.313 7.574 7.397s-3.392 7.397-7.574 7.397c-4.186 0-7.575-3.313-7.575-7.397" style="fill:url(#ab);stroke:none"></path></g></g><g clip-path="url(#ac)" transform="matrix(2.04774 0 0 -2.04774 -52.889 1592.981)"><path d="m0 0-.988 1.349L.14 4.632l1.678.521 1.998-1.468C3.656 1.563 2.332-.021 2.332-.021Zm-1.244-2.376s-2.076-.771-4.647.233l-.413 2.064 1.323 1.138 3.52-.019.927-1.29zM-9.19.634s-.969 1.274-1.027 3.553l2.095 1.139 1.601-.657 1.105-3.26L-6.601.347zm3.557 10.057 2.155-1.621.04-1.835-2.904-2.044-1.623.676-.573 2.856s1.046 1.292 2.905 1.968m2.786-1.679 2.335 1.583c2.036-.675 3.141-2.509 3.141-2.509l-.87-2.355-1.817-.559-2.826 2.006Zm-.295 2.605c-4.182 0-7.574-3.312-7.574-7.398 0-4.084 3.392-7.396 7.574-7.396 4.184 0 7.574 3.312 7.574 7.396 0 4.086-3.39 7.398-7.574 7.398" style="fill:#231f20;fill-opacity:1;fill-rule:nonzero;stroke:none" transform="translate(74.717 664.04)"></path><path d="M0 0c1.036.149 2.775-.053 3.863-.377 3.434-1.026 5.525-3.475 8.082-5.858 0 0 4.988-5.985 14.538-7.237 0 0 5.557-.696 9.618-.696v-5.22h-3.063s-1.71.141-1.71-3.06v-31.663c0-1.809.391-3.966 4.455-7.619 0 0-4.526-.384-6.095-1.775-1.567-1.391-8.837-7.793-14.607-7.654 0 0-4.917-.139-6.698-1.531s-9.053-5.498-15.75-.905-7.156 7.863-13.996 7.863c0 0 2.137.975 2.137 7.863v41.403s-.271 4.221-2.266 4.778c4.245 1.131 7.387 2.848 9.91 4.901C-6.177-2.388-2.636-.38 0 0" style="fill:#231f20;fill-opacity:1;fill-rule:nonzero;stroke:none" transform="translate(66.11 754.904)"></path></g><g clip-path="url(#ad)" transform="matrix(2.04774 0 0 -2.04774 -52.889 1592.981)"><g clip-path="url(#ae)"><path d="M56.994 747.703a54 54 0 0 0-1.408-1.226c-2.991-2.483-6.99-3.981-7.018-3.997a.38.38 0 0 1-.207-.328.38.38 0 0 1 .205-.332c.383-.215.766-1.781.879-3.078v-41.288c0-1.919-.901-5.523-.915-5.54a.36.36 0 0 1-.038-.405.43.43 0 0 1 .382-.214c1.126 0 4.798-1.773 6.253-3.067 2.954-2.629 6.199-5.955 10.514-6.611 3.171-.488 6.216.813 8.486 2.72.103.083.152.21.134.334a.38.38 0 0 1-.225.291l-2.02.96a.47.47 0 0 1-.475-.046c-1.405-1.072-2.901-1.665-4.753-1.406-3.247.456-5.17 2.903-6.971 5.216-2.281 2.934-1.793 7.377-1.794 8.151v17.268c1.935-2.893 3.147-3.079 3.793-3.079.186 0 .29.016.29.016.209.027.371.19.371.383v.908c0 .196-.162.362-.376.385-3.638.398-4.037 4.025-4.049 4.061-.007.018-.02.033-.029.051v2.361c.23.496.983 3.759 3.689 3.759.227 0 .414.158.429.362l.096 1.341a.37.37 0 0 1-.157.325.46.46 0 0 1-.385.074c-.141-.037-2.123-.77-3.672-2.393v17.63c0 .022.018 2.17 1.097 4.278 1.418 2.768 3.93 4.172 7.467 4.172 3.539 0 6.062-1.404 7.499-4.174 1.095-2.107 1.129-4.258 1.129-4.276v-17.926c0-.153.098-.291.252-.353 1.072-.436 1.418-1.76 1.421-1.769a.42.42 0 0 1 .383-.274.44.44 0 0 1 .419.229c1.874 3.864 7.218 3.857 7.826 3.854h.057a.42.42 0 0 1 .346.282.36.36 0 0 1-.144.399c-1.172.87-2.33 2-2.33 3.132v9.864c0 1.21.662 2.566.917 3.075a.35.35 0 0 1-.009.337.42.42 0 0 1-.298.204c-1.3.227-3.511 2.084-5.084 3.354-.674.544-1.31 1.058-1.919 1.492a21 21 0 0 0-1.248 1.002c-1.881 1.585-4.457 4.533-9.154 4.533-4.886 0-7.203-2.838-9.656-5.021" style="fill:url(#af);stroke:none"></path></g></g><g clip-path="url(#ag)" transform="matrix(2.04774 0 0 -2.04774 -52.889 1592.981)"><g clip-path="url(#ah)"><path d="M71.409 725.025a.38.38 0 0 1-.23-.344v-1.212a.37.37 0 0 1 .195-.325c4.28-2.51 4.156-6.304 4.159-6.325V692.43c0-1.76-.637-2.849-.649-2.865a.35.35 0 0 1-.021-.397.43.43 0 0 1 .375-.204c.875 0 2.092-.693 2.487-.963a.46.46 0 0 1 .256-.074.3.3 0 0 1 .093.01.4.4 0 0 1 .286.196c1.132 1.944 6.31 3.699 6.36 3.719.122.056.21.163.232.29a.37.37 0 0 1-.127.338c-1.149.989-.966 2.147-.958 2.194q.006.032.005.064v13.949c0 2.084 2.486 3.829 2.511 3.847.147.102.204.276.147.432a.43.43 0 0 1-.406.264c-4.45 0-7.232 2.721-9.28 6.252-2.003 3.45-4.848 5.425-4.993 5.518a.47.47 0 0 1-.244.07.5.5 0 0 1-.198-.045" style="fill:url(#ai);stroke:none"></path></g></g><g clip-path="url(#aj)" transform="matrix(2.04774 0 0 -2.04774 -52.889 1592.981)"><g clip-path="url(#ak)"><path d="M73.955 717.776c-.192-.312-1.249-1.546-2.993-2.749a.38.38 0 0 1-.166-.309v-1.3a.38.38 0 0 1 .163-.306.46.46 0 0 1 .264-.083q.052.002.105.013c.807.185 2.521 2.11 3.294 2.753a.37.37 0 0 1 .137.283v1.517c0 .174-.133.326-.322.373a1 1 0 0 1-.108.011.44.44 0 0 1-.374-.203" style="fill:url(#al);stroke:none"></path></g></g><g clip-path="url(#am)" transform="matrix(2.04774 0 0 -2.04774 -52.889 1592.981)"><g clip-path="url(#an)"><path d="m60.709 738.242-.139-.126.128-.136c.022-.022 2.245-2.399 2.245-4.725v-27.37c0-6.319 3.891-20.171 15.452-20.171 7.327 0 11.035 3.019 14.017 5.451 1.884 1.533 4.225 2.745 6.095 2.745h.903l-.809.368c-.029.015-3.197 1.484-3.197 4.042v36.263c0 .117.045 2.868 3.741 2.868h1.956v1.663l-.221-.006c-.003 0-.487-.015-1.302-.015-3.12 0-8.291.217-12.669 2.246l-.453.211.153-.44c.012-.037 1.263-3.697 1.263-6.12v-38.165c-.003-.099-.419-9.92-9.283-9.92-.022 0-2.193.043-4.348 1.327-2.858 1.702-4.366 4.809-4.366 8.993v36.666c0 .027.03 2.731 2.121 3.816l.222.117-.164.177c-.055.058-5.264 6.021-5.703 10.327 0 0-1.093-5.967-5.642-10.086" style="fill:url(#ao);stroke:none"></path></g></g><g clip-path="url(#ap)" transform="matrix(2.04774 0 0 -2.04774 -52.889 1592.981)" data-source="https://football-logos.cc"><path d="M0 0c0-7.874 3.705-11.912 5.058-12.844 1.641-1.129.11.612.11.612C1.887-9.39 2.352-5.228 2.352-5.228v38.659c0 2.195 1.888 2.945 1.888 2.945C1.219 39.328 0 42.661 0 42.661Z" style="fill:#8f1d24;fill-opacity:1;fill-rule:nonzero;stroke:none" transform="translate(67.027 701.752)"></path><g clip-path="url(#aq)"><g clip-path="url(#ar)" style="opacity:.399994"><path d="M0 0s.597-2.13.597-4.163v-37.949s.099-1.381-.628-3.704c0 0 1.619 1.258 1.619 5.155v37.03C1.588-2.033.992-.484 0 0" style="fill:#fff;fill-opacity:1;fill-rule:nonzero;stroke:none" transform="translate(88.615 739.12)"></path></g></g><g clip-path="url(#as)"><g clip-path="url(#at)" style="opacity:.399994"><path d="M0 0s-1.496-3.743-3.065-3.743c0 0 1.783-1.225 1.783-3.033v-22.848S0-33.367 0-37.885z" style="fill:#fff;fill-opacity:1;fill-rule:nonzero;stroke:none" transform="translate(65.512 741.701)"></path></g></g><g clip-path="url(#au)"><g clip-path="url(#av)" style="opacity:.800003"><path d="M0 0s-2.177-1.565-3.077-1.878c0 0 .3-1.357.3-3.34v-39.247c0-2.923-.376-5.114-.75-5.428 0 0 1.8-.626 2.402-1.777v45.722S-1.351-3.861 0 0" style="fill:#fff;fill-opacity:1;fill-rule:nonzero;stroke:none" transform="translate(54.11 743.38)"></path></g></g><path d="M0 0s.641-1.356 1.497-1.879v-12.003s.534-1.462 1.496-2.297c0 0-1.336.261-2.566-.939v13.465z" style="fill:#fff;fill-opacity:1;fill-rule:nonzero;stroke:none" transform="translate(80.727 742.337)"></path><path d="M0 0s.641-1.358 1.497-1.879v-12.004s.534-1.461 1.496-2.296c0 0-1.336.259-2.566-.941v13.466z" style="fill:#fff;fill-opacity:1;fill-rule:nonzero;stroke:none" transform="translate(80.727 708.727)"></path></g><!-- source: https://football-logos.cc --></svg>