<svg xmlns="http://www.w3.org/2000/svg" xml:space="preserve" id="svg161" style="clip-rule:evenodd;fill-rule:evenodd;image-rendering:optimizeQuality;shape-rendering:geometricPrecision;text-rendering:geometricPrecision" version="1.1" viewBox="1 1 230.74 298"><!-- Source: https://football-logos.cc --><defs id="defs4" data-source="https://football-logos.cc"><style id="style2" type="text/css">.fil9{fill:#000}.fil5{fill:#717171}.fil0{fill:#8f1c21}.fil7{fill:#a0a0a0}.fil2{fill:#b11e24}.fil8{fill:#b6b6b6}.fil10{fill:#ddd}.fil1{fill:#e96612}.fil4,.fil6{fill:#fff}</style></defs><g id="g4023" transform="matrix(.10643 0 0 .10643 -43.274 -9.643)" data-source="https://football-logos.cc"><g id="_1694188155312"><path id="path7" d="M1500 2900c277-129 586-326 760-492 223-214 324-385 324-624V100H416v1684c0 239 101 410 324 624 174 166 483 363 760 492" class="fil0" style="fill:#8f1c21"></path><path id="path9" d="M1500 2837c82-39 162-82 241-128 92-53 181-110 268-171 73-53 146-110 211-172 115-110 231-238 280-393 19-62 27-125 27-189V157H473v1627c0 64 8 127 27 189 49 155 165 283 280 393 65 62 138 119 211 172 87 61 176 118 268 171 79 46 159 89 241 128" class="fil1" style="fill:#e96612"></path><path id="path11" d="M1500 2808c78-37 153-78 228-121 91-53 180-110 266-171 72-52 144-107 208-169 112-106 226-232 273-382 18-59 26-119 26-181V183H499v1601c0 62 8 122 26 181 47 150 161 276 273 382 64 62 136 117 208 169 86 61 175 118 266 171 75 43 150 84 228 121" class="fil0" style="fill:#8f1c21"></path><path id="path13" d="M2074 2045c-37-8-77-32-92-94-77-14-140 29-191 41-7 10-22 21-27 34 37-13 54 36 11 47-47 12-63-72-75-171-18-4-35-8-53-12 11 66 15 132 55 194-67-33-135-66-202-98-67 32-135 65-202 98 40-62 44-128 55-194-18 4-35 8-53 12-12 99-28 183-75 171-43-11-26-60 11-47-5-13-20-24-27-34-51-12-114-55-191-41-15 62-55 86-92 94-70 14-112-51-85-137 1-5-11-3-17-4-39 84-7 152 52 173 48 17 106-10 152-45 0 53-41 83-126 87-105-34-147-103-105-220-40-67-81-135-122-202 2 102-27 147-97 115 1 33 6 66 13 98 89-20 137 75 64 151 14 22 29 44 44 65 7-30 18-55 33-71 24 33 56 59 95 81-23 17-45 39-66 63 11 12 22 23 32 34 23-29 49-54 77-77 39 17 82 30 129 41-52 17-99 38-145 59 4-30-3-47-28-40l-21 29c15 16 31 31 47 46q16.5 16.5 36 33c42-18 117-29 192-14-23 9-42 36-44 63-3 25 6 55 19 82 82 59 168 113 256 164 13 7 26 15 38 22 35 18 69 37 105 56-24-52-22-78-9-92 29 7 39 26 24 57 17-9 28-21 31-34 3 13 14 25 31 34-15-31-5-50 24-57 13 14 15 40-9 92 36-19 70-38 105-56 12-7 25-15 38-22 88-51 174-105 256-164 13-27 22-57 19-82-2-27-21-54-44-63 75-15 150-4 192 14q19.5-16.5 36-33c16-15 32-30 47-46l-21-29c-25-7-32 10-28 40-46-21-93-42-145-59 47-11 90-24 129-41 28 23 54 48 77 77 10-11 21-22 32-34-21-24-43-46-66-63 39-22 71-48 95-81 15 16 26 41 33 71 15-21 30-43 44-65-73-76-25-171 64-151 7-32 12-65 13-98-70 32-99-13-97-115-41 67-82 135-122 202 42 117 0 186-105 220-85-4-126-34-126-87 46 35 104 62 152 45 59-21 91-89 52-173-6 1-18-1-17 4 27 86-15 151-85 137m287-11c4-7 7-14 11-22-10-12-16-29-11-49 4-17 18-24 40-22 2-7 3-14 5-20-33-2-58 4-66 37-6 30 3 54 21 76m62-242v-20c-46 27-71 4-65-92 6-68 32-91 65-98v-19c-47 9-80 42-83 117-4 105 24 143 83 112m0-62v-22c-23 15-31 6-19-35-3-30 6-42 19-47v-22c-24 4-44 15-45 74-1 50 5 81 25 66zM577 1563v19c33 7 59 30 65 98 6 96-19 119-65 92v20c59 31 87-7 83-112-3-75-36-108-83-117m0 41v22c13 5 22 17 19 47 12 41 4 50-19 35v22l20 14c20 15 26-16 25-66-1-59-21-70-45-74m17 317c2 6 3 13 5 20 22-2 36 5 40 22 5 20-1 37-11 49 4 8 7 15 11 22 18-22 27-46 21-76-8-33-33-39-66-37m906 150c25 24 49 49 74 73 83 81 24 134 7 115-15-17 6-38 17-16 13-61-98-51-98 21 0 59-1 106-22 147-18 39-32 74-23 109 20-5 30-19 29-41 16 15 29 47-18 66 12 3 13 3 25 6l-21 16c17 13 27 27 30 41 3-14 13-28 30-41l-21-16c12-3 13-3 25-6-47-19-34-51-18-66-1 22 9 36 29 41 9-35-5-70-23-109-21-41-22-88-22-147 0-72-111-82-98-21 11-22 32-1 17 16-17 19-76-34 7-115 25-24 49-49 74-73m-509-158c-17 85-70 116-108 102-33-13-34-67-4-126 10 1 19 2 29 3-14 34-35 82-9 91 24 9 75-73 66-82 5 4 26 12 26 12m100 103c-28 57-68 99-126 121 27 6 54 12 81 17l63 12c42-12 84-27 127-51-62 7-89-61-56-101-15-5-30-9-44 7 39 44 15 129-37 133-60 4-51-85-6-65-42 8-17 35 5 29 36-11 32-71-7-102m211 367c-21-58-36-117-227-168-44 12-86 24-117 44 194-3 265 63 344 124m-60 14c-31-34-69-57-107-72 18 23 5 56-19 64 10-19 7-41-18-39-12 1-35 17-31 43 5 33 24 56 58 70 32 13 72 3 134 14-18-42-48-75-87-101 26 11 49 18 70 21m-6-225q-24 9-48 15c123 39 213 103 236 219 30-65 46-120 30-159-6 69-111 50-106-35 2-42 26-74 54-111-56 24-109 51-166 71m773-259c17 85 70 116 108 102 33-13 34-67 4-126-10 1-19 2-29 3 14 34 35 82 9 91-24 9-75-73-66-82-5 4-26 12-26 12m-100 103c28 57 68 99 126 121-27 6-54 12-81 17l-63 12c-42-12-84-27-127-51 62 7 89-61 56-101 15-5 30-9 44 7-39 44-15 129 37 133 60 4 51-85 6-65 42 8 17 35-5 29-36-11-32-71 7-102m-211 367c21-58 36-117 227-168 44 12 86 24 117 44-194-3-265 63-344 124m60 14c31-34 69-57 107-72-18 23-5 56 19 64-10-19-7-41 18-39 12 1 35 17 31 43-5 33-24 56-58 70-32 13-72 3-134 14 18-42 48-75 87-101-26 11-49 18-70 21m6-225q24 9 48 15c-123 39-213 103-236 219-30-65-46-120-30-159 6 69 111 50 106-35-2-42-26-74-54-111 56 24 109 51 166 71" class="fil2" style="fill:#b11e24"></path><g id="g43"><g id="g27"><path id="path15" d="M1612 1024c-17-45-35-90-53-135h-59c26 106 31 160 0 289 74-41 148-83 222-124 59-88 119-132 179-148 64-16 168-10 195 37 31 54-4 109-47 85-37-22-8-56 17-47-15-35-53-20-59 9-6 25 1 63 41 76 47 14 99-25 109-87 38 79 71 151 109 230l107-236c13 36 29 64 50 82V889h-632c-35 34-71 68-106 102l21-102h-58z" class="fil2" style="fill:#b11e24"></path><path id="path17" d="M2250 1222c-32-107-84-176-192-134 9 23 19 45 29 67 48-35 104-1 163 67" class="fil2" style="fill:#b11e24"></path><path id="path19" d="M1913 1211c29-50 52-113 67-185 11-56-23-120-83-108-44 9-68 59-29 82 8 4 35 1 40-25-25 17-48 1-27-21 8-9 45-23 54 18 11 53-70 225-90 235 15 0 68 4 68 4" class="fil2" style="fill:#b11e24"></path><path id="path21" d="M2311 1184c0 62 50 113 112 114v-34c-43-1-78-37-78-80s35-78 78-80v-34c-62 1-112 52-112 114" class="fil2" style="fill:#b11e24"></path><path id="path23" d="M2361 1184c0 34 28 62 62 63v-126c-34 1-62 29-62 63" class="fil2" style="fill:#b11e24"></path><path id="path25" d="M2423 1311c-49-2-79 16-102 40 39 38 72 79 102 123v-64c-11-22-25-42-44-59 12-8 27-12 44-14z" class="fil2" style="fill:#b11e24"></path></g><g id="g41"><path id="path29" d="M1388 1024c17-45 35-90 53-135h59c-26 106-31 160 0 289-74-41-148-83-222-124-59-88-119-132-179-148-64-16-168-10-195 37-31 54 4 109 47 85 37-22 8-56-17-47 15-35 53-20 59 9 6 25-1 63-41 76-47 14-99-25-109-87-38 79-71 151-109 230L627 973c-13 36-29 64-50 82V889h632c35 34 71 68 106 102l-21-102h58z" class="fil2" style="fill:#b11e24"></path><path id="path31" d="M750 1222c32-107 84-176 192-134-9 23-19 45-29 67-48-35-104-1-163 67" class="fil2" style="fill:#b11e24"></path><path id="path33" d="M1087 1211c-29-50-52-113-67-185-11-56 23-120 83-108 44 9 68 59 29 82-8 4-35 1-40-25 25 17 48 1 27-21-8-9-45-23-54 18-11 53 70 225 90 235-15 0-68 4-68 4" class="fil2" style="fill:#b11e24"></path><path id="path35" d="M689 1184c0 62-50 113-112 114v-34c43-1 78-37 78-80s-35-78-78-80v-34c62 1 112 52 112 114" class="fil2" style="fill:#b11e24"></path><path id="path37" d="M639 1184c0 34-28 62-62 63v-126c34 1 62 29 62 63" class="fil2" style="fill:#b11e24"></path><path id="path39" d="M577 1311c49-2 79 16 102 40-39 38-72 79-102 123v-64c11-22 25-42 44-59-12-8-27-12-44-14z" class="fil2" style="fill:#b11e24"></path></g></g><g id="g83"><g id="g49"><path id="path45" d="M2340 1329c65 76 112 163 96 266-9 53-33 109-79 136-1 56-19 110-59 152-72 73-211 89-308 96-168 11-354 44-471 177l-112 128c-47 53-96 108-149 155-37 32-75 59-122 76-18 6-36 11-55 15-72 14-169 4-208-68-31-57-17-130 4-188 0-2 1-4 2-5-10 6-20 13-30 19-100-96-207-211-249-346-16-51-23-104-23-158v-739c61-21 126-33 190-32 68 0 137 18 204 25 37 3 75 8 112 9 14 1 28 2 42-1l27-9c176-64 386-94 571-79 134 11 264 45 382 109 101 55 202 148 235 262" style="fill:#500b0e"></path><path id="path47" d="M577 1100c59-24 124-37 190-36 56 0 135 18 199 24 146 15 153 15 204-3 138-50 344-92 549-76 156 13 274 55 362 103 112 61 192 152 212 241 84 94 103 167 92 234-9 60-38 103-80 110 5 50-3 108-44 150-40 41-118 70-274 81-232 15-397 69-507 194l-112 128c-145 166-202 211-297 230-57 11-129 3-153-42-17-32-17-81 7-147 11-32 26-62 38-94 5-15 0-31-26-20-42 19-83 46-125 75 10 10 20 20 31 30 17-11 35-23 52-34-3 9-7 19-11 29-19 56-33 126-4 181 37 68 131 77 199 64q28.5-6 54-15c46-16 84-43 120-75 52-46 101-101 147-154l112-127c119-136 307-169 478-181 94-6 231-22 302-93 40-41 56-95 57-151 46-25 70-80 78-132 16-101-31-187-95-261-31-113-132-205-231-259-117-64-246-97-378-107-185-15-393 15-568 78-9 3-19 7-28 9-15 3-30 2-44 2-38-2-75-6-112-10-67-7-137-24-204-25-64-1-129 11-190 33z" class="fil4" style="fill:#fff"></path></g><path id="path51" d="M921 1898c-96 60-170 129-241 201 22 32 47 62 73 91 46-43 94-83 156-106 26-10 44-29 47-59 3-37 6-67 6-102 0-26-20-39-41-25" class="fil5" style="fill:#717171"></path><g id="g57"><path id="path53" d="M932 1198c-50-71-247-47-355 0v400c138-237 344-403 355-400" class="fil5" style="fill:#717171"></path><path id="path55" d="M577 1198c105-35 302-60 355 0 11 4 19-4 38-24 4-4-10-20-27-25-103-32-249-11-366 21z" class="fil6" style="fill:#fff"></path></g><path id="path59" d="M1374 2026c23-85 38-166 78-251-56 27-83 42-96 124-16 96-41 155-94 262-40 81-76 150-143 232-18 22-5 22 4 17 28-14 53-37 78-58 73-63 132-175 173-326" class="fil7" style="fill:#a0a0a0"></path><path id="path61" d="M1692 1463c16 7 32 1 44-7-7-2-13-5-19-8-14 10-28 2-29-18-5-4-10-8-15-13 1 20 2 38 19 46" class="fil6" style="fill:#fff"></path><g id="g67"><path id="path63" d="M2203 1639c-101-48-208-67-324-27-17 6-12 48 20 40 51-12 100-22 147-27 70-8 137 18 208 42-43-37-100-81-158-105-123-51-174-11-199 9 92-8 190 4 306 68" class="fil8" style="fill:#b6b6b6"></path><path id="path65" d="M1897 1571c92-8 190 4 306 68l51 28c-43-37-100-81-158-105-123-51-174-11-199 9" class="fil6" style="fill:#fff"></path></g><path id="path69" d="M984 1651c8 60 22 114 46 161 28 56 43 114 45 175 6 138-70 286-84 345-11 51 44 85 89 42 83-78 152-221 206-380 6-19 25-107 30-126 13-49 27-84 69-119-40-5-69-3-121 13 42-81 317-104 409-31-185 37-201 168-227 298 89-88 199-142 372-169 90-15 167-14 253-26 116-16 157-45 166-71 15-40-8-63-47-77-69-23-121-29-158-24-42 8-84 17-126 24-88 16-105-84-29-144-27 5-52 19-77 37 48-79 131-84 219-77 89 7 169 72 239 123 37 27 67-26 67-59-1-77-34-104-96-182-20-103-102-178-187-219-214-104-552-130-842-26-252 90-455 269-623 514v131c0 54 7 107 23 158 2 8 5 16 8 23 113-137 324-301 376-314m697-175c-33-14-67-17-102-5 12-11 37-19 51-30 15-10 26-22 29-36-23-27-54-44-102-39 32-18 65-24 107 19 72 74 101 67 131 65-35 23-71 44-114 26" class="fil7" style="fill:#a0a0a0"></path><path id="path71" d="M1579 1471c28-1 54 2 74 11 37 17 71 5 96-6-21 8-43 11-68 0-33-14-67-17-102-5" class="fil5" style="fill:#717171"></path><path id="path73" d="M582 1856c430-528 896-649 1242-539 171 54 261 114 405 67-20-103-102-178-187-219-214-104-552-130-842-26-252 90-455 269-623 514v131c0 24 2 48 5 72" class="fil8" style="fill:#b6b6b6"></path><path id="path75" d="M1135 1223c354-145 650-120 844-85-214-81-516-94-779 1-252 90-455 269-623 514v31c189-253 387-391 558-461" class="fil4" style="fill:#fff"></path><path id="path77" d="M1739 1819c-113-15-179 9-247 42-24 50-34 109-46 168 89-88 199-142 372-169 90-15 167-14 253-26 38-5 68-12 91-19-139 19-323 17-423 4" class="fil5" style="fill:#717171"></path><path id="path79" d="M2304 1620c-195-156-338-172-446-97 45-25 102-26 161-21 89 7 169 72 239 123 18 13 34 7 46-5" class="fil5" style="fill:#717171"></path><path id="path81" d="M1877 1687c31 14 89 14 178 0 51-8 79 6 104 18 25 13 49 10 71 5-9-10-23-18-40-24-69-23-121-29-158-24-42 8-84 17-126 24-11 2-20 2-29 1" class="fil5" style="fill:#717171"></path></g><g id="g135"><g id="g91"><path id="path85" d="M2244 520V387h58v133h-29zm29-258h-93l-56 56v271l56 57h186l57-57V318l-57-56z" class="fil9" style="fill:#000"></path><path id="path87" d="M2237 528V379h73v149h-37zm178 58V321l-52-52h-179l-52 52v265l52 52h179z" class="fil4" style="fill:#fff"></path><path id="polygon89" d="M2190 622h166l43-42V454h-73v90h-105v-90h-73v126z" class="fil10" style="fill:#ddd"></path></g><g id="g99"><path id="path93" d="M1007 520V387h58v133h-29zm29-258h-93l-56 56v271l56 57h186l56-57V318l-56-56z" class="fil9" style="fill:#000"></path><path id="path95" d="M999 528V379h74v149h-37zm178 58V321l-51-52H946l-51 52v265l51 52h180z" class="fil4" style="fill:#fff"></path><path id="polygon97" d="M953 622h166l43-42V454h-74v90H984v-90h-74v126z" class="fil10" style="fill:#ddd"></path></g><g id="g109"><path id="path101" d="M698 512v8h58v-8zM577 646V262h243l56 56v116l-20 20 20 19v116l-56 57zm121-251v-8h58v8z" class="fil9" style="fill:#000"></path><g id="g107"><path id="path103" d="M690 403v-24h73v24zm0 102v23h73v-23zm155-51 23 23v109l-52 52H585V269h231l52 52v110z" class="fil4" style="fill:#fff"></path><path id="path105" d="M779 544H674v-55h105zm44-90H601v168h209l42-42v-97z" class="fil10" style="fill:#ddd"></path></g></g><g id="g117"><path id="path111" d="M1196 646V262h242l57 56v169l-20 20 20 20v119h-121v-74h-58v74zm120-200v-59h58v59z" class="fil9" style="fill:#000"></path><path id="path113" d="M1309 454v-75h73v75zm155 53 23 23v108h-105v-74h-73v74h-105V269h231l52 52v163z" class="fil4" style="fill:#fff"></path><path id="polygon115" d="M1293 622v-74h105v74h73v-86l-29-29 29-30v-23h-73v15h-105v-15h-73v168z" class="fil10" style="fill:#ddd"></path></g><g id="g125"><path id="polygon119" d="M1804 646h-120l-58-145v145h-121V262h121l58 144V262h120z" class="fil9" style="fill:#000"></path><path id="polygon121" d="M1796 638V269h-105v178l-71-178h-107v369h105V461l71 177z" class="fil4" style="fill:#fff"></path><path id="path123" d="M1529 454v168h73V454Zm103 0 68 168h80V454h-73v74l-30-74z" class="fil10" style="fill:#ddd"></path></g><g id="g133"><path id="polygon127" d="M1815 262v384h298V520h-178v-4h125l33-124h-158v-5h178V262z" class="fil9" style="fill:#000"></path><path id="polygon129" d="M1823 269v369h282V528h-178v-20h127l29-108h-156v-21h178V269z" class="fil4" style="fill:#fff"></path><path id="polygon131" d="M1912 492h130l10-38h-214v168h252v-78h-178z" class="fil10" style="fill:#ddd"></path></g></g><g id="g155"><path id="polygon137" d="M1342 696h-32l-42 80-42-80h-32v119h32v-50l26 50h31l27-50v50h32z" class="fil1" style="fill:#e96612"></path><path id="path139" d="m1100 695-60 120h36l11-22h53l12 23 36-1-61-120zm3 66 11-21 10 21z" class="fil1" style="fill:#e96612"></path><path id="path141" d="m1407 695-60 120h36l11-22h54l11 23 36-1-60-120zm3 66 11-21 11 21z" class="fil1" style="fill:#e96612"></path><path id="path143" d="m1994 695-60 120h36l11-22h53l12 23 35-1-60-120zm3 66 11-21 10 21z" class="fil1" style="fill:#e96612"></path><path id="polygon145" d="M1663 815V696h-32v119z" class="fil1" style="fill:#e96612"></path><path id="polygon147" d="M1716 696h-36v119h32v-73l56 73h36V696h-31v73z" class="fil1" style="fill:#e96612"></path><path id="path149" d="M1854 783v-55h30c16 0 28 12 28 27 0 16-12 28-28 28zm-32-87v119h62c33 0 60-26 60-60 0-33-27-59-60-59z" class="fil1" style="fill:#e96612"></path><path id="path151" d="M1502 815h32v-32h39c6 0 10 5 10 11v21h32v-21c0-4 0-8-1-11-2-6-5-12-9-16 4-5 7-10 9-16 1-4 1-8 1-12s0-8-1-11c-5-18-21-31-40-32h-72zm32-64v-23h39c6 0 10 5 10 11s-4 11-10 12z" class="fil1" style="fill:#e96612"></path><path id="path153" d="M1041 728v5h-31c0-3-3-5-6-5h-48c-3 0-6 2-6 5 0 2 3 5 6 5l54 3c18 0 31 15 31 32v11c0 17-18 31-35 31h-52c-17 0-35-14-35-32v-5h31c0 3 3 5 6 5h48c3 0 6-2 6-5 0-2-3-5-6-5l-54-3c-18-1-32-14-31-32v-11c0-17 18-31 35-31h52c17 0 35 14 35 32" class="fil1" style="fill:#e96612"></path></g></g></g><path id="polygon158" d="M0 0h3000v3000H0z" style="fill:none" transform="translate(-415 -2601)" data-source="https://football-logos.cc"></path><!-- source: https://football-logos.cc --></svg>