<svg xmlns="http://www.w3.org/2000/svg" xmlns:xlink="http://www.w3.org/1999/xlink" viewBox="24 55.62 672 608.75"><!-- Source: https://football-logos.cc --><path d="M0 0h720v720H0z" style="fill:none" data-source="https://football-logos.cc"></path><path d="M360 527.697h207.06c20.773 0 27.886 8.635 26.142 22.423l-.459 2.564-.273 1.526c14.77-2.276 30.252 3.737 51.928 19.75 15.833 9.596 30.08 21.1 51.602 17.609-.807 1.224-2.578 3.034-4.973 5.176a122 122 0 0 1-3.19 2.745c-10.341 8.62-27.109 20.293-33.893 22.868-.02-.076 9.88 20.655 21.045 33.715a67 67 0 0 0 2.54 2.808c1.509 1.567 3.028 2.96 4.538 4.109-14.452 4.188-26.437-.942-51.102-17.684s-47.42-25.693-52.648-11.99c.457-6.99-4.969-11.952-10.502-11.967h-415.63c-5.533.015-10.96 4.976-10.502 11.966-5.227-13.702-27.983-4.752-52.648 11.99s-36.65 21.873-51.102 17.685c1.51-1.15 3.03-2.542 4.538-4.109a63 63 0 0 0 2.54-2.808c11.164-13.06 21.064-33.79 21.045-33.715-6.784-2.575-23.551-14.247-33.894-22.867a122 122 0 0 1-3.189-2.746c-2.395-2.142-4.166-3.952-4.973-5.176 21.522 3.491 35.769-8.013 51.603-17.608 21.675-16.014 37.157-22.027 51.927-19.751l-.273-1.526-.459-2.564c-1.743-13.788 5.37-22.423 26.141-22.423z" style="fill-rule:evenodd;fill:#000"></path><defs><linearGradient id="a"><stop offset="0%" stop-color="#f80000"></stop><stop offset="68%" stop-color="red"></stop><stop offset="92%" stop-color="#980d02"></stop><stop offset="100%"></stop></linearGradient><linearGradient xlink:href="#a" id="b" x1="0" x2="0" y1="0" y2="1" gradientTransform="rotate(259 .5 .5)" gradientUnits="objectBoundingBox"></linearGradient></defs><path d="M128.902 561.88c-14.797-2.707-28.512 4.082-42.558 12.832-21.352 15.27-38.797 25.95-54.182 24.779 10.343 8.62 27.11 20.292 33.894 22.867.02-.076-9.88 20.655-21.045 33.715 9.02 1.404 19.94-3.823 30.694-10.488 9.117-5.679 17.265-12.233 26.707-17.595 13.47-8.493 33.565-11.494 37.713-3.385l-.54-3.013z" style="fill:url(#b)"></path><path d="m580.414 621.592 10.684-59.712.484-2.704.888-4.966.273-1.526c.587-9.939-12.449-15.172-24.11-15.172H151.367c-11.66 0-24.696 5.233-24.11 15.172l.274 1.526.888 4.966.484 2.704 10.684 59.712c-.96-6.821 5.54-12.177 10.36-12.196h420.109c4.82.019 11.32 5.375 10.36 12.196" style="fill-rule:evenodd;fill:#f80000"></path><defs><linearGradient id="c"><stop offset="0%" stop-color="#f80000"></stop><stop offset="68%" stop-color="red"></stop><stop offset="92%" stop-color="#980d02"></stop><stop offset="100%"></stop></linearGradient><linearGradient xlink:href="#c" id="d" x1="0" x2="0" y1="0" y2="1" gradientTransform="rotate(259 .5 .5)" gradientUnits="objectBoundingBox"></linearGradient></defs><path d="M591.098 561.88c14.798-2.707 28.512 4.082 42.558 12.832 21.352 15.27 38.797 25.95 54.182 24.779-10.342 8.62-27.11 20.292-33.894 22.867-.02-.076 9.88 20.655 21.045 33.715-9.02 1.404-19.94-3.823-30.694-10.488-9.117-5.679-17.265-12.233-26.707-17.595-13.47-8.493-33.565-11.494-37.713-3.385l.54-3.013z" style="fill:url(#d)"></path><path d="M140.125 624.605c-4.148-8.109-24.243-5.108-37.713 3.385-9.442 5.362-17.59 11.916-26.707 17.595-10.754 6.665-21.674 11.892-30.694 10.488a67 67 0 0 1-2.54 2.808c10.295 2.293 24.136-3.13 47.055-19.765 20.636-14.979 41.22-20.62 49.496-13.452.603.523 1.34 1.495 1.745 2.532l-.135-.757-.136-.757c-.09-8.853 5.928-13.386 11.67-13.386h415.669c5.741 0 11.76 4.533 11.669 13.386l-.136.757-.135.757c.405-1.037 1.142-2.01 1.745-2.532 8.276-7.168 28.86-1.527 49.496 13.452 22.919 16.635 36.76 22.058 47.055 19.765a63 63 0 0 1-2.54-2.808c-9.02 1.404-19.94-3.823-30.694-10.488-9.117-5.679-17.265-12.233-26.707-17.595-13.47-8.493-33.565-11.494-37.713-3.385l.54-3.013c.96-6.821-5.54-12.177-10.36-12.196h-420.11c-4.82.019-11.32 5.375-10.36 12.196zM128.418 559.176c-11.06-1.594-21.77.806-36.511 9.31-10.776 6.573-20.172 13.69-28.809 18.538-11.94 7.06-23.062 10.982-34.125 9.72.969.867 2.04 1.788 3.19 2.746 15.384 1.171 32.83-9.509 54.18-24.778 14.047-8.75 27.761-15.539 42.56-12.832zm462.68 2.704c14.798-2.707 28.512 4.082 42.558 12.832 21.352 15.27 38.797 25.95 54.182 24.779 1.15-.96 2.22-1.88 3.189-2.746-11.063 1.261-22.185-2.662-34.125-9.72-8.637-4.85-18.033-11.966-28.809-18.538-14.742-8.505-25.451-10.905-36.511-9.311zm-463.841-9.196c-.587-9.939 12.449-15.172 24.11-15.172h417.267c11.66 0 24.696 5.233 24.11 15.172l.458-2.564c-.264-11.066-11.443-15.88-24.948-15.88H151.746c-13.505 0-24.684 4.814-24.948 15.88z" style="fill-rule:evenodd;fill:#ff0"></path><path d="m173.819 559.41-5.105 21.001-5.105-21.001q-.552-2.304-.982-3.32-.43-1.021-1.325-1.411c-.606-.259-1.563-.393-2.888-.393h-2.209c-1.358 0-2.438.295-3.24.875-.793.589-1.194 1.714-1.194 3.392v30.329q0 2.22.908 3.302.273.322.59.549c.501.359 1.087.54 1.766.54q1.042 0 1.793-.54.321-.23.588-.558c.597-.732.9-1.83.9-3.293v-26.465l5.628 24.42.565 2.321c.18.741.433 1.41.752 2.027a4.13 4.13 0 0 0 1.417 1.548c.565.36 1.237.54 2.036.54q1.27 0 2.112-.54.255-.165.473-.38c.622-.606 1.055-1.285 1.284-2.025.23-.741.532-1.901.9-3.49l5.629-24.42v26.464q0 2.196.908 3.293.274.328.592.558c.497.36 1.074.54 1.74.54q1.058 0 1.815-.54.322-.23.59-.558c.597-.732.9-1.83.9-3.293v-30.33c0-1.678-.401-2.802-1.195-3.391-.802-.58-1.882-.875-3.24-.875h-2.2c-1.326 0-2.291.134-2.888.393-.605.259-1.047.732-1.334 1.41q-.429 1.017-.981 3.32M200.472 560.927l-8.99 24.893c-.369.991-.63 1.767-.794 2.33a6 6 0 0 0-.237 1.615q0 1.365 1.03 2.437.3.31.625.531.796.54 1.748.54 1.157 0 1.839-.54a2.1 2.1 0 0 0 .435-.468c.466-.67 1.023-1.964 1.685-3.883l1.677-4.918h14.284l1.677 4.81c.221.599.491 1.277.802 2.054s.606 1.356.876 1.731a2.95 2.95 0 0 0 1.006.884c.4.223.883.33 1.44.33a3.13 3.13 0 0 0 1.794-.54q.35-.237.66-.576c.679-.74 1.023-1.553 1.023-2.436q0-1.283-1.08-4.106l-9.18-24.742a167 167 0 0 0-1.063-2.963c-.286-.74-.63-1.437-1.03-2.08a5 5 0 0 0-1.612-1.58q-.995-.615-2.48-.615-1.459 0-2.453.615a4.9 4.9 0 0 0-1.612 1.607c-.41.66-.786 1.49-1.145 2.5q-.542 1.499-.925 2.57m.884 16.708 5.203-15.816 5.3 15.817zM228.32 559.043v28.116c0 1.232.098 2.24.303 3.017a2.94 2.94 0 0 0 1.276 1.803c.654.428 1.636.642 2.929.642h9.277q2.418-.001 4.344-.339a12.8 12.8 0 0 0 3.608-1.178 11.9 11.9 0 0 0 3.092-2.222 15.7 15.7 0 0 0 2.953-4.088c.761-1.526 1.334-3.24 1.702-5.141.368-1.902.548-3.999.548-6.302 0-6.98-1.832-12.174-5.49-15.593q-2.107-2.007-4.695-2.74t-6.21-.732h-9.277q-2.297 0-3.33 1.125-1.03 1.127-1.03 3.632m7.117 27.41v-26.026h4.696c2.176 0 4.025.259 5.563.768 1.53.517 2.823 1.713 3.87 3.596q1.57 2.828 1.57 8.507-.002 8.06-3.575 11.353-.785.75-1.865 1.178a8.2 8.2 0 0 1-2.086.518q-1.003.107-2.781.107zM264.651 558.338v18.44c0 2.892.287 5.383.86 7.462.58 2.08 1.48 3.794 2.707 5.124 1.236 1.33 2.823 2.32 4.77 2.954q.73.237 1.528.415 2.41.54 5.45.54 2.647 0 4.773-.54.605-.154 1.167-.352a11.5 11.5 0 0 0 4.458-2.821c1.489-1.517 2.495-3.276 3.035-5.284.532-2 .802-4.498.802-7.497v-18.44c0-1.58-.336-2.768-.998-3.544-.663-.777-1.53-1.16-2.593-1.16-1.072 0-1.931.383-2.57 1.16-.637.776-.957 1.964-.957 3.543v19.012c0 3.275-.572 5.721-1.726 7.337s-3.117 2.418-5.898 2.418c-2.013 0-3.575-.392-4.696-1.187q-1.68-1.191-2.331-3.347-.663-2.157-.663-5.373v-18.86c0-1.562-.327-2.74-.974-3.525q-.97-1.178-2.618-1.178-1.583 0-2.552 1.178c-.646.785-.974 1.963-.974 3.525M301.85 559.043v29.5c0 1.553.31 2.722.933 3.525q.308.398.702.665.796.54 1.932.54 1.084 0 1.89-.54.37-.25.679-.611.981-1.154.981-3.58v-12.317h2.496c1.26 0 2.307.188 3.133.554.834.366 1.652 1.044 2.462 2.035q1.205 1.485 2.741 4.337l2.855 5.177q1.007 1.837 1.596 2.776a5.8 5.8 0 0 0 1.503 1.629c.522.36 1.165.54 1.908.54q1.004 0 1.775-.428.095-.054.183-.112.641-.42 1.028-1.066c.295-.5.442-1 .442-1.509 0-.482-.254-1.375-.753-2.678q-.76-1.941-2.11-4.364a33 33 0 0 0-3.077-4.561c-1.153-1.428-2.364-2.517-3.624-3.25 3.003-.713 5.244-1.918 6.725-3.632 1.48-1.705 2.217-3.99 2.217-6.846q0-2.101-.663-3.963a9.6 9.6 0 0 0-1.922-3.284 9 9 0 0 0-2.929-2.17c-.908-.454-1.93-.758-3.068-.9-1.137-.152-2.503-.224-4.099-.224h-11.575c-1.53 0-2.643.375-3.33 1.125q-1.03 1.127-1.03 3.632m7.117 11.613v-10.541h6.57c2.446 0 4.082.187 4.908.57a4.55 4.55 0 0 1 2.062 1.822c.499.812.744 1.749.744 2.811 0 1.366-.31 2.428-.924 3.205-.614.776-1.505 1.33-2.667 1.65q-1.755.483-4.32.483zM344.702 560.927l-8.991 24.893a36 36 0 0 0-.794 2.33 6 6 0 0 0-.237 1.615q0 1.365 1.03 2.437.3.31.625.531.798.54 1.748.54 1.159 0 1.84-.54a2.1 2.1 0 0 0 .435-.468c.466-.67 1.022-1.964 1.685-3.883l1.677-4.918h14.284l1.677 4.81c.221.599.49 1.277.802 2.054.31.776.605 1.356.875 1.731a2.95 2.95 0 0 0 1.006.884c.401.223.884.33 1.44.33a3.13 3.13 0 0 0 1.794-.54 3.8 3.8 0 0 0 .66-.576q1.022-1.11 1.023-2.436 0-1.283-1.08-4.106l-9.179-24.742a166 166 0 0 0-1.063-2.963c-.287-.74-.63-1.437-1.031-2.08a5 5 0 0 0-1.612-1.58q-.993-.615-2.479-.615-1.46 0-2.454.615a4.9 4.9 0 0 0-1.611 1.607c-.41.66-.786 1.49-1.146 2.5q-.542 1.499-.924 2.57m.883 16.708 5.203-15.816 5.302 15.817zM384.821 558.338v18.44c0 2.892.286 5.383.859 7.462.58 2.08 1.48 3.794 2.708 5.124 1.235 1.33 2.822 2.32 4.77 2.954q.729.237 1.528.415 2.409.54 5.45.54 2.646 0 4.773-.54.604-.154 1.166-.352a11.5 11.5 0 0 0 4.459-2.821c1.488-1.517 2.495-3.276 3.035-5.284.531-2 .801-4.498.801-7.497v-18.44c0-1.58-.335-2.768-.998-3.544-.662-.777-1.53-1.16-2.593-1.16-1.072 0-1.93.383-2.569 1.16-.638.776-.957 1.964-.957 3.543v19.012c0 3.275-.572 5.721-1.726 7.337s-3.117 2.418-5.899 2.418c-2.012 0-3.575-.392-4.695-1.187q-1.681-1.191-2.332-3.347-.663-2.157-.663-5.373v-18.86c0-1.562-.327-2.74-.973-3.525-.646-.786-1.522-1.178-2.618-1.178q-1.583 0-2.552 1.178c-.647.785-.974 1.963-.974 3.525M422.167 559.258v29.57c0 1.446.303 2.553.908 3.312q.28.351.62.593.758.54 1.802.54 1.012 0 1.773-.54.338-.24.624-.585.932-1.125.932-3.32v-22.457l13.343 22.323q.578.924 1.154 1.794c.384.58.802 1.098 1.243 1.526q.451.44.943.719.245.139.497.237c.516.205 1.088.303 1.726.303q1.259 0 2.103-.54 1.735-1.11 1.734-4.503v-30.15c0-1.482-.294-2.598-.883-3.339-.598-.74-1.4-1.106-2.422-1.106-.998 0-1.783.374-2.364 1.115s-.876 1.848-.876 3.33v22.804l-13.678-22.59c-.385-.67-.761-1.303-1.12-1.91-.36-.616-.704-1.107-1.048-1.49a3.9 3.9 0 0 0-1.203-.92c-.458-.223-.998-.34-1.636-.34-.818 0-1.579.25-2.282.741a4.15 4.15 0 0 0-1.506 1.928c-.253.714-.384 1.696-.384 2.955M459.652 558.338v30.205q.002 2.354.998 3.543.323.387.702.647.79.54 1.826.54 1.08 0 1.887-.54.385-.258.706-.638c.663-.786.998-1.973.998-3.553v-30.204c0-1.58-.335-2.767-.998-3.543s-1.53-1.16-2.593-1.16q-1.562 0-2.544 1.178c-.655.785-.982 1.963-.982 3.525M474.926 560.695h7.763v27.847c0 1.58.336 2.767.998 3.553q.321.38.704.638.801.54 1.865.54 1.066 0 1.863-.54.37-.25.681-.62c.655-.777.982-1.973.982-3.57v-27.848h7.764c1.219 0 2.127-.295 2.732-.875.606-.59.917-1.357.917-2.32 0-.956-.303-1.732-.9-2.321-.606-.598-1.514-.893-2.75-.893h-22.62c-1.17 0-2.061.286-2.675.866-.613.571-.924 1.357-.924 2.347 0 .964.294 1.732.892 2.321.589.58 1.489.875 2.708.875M505.866 556.312q-.456 1.058-.458 2.731v28.821c0 1.67.335 2.883 1.014 3.633.68.75 1.8 1.125 3.346 1.125h19.34c1.12 0 1.963-.286 2.528-.848.572-.572.85-1.303.85-2.214 0-.937-.278-1.687-.85-2.258-.565-.562-1.407-.848-2.528-.848h-16.583v-10.907h14.767c1.096 0 1.914-.277 2.446-.821.523-.554.785-1.259.785-2.134 0-.874-.27-1.57-.802-2.106q-.797-.792-2.43-.794h-14.766v-9.417h16.035q1.706-.002 2.528-.821c.548-.553.826-1.276.826-2.187 0-.892-.278-1.606-.826-2.16-.548-.544-1.391-.82-2.528-.82h-18.792q-1.509 0-2.479.481c-.646.321-1.12.84-1.423 1.544M538.197 559.043v28.116c0 1.232.098 2.24.303 3.017a2.94 2.94 0 0 0 1.276 1.803c.654.428 1.636.642 2.929.642h9.277q2.417-.001 4.344-.339a12.8 12.8 0 0 0 3.608-1.178 11.9 11.9 0 0 0 3.092-2.222 15.7 15.7 0 0 0 2.953-4.088c.761-1.526 1.334-3.24 1.702-5.141.368-1.902.548-3.999.548-6.302 0-6.98-1.833-12.174-5.49-15.593q-2.107-2.007-4.695-2.74t-6.21-.732h-9.277q-2.297 0-3.33 1.125-1.03 1.127-1.03 3.632m7.117 27.41v-26.026h4.696c2.176 0 4.025.259 5.563.768 1.53.517 2.823 1.713 3.87 3.596q1.57 2.828 1.57 8.507-.002 8.06-3.575 11.353-.785.75-1.865 1.178a8.2 8.2 0 0 1-2.086.518q-1.004.107-2.781.107zM360 545.38c47.134-.122 87.633-12.371 120.397-31.805 90.227-46.284 122.893-168.743 71.628-219.467l9.944-8.073c8.852-11.412 17.698-56.734 10.681-79.463 2.286-12.367 3.098-43.014-1.582-53.9 3.124-57.705-30.334-73.994-93.55-56.597 14.125-35.142-18.532-54.82-65.271-27.904-18.513 11.371-34.05 19.105-52.247 22.578-18.197-3.472-33.734-11.207-52.247-22.578-46.739-26.917-79.396-7.238-65.27 27.904-63.217-17.397-96.675-1.108-93.551 56.597-4.68 10.886-3.868 41.533-1.582 53.9-7.017 22.73 1.83 68.051 10.681 79.463l9.944 8.073c-51.265 50.724-18.6 173.183 71.629 219.467 32.763 19.434 73.262 31.683 120.396 31.806" style="fill-rule:evenodd;fill:#000"></path><path d="M567.52 210.36c-3.756 22.935-8.83 38.33-15.199 46.334l-2.997 8.813 7.695-1.018c9.212-17.65 12.112-35.734 10.5-54.13M152.48 210.36c3.756 22.935 8.83 38.33 15.199 46.334l2.997 8.813-7.695-1.018c-9.212-17.65-12.112-35.734-10.5-54.13" style="fill-rule:evenodd;fill:#fff"></path><path d="M360 519.987c-80.137.201-137.114-43.427-165.361-81.038-34.531-45.978-44.848-124.793-7.659-163.704-11.516 18.435-15.779 32.407.315 42.683 13.673 11.576 13.629 25.887 0 31.732-18.33 10.75-10.567 29.432 4.255 32.264 17.462 4.074 18.584 11.762 14.891 35.81-5.552 29.063 33.398 51.748 59.742 42.546 16.647-8.735 33.994-3.45 51.587 6.737 10.316 6.544 20.057 5.333 29.428-.887 4.02-2.57 7.627-2.954 12.802-3.209 5.175.255 8.781.639 12.802 3.21 9.37 6.22 19.112 7.43 29.428.886 17.593-10.188 34.94-15.472 51.587-6.737 26.344 9.202 65.294-13.483 59.742-42.546-3.693-24.048-2.57-31.736 14.891-35.81 14.822-2.832 22.585-21.513 4.255-32.264-13.629-5.845-13.673-20.156 0-31.732 16.094-10.276 11.831-24.248.314-42.683 37.19 38.911 26.873 117.726-7.658 163.704-28.247 37.611-85.224 81.239-165.361 81.038M167.975 294.109c-26.367 38.828-19.407 90.608-.023 134.774 24.59 46.875 42.554 54.603 83.744 78.467C303.984 532.806 322.27 534.8 360 537.512c37.73-2.713 56.016-4.706 108.304-30.162 41.19-23.864 59.153-31.592 83.744-78.467 19.384-44.166 26.344-95.946-.023-134.774l5.421-8.372-.427-21.248-4.698-7.795-3.47-27.66-15.216-29.57-5.125-.535-23.79 3.457-28.306-3.446c45.501-31.159 80.455-72.652 47.608-75.49-1.336-.093-31.58 1.08-44.79.654-13.269-.177-29.446-9.802-23.46-33.946-5.464 7.78-7.104 16.135-5.764 23.69-28.066 12.477-58.668 1.848-90.008-15.498-31.34 17.346-61.942 27.975-90.007 15.498 1.339-7.555-.3-15.91-5.766-23.69 5.987 24.144-10.19 33.769-23.459 33.946-13.21.427-43.454-.747-44.79-.654-32.847 2.838 2.106 44.331 47.608 75.49l-28.307 3.446-23.79-3.457-5.124.534-15.216 29.57-3.47 27.661-4.698 7.795-.427 21.248z" style="fill-rule:evenodd;fill:#f80000"></path><path d="M258.668 84.215c-9.827-6.816-5.282-11.842 7.567-11.482 11.32 1.314 24.431 6.687 38.097 13.047C326.89 96.87 341.587 97.168 360 98.35c-27.271 3.578-44.645 2.894-67.224-6.658-11.783-5.252-24.394-8.71-34.108-7.477M461.332 84.215c9.827-6.816 5.282-11.842-7.567-11.482-11.32 1.314-24.431 6.687-38.097 13.047C393.11 96.87 378.414 97.168 360 98.35c27.271 3.578 44.645 2.894 67.224-6.658 11.783-5.252 24.394-8.71 34.108-7.477" style="fill-rule:evenodd;fill:#fff"></path><path d="M186.475 144.315c-2.857-12.765 27.349-4.777 49.121-5.55 9.64.533 17.915-2.369 23.978-7.326l-.242.196c35.133 13.953 82.055-4.1 100.668-33.285-25.661 23.245-60.134 38.317-96.037 28.679q-.297.368-.606.726c8.432-9.79 10.064-24.508.87-37.597 5.987 24.144-10.19 33.769-23.459 33.946-13.21.427-43.454-.747-44.79-.654-13.985 1.208-15.68 9.424-9.503 20.865m75.454-15.016000000000002q-.371.375-.756.737M533.525 144.315c2.858-12.765-27.349-4.777-49.121-5.55-9.64.533-17.915-2.369-23.978-7.326l.242.196c-35.133 13.953-82.055-4.1-100.668-33.285 25.661 23.245 60.134 38.317 96.037 28.679q.297.368.606.726c-8.432-9.79-10.064-24.508-.87-37.597-5.987 24.144 10.19 33.769 23.459 33.946 13.21.427 43.454-.747 44.79-.654 13.985 1.208 15.68 9.424 9.503 20.865m-75.454-15.016000000000002q.371.375.756.737M523.826 329.42H196.174c3.397 8.317.423 16.25-8.879 20.24-18.33 10.75-10.567 29.432 4.255 32.264 14.9 3.477 17.904 9.585 16.169 26.244h304.562c-1.735-16.66 1.268-22.767 16.17-26.244 14.82-2.832 22.584-21.513 4.254-32.264-9.302-3.99-12.276-11.923-8.879-20.24" style="fill-rule:evenodd;fill:#fff"></path><path d="M215.28 202.386c-30.463-36.264-49.284-66.798-29.574-87.08-27.662 16.069-19.4 46.054 5.784 83.623l12.2 12.707zM504.72 202.386c30.463-36.264 49.284-66.798 29.574-87.08 27.662 16.069 19.4 46.054-5.784 83.623l-16.135 9.444zM155.864 170.99l21.07 46.8-1.404 6.743-4.38 4.5c-9.949-20.52-15.882-40.07-15.286-58.043" style="fill-rule:evenodd;fill:#fff"></path><path d="M168.434 250.674h383.193l-2.776-21.64-15.216-29.57-5.125-.535-23.79 3.457-28.306-3.446c12.505-8.563 24.213-17.906 33.936-27.014h-300.7c9.723 9.108 21.431 18.451 33.936 27.014l-28.307 3.446-23.79-3.457-5.124.534-15.216 29.57zM283.597 478.086l-12.52-6.106-7.872 16.141 5.085 2.48 3.217-6.595 6.347 3.096 1.59-3.259-6.348-3.096 1.375-2.818 7.434 3.626zM290.393 490.309q.365 1.027-.24 2.603c-.435 1.133-.966 1.865-1.602 2.207q-.949.517-1.97.126-1.012-.39-1.377-1.424-.374-1.03.252-2.658.615-1.599 1.589-2.127a2.31 2.31 0 0 1 2.007-.125q.976.376 1.341 1.397m-6.017-4.8c-1.728.711-2.95 1.998-3.66 3.848q-1.147 2.986.399 5.689 1.265 2.192 4.235 3.332 3.334 1.279 5.905.215 2.572-1.067 3.648-3.866.958-2.496.09-4.784-1.078-2.84-4.782-4.264c-2.16-.829-4.102-.885-5.835-.17M307.905 496.017q.47.983.033 2.615c-.313 1.17-.765 1.954-1.362 2.362q-.89.613-1.947.33-1.046-.28-1.518-1.272-.48-.985-.027-2.67.444-1.654 1.358-2.28a2.31 2.31 0 0 1 1.983-.335q1.01.272 1.48 1.25m-6.486-4.145c-1.644.888-2.724 2.296-3.237 4.21q-.829 3.09.99 5.616 1.487 2.048 4.561 2.871 3.45.924 5.895-.403 2.446-1.33 3.224-4.227.691-2.58-.41-4.767-1.37-2.713-5.202-3.74-3.35-.898-5.821.44M324.45 496.051l.946-4.86-4.793-1.056-1.13 4.949-1.834-.357-.694 3.571 1.833.357-.873 4.494q-.419 2.144-.182 3.18.233 1.037 1.023 1.678.786.638 2.642.999 1.6.31 3.518.275l.29-3.454q-1.047.124-1.598.017c-.408-.079-.664-.274-.774-.576q-.106-.295.052-1.114l.88-4.532 2.734.532.694-3.571zM336.474 492.96l-5.082-.535-1.877 17.86 4.71.496.202-1.913c.57.871 1.111 1.483 1.633 1.837q1.043.672 2.364.811 1.551.164 2.9-.502 1.351-.665 2.237-2.204c.59-1.022.961-2.245 1.11-3.658q.333-3.175-1.058-5.043c-.928-1.241-2.193-1.95-3.788-2.118a5.7 5.7 0 0 0-2.165.168 5 5 0 0 0-1.836.988zm-.848 13.835q-.555-.816-.379-2.482.16-1.529.885-2.207.73-.681 1.754-.573.855.09 1.38.873.522.781.363 2.317c-.122 1.16-.416 1.966-.872 2.414q-.693.671-1.593.577a2.04 2.04 0 0 1-1.538-.919M355.557 504.29q-.845.226-3.697.79c-1.583.31-2.665.783-3.255 1.422q-.884.953-.883 2.438 0 1.582 1.223 2.655 1.229 1.08 3.59 1.079 1.776 0 3.12-.54c.653-.267 1.315-.714 1.977-1.346.06.376.115.652.175.828q.087.263.373.765h4.75c-.268-.54-.438-.982-.519-1.33-.076-.346-.118-.827-.118-1.438v-5.745c0-.615-.124-1.254-.37-1.932q-.374-1.008-1.023-1.56a4.2 4.2 0 0 0-.9-.597 5.2 5.2 0 0 0-1.4-.452c-.917-.167-2.139-.25-3.654-.25q-1.42 0-2.636.208c-.81.138-1.451.335-1.914.59-.65.351-1.142.765-1.485 1.242q-.516.716-.79 1.965l4.834.502q.3-.841.786-1.15.623-.391 1.863-.393c.65 0 1.099.125 1.358.368q.382.367.382 1.288c-.628.242-1.227.443-1.787.593m1.787 1.915v.799q.002.93-.301 1.514-.306.577-1.032.987a3.2 3.2 0 0 1-1.574.4q-.809 0-1.227-.371a1.24 1.24 0 0 1-.416-.962q-.001-.513.425-.92c.271-.26.925-.527 1.952-.794a24 24 0 0 0 2.173-.653M372.314 494.197l-5.073.177.627 17.948 5.073-.177zM382.49 493.31l-5.048.531 1.877 17.86 5.048-.53zM411.737 500.197l-5.134-.413q-.012 1.746-.635 2.79-.623 1.048-2.205 1.383-1.625.347-2.759-.547c-.752-.597-1.338-1.866-1.753-3.817q-.5-2.36.02-3.624c.453-1.131 1.307-1.83 2.553-2.095a3.36 3.36 0 0 1 1.57.017q.738.196 1.332.717.36.315.786 1.064l4.639-2.101q-1.525-2.58-3.741-3.514-2.215-.932-5.583-.216-4.303.915-6.16 3.76c-1.238 1.891-1.547 4.295-.93 7.203q.698 3.269 2.478 5.082 1.786 1.813 3.808 2.255c1.341.292 2.986.233 4.925-.179 1.594-.339 2.862-.843 3.799-1.521a6.8 6.8 0 0 0 2.168-2.577q.76-1.565.822-3.667M416.88 485.724l-4.88 1.399 4.95 17.263 4.88-1.4zM436.2 497.83l4.384-1.771-4.873-12.061-4.695 1.897 2.345 5.803q.665 1.644.387 2.5a1.86 1.86 0 0 1-1.12 1.192q-.77.312-1.393.008-.618-.306-1.077-1.44l-2.68-6.634-4.714 1.904 3.102 7.677q.96 2.375 2.518 3.072 1.564.695 3.499-.087 1.452-.587 2.245-1.502c.528-.606.954-1.446 1.283-2.512zM441.696 475.507l-4.593 2.24 7.873 16.14 4.257-2.075-.843-1.73q1.416.658 2.358.693a5.3 5.3 0 0 0 2.436-.565 5.2 5.2 0 0 0 2.192-1.962q.793-1.279.73-3.054c-.042-1.18-.375-2.414-.998-3.691q-1.4-2.87-3.569-3.717c-1.445-.56-2.893-.491-4.335.212a5.65 5.65 0 0 0-1.747 1.29 5 5 0 0 0-1.034 1.81zm6.613 12.182q-.903-.397-1.638-1.904-.673-1.38-.419-2.34.259-.964 1.185-1.416.773-.375 1.633.009.857.386 1.535 1.772.767 1.575.54 2.51-.232.937-1.046 1.333-.884.433-1.79.036" style="fill-rule:evenodd;fill:#fff"></path><path d="m564.136 170.99-21.07 46.8 1.404 6.743 4.38 4.5c9.949-20.52 15.882-40.07 15.286-58.043" style="fill-rule:evenodd;fill:#fff"></path><path d="M380.47 142.641c19.021-1.781 34.388-1.484 46.474.298 14.192 2.092 24.162 6.287 30.43 11.644 12.055 10.302 20.198 21.668 23.836 34.877 3.627 13.166 2.702 27.927-3.374 45.022a52.5 52.5 0 0 1-3.361 7.518q4.59 5.084 8.988 11.297c1.6-.295 2.953-.455 3.969-.483 4.946-.137 18.504-5.33 18.542-5.345l.002.003a6.367 6.367 0 0 1 7.059 10.125l-.588.747-.015-.012-.01.012c-1.94 2.458-5.281 6.689-12.068 10.317.257.553.414 1.165.441 1.812q.411 8.873-4.602 15.194-3.961 4.995-11.18 8.05c3.839 3.9 5.211 8.992 6.458 13.624.348 1.293.684 2.543.94 3.253 1.397 3.893 1.41 6.87.006 9.23q6.844 78.275-71.391 72.568c-.745 2.338-2.814 4.14-5.402 4.41-8.06.868-15.885 3.517-23.7 7.672-8.04 4.274-16.068 10.151-24.318 17.335-4.466 3.89-8.563 6.326-11.861 7.522-2.054.744-3.955 1.064-5.62 1-2.069-.08-3.844-.682-5.275-1.765q-7.02 9.19-14.493 15.484-8.16 6.871-16.762 10.23l-.004-.01a5 5 0 0 1-.352.122q-48.914 14.912-65.558-21.675l.007-.004a5 5 0 0 1-.176-.445q-5.102-15.042-1.84-27.261 3.229-12.096 14.476-20.938c-1.714-1.923-3-3.855-3.864-5.786-1.917-4.283-1.863-8.422.11-12.358 1.671-3.334 4.685-6.231 8.996-8.643l.006.01.02-.01c4.165-2.331 9.792-4.344 16.823-5.986q-.207-.959-.295-1.984-.21-2.478.357-5.274c-13.498-2.05-24.646-5.31-33.616-9.659-9.762-4.73-16.978-10.758-21.863-17.926-7.078-10.386-11.466-22.296-12.698-35.862-1.159-12.747.484-26.907 5.323-42.58 1.89-6.121 3.29-12.277 4.045-18.52.748-6.19.853-12.433.16-18.773l-1.483-13.566 9.622 9.693c4.015 4.044 6.565 8.918 7.838 14.65 1.205 5.425 1.236 11.557.268 18.435-1.182 8.388-1.382 16.298-.512 23.59.826 6.922 2.619 13.261 5.451 18.887 3.855 7.654 9.062 13.013 15.42 16.185 6.607 3.297 14.6 4.316 23.75 3.176l3.472-.433a58 58 0 0 1 2.136-3.088c3.918-5.293 9.942-7.722 17.29-8.2 2.182-.141 4.488-.107 6.894.075a9.76 9.76 0 0 1 .894-4.787c1.165-2.532 3.279-4.47 6.335-5.803 3.55-1.548 8.85-2.369 15.894-2.441 7.275-.075 13.976-.442 20.11-1.143 4.764-.546 9.078-1.292 12.936-2.26 4.566-9.526 9.13-17.216 13.639-23.173 5.49-7.255 11.03-12.112 16.519-14.73 6.514-3.106 12.884-5.183 19.113-6.22q.486-1.745.878-3.407c1.744-7.408 2.023-13.432.64-18.06-1.838-6.143-5.854-10.362-11.94-13.2-6.747-3.148-16.026-4.73-27.651-5.36-21.357-1.158-38.258-5.867-50.729-13.492-13.439-8.216-21.752-19.735-24.992-33.806l-3.172-13.779 10.88 9.027c7.473 6.199 16.987 10.645 28.212 13.216 11.411 2.615 24.557 3.3 39.107 1.937" style="fill-rule:evenodd;fill:#000" data-source="https://football-logos.cc"></path><path d="M381.408 174.766c-41.888-2.27-65.53-18.505-71.305-43.593 16.042 13.309 40.564 19.054 70.798 16.22 39.528-3.704 62.767 1.76 73.368 10.82 22.683 19.386 30.534 42.39 19.057 74.679-8.884 24.995-37.14 37.272-48.662 33.793-8.843-2.67-14.614-11.588-10.476-20.614 10.094-22.017 14.42-38.411 11.151-49.339-4.522-15.12-19.507-20.641-43.93-21.966" style="fill-rule:evenodd;fill:#fff"></path><path d="M381.165 179.538c-21.357-1.158-38.258-5.868-50.729-13.492-13.439-8.216-21.752-19.735-24.992-33.806l-3.172-13.779 10.88 9.027c7.473 6.199 16.987 10.645 28.212 13.216 11.411 2.615 24.557 3.3 39.107 1.937 19.02-1.781 34.387-1.484 46.472.298 14.193 2.092 24.163 6.287 30.431 11.644 12.056 10.302 20.198 21.668 23.836 34.877 3.627 13.166 2.702 27.927-3.374 45.022-4.301 12.102-12.69 21.443-21.787 27.76-11.758 8.166-25.11 11.34-32.77 9.027a23 23 0 0 1-2.956-1.135c-4.386-2.01-7.967-5.32-10.102-9.348-2.21-4.17-2.89-9.065-1.375-14.084v-.019q.359-1.19 1.001-2.595c4.905-10.7 8.404-20.007 10.269-27.93 1.744-7.408 2.023-13.432.64-18.06-1.838-6.143-5.854-10.362-11.94-13.2-6.747-3.148-16.026-4.73-27.651-5.36m.243-4.772c-41.888-2.27-65.53-18.505-71.305-43.593 16.042 13.309 40.564 19.054 70.798 16.22 39.528-3.704 62.767 1.76 73.368 10.82 22.683 19.386 30.534 42.39 19.057 74.679-8.884 24.995-37.14 37.272-48.662 33.793-8.843-2.67-14.614-11.588-10.476-20.614 10.094-22.017 14.42-38.411 11.151-49.339-4.522-15.12-19.507-20.641-43.93-21.966" style="fill-rule:evenodd;fill:#000"></path><path d="M406.922 161.756c-19.304-2.912-33.72-4.104-40.045-6.252 17.123.869 33.478 1.145 53.394 3.717 21.147 2.73 37.893 12.976 41.291 33.927 4.538 27.975-1.415 52.242-15.608 63.737-3.802 3.079-7.365-.327-4.393-4.731 5.494-8.142 11.155-17.668 13.518-31.428 3.973-23.137-1.846-34.471-9.801-43.256-9.467-10.451-19.022-12.798-38.356-15.714" style="fill-rule:evenodd;fill:#000"></path><path d="M478.905 257.907c-3.67-5.272-7.425-9.897-11.269-13.886-11.91 17.427-33.316 25.58-42.972 22.664-8.843-2.67-14.614-11.588-10.476-20.614 3.43-7.482 6.193-14.314 8.22-20.504-6.32.784-12.83 2.781-19.54 5.98-8.984 4.285-18.619 16.409-28.386 37.512-9.798 2.899-22.304 4.237-37.51 4.393-18.088.187-21.58 5.383-10.477 15.208-14.15-3.307-26.437-3.823-31.767 3.38-11.917 16.105-6.91 26.85 9.125 28.386q-24.793 29.192-10.138 35.145c-30.367 4.723-40.048 14.563-26.36 26.697 11.313 10.03 16.455 17.001 11.152 22.304-3.984 3.984-4.688 2.297-3.04-3.717 2.325-8.49-7.354-9.326-10.477-.17-5.702 16.722 2.391 26.067 17.066 20.277 19.849-7.83 30.263-15.905 47.65-9.124 6.563-7.081 9.174-17.94 1.18-19.093-6.92-.998-11.26-4.454-7.434-11.49 19.825-36.451 34.71-34.448 28.81-28.978-10.1 9.365-10.64 13.989-7.098 20.953 3.37 6.626 7.117 7.676 14.363-.338 4.752-5.254 1.478-2.865-4.9 10.308-8.72 18.012-4.466 24.92 9.463 18.925 8.145-3.505 10.938-12.665 10.138-27.205-.39-7.074 1.712-4.934 4.055 6.59 3.319 16.314-4.079 27.585-22.135 30.584-7.447 1.237-10.539 3.779-8.11 10.476 1.013 2.795 7.078 1.65 15.376-5.575 17.2-14.977 33.665-24.603 51.536-26.53 0 0-.17-22.303 10.981-26.527 11.153-4.224 11.659-14.868 13.01-19.262 1.353-4.394 3.887-18.588 22.981-21.629 19.094-3.04 26.867-3.718 24.501-10.308s-2.365-16.897-15.883-18.756-24.163-1.351-15.714-8.11c8.448-6.76 12.673-15.038 29.57-18.418s21.627-11.49 23.824-14.024c0 0-14.531 5.575-20.614 5.744-6.083.17-27.036 6.252-36.329 18.756s-5.913 1.183-3.885-1.52c2.027-2.704 10.137-17.067 31.513-18.504" style="fill-rule:evenodd;fill:#f80000"></path><path d="M339.414 325.245c-8.19-2.684-12.652-10.184-15.038-18.587 12.43 18.342 26.237 18.414 43.087 1.859 5.194-5.103 14.78-21.808 27.204-51.874q-2.3 12.772-6.758 27.373 29.197 12.241 8.955 21.121-6.547 10.771-25.515 7.604c-9.078 10.857-20.087 16.388-31.935 12.504m44.44-17.912c-8.897 3.061-7.925.695-3.549-8.28 4.958-10.165 5.476-11.898 12.504-4.223 3.696 4.037 1.908 8.765-8.956 12.503" style="fill-rule:evenodd;fill:#000"></path><path d="M383.853 307.333c-8.896 3.061-7.924.695-3.548-8.28 4.958-10.165 5.476-11.898 12.504-4.223 3.696 4.037 1.908 8.765-8.956 12.503" style="fill-rule:evenodd;fill:#ff0"></path><path d="M367.972 340.96c-10.476-8.567-21.233-7.015-31.597 5.238-16.125 19.061-29.738 28.11-41.567 27.035-6.137-.557-11.387-1.87-15.714-4.394" style="fill-rule:evenodd;fill:#000"></path><path d="M368.982 339.725a1.596 1.596 0 0 1-2.02 2.47c-4.899-4.006-9.814-5.642-14.663-4.838-4.88.81-9.808 4.077-14.708 9.87-8.165 9.651-15.714 16.781-22.738 21.374-7.202 4.71-13.9 6.788-20.19 6.216-3.177-.289-6.118-.77-8.808-1.503-2.746-.747-5.267-1.76-7.56-3.096a1.593 1.593 0 0 1 1.597-2.757c2.033 1.186 4.303 2.094 6.798 2.772 2.549.693 5.305 1.147 8.261 1.416 5.54.504 11.565-1.406 18.156-5.717 6.77-4.427 14.093-11.354 22.052-20.763 5.406-6.39 10.98-10.019 16.63-10.955 5.795-.96 11.558.902 17.193 5.51" style="fill-rule:evenodd;fill:#000"></path><path d="M284.585 296.52c-19.909 2.483-35.222-4.5-44.015-21.962-6.286-12.483-7.85-27.941-5.407-45.283 1.787-12.68-.048-22.302-6.758-29.062 1.47 13.457-.436 26.38-4.393 39.2-9.529 30.867-6.197 55.336 6.758 74.346 8.692 12.753 25.811 21.64 52.916 25.649q.103-.264.21-.53 2.592-6.377 8.845-14.76a21.7 21.7 0 0 1-3.869-2.264c-2.411-1.785-4.252-4-5.472-6.613a6 6 0 0 1-.19-.396c-1.183-2.726-1.645-5.762-1.33-9.063.276-2.88 1.163-5.98 2.705-9.262" style="fill-rule:evenodd;fill:#fff"></path><path d="M477.48 255.9c-2.609-3.75-3.838-5.162-6.535-8.261a55 55 0 0 0 3.53-5.639q4.59 5.084 8.988 11.297c1.6-.295 2.953-.455 3.969-.483 4.946-.137 18.504-5.33 18.542-5.345l.002.003a6.367 6.367 0 0 1 7.059 10.125l-.588.747-.015-.012-.01.012c-1.94 2.458-5.281 6.689-12.068 10.317a4.8 4.8 0 0 1 .441 1.812q.411 8.873-4.602 15.194-3.961 4.995-11.18 8.05c3.839 3.9 5.211 8.992 6.458 13.624.348 1.293.684 2.542.94 3.253 1.397 3.893 1.41 6.87.006 9.23q6.845 78.275-71.392 72.568c-.744 2.338-2.813 4.14-5.401 4.41-8.06.868-15.885 3.517-23.7 7.672-8.04 4.274-16.068 10.151-24.318 17.335-4.466 3.89-8.563 6.326-11.861 7.522-2.054.744-3.955 1.064-5.62 1-2.069-.08-3.844-.682-5.275-1.765q-7.02 9.19-14.493 15.484-8.16 6.871-16.762 10.23l-.004-.01a5 5 0 0 1-.352.122q-48.914 14.912-65.558-21.675l.007-.004a5 5 0 0 1-.176-.445q-5.102-15.042-1.84-27.261 3.229-12.096 14.476-20.938c-1.714-1.923-3-3.855-3.864-5.786-1.917-4.283-1.863-8.422.11-12.358 1.671-3.334 4.685-6.231 8.996-8.643l.006.01.02-.01c4.165-2.331 9.792-4.344 16.823-5.986q-.208-.959-.294-1.984-.21-2.478.356-5.274c-13.498-2.05-24.646-5.31-33.616-9.658-9.762-4.731-16.978-10.759-21.863-17.927-7.078-10.386-11.466-22.296-12.698-35.862-1.159-12.747.484-26.907 5.323-42.58 1.89-6.121 3.29-12.277 4.045-18.52.748-6.19.853-12.433.16-18.773l-1.483-13.566 9.622 9.693c4.014 4.044 6.565 8.918 7.838 14.65 1.205 5.425 1.236 11.557.268 18.435-1.182 8.388-1.382 16.298-.512 23.59.826 6.922 2.619 13.261 5.451 18.887 3.855 7.654 9.062 13.013 15.42 16.185 6.607 3.296 14.6 4.316 23.75 3.176l3.472-.433a58 58 0 0 1 2.136-3.088c3.918-5.293 9.942-7.722 17.29-8.2 2.182-.141 4.488-.107 6.894.075a9.76 9.76 0 0 1 .894-4.787c1.165-2.532 3.279-4.47 6.335-5.803 3.55-1.548 8.85-2.369 15.894-2.441 7.275-.075 13.976-.441 20.11-1.143 4.764-.546 9.078-1.292 12.936-2.26 4.566-9.526 9.13-17.216 13.639-23.173 5.49-7.255 11.03-12.112 16.519-14.73 6.514-3.106 12.884-5.183 19.113-6.22a115 115 0 0 1-2.194 6.95q-6.936 1.58-14.175 5.033c-8.986 4.284-18.62 16.408-28.387 37.511-1.395 3.745-5.377 16.618-15.729 25.68-9.488 8.305-21.096 10.318-23.728 1.949-1.491-4.74-2.891-7.78 4.055-3.718 6.7 3.919 13.688 2.318 19.77-4.9 4.327-5.137 7.837-11.19 10.976-17.796-9.007 2.063-19.96 3.045-32.855 3.178-18.087.187-21.579 5.383-10.476 15.208-14.15-3.307-26.437-3.823-31.767 3.38-11.917 16.105-6.91 26.85 9.125 28.386q-24.793 29.192-10.138 35.145c-30.367 4.723-40.048 14.563-26.36 26.697 11.313 10.03 16.455 17.001 11.152 22.304-3.984 3.984-4.688 2.297-3.04-3.717 2.325-8.49-7.354-9.326-10.477-.17-5.702 16.722 2.391 26.067 17.066 20.277 19.849-7.83 30.263-15.905 47.65-9.124 6.563-7.081 9.174-17.94 1.18-19.093-6.92-.998-11.26-4.454-7.434-11.49 19.825-36.451 34.71-34.448 28.81-28.978-10.1 9.365-10.64 13.989-7.098 20.953 3.37 6.626 7.117 7.676 14.363-.338 4.752-5.254 1.478-2.865-4.9 10.308-8.72 18.012-4.466 24.92 9.463 18.925 8.145-3.505 10.938-12.665 10.138-27.205-.39-7.074 1.712-4.934 4.055 6.59 3.319 16.314-4.079 27.585-22.135 30.584-7.447 1.237-10.539 3.779-8.11 10.476 1.013 2.795 7.078 1.65 15.376-5.575 17.2-14.977 33.665-24.603 51.536-26.53 0 0-.17-22.303 10.981-26.527 11.153-4.224 11.659-14.868 13.01-19.262 1.353-4.394 3.887-18.588 22.981-21.629 19.094-3.04 26.867-3.718 24.501-10.308s-2.365-16.897-15.883-18.756-24.163-1.351-15.714-8.11c8.448-6.76 12.673-15.038 29.57-18.418s21.627-11.49 23.824-14.024c0 0-14.531 5.575-20.614 5.744-6.083.17-27.036 6.252-36.329 18.756s-5.913 1.183-3.885-1.52c2.027-2.704 9.509-15.388 30.089-20.512M341.956 424.472v-.002l-.09-.26-.003-.008-.085-.255-.003-.01-.08-.249-.004-.015-.075-.242-.006-.019-.07-.236-.006-.022-.066-.232-.007-.026-.06-.225-.01-.03-.055-.22-.01-.033-.05-.214-.01-.037-.048-.209-.035-.158-.018-.085-.01-.044-.04-.198-.01-.048-.036-.192-.008-.05-.034-.188-.009-.054-.004-.029-.033-.21-.026-.178-.009-.06-.022-.172-.008-.065-.024-.213-.003-.02-.016-.162-.018-.21-.001-.017-.006-.073-.011-.153-.005-.076-.007-.147v-.017l-.007-.135-.002-.07-.002-.082v-.003l-.004-.207v-.234l.002-.13.002-.09.004-.125.004-.092.005-.121.002-.032.008-.121.003-.058.008-.099.01-.112.001-.017.016-.163.003-.029.011-.102.004-.026.019-.152.003-.031.015-.1.016-.108.015-.096.018-.11.005-.024.025-.14.013-.069.072-.337.009-.038.019-.08.03-.12.019-.076.033-.121.02-.074.036-.123.003-.011.047-.152.01-.032.02-.066.042-.127.022-.063.045-.129.022-.06.05-.13.003-.01.059-.15.016-.04.06-.142.013-.034.021-.05.061-.136v-.001l.063-.134.022-.05.02-.042.07-.14.067-.134.024-.048.02-.037.077-.143.018-.034.081-.145.018-.03.086-.148.017-.027.09-.148.098-.155.013-.02.014-.022.1-.151.117-.173.011-.016.11-.154.01-.014.116-.155.008-.011.12-.158.006-.008.127-.159.003-.005.132-.16.002-.003.137-.162c1.153-1.34 2.593-2.392 4.315-3.222a11 11 0 0 1-1.469-1.511c-1.803-2.24-2.707-5.139-2.658-8.657.05-3.611 1.168-8.148 3.435-13.534-3.2-1.228-5.625-4.025-7.696-8.097-.947-1.862-1.68-3.63-2.145-5.384.968 6.761 1.363 13.037 1.183 18.817l.048.044.031.03.048.046.03.03.048.046.03.029.005.006.07.07.048.048.028.03.047.048.028.029.046.049.027.029.047.05.026.028.047.051.025.028.047.052.024.027.046.053.024.027.046.054.023.027.046.054.023.027.046.055.02.026.047.056.02.026.046.057.02.026.045.058.02.025.045.058.019.025.045.06.018.024.045.06.017.024.045.062.016.023.044.063.016.023.044.063.016.023.044.064.015.022.043.065.015.022.043.067.013.02.044.068.013.02.042.068.013.02.042.07.012.02.043.07.011.018.042.071.01.02.042.07.01.02.041.072.01.018.041.074.01.017.04.075.009.017.04.075.008.017.04.076.008.016.039.078.007.015.04.078.006.015.039.08.007.014.037.08.007.014.037.081.006.013.037.083.006.013.036.083.005.012.037.084.004.012.036.085.004.011.036.086.004.01.035.088.003.01.034.088.004.01.033.089.004.008.033.09.003.008.032.092.003.007.032.092.002.007.032.094.002.006.03.094.002.005.03.096.002.005.03.096.001.005.03.097v.004l.03.098v.003l.028.1v.002l.028.1V395l.028.101v.002l.026.102.025.104c.452 1.864.505 3.853.214 5.874-.698 4.846-3.514 10.44-7.488 14.8l-.049.056-.009.01-.04.046-.018.02-.031.034-.028.03-.023.024-.037.038-.013.015-.047.048-.005.005-.052.051-.004.005-.048.046-.014.014-.039.037-.024.023-.029.027-.034.032-.02.018-.045.04-.01.008-.054.048-.056.047-.01.009-.045.038-.022.016-.035.03-.03.025-.027.02-.042.033-.016.011-.052.04-.005.004-.058.044-.006.003-.053.039-.017.012-.042.03-.027.02-.033.02-.038.027-.022.015-.05.032-.01.007-.061.04-.061.038-.012.007-.05.03-.023.014-.039.023-.034.02-.028.017-.046.025-.018.01-.057.032-.006.003-.063.034-.006.003-.058.03-.018.01-.046.023-.03.014-.035.017-.041.02-.024.012-.053.025-.012.005-.066.03-.066.029-.012.005-.054.023-.024.01-.042.017-.038.015-.03.012-.049.02-.017.006-.062.023-.006.002-.068.024-.006.003-.062.02-.019.008-.049.016-.032.01-.036.012-.045.014-.024.007-.058.018-.011.003-.07.02-.07.019-.013.004-.056.014-.026.007-.044.01-.04.01-.03.007-.052.012-.019.004-.065.014-.005.001-.07.014-.009.002-.063.012-.02.004-.051.009-.034.005-.038.007-.046.007-.025.004-.06.008-.012.002a38 38 0 0 1-7.965 8.749l-.002.002.002-.002m-1.478 1.367-.244.217-.016.015-.227.198-.228.2-.014.011-.19.163-.052.045-.243.205-.48.4h-.002l-.203.166-.037.03-.24.193-.225.18-.02.016-.232.18-.217.168-.02.016-.238.18-.064.049-.173.129-.009.006-.227.168-.232.169-.004.003-.236.169-.078.056-.156.11-.162.112-.072.05-.234.159-.011.008-.222.148-.228.15-.005.004-.175.114-.057.036-.077.05-.385.242-.108.067-.122.074-.053.032-.177.106-.23.136-.04.024-.188.108-.122.07-.023.012-.231.13-.055.03-.025.013-.227.124-.056.03-.17.09-.137.07-.018.01-.217.11-.07.036-.01.005-.226.11-.15.074-.074.036-.15.07-.073.034-.224.102-.005.003-.218.096-.019.009-.175.075-.028.012-.163.07-.058.023-.221.09-.02.008-.201.08-.098.037-.122.046-.176.065-.044.016-.219.078-.034.012-.184.063-.111.037-.107.034-.188.06-.03.01-.216.065-.048.014-.168.049-.125.035-.028.007-.182.049-.082.022-.014.003-.215.054-.062.015-.055.013-.212.048-.023.005-.076.017-.212.044-.279.055-.092.017-.092.017-.185.032-.09.015h-.001l-.092.015-.254.038-.018.003h-.002l-.019.003-.342.046h-.002l-.357.04-.003.001-.268.026-.086.007h-.004l-.088.007-.178.013-.084.006h-.017l-.335.018h-.005l-.332.01h-.017l-.087.002-.173.001h-.172l-.225-.004h-.033l-.028-.002-.308-.011h-.006l-.254-.015-.077-.005h-.007l-.085-.007-.244-.021h-.007l-.325-.035h-.008l-.248-.033-.075-.01-.008-.001c-5.106 1.101-10.748 1.69-16.933 1.749-13.959.132-22.03-4.845-24.224-14.354l-.078-.09-.028-.034-.087-.102-.017-.021-.095-.115-.008-.01-.101-.127-.002-.001-.099-.127-.01-.012-.09-.116-.018-.025-.079-.105-.027-.037-.07-.094-.036-.049-.06-.082-.043-.062-.05-.071-.052-.074-.041-.06-.06-.087-.032-.048-.067-.1-.023-.036-.074-.113-.016-.024-.08-.127-.008-.011-.087-.14-.085-.14-.009-.014-.075-.127-.016-.027-.067-.115-.023-.04-.059-.104-.03-.053-.05-.091-.036-.067-.043-.079-.043-.08-.035-.066-.05-.095-.026-.053-.056-.109-.02-.04-.06-.123-.014-.026-.066-.138-.006-.013-.072-.151v-.001l-.07-.152-.007-.014-.062-.14-.012-.028-.055-.126-.019-.044-.047-.111-.024-.058-.041-.1-.03-.072-.033-.084-.035-.088-.028-.072-.039-.102-.022-.057-.043-.118-.016-.042-.048-.133-.062-.178-.006-.014-.055-.163v-.001l-.059-.18-.048-.15-.01-.03-.042-.136-.014-.046-.036-.12-.018-.063-.03-.106-.023-.078-.025-.092-.026-.093-.02-.077-.03-.11-.015-.061-.032-.126-.012-.046-.035-.143-.007-.03-.037-.16-.004-.015-.04-.175-.037-.176-.004-.016-.033-.16-.006-.033-.029-.145-.01-.05-.024-.13-.012-.064-.02-.115-.014-.082-.034-.197-.013-.083-.019-.116-.01-.066-.019-.133-.008-.05-.02-.151-.02-.152-.007-.05-.002-.017-.023-.185c-.502-4.252.105-9.29 2.01-14.88 1.486-4.356 4.108-7.364 6.966-9.085l-.034-.032-.007-.007-.028-.026-.013-.011-.022-.02-.019-.019-.015-.014-.026-.024-.008-.008-.033-.03-.003-.002-.07-.065-.01-.01-.024-.022-.017-.016-.018-.016-.023-.022-.012-.01-.03-.029-.005-.004-.035-.033-.002-.001-.033-.03-.009-.009-.026-.024-.016-.014-.02-.019-.021-.02-.014-.013-.028-.025-.008-.007-.035-.032-.036-.033-.006-.006-.03-.028-.012-.01-.023-.022-.019-.017-.017-.016-.026-.023-.01-.01-.032-.03-.004-.002-.036-.033-.003-.003-.032-.03-.01-.01-.027-.023-.016-.015-.02-.018-.023-.021-.013-.011-.03-.028-.006-.006-.036-.033-.036-.033-.008-.006-.029-.027-.014-.013-.022-.02-.021-.02-.016-.013-.028-.025-.008-.008-.035-.032-.002-.002-.036-.033-.006-.004-.031-.029-.012-.01-.025-.023-.018-.017-.019-.016-.026-.023-.011-.01-.032-.03-.005-.004-.037-.034-.002-.002-.035-.03-.01-.01-.027-.025-.016-.014-.021-.019-.023-.021-.014-.013-.03-.027-.008-.006-.037-.033-.038-.034-.006-.006-.031-.028-.014-.012-.023-.022-.02-.018-.018-.015-.027-.026-.01-.008-.035-.031-.003-.003-.038-.033-.004-.004-.034-.03-.011-.01-.027-.024-.018-.017-.02-.017-.025-.023-.013-.012-.032-.028-.006-.005-.038-.034q-20.83 15.956-11.557 43.294 14.913 32.783 59.815 19.093 15.815-6.174 30.1-25.354Zm-26.293 4.2q-2.97-2.726-5.242-7.428a6 6 0 0 1-.108-.238 215 215 0 0 1-5.103 2.094c-4.384 1.73-8.43 2.386-11.992 2.099a18.7 18.7 0 0 1-3.4-.586q1.02 1.01 2.323 1.783c3.286 1.947 7.945 2.92 13.982 2.864a90 90 0 0 0 8.4-.462q.573-.06 1.14-.127m28.74-15.918c-9.675-2.407-17.55 1.039-28.244 5.72q8.478 17.549 28.243-5.72m161.11-91.452c-4.003 1.437-9.77 2.343-17.816 3.606l-3.943.627c-13.646 2.173-16.356 11.808-17.516 15.935-.1.357-.182.65-.375 1.278-.145.472-.31 1.2-.496 2.018-.513 2.262-1.134 5-2.281 7.805l.01-.026q-6.52 19.983-19.706 22.799c-.778 3.404-1.15 7.314-1.212 10.64q32.03-.409 45.137-13.335 2.647-6.978 2.703-13.856 8.481-.59 14.363-8.11 3.19-13.627 1.131-29.38m11.345-54.422-.138.055-.138.055-.14.056-.14.054-.141.055-.142.054-.142.054-.102.04-.041.015-.144.053-.314.116-.24.087-.325.115-.149.052-.14.05-.312.105-.152.051-.107.037-.045.014-.008.003-.3.098-.156.05-.156.05-.005.003-.043.013-.424.133-.16.049-.058.018-.101.03-.597.177-.05.015-.494.14-.166.047-.004.002-.164.044-.168.046-.338.09-.06.016-.11.029-.515.133-.118.03-.056.013-.024.006-.647.158-.031.007-.002.001-.031.007-.683.158-.062.014-.022.005a67 67 0 0 1-1.576.334l-.03.006-.03.007-.029.005-.03.006-.029.007-.03.005-.175.037-.03.006-.03.006-.029.006-.028.006-.03.006-.008.002-.021.004-.029.007-.03.005-.028.007-.029.006-.029.006-.029.006-.028.006-.03.007-.029.006-.057.012-.029.007-.029.006-.028.007-.029.006-.028.006-.017.004-.012.003-.029.005-.028.007-.028.006-.03.007-.056.013-.029.006-.028.007-.028.006-.029.007-.028.006-.028.006-.028.007-.029.007-.028.006-.028.007-.024.005-.004.001-.028.007-.028.006-.028.007-.028.007-.028.006-.028.007-.028.007-.028.006-.028.007-.028.006-.027.007-.028.007c-6.399 2.802-11.642 6.587-14.738 11.406q.047 1.02.284 1.876l.03.004.03.003.01.002.021.002.03.004.032.004.03.004.005.001.026.003.03.004.032.004.03.004.031.004.031.004.031.004.026.003h.005l.031.005.031.004.031.004.022.003h.01l.03.005.032.004.031.004.018.002.013.002.032.004.031.005.032.003.013.002.018.002.031.005.032.003.032.005.009.001.023.003.032.004.03.005.033.004h.004l.028.004.032.004.032.004.031.005.032.004.032.004.033.005.027.003h.005l.032.005.032.004.032.005.023.003h.01l.033.005.031.005.033.004.018.003.014.002.033.004.033.004.032.004.014.002.02.003.032.004.033.005.033.004.009.002.023.003.034.004.033.005.032.004.005.001.029.004.033.005.033.004.033.005q.346.048.684.1l.026.004.048.007.594.099.05.009.027.005q.668.118 1.302.256h.001l.059.013.542.124.038.009.032.008.019.004.431.108.139.035.009.002.015.004.422.115.144.04.086.025.057.016.142.042.14.042.14.043.117.036.297.095.137.045.135.045.135.046.277.097.12.044.13.048.243.09.143.056.127.05.127.05.125.051.247.103.123.052.122.053.235.104.005.003.12.054.117.055.234.11.116.057.115.056.01.005.216.11.113.057q16.26-5.485 15.603-19.675m-212.338 68.729.003-.008.003-.009.004-.008.003-.008.003-.008.003-.008.003-.008.003-.009.004-.008.003-.008.003-.009.023-.057.003-.008.003-.009.003-.005v-.003l.004-.008.003-.009.003-.008.01-.025.004-.008.003-.008.003-.009.003-.008.003-.008.004-.009.003-.008.004-.008.003-.009.003-.008.003-.008.004-.008.003-.009.004-.008.003-.008v-.003l.004-.006.003-.008.003-.008.003-.009.003-.008.004-.008.003-.009.003-.008.004-.008.003-.008.004-.009.003-.008.003-.008.004-.009.003-.008.003-.008.004-.008.003-.009.004-.008.003-.008.004-.009.003-.008.062-.153.02-.047c1.237-3.006 3.082-6.334 5.53-9.996l.004-.008.498-.737.006-.009q-63.507-2.877-63.64-58.438 8.111 50.831 62.61 52.449l-.006-.005-.055-.04-.054-.04c-2.411-1.785-4.252-4-5.472-6.613a6 6 0 0 1-.19-.396c-1.183-2.726-1.645-5.762-1.33-9.063l.014-.136.012-.109.002-.026.015-.136.01-.083.006-.053.018-.136.007-.058.01-.079.019-.137.005-.03.015-.107.02-.138v-.004l.022-.134.019-.116.003-.022.023-.139.016-.09.009-.048.037-.203.014-.077.026-.14.007-.035.022-.105.028-.14.002-.009.054-.255.004-.018.032-.141.022-.096.01-.046.033-.142.017-.069.018-.074.035-.142.01-.041.026-.102.038-.143.003-.014.034-.13.035-.129.004-.015.04-.144.028-.102.013-.042.041-.145.022-.074.064-.216.014-.047.03-.099.046-.146.005-.018.041-.128.044-.136.003-.01.048-.147.036-.108.014-.04.05-.147.027-.08.024-.067.051-.149.019-.051.034-.097.054-.148.008-.023.046-.126.054-.143.002-.006.057-.149.044-.115.013-.035.059-.15.034-.086.025-.064.06-.15.024-.058.038-.093.062-.151.012-.028.051-.124.064-.15v-.001l.065-.152.053-.121.014-.031.067-.153.04-.092.027-.06.07-.153.028-.062.042-.091.07-.153.072-.154c-19.909 2.483-35.222-4.5-44.015-21.962-6.286-12.483-7.85-27.941-5.407-45.283 1.787-12.68-.048-22.302-6.758-29.062 1.47 13.457-.436 26.38-4.393 39.2-9.529 30.867-6.197 55.336 6.758 74.346 8.692 12.753 25.811 21.64 52.916 25.649" style="fill-rule:evenodd;fill:#000"></path><path d="M469.07 285.527c.028.68.127 1.305.283 1.876q.973.122 2.035.269c3.695.508 6.647 1.444 9.033 2.682q16.26-5.485 15.603-19.675c-2.936 1.185-6.364 2.234-10.381 3.038q-.948.188-1.836.404c-6.399 2.802-11.642 6.587-14.738 11.406" style="fill-rule:evenodd;fill:#f80000"></path><path d="M484.679 325.101c-4.003 1.437-9.77 2.343-17.816 3.606l-3.943.627c-13.646 2.173-16.356 11.808-17.516 15.935-.1.357-.182.65-.375 1.278-.145.472-.31 1.2-.496 2.018-.51 2.255-1.13 4.983-2.27 7.779q-6.521 19.983-19.707 22.799c-1 4.372-1.18 8.95-1.212 10.64q32.03-.409 45.137-13.335 2.647-6.978 2.703-13.856 8.481-.59 14.363-8.11 3.19-13.627 1.131-29.38M323.568 416.553q-19.764 23.269-28.243 5.72c10.694-4.681 18.57-8.127 28.243-5.72" style="fill-rule:evenodd;fill:#fe0001"></path><path d="M337.332 370.74c.968 6.76 1.363 13.036 1.183 18.816 1.695 1.587 2.774 3.545 3.308 5.753.452 1.864.505 3.853.214 5.874-.698 4.846-3.514 10.44-7.488 14.8a6.4 6.4 0 0 1-3.984 2.172 38 38 0 0 1-7.967 8.75q-7.92 7.57-14.726 8.949-2.978.603-5.612.227c-5.106 1.101-10.748 1.69-16.933 1.749-13.959.132-22.03-4.845-24.224-14.354-2.26-2.614-3.69-5.98-4.16-9.957-.502-4.252.105-9.29 2.01-14.88 1.486-4.356 4.108-7.364 6.966-9.085a143 143 0 0 0-2.322-2.114q-20.83 15.956-11.557 43.294 14.913 32.783 59.815 19.093 15.815-6.174 30.1-25.354c-1.978-5.64-1.365-9.889 1.595-13.329 1.153-1.34 2.593-2.392 4.315-3.222a11 11 0 0 1-1.469-1.511c-1.803-2.24-2.707-5.139-2.658-8.657.05-3.611 1.168-8.148 3.435-13.534-3.2-1.228-5.625-4.025-7.696-8.097-.947-1.862-1.68-3.63-2.145-5.384" style="fill-rule:evenodd;fill:#ff0"></path><path d="M281.565 448.43a2.385 2.385 0 0 1 1.103-4.64q17.33 4.166 30.153-1.585 12.822-5.753 21.44-21.568a2.386 2.386 0 0 1 4.19 2.283q-9.387 17.229-23.685 23.644-14.295 6.412-33.202 1.866" style="fill-rule:evenodd;fill:#000"></path><path d="M294.83 432.47q-2.97-2.725-5.243-7.427a6 6 0 0 1-.108-.238 215 215 0 0 1-5.103 2.094c-4.384 1.73-8.43 2.386-11.992 2.099a18.7 18.7 0 0 1-3.4-.586q1.02 1.01 2.323 1.783c3.286 1.947 7.945 2.92 13.982 2.864a90 90 0 0 0 8.4-.462q.573-.06 1.14-.127" style="fill-rule:evenodd;fill:#fff" data-source="https://football-logos.cc"></path><!-- source: https://football-logos.cc --></svg>