<svg xmlns="http://www.w3.org/2000/svg" xml:space="preserve" viewBox="0 0 1214.64 2113.41"><!-- Source: https://football-logos.cc --><path d="M-.004 15850.6V5240.8l1.633-12.6C106.148 4413.6 493.563 3817 1121.95 3502.8c1087.89-544 1977.5-988.9 2231.54-1115.9L4554.9 0l1201.41 2386.9c254.02 127 1143.64 571.9 2231.53 1115.9 628.41 314.2 1015.81 910.8 1120.33 1725.4l1.63 12.6v10609.8z" style="fill:#e8bc1e;fill-opacity:1;fill-rule:nonzero;stroke:none" transform="matrix(.13333 0 0 -.13333 0 2113.413)" data-source="https://football-logos.cc"></path><path d="M199.996 15650.6v-10397c69.602-542.4 306.301-1219.4 1011.404-1571.9C2416.52 3079.1 3378.27 2598.1 3502.31 2536L4554.9 444.902 5607.49 2536.1c124.05 62 1085.79 543 2290.91 1145.6 705.09 352.5 941.8 1029.5 1011.4 1571.9v10397z" style="fill:#252525;fill-opacity:1;fill-rule:nonzero;stroke:none" transform="matrix(.13333 0 0 -.13333 0 2113.413)"></path><path d="M2875.89 7452.01s368.57 471.43 947.14 681.43l582.86-420V7006.3s-501.43-351.43-612.86-458.57l-677.14 210zM2383.03 6016.3l608.57 435.89 672.86-191.61 349.56-776.78-482.42-879.6-1080 924zM6233.91 7452.01s-368.57 471.43-947.14 681.43l-582.86-420V7006.3s501.43-351.43 612.86-458.57l677.14 210zM6726.77 6016.3l-608.57 435.89-672.86-191.61-349.53-776.78 482.39-879.6 1103.4 880.7z" style="fill:#fefefe;fill-opacity:1;fill-rule:nonzero;stroke:none" transform="matrix(.13333 0 0 -.13333 0 2113.413)"></path><path d="M7210 6261.7c0 682.9-277.3 1324.4-780.8 1806.4-501.1 479.7-1166.7 743.9-1874.3 743.9s-1373.2-264.2-1874.3-743.9c-503.5-482-780.8-1123.5-780.8-1806.4 0-534.6 170-1043.9 485.4-1471.1h254.9c-338 402.7-540.3 914.3-540.3 1471.1C2099.8 7559.8 3199 8612 4554.9 8612S7010 7559.8 7010 6261.7c0-556.8-202.3-1068.4-540.3-1471.1H6708v-22.2c326 431.7 502 949.4 502 1493.3" style="fill:#fefefe;fill-opacity:1;fill-rule:nonzero;stroke:none" transform="matrix(.13333 0 0 -.13333 0 2113.413)"></path><path d="M6664.1 8856.3V5855.57c0-205.37-166.46-371.77-371.79-371.77H2817.49c-205.33 0-371.79 166.4-371.79 371.77V8856.3H800V5555.6c0-832.6 674.92-1507.5 1507.49-1507.5h4494.82c832.56 0 1507.49 674.9 1507.49 1507.5v3300.7z" style="fill:#fefefe;fill-opacity:1;fill-rule:nonzero;stroke:none" transform="matrix(.13333 0 0 -.13333 0 2113.413)"></path><path d="M2307.48 4248.1c-720.95 0-1307.48 586.5-1307.48 1307.5v3100.7h1245.7V5855.56c0-315.26 256.5-571.76 571.78-571.76h3474.84c315.28 0 571.78 256.5 571.78 571.76V8656.3h1245.7V5555.6c0-721-586.53-1307.5-1307.48-1307.5z" style="fill:#e21413;fill-opacity:1;fill-rule:nonzero;stroke:none" transform="matrix(.13333 0 0 -.13333 0 2113.413)"></path><path d="M6226.97 15050.6h.01L5429.8 13653l-874.9-1533.8L3680 13653l-797.19 1397.6h.02H800v-4821.4h1645.7V12462l1255.7-2232.8h1707L6664.1 12462v-2232.8h1645.7v4821.4z" style="fill:#fefefe;fill-opacity:1;fill-rule:nonzero;stroke:none" transform="matrix(.13333 0 0 -.13333 0 2113.413)"></path><path d="M6864.1 10429.2v2796.5l-1572.68-2796.5H3818.38L2245.7 13225.7v-2796.5H1000v4421.4h1766.63l1788.27-3135.1 1788.27 3135.1H8109.8v-4421.4z" style="fill:#e21514;fill-opacity:1;fill-rule:nonzero;stroke:none" transform="matrix(.13333 0 0 -.13333 0 2113.413)" data-source="https://football-logos.cc"></path><path d="M3525.36 2531.2 1642.89 3560.7l1882.47 1029.6 1029.55 1882.47L5584.46 4590.3l1882.45-1029.6-1882.45-1029.5L4554.91 648.703z" style="fill:#252525;fill-opacity:1;fill-rule:nonzero;stroke:none" transform="matrix(.13333 0 0 -.13333 0 2113.413)"></path><path d="M3820.08 2825.9 2476.5 3560.7l1343.58 734.9 734.82 1343.6 734.82-1343.6 1343.58-734.9-1343.58-734.8-734.82-1343.5z" style="fill:#fefefe;fill-opacity:1;fill-rule:nonzero;stroke:none" transform="matrix(.13333 0 0 -.13333 0 2113.413)"></path><path d="m4554.9 5209.4 582.87-1065.8 1065.72-582.9-1065.72-582.8-582.87-1065.7-582.87 1065.7-1065.73 582.8 1065.73 582.9z" style="fill:#e8bc1e;fill-opacity:1;fill-rule:nonzero;stroke:none" transform="matrix(.13333 0 0 -.13333 0 2113.413)"></path><path d="m5822 15650.6-572-1015.2-695.1-1233.7-695.1 1233.7-572 1015.2z" style="fill:#fefefe;fill-opacity:1;fill-rule:nonzero;stroke:none" transform="matrix(.13333 0 0 -.13333 0 2113.413)"></path><path d="M3972.3 15250.6h1165.2l-582.6-1034z" style="fill:#e8bc1d;fill-opacity:1;fill-rule:nonzero;stroke:none" transform="matrix(.13333 0 0 -.13333 0 2113.413)"></path><path d="M1589.98 9876.79v-700.04h-195.01v377.02l-155.01-221.01-156.01 221.01v-377.02H889.938v544.03c0 45.01-33.008 130.01-78.008 156.01h272.02l156.01-242.01 155.01 242.01zM2032.93 9409.76l-52 187.01-52.01-187.01zm259.01-233.01h-194.01l-22 78h-190.01l-22.01-78h-194l182 544.03c11.01 44.01 18.01 130.01-25.99 156.01h233.01zM2903.95 9176.75h-544.03v544.03c0 45.01-33.01 130.01-78.01 156.01h272.02v-544.03h117.01c44 0 117.01 25 117.01 77l37.99-77zM3504.96 9876.79v-506.03c0-107-130.01-194.01-292.02-194.01-161.01 0-291.02 87.01-291.02 194.01v350.02c0 45.01-33.01 130.01-78.01 156.01h272.03v-447.02c0-54.01 42.99-97.01 97-97.01 54 0 98 43 98 97.01v447.02zM4231.96 9876.79l-77.01-156.01-39.01-77c0 52-72.99 77-117 77h-8v-544.03h-195.01v544.03h-8c-44.01 0-116.01-25-116.01-77l-39 77-78 156.01zM5233.94 9876.79v-506.03c0-107-130.01-194.01-292.02-194.01-161 0-291.01 87.01-291.01 194.01v350.02c0 45.01-33.01 130.01-78.01 156.01h272.02v-447.02c0-54.01 43-97.01 97-97.01 54.01 0 98.01 43 98.01 97.01v447.02zM5964.93 9876.79v-700.04h-194.01l-195.01 350.02v-350.02h-194.02v544.03c0 45.01-33 130.01-78 156.01h272.02l195.01-350.02v350.02zM6296.9 9876.79v-700.04h-194.01v544.03c0 45.01-33 130.01-78 156.01zM7033.92 9876.79l-77.01-156.01-39-77c0 52-73 77-117 77h-8v-544.03h-195.02v544.03h-8c-44 0-116.01-25-116.01-77l-39 77-78 156.01zM7549.91 9332.76l77-156.01h-505.03v544.03c0 45.01-33.01 130.01-78.01 156.01h583.04l-77-156.01-39-77c0 52-73.01 77-117.02 77h-77.99v-116h195.01v-156.01H7315.9v-116.01h77.99c44.01 0 117.02 25 117.02 77zM8123.9 9623.78c0 54-44 97-97 97h-98.01v-388.02h98.01c53 0 97 43 97 97.01zm194.02 59v-312.02c0-107-130.01-194.01-291.02-194.01h-292.02v544.03c0 45.01-33 130.01-78.01 156.01h370.03c161.01 0 291.02-87 291.02-194.01M4433.07 6138.4h-264.55v-125.95h-130.9v374h408.11v-91.31h-277.21v-70.39h264.55zM4798.83 6008.04c-36.3 0-67.92.93-94.88 2.76-26.95 1.82-49.87 5.12-68.75 9.9-18.88 4.76-34.37 11.55-46.47 20.35s-21.54 20.07-28.33 33.82-11.47 30.53-14.03 50.33-3.84 43.26-3.84 70.4v8.24c0 40.34 3.02 72.79 9.07 97.36 6.05 24.56 18.15 43.45 36.3 56.65s44.09 22 77.83 26.4c33.73 4.4 78.1 6.6 133.1 6.6h17.59c48.76 0 88.19-1.74 118.26-5.23 30.05-3.48 53.34-9.9 69.85-19.25 16.49-9.35 27.59-22.27 33.27-38.78 5.68-16.49 8.53-37.58 8.53-63.24v-23.1h-131.45v13.2c0 7.32-.93 13.48-2.75 18.43-1.84 4.94-6.24 8.87-13.21 11.81-6.96 2.93-17.23 5.04-30.8 6.33-13.56 1.28-32.08 1.93-55.54 1.93h-9.91c-30.44 0-53.99-.82-70.67-2.47-16.69-1.65-29.15-5.6-37.4-11.83-8.25-6.24-13.2-15.31-14.85-27.23s-2.48-28.14-2.48-48.67v-4.4c0-20.17.83-36.21 2.48-48.13 1.65-11.91 6.6-21.08 14.85-27.5 8.25-6.41 20.71-10.55 37.4-12.37 16.68-1.84 40.23-2.76 70.67-2.76h9.91c25.3 0 45.09.56 59.4 1.66q21.45 1.65 31.89 6.6c6.97 3.3 11.28 7.88 12.93 13.75 1.65 5.86 2.47 13.38 2.47 22.55v11.55h130.36v-26.95c0-24.58-2.85-45.1-8.53-61.61q-8.52-24.735-33.54-39.6c-16.69-9.89-40.25-16.96-70.69-21.17s-70.58-6.33-120.45-6.33zM2190.71 1741.9h-739.47v99.9c0 44 4.3 81.4 12.93 112 8.61 30.6 24.98 55.6 49.06 74.9s57.68 33.8 100.8 43.3c43.11 9.5 99.15 15.4 168.15 17.8 46.37 1.8 83.39 3.9 111.05 6.3 27.65 2.3 48.75 6.1 63.33 11.1 14.56 5.1 23.93 11.3 28.1 18.8 4.15 7.4 6.25 16.8 6.25 28v4.5c0 10.7-1.65 19.6-4.92 26.8-3.27 7.1-10.56 12.6-21.85 16.5-11.3 3.8-27.96 6.5-49.95 8-22 1.5-51.74 2.2-89.2 2.2h-16.96c-38.66 0-68.83-1-90.53-3.1-21.71-2.1-38.22-5.7-49.5-10.7-11.31-5.1-18.3-12-20.97-21-2.68-8.9-4.01-20.5-4.01-34.7v-17h-186.43v17c0 45.1 4.45 81.7 13.38 109.7 8.91 27.9 25.87 49.5 50.84 64.6 24.98 15.2 59.46 25.5 103.47 30.8 44.01 5.4 101.1 8 171.27 8h16.06c74.33 0 135.43-2.6 183.31-8 47.86-5.3 85.77-14.9 113.73-28.5 27.94-13.7 47.41-32.1 58.43-55.3 10.99-23.2 16.49-52.7 16.49-88.3v-20.6c0-34.5-3.87-63.7-11.59-87.8-7.73-24.1-22.3-44-43.71-59.8s-51.15-27.8-89.2-36.1c-38.07-8.4-87.72-13.7-148.97-16.1-57.68-2.3-102.73-4.6-135.13-6.7-32.42-2-56.65-5-72.71-8.9-16.05-3.9-25.87-9.1-29.43-15.6s-5.35-15.2-5.35-25.9v-13.3h543.23zM2644.73 1899.8c41.62 0 74.34 1.2 98.13 3.6 23.78 2.4 41.77 8.5 53.96 18.3s19.77 24.2 22.75 43.2c2.97 19.1 4.46 45.2 4.46 78.5v8.1c0 33.3-1.49 59.4-4.46 78.5-2.98 19-10.56 33.1-22.75 42.3s-30.18 15.1-53.96 17.4c-23.79 2.4-56.51 3.6-98.13 3.6h-16.05c-41.63 0-74.34-1.2-98.12-3.6-23.79-2.3-41.63-8.2-53.52-17.4-11.91-9.2-19.33-23.3-22.3-42.3-2.98-19.1-4.46-45.2-4.46-78.5v-8.1c0-33.3 1.48-59.4 4.46-78.5 2.97-19 10.39-33.4 22.3-43.2q17.835-14.7 53.52-18.3c23.78-2.4 56.49-3.6 98.12-3.6zm-20.5-165c-56.51 0-104.97 1.3-145.4 4-40.45 2.7-74.49 8-102.14 16.1-27.65 8-49.66 19-66.01 33-16.37 13.9-28.99 32.2-37.91 54.8s-14.72 49.8-17.39 81.7q-4.02 47.7-4.02 113.7v13.4c0 44 1.34 82 4.02 114.1 2.67 32.2 8.47 59.4 17.39 81.7s21.54 40.5 37.91 54.8c16.35 14.3 38.36 25.3 66.01 33s61.69 13.1 102.14 16.1c40.43 3 88.89 4.4 145.4 4.4h25.87c56.48 0 104.8-1.4 144.95-4.4 40.13-3 74.03-8.4 101.69-16.1q41.46-11.55 66.45-33c16.64-14.3 29.43-32.5 38.35-54.8 8.93-22.3 14.72-49.5 17.39-81.7 2.68-32.1 4.02-70.1 4.02-114.1v-13.4q0-66-4.02-113.7c-2.67-31.9-8.46-59.1-17.39-81.7-8.92-22.6-21.71-40.9-38.35-54.8q-24.99-21-66.45-33c-27.66-8.1-61.56-13.4-101.69-16.1-40.15-2.7-88.47-4-144.95-4zM6925.35 1741.9h-739.47v99.9c0 44 4.3 81.4 12.93 112 8.61 30.6 24.98 55.6 49.06 74.9s57.67 33.8 100.8 43.3c43.1 9.5 99.15 15.4 168.14 17.8 46.39 1.8 83.4 3.9 111.06 6.3 27.65 2.3 48.75 6.1 63.33 11.1 14.56 5.1 23.93 11.3 28.09 18.8 4.16 7.4 6.25 16.8 6.25 28v4.5c0 10.7-1.64 19.6-4.9 26.8-3.28 7.1-10.56 12.6-21.85 16.5-11.31 3.8-27.97 6.5-49.96 8-22.01 1.5-51.74 2.2-89.2 2.2h-16.96c-38.65 0-68.82-1-90.52-3.1-21.72-2.1-38.23-5.7-49.52-10.7-11.3-5.1-18.28-12-20.95-21-2.68-8.9-4.03-20.5-4.03-34.7v-17h-186.42v17c0 45.1 4.45 81.7 13.38 109.7 8.92 27.9 25.87 49.5 50.84 64.6 24.98 15.2 59.46 25.5 103.47 30.8 44.01 5.4 101.1 8 171.27 8h16.06c74.33 0 135.43-2.6 183.31-8 47.86-5.3 85.77-14.9 113.73-28.5 27.94-13.7 47.41-32.1 58.43-55.3 10.99-23.2 16.5-52.7 16.5-88.3v-20.6c0-34.5-3.88-63.7-11.6-87.8-7.74-24.1-22.31-44-43.71-59.8-21.41-15.8-51.15-27.8-89.2-36.1-38.07-8.4-87.72-13.7-148.97-16.1-57.68-2.3-102.73-4.6-135.13-6.7-32.42-2-56.64-5-72.7-8.9-16.05-3.9-25.88-9.1-29.44-15.6-3.57-6.5-5.35-15.2-5.35-25.9v-13.3h543.23zM7729.94 1900.7c0-32.1-4.61-58.9-13.83-80.3s-27.8-38.3-55.74-50.8c-27.97-12.5-67.5-21.4-118.64-26.8-51.16-5.3-118.65-8-202.49-8h-25.86c-70.78 0-127.87 2.7-171.27 8-43.42 5.4-76.88 15.2-100.35 29.5-23.5 14.2-39.12 33.9-46.84 58.8-7.73 25-11.59 56.8-11.59 95.5v26.7h190.89v-17.8c0-10.7 1.48-19.6 4.45-26.8 2.97-7.1 9.51-12.7 19.63-16.9 10.11-4.2 24.67-7.1 43.71-8.9 19.02-1.8 44.6-2.7 76.72-2.7h16.05c45.18 0 80.73.7 106.59 2.2 25.87 1.5 45.35 4.2 58.43 8.1 13.07 3.8 21.25 8.7 24.53 14.7 3.27 5.9 4.91 13.4 4.91 22.3v8.9c0 8.9-1.2 16.2-3.57 21.8-2.39 5.7-6.84 10.2-13.39 13.4q-9.81 4.95-28.53 7.2c-12.49 1.5-28.55 2.2-48.17 2.2h-169.49v129.3h171.27c16.06 0 29.13.8 39.25 2.3 10.11 1.4 17.98 4.1 23.64 8 5.65 3.9 9.5 8.8 11.59 14.7 2.08 6 3.12 13.4 3.12 22.3v8.9c0 9-1.49 16.4-4.45 22.3-2.99 6-10.57 10.7-22.75 14.3-12.2 3.6-30.33 5.9-54.41 7.2-24.09 1.1-56.95 1.7-98.57 1.7h-16.05c-33.32 0-59.47-.7-78.5-2.2-19.04-1.5-33.46-4.3-43.26-8.5-9.82-4.1-16.06-9.5-18.74-16-2.68-6.6-4.01-14.9-4.01-25v-18.7H6986v23.2c0 39.2 3.86 71.3 11.6 96.3 7.72 25 23.19 44.4 46.38 58.4 23.2 14 56.19 23.5 99.02 28.6 42.82 5 99.6 7.5 170.38 7.5h25.86c82.65 0 148.66-2.6 198.02-8 49.36-5.3 87.11-14.3 113.28-26.7 26.18-12.5 43.41-29.2 51.74-50 8.32-20.8 12.5-46.7 12.5-77.6v-8c0-20.3-1.21-37.6-3.57-52.2q-3.57-21.9-12.93-37.5c-6.25-10.4-14.59-19.2-24.98-26.3-10.41-7.1-23.63-13.1-39.7-17.8v-1.8c30.92-8.3 54.71-21.7 71.36-40.2 16.64-18.4 24.98-47.5 24.98-87.4z" style="fill:#fefefe;fill-opacity:1;fill-rule:nonzero;stroke:none" transform="matrix(.13333 0 0 -.13333 0 2113.413)" data-source="https://football-logos.cc"></path><!-- source: https://football-logos.cc --></svg>