<svg xmlns="http://www.w3.org/2000/svg" xml:space="preserve" style="shape-rendering:geometricPrecision;text-rendering:geometricPrecision;image-rendering:optimizeQuality;fill-rule:evenodd;clip-rule:evenodd" viewBox="0.01 0 1166.24 1408.36"><!-- Source: https://football-logos.cc --><defs data-source="https://football-logos.cc"><style>.fil0{fill:#040301}.fil1{fill:#f1d012}</style></defs><g id="Layer_x0020_1" data-source="https://football-logos.cc"><g id="_2690950919952"><path d="M14.52 0h1151.35l.38 861.83v.11c-1.56 106.9-34.82 209.24-95.72 297.03-110.33 159-295.01 249.39-487.4 249.39-192.38-.01-377.07-90.39-487.38-249.37C34.83 1071.2 1.57 968.84.01 861.94v-.11L.39 0h14.14z" class="fil0"></path><path d="M14.52 14.14h1137.21l.37 847.59c-4.33 297.8-259.91 532.48-568.97 532.48S18.49 1159.55 14.15 861.73l.38-847.59z" class="fil1"></path><path d="M32.11 216.8h1102.03l.28 644.81v.11c-1.51 100.45-32.81 196.62-90.05 279.11-104.36 150.4-279.27 235.7-461.25 235.7-181.96 0-356.88-85.29-461.25-235.68-57.24-82.49-88.54-178.67-90.05-279.13l-.01-.11.29-644.81z" class="fil0"></path><path d="m46.24 230.93-.28 630.57c1.47 97.68 31.87 191.07 87.54 271.28 101.72 146.6 272.31 229.61 449.61 229.61 177.32 0 347.9-83.01 449.63-229.63 55.65-80.21 86.05-173.59 87.52-271.26l-.28-630.57H46.22z" style="fill:#0c8544"></path><path d="M678.68 617.43c-19.53 7.44-.51 34.7 20.8 37.06l2.49 5.52c4.35.74 6.05-.41 9.98-.63 4.09 3.64 3.08 6.57 7.6 7.28 4.66.73 4.03-2.14 11.11-1.61 2.81 4.54 2.48 6.02 6.34 9.81l12.66-3.11 4.58 9.47 13.43-1.71c1.11 2.37 2.83 5.84 4.09 8.6 4.8.3 7.1-1.19 9.8-.66 4.96.95 1.15 1.96 6.6 5l10.39-3.59c3.01 3.65 5.38 5.85 6.09 12.12-5.36 3.03-5.62 7.7-13.36 5.04-6.58-2.26-5.97-5.8-13.26-6.33-10.04-.71-9.36-4.62-16.95-2.68-8.05 2.06-4.61 2.71-10.45-3.55-2.23.62-2.33 1.21-5.06 1.09l-13-3.56c-7.66-2.17-1.66-.96-7.24-.4-6.71.68-13.11-1.89-16.26-1.66-2.69.2-1.47 1.26-6.63-.24-5.54-1.62-12.34-3.33-17.62-2.9-5.33 2.7-7.29 23.47.05 25.63l19.59 5.16c5.2 2.55 15.84 4.51 22.08 6.88l67.93 21.42c9.4 2.49 10.14 7.51 17.78 12.42 15.89 10.23 45.62 4.08 51.62 8.26 3.7 2.58 2.05 4.92 5.87 9.11 2.42 2.64 4.99 3.64 6.35 6.84-2.38 7.98-11.61 9.26-15.38 19.13-4.54 11.88-3.58 17.61-3.85 31.09-3.98-2.53-11.52-19.28-21.88-29.81-17.04-17.35-18.02-10.42-23.69-8.76-2.33.68-6.68-.48-10.77-.07-5.54 2.47.69 3.42-8.76 4.76-6.17.87-6.31-.95-8.18 3.26-2.7 6.06-6.89 2.57-15.5 7.83 1.71 3.34 1.85 2.21 5.93 3.94 7.85 3.3 9.12 8.51 15.83 14.27 10.69 9.17 26.86 6.6 28.66 8.71 10.64 12.46-4.4 21.69 20.4 54.47 4.74 6.25 9.71 14.31 19.66 17.76 5.16 1.78 10.48 4.2 14.42 2.17 3.91-2.01 5.97-6.4 9.53-8.57-.19 7.89-12.04 20.2-17.25 25.6-19.51 20.24-36.59 34.64-60.76 49.22-5.99 3.62-6.43 2.25-15.21.27-5.71-10.39-9.94-17.68-26.72-12.32-9.24 2.94-19.54 11.29-25.36 15.6-17.38 12.81-12 15.38-25.72 11.64-5.87-1.6-13.26-.81-19.49-.94-17.57-.35-18.85 4.21-19.41-15.89l-5.17-104.76c-2.63-40.33-4.24-80.32-5.69-121.03-1.42-39.71-4.68-79.66-5.99-119.74-.63-19.5-1.27-41.23-2.94-60.74-1.39-16.16-3.27-43.37-2.14-60.49 21.23 2.47 38.72 26.5 47.45 43.9l26.57-.84.73-3.73c0-.06-.7-3.53-.78-4.09 2.43 1.3 5.56 5.93 6.75 8.03l22.07-.82-1.56-7.34c6.59 3.61.73 6.49 11.09 7.22 5.17.37 12.83-.23 18.47-.53l-1.79-7.72c12.53 8.77-3.21 8.04 26.12 6.96l-2.53-9.35c11.18 12.01 2.25 9.96 29.73 9.32-.14-8.66-19.36-29.45-20.26-38.27 12.97-14.64 36.05-2.43 49.62 4.47 42.58 21.65 49.09 29.27 81.96-12.82 13.07-16.74 19.27-19.04 14.49-31.24-6.89-17.59-3.64-9.87 2.7-21.58 2.76-5.1-.05-4.42-.09-11.44 18.92-13.76 19.47-8.99 20.47-33.5.5-11.92 11.65-23.96 14.62-36.97 1.27-5.56 3.23-18.2 5.03-21.44l6.86-6.81c10.14-10.95 4.79-6.65 9.81-16.29 4.39-8.44 13.56-13.27 17.58-21.92-1.13-.77-.92-.76-3.01-1.52-15.52-5.66-48.98 4.98-64.38 17.11-16.31 12.84-31.52 27.13-47.34 40.07-24.35 19.94-45.94 40.73-71.39 59.49-11.46 8.44-13.38 10.89-32.21 8.86 0-4.2 11.47-21.15 13.68-24.81 3.58-5.91 10.13-13.31 9.69-20.46-.15-2.31-1.44-6.73-3.37-7.24-7.9-2.09-17.58-1.08-25.56-.2l-8.44 14.1c-.09-.2-.42.47-.63.68 1.1-6.94 4.38-9.76 3.44-15.64l-19.43.18c-4.24 5.06-4.99 10.4-9.96 15.44.53-6.28 3.27-9.42 3.78-15.33l-21.26.56c-2.55 3.88-7.41 12.08-9.04 15.71-1.42-4.41 2.99-8.38 3.2-16.33l-23 .58-4.26 7.99-3.06-8.49-25.1.15c-3.26 10.99-12.37 21.58-20.48 29.47-8.15 7.93-19.45 18.59-32.6 14.91l-.27-28.74c16.34-.37 16.87-7.86 14.32-21.1-1.15-6.04 4.3-7.28 1.13-16.16-1.7-4.78-6.35-6.15-9.91-8.71-1.09-12.95 2.55-18.65-4.74-27.87-9.51-12.05-33.01-45.68-42.1-52.5-5.28 2.97-23.65 28.74-29.19 35.56-24.25 29.79-16.27 17.6-18.76 44.97-3.75 2.65-8.23 3.87-9.9 9.88-2.66 9.6 2.37 8.55 1.3 14.92-3.56 21.14.79 16.71 14.37 21.79l-1.11 15.42c-40.11-7.86-123.51-11.03-166.97-3.37l-47.94 10.54c-8.54-3.01-16.33-36.87-82.29-27.79-5.44.74-10.34 2.11-15.47 3.38-5.1 1.26-10.43 2.02-13.63 5.94 30.74 5.49 45.29 20.24 47.67 53.24-3.91 4.37-10.07 8.66-14.79 12.55-60.9 50.33-63.93 104.89-71.17 116.14-10.29-1.99-43.9-28.16-52.27-35.18-14.46-12.1-30.89-28.4-43.31-41.76-.99 11.13 1.43 28.73 2.31 40.59 2.6 34.76 7.28 74.63 21.84 105.06 8.73 18.21 21.49 35.7 36.73 48.18 6.51 5.32 17.14 12.29 26.33 15.99 15.11 6.08 13.74 7.55 22.61 19.85 24.72 34.33 47.17 63.27 78.41 92.44 26.23 24.48 65.61 61.52 110.75 59.03 1.96-3.77 4.36-5.87 4.73-11.25.31-4.65-.29-9.59-.61-13.39 2.13.18 35.68 22.63 55.1 26.31 37.9 7.22 31.77-20.19 27.86-47.99-6.25-44.6-20.67-82.62-44.38-118.8-8.91-13.62-30.34-33.76-32.77-49.5-7.25-46.89 10.38-89.28 54.26-106.43 30.26-11.83 40.3-8.61 70.4-11.06-4.99-11.13-25.78-27.22-32.46-39.62 15.32-1.95 38.22-2.63 54.19-1.58-2.04 79.66-7.96 157.6-11.37 236.04l-8.15 178.4c-3.2 65.45 2.41 57.03-18.42 61.02-4.39.84-10.88 1.83-15.2 2.38-10.8 1.39-21.52-2.71-31.05-4.48-13.58-2.54-17.19 6.03-27.37 8.68-6.39 1.67-24.67 2.94-32.3 3.33-18.32.91-15.49 1.51-24.82 11.61-4.5 4.87-4.6 7.18-11.25 8.07-4.76.64-11.16.72-16.35.84-17.27.41-15.44 1.2-24.09 11.67-10.65 12.87-4.88 10.57-23.57 11.49-2.58 5.58-6.52 13.73-9 19.45-8.56 19.79-13.83-5.91-27.16 25.34-3.51 8.24-2.81 7.67-13.76 8.36-2.1 12.06-.5 18.01-7.09 26.88-12.27 16.49-19.56 64.77-8.84 80.18 6.62-9.67 7.12-32.03 39.44-62.03 36.02-33.42 92.24-59.01 143.92-58.97 32.22.02 55.54 10.45 85.29 15.35 5.02 7.45-.61 7.26 10.24 14.67 1.35 36.83-36.97 91.96-56.92 103.07-6.49 3.61-17.48-.19-25.58 1.91-8.31 2.15-6.91 10.46-6.97 18.74-30.92 2.92-32.92-7.6-34.89 20.34-18.62 1.16-38.49-6.07-34.23 19.85 1.51 9.14 8.32 8.88 18.13 8.84l137.24.06c3.09 8.74 7.72 16.81 13.53 23.94 15.5 19.38 39.34 31.82 66.1 31.82 36.5 0 67.6-23.13 79.45-55.54 39.48-2.32 97.08-.22 140.27-.35 9.29-.02 17.42 1.82 19.78-7.59 6.63-26.36-15.06-20.08-33.52-21.03-.88-9.63 1.72-16.75-8.02-19.33-7.9-2.1-18.15-.08-26.72-.94-2.79-18.22 4.24-18.96-25.18-19.19-10.41-.08-17.16-8.42-26.28-18.79-9.14-10.4-31.95-40.9-32.54-56.64 9.78-.23 20.91 1.1 31.45 1.6 11.48.55 21.86-.74 33.18-.95-2.26 7.36-11.18 15.67-15.5 19.78-2.32 2.2-16.81 14.24-16.58 17.22 6.01 12.34 41.49 19.36 55.25 26.06 11.02 5.34 13.56 10.3 28.8 12.47 12.21 1.74 24.76-1.55 37.64-2.03.28-8.35-1.61-9.17-3.72-16.08 7.27.82 6.39 1.88 11.37 3.88.56-7.42-3.76-12.66-6.65-16.82 4.68-2.06 2.02 1.66 6.93-1.24-6.34-17.85-12.53-8.6-26.07-14.95-2.75-1.29 1.77-1.02-4.89-1.67-9.44-.93-16.3 10.17-25.93-.85 3.44-1.84 14.86-4.42 19.47-6.36 12.34-5.19 22.81-10.99 31.91-20.56 2.66-2.81 6.42-8.39 10.49-9.06.14-.02 3.31.36 4.43.28 3.62-6.76 2.68-20.32 9.69-24.22 7.67-4.27 4.61 3.57 11.09 3.72 3.82.1 4.01-3.75 9.96-5.43l3.75 4.83c11.16-.48 24.47-7.57 32.26-11.96 37.46-21.12 82.41-78.59 97.87-117.87 10.86-27.59 12.44-38.13 15.07-71.56 1.24-1.05 1.76-1.13 2.61-1.64l2.57-1.54c.16-.45.64-.34 1.17-.58l-2.64-54.47c12.01.72 19.27-1.86 20.3-12.95 1.13-12.13 7.11-5.19-.76-21.18-7.04-14.3-10.41-6.74-12.8-28.55-.55-5-6.22-28.44-8.56-32.49-4.9-8.47-14.16-12.42-27.35-12.23-1.99 2.95-1.03 6.84-2.02 4.07-.08-.21-.29.61-.47.9-14.31-.48-12.93-2.9-19.06-11.09-4.12-5.5-8.4-10.41-12.75-17.14-3.86-5.97-7.85-12.9-11.58-18.46-2.76-4.11-3.74-4.94-7.62-7.33-9.6-5.87-11.67-16.42-42.52-29.81-53.2-23.12-46.14-11.11-72.7-15.6-9.9-1.67-12.31-5.89-21.84-1.81-15.66 6.71-80.65-10.23-99.62-15.36-10.13-2.73-13.71-4.91-22.03-7.93-6.89-2.53-17.45-2.22-22.92 1.36z" class="fil0"></path><path d="M1022.54 840.53c5.64-5.48 1.47-12.2-2.5-15.2-.98 1.75-1.04 11.7 2.5 15.2m-40.97 149.15c4.25-.57 7.19-2.18 9.43-5.2 7.25-9.75 1.16-11.24 1.13-11.26-2.94 8.19-5.61 10.74-10.56 16.46m41.49-83.92c4.02-3.33 8.91-15.33 1.98-19.56-.73 4.94-.87 13.18-3.59 19.36zm.73-34.39c3.58-2.21 4.59-2.99 4.09-8.77-.31-3.71-1.61-5.73-3.22-8.49-4.39-1.34-.86-.81-2.24 1.61l1.38 15.66zm-5.97-54.37c1.2-9.11 2-14.31-7.35-17.66l4.6 14.61c1.19 2.35 1.15 1.63 2.75 3.05m-59.33 194.61.41.86 2.17-.72c7.25-2.43 16.27-6.34 18.4-13.88-5.17 2.02-16.54 10.6-20.98 13.74m53.58-77.52c7.9-2.49 14.41-10.21 8.89-19.24zM293.82 429.56c1.07 1.87.11 2.51 2.94 5.04 3.92 3.48 9.82 6.13 15.14 6.65-2.35-6.08-9.67-10.77-18.09-11.69zm15.89 64.28c-4.35-2.08-5.66-2.68-10.79-2.61 3.99 5.82 10.66 9.8 18.86 11.11 2.64-2.93-5.51-7.27-8.07-8.5m7.64-31.66c-5.71-8.76-11.83-10.44-20.87-13.89 2.48 5.66 14.78 16.58 20.87 13.89m685.34 492.08-3.5 5.28c.94.84-1.96 3.78 4.83-.58 1.63-1.04 3.69-2.92 4.81-4.08 4.03-4.13 5.33-6.31 2.58-12.6-4.4 1.16-2.86.58-4.98 5.24-1.15 2.52-2.02 4.12-3.74 6.74m-4.17-185.57c4.1 4.29 9.65 18.19 14.03 23.68 3.27-11.25-5.93-23.36-14.03-23.68M310.44 580.67c2.64 1.52 3.52 1.96 7.04 2.19-1.41-3.71-5.46-7.23-8.78-10.09-4.26-2.89-8.35-6.09-13.89-7.43 1.9 5.2 10.68 12.5 15.64 15.33zm6.79-53.07c-1.98-8.41-11.08-17.13-19.66-18.51 2.81 7.93 12.21 15.21 19.66 18.51m4-42.22c-1.4-7.32-18.41-16.25-24.5-17.04 4.17 7.43 16.36 15.41 24.5 17.04m571.34 277.71c5.91-.56 13.78-1.21 17.49-4.05-3.37-3.86-8.41-7.84-12.8-9.2zm-567.1-132.33c-3.62-6.95-22.59-17.57-31.13-18.56 2.84 6.41 22.81 17.52 31.13 18.56m-6.9-19.73c2.24-3.86-21.55-24.19-26.3-25.84.3 3.72 7.55 11.78 10.36 14.36 6.53 5.98 9.2 8.61 15.93 11.48zm6.67 456.11 16.17 4.05c1.71-3.5 2.74-5.56 2.61-9.99-12.7-1.87-13.2-4.36-18.78 5.95zM291.1 533.99c4.48 5.92 5.38 8.05 12.2 13.66 5.8 4.8 10.25 8.78 16.94 10.51-2.58-6.32-20.81-22.69-29.13-24.17zm138.04 507.88-.21-1.85c-3.2-1.12-5.63-2.56-8.08-5.8-4.85.69-8.65 1.72-12.37 4.24 2.04 4.42 5.47 5.51 8.32 9.27 7.06-1.8 6.54-3.88 12.34-5.86m349.58-7.7c.01-.01-.94-3 5.55-3.24 3.21-.11 4.1.63 7.11 1.07-1.11-7.06-7.01-8.34-13.88-6.51-7.14 1.9-10.57 3.99-8.74 12.37 5.82.39 3.16-2.69 9.95-3.69zm38.27-28.51-.74-.89c-5.07-8.45-25.02-9.06-24.68 8.17 5.99-1.74 3.87-5.6 25.42-7.28m-57.46 11.56c5.29-1.25 2.65-2.36 9.21-4.5 5.9-1.93 7.22-1.14 13.49.15-1.67-8.73-6.12-9.16-15.18-7.78-9.1 1.39-10.25 3.96-7.53 12.14zm-22.9 25.41c9.26-2.74 11.47-5.18 22.91-5.13-1.33-7.64-4.93-10.53-13.72-7.89-6.78 2.03-8.97 5.8-9.19 13.02m106.54.65c3.53.34 16.47-2.37 22.86-2.82-1.65-4.7-2.18-6.83-6.4-9.02-8.23-1.67-16.05 3.26-16.47 11.84zm-112.07-16.96 1.77.12c4.1-6.49 10.46-5.98 20.15-6.5-.36-15.88-22.77-11.05-21.92 6.39zM297.77 708.69c.41-1.84.98-1.12-.74-1.81-.89.95-.8 1.12-2.71 2.6-1.33 1.04-1.6 1-2.97 1.94l-15.34 14.59c-3.52 4.2-5.98 7.4-8.89 11.11-3.3 4.23-4.95 6.26-2.94 9.52 1.54 2.5.24.44 2.46 2.16 5.26-3.32 15.18-30.38 31.14-40.11zm-14.03-14.5 1.24-2.05c-7.35.61-29.58 24.2-34.02 32.14l2.79 6.43c6.35-3.97 9.85-16.79 21.51-29.15l6.24-6.23c1.92-1.52.15-.37 2.25-1.14zm548.96-27.3c.82 5.06 3.69 9.89 9.23 10.85 7.39 1.29 10.1-3.17 13.57-6.02-7.61-11.62-22.8-4.83-22.8-4.83m-573.44 73.45c3.91-1.82 12.41-18.29 15.25-22.17 6.65-9.07 14.3-15.02 16.87-18.59-10.23 3.23-22.35 18.13-29.36 27.38-4.21 5.55-5.79 6.3-2.76 13.39zm579.22 285.64c4.22-3.93 9.76-7.34 16.95-7.04.26-.17.62-.38.78-.49l3.4-2.46c-3.13-5.58-9.32-9.65-16.26-5.64-1.85 1.07-4.82 4.23-5.87 6.44-2.84 5.9-1.95 8.02.99 9.18zm-15.44-29.97c-.84 7.18-.5 6.94 3.03 11.63 5.04-4.19 2.45-5.77 7.95-8.04 3.85-1.6 9.18-1.61 13.87-1.1-1.94-15.15-18.77-7.51-24.86-2.49zm-56.46 61.15-3.04-8.87c-12.18-1.1-28.52-2.78-20.03 14.6 8.43-1.8 6.41-4.14 11.63-6.16 6.92-2.66 7.69.85 11.44.44zm-329.49-13.71c2.58 3.62 9.06 7.38 12.89 9.08l17.96-10.29c-2.78-2.8-18.06-9.25-30.85 1.21m400.59 6.61-.04-2.88c-1.58-7.09-3.05-9.95-10.91-10.27-5.17-.21-12.43 1.29-15.7 3.29-1.09 3.54-2.2 9.67.55 12.18 2.25 2.04 3.75-1.09 7.03-3.24 9.88-6.46 11.96-3.03 19.07.92m-469.38 4.71 23.56-.08-4.27-15.23-16.87 3.11zm526.08-340.44c-.48-19.95 4.96-16.3 8.23-24.88-5.87 1.19-11.21 5.6-18.69 7.15-6.46 1.34-17.46.87-21.78 3.82 6.57 2.6 13.99 1.89 21.42 2.15 2.78 3.53 7.21 9.64 10.83 11.76zm61.35 67.84c-1.78-4.41.72-.93-2.46-3.73-.44-.39-3.48-1.84-4.19-2.2-3.09-1.51-4.73-2.57-7.49-4.81-9-7.26-6.97-9.63-11.81-12.87-2.56 11.08.38 14.99 5.82 21.28 7.23 8.34 9.97 6.09 20.13 2.33m-475.54 263.11c5.19 3.04 12.97 3.68 19.58 3.51.52-4.21 2.61-12.32-.89-14.83l-20.04-.58 1.35 11.91zm459.95-227.65-2.01-1.9c-6.95-.6-7.42-1.17-9.66-7.57-1.76-5.06-2.48-7.92-.95-13.5-23.28 3.95-15.15 29.92 12.62 22.97m-164.58 228.72.47-.71c-2.85 6.91-.99 8.36 1.79 14.34 9.67-3.9 8.43-9.1 23.18-5.86-.35-5.9-1.01-7.92-3.25-11.66-8.41-1.44-14.99 1.87-22.19 3.9zm52.4-24.05c-1.47-1.09-5.63-5.97-6.75-7.56-11.14-1.34-25.02 4.2-22.83 16.13 8.91.69 7.18-3.32 13.52-4.64 11.77-2.45 14.99 5.16 16.06-3.94zm102.67-114.82c-16.53-9.19-28.52 7.27-20.7 19.13 1.32 1.99 4.44 4.95 7.35 4.03 3.43-1.09 2.53-4.94 3.02-9.4 1.09-9.8 5.72-9.55 10.33-13.75zM377.55 782.75c-3.21 4.84-9.15 4.72-7.15 14.8 2.13 10.72 19.21 10.39 17.75.66-.29-1.9-2.62-5.64-3.32-8.58-2.07-8.66-2.76-11.95-12.34-13.49 1.75 3.11.12.45 2.28 3.17 1.81 2.3 1.17.97 2.79 3.43zm600.34 23.88c7.48 4.62 3.85 6.38 17.55 6.28-.55-4.94-2.4-7.43-3.06-11.59-.78-4.9.15-7.13.01-11.82-6.89-.68-10.8-1.38-16.59.37-2.65 7.35.56 10.03 2.09 16.77zm-20.21-46.32c-2.65 16.68 17.89 28.1 30.76 17.46-7.09-5.78-24.24-7.51-13.56-22.13-7.58-.17-12.09 1.16-17.19 4.67zm-96.06 227.73c.26-.24.62-.98.74-.76 1.01 1.96.86-8 14.08-11.24l6.65-2.43c-5.24-13.4-14.06-10.68-24.51-4.16-11.88 7.41-11.43 14.53 3.03 18.6zm6.23 22.43c2.92-1.79 1.13-.64 3.92-3.04 1.2-1.03 1.49-1.49 3.34-2.87 8.79-6.55 15.76-6.28 21.2-8.34.27-.1.69-.33.91-.43l1.71-.99c-2.03-4.81-3.08-6.03-6.13-9.55-9.41-1.55-23.65 6.74-28.39 12.05-1.56 3.29-.67 9.19 3.44 13.17M201.99 654.26l5.56 27.7c-17.51-3.41-48.61-31.43-59.32-44.71 3.12 17.31 47.49 50 67.7 53.71-2.02-9.41-9.4-29.54-13.94-36.71zm770.84 158.73c-.22-.25-.55-.53-.71-.67l-2.27-1.75c-6.91-4.59-10.67-5.66-5.59-20.81-7.76-.04-17.07.14-21.26 5.85-2.83 5.54 5.54 27.84 29.83 17.39zm-4.8 91.36-.22-3.27c-.71-2.62-4.03-5.46 1.18-14.65 2.35-4.16 8.69-10.12 9.47-13.34-14.6-5.92-19.38.49-23.47 11.78-4.35 12.07-3.32 22.77 13.04 19.48m-79.21 41.19c-3.96 7.02-15.94 12.43 5.23 23.65l.94-2.13c1.6-4.99.37-6.77 6.91-13.03 3.86-3.7 8.06-6.44 15.82-7.01-6.91-7.11-13.2-12.13-22.22-5.52l-6.68 4.05zm68.86-88.39c5.72 2.2 12.18 3.18 19.81 2.73l1.58-2.83c-16.98-5.39-6.27-27.04-5.89-29.46-7.09-.49-11.24-1.24-17 1.11-3.24 10.92.19 18.18 1.51 28.45zm-60.43 165.38c2.96-1.2 7.13-2.85 10.79-3.78 3.24-.82 8.28-1.07 9.47-2.78-2.35-5.81-3.61-6.77-6.91-11.38-11.69-1.14-26.53 7.61-32.35 13.93-1.47 9.34.45 8.09 2.91 15.23 5.27-2.25 5.38-5.82 16.1-11.22zm26.5-125.91c3.37 4.09 12.72 2.77 18.11 2.51-2.75-7.1-4.6-7.26-.12-14.98 2.99-5.17 6.41-7.84 7.15-12.81-6.52-2.45-20.64-4.25-23.97 2.33-2.33 4.61-5.64 18.71-1.16 22.95zm57.83 9.47c6.71 3.19 10.43 2.31 17.73.01-.14-26.97 2.67-14.64 9.88-27.68-9.88-2.13-17.52-5.58-23.49 2.23-5.35 6.99-5.43 14.78-4.11 25.44zm-63.82 82.28c3.51-7.25 4.7-15.56 15.13-20.7l6.36-2.54c2.88-1.35 1.43-.6 2.66-1.48-11.32-12.63-16.73-12.84-27.93-.06-2.71 3.08-8.81 10.26-9.52 14.29-1.22 6.93 7.6 10.16 13.31 10.49zm19.68-64 .2.61c-2.49 7.2-10.35 15.58 11.29 21.69 1.17-1.85.24-.05 1.4-2.89 6.57-15.99 14.6-26.46 15.45-29.24-26.95-7.59-14.66 1.6-28.34 9.82zm-10-61.39c7.27.08 13.63-.15 19.9-2.86-2.85-8.42-11-7.85-5.19-30.72-22.8.67-27.75 5.74-14.71 33.57zm79.79.66c.95-15.13-15.05-24.21.08-38.45-3.46-2.21-11.65-3.13-15.84-2.39l-2.86.97c-2.84-5.08-12.41 42.14 18.62 39.87m-73.25 149.84c2.5-3.31 3.52-6.78 6.26-9.93 13.13-15.09 14.59-13.13 27.37-17.45-1.03-5.9-13.6-23.9-34.44-5.8-4.37 3.8-10.95 9.95-10.53 17 .36 6.18 7.29 14.28 11.34 16.17zm42.12-45.92c-2.26-10.68 3.18-14.01 7.47-21.69 1.77-3.17 3.35-6.47 5.74-9.27 2.47-2.89 1.52-1.71 4.06-3.35l4.56-3.27c-6-5.39-14.89-10.2-24.15-9.76-4.89 5.64-12.58 17.35-14.95 25.77-2.13 7.58 1.2 9.96 5.47 13.55 2.95 2.46 8.14 6.64 11.81 8.02zM306.16 412.94c15.13 4.4 22.55 29.93 26.76 46.86 11.74 47.26 6.43 163.9 32.49 182.55-4.78-10.83-7.27-13.25-10-26.76-8.53-41.92-3.98-114.72-18.24-160.37-2.18-6.98-19.05-48.84-31-42.28zm632.37-18.1 42.42-9.5c-1.34 8.07-4.54 7.5-11.86 9.74-4.77 1.47-11.29 3.95-16.76 4.4-2.47 1.99-7.57 3.12-11.01 4.14-11.5 3.42-8.3 1.79-9.02 6.2 3.57 3.05 5.65 2.22 11.27 1.19 7.26-1.36 25.75-6.01 31.78-3.62l-49.97 17.55c.02 7.47 1.2 6.88 7.67 5.25 9.09-2.29 32.14-8.54 39.28-8.87-9.44 14.85-39.63 17.74-52 24.69l.81 5.3c7.55 1.05 26.17-7.04 32.14-2.83-5.7 6.43-42.38 11.12-52.82 16.24l.66 5.91.38-.28c9.49.15 43.08-9.06 48.35-4.4-1.23 3.49 2.06 1.09-4.36 2.94l-18.94 3.46c-20.54 3.64-20.49 1.76-20.33 8.56l23.05.25c7.49-.71 16.34-1.82 23.64-1.61-3.35 8.8-11.32 7.23-21.31 9.08-8.31 1.54-15.75 2.53-24.44 4.17-1.43 9.55 5.75 6.29 30.83 5.41-1.55 4.15-3.62 5.7-5.66 8.36l-5.31.46c-9.24 1.02-31.65 3.9-39.22 2.21 1.08 4.49-1.66 1.13 3.75 2.85l30.35 4.56c-10.59 22.81-42.29.31-58.06-7.91-16.57-8.63-50.33-21.92-58.91 3.35 2.95 8.29 16.82 25.16 17.35 30.69h-8.83c-6.71-11.92-30.62-44.1-33.45-50.24-.9 8.53 15.92 39.52 15.58 50.59-8.58.53-7.46-1.58-15.65-12.96-5.75-7.99-21.25-32.4-26.96-35.94 2.37 10.74 18.96 42.33 18.53 49.89l-9.66-.14-34.27-51.49c-.67 3.45 2.73 13.36 4.65 16.7l5.95 16.61c1.77 5.1 5.47 13.45 5.85 18.77l-9.62-.45c-9-13.36-20.15-26.84-28.63-40.21l-5.28-6.78c-1.79-1.76.01-.34-2.4-1.83 2.71 12.52 18.54 42.46 18.26 49.96l-14.4-.21c-1.95-2.45-2.75-4.51-4.46-7.26-1.75-2.8-3.49-4.8-5.28-7.24-4.21-5.75-6.36-8.43-10.79-12.87-15.89-15.92-28.64-14.57-31.23-17.4-1.86-4.51-5.1-68.19-3.99-76.51 9.09 1.31 9.97 1.1 16.86-2.97 10.16-6.03 17.17-11.55 24.88-20.03 9.77-10.77 9.31-10.24 15.27-22.18l12.73.03c-1.9 12.47-15.56 38.71-15.17 48.12l3.69 1.36c3.57-.01 24.59-41.19 30.56-49.64l9.76.05c-1.94 13.06-16.9 40.63-16.38 49.67l3.51 1.38c3.29.1 15.86-24.1 17.56-27 10.38-17.7 10.55-23.91 21.83-24.14-.79 6.94-6.7 22.83-9.59 29.36l-3.33 8.56-2.53 11.65 3.49 1.58c3.24.16 12.93-19.54 15.98-24.92 4.35-7.68 10.41-19.71 15.21-26.13l7.18.45c-2.63 10.46-9.08 26.17-12.97 37.67-4.65 13.71-2.86 10.08-1.16 11.57 4.95 4.34 11.88-13.09 17.49-22.83 18.23-31.7 10.77-27.27 32.94-26.38.16 6.38-10.55 20.74-15.22 29.16-2.53 4.53-2.88 6.24-6.51 8.89-.69 6.13-5.98 8.94-6.42 14.66 9.78.8 27.48 2.22 35.6-2 16.76-8.73 58.57-47.96 64.48-49.98 1.95-4.05 20.85-18.85 25.83-23.28 9.89-8.79 43.04-38.35 54.29-43.13 6.11-2.6 31.45-11.73 38.18-6.35-3.11 2.57-8.18 9.34-11.93 11.7l-33.24 12.84c-4.39 1.58-12.64 3.01-15.72 7.23l1.03 4.49c8.5.38 34.05-10.23 38.92-8.25-6.09 7.5-42.05 15.67-46 18.47-3.8 2.71-3.17 1.07-1.34 5.58 3.1 3.38 22.54-4.2 33.87-5.07l-33.32 13.66c-6.08 2.14-7.18.85-5.62 7.78 5.2.87 22.74-4.48 29.66-6.48.25-.07 4.87-1.09 4.94-1.09 4.52.34 1.11-.81 4.08 1.75l-51.96 19.06zm-541 272.3c1.48 1.17-.55-.88 1.83 1.75.85.95.77.89 1.63 2.04l19.68 25.18c7.14 9.16 14.55 18 21.34 29.87 15.79 27.64 33.96 83.6 37.39 118.73 1.78 18.28 2.06 31.47-20.06 28.27-19.62-2.85-57.05-24.41-63.65-38.37-3.68.29-1.83 1.24-5.56 1.6-3.51-7.65 1.35-5.35-7.02-8.99l-31.08-15.09c-6.56-3.38-13.03-7.85-19.04-12.12-5.36-3.8-12.69-11.03-18.35-13.65 2.03 6.44 12.24 20 16.22 25.75 8.28 11.94 28.26 33.26 39.02 40.76 20.97 14.63 21.45 3.73 26.49 1.34 2.27 3.88 3.67 11.54.84 15.28-2.88 3.4-22.44-1.74-25.69-3.1-8.34-3.51-11.64-7.18-18.82-12.44-9.95-7.31-17.93-12.77-27.2-21.54-6.86-6.5-14.23-14.71-20.34-21.99-20.79-24.76-40.97-51.37-55.28-80.74-11.81-24.22-5.14-19.49 2.88-39.19-15.68 6.55-22.08 31.67-26.04 37.02-3.92-2.63-15.76-18.73-19.16-22.92-11.94-14.7-6.46-5.79-25.23-15.86-17.83-9.58-33.48-24.87-43.17-39.17-19.91-29.4-32.64-88.29-32.72-132.66l25.86 28.53c28.84 28.86 48.83 37.21 60.04 47.17 6.38 5.64 6.74 29.7 16.26 35.16-2.95-7.56-7.49-38.18-6.32-48.07.78-6.69 3.35-16.15 5.53-22.93 1.79-5.56 3.89-15.49 8.33-19.39.2-3.96 1.84-7.37 4.37-9.92 4.36-17.49 46.49-65.29 59.95-70.61-1.17 26.18-16.7 74.94-18.3 108.91-1.03 21.98-.6 38.81 6.91 56.21 4.43 10.24 18.12 30.06 29.59 32.15l2.08-2.91c-3.44-10.41-25.82-11.1-31.53-55.73-10.16-79.38 55.36-164.66-13.46-203.5 10.89-4.63 36.09-4.97 47.74-1.66 15.38 4.37 23.49 10.31 32.22 20.32 16.79 19.23 23.77 47.87 27.47 78.21 7.11 58.35-6.31 100.77 25.51 160.78 2.63 4.98 7.28 12.21 8.83 17.53zm-47.49-248.59c13.13-11.21 87.8-15.11 101.21-15.2 16.71-.12 99.33 2.43 109.03 7.74l-4.33 87.06c-5.25.81-46.94.89-66 2.7-36.62 3.47-72.06 11.4-94.84 39.95-5.49 6.87-21.97 34.94-20.35 45.38-5.62-44.63 1.2-85.75-11.56-133.35-5.56-20.75-10.9-26.9-13.17-34.28zm56.79 145.11 3.84 1.45c-2.93-5.58-10.68-12.78-11.95-18.09 3.61-5.32 9.63-12.28 15.11-15.07 3.87 1.98 11.3 11.17 14.68 14.26l-8.75-17.9 3.4-3.11c15.52-10.87 14.38.74 25.94 5.85-2.18-6.12-5.2-7.53-7.22-14.19l18.32-4.7 10.27 10.43-4.13-11.61c17.14-4.09 23.59-5.79 32.98 5.47 4.12 4.95 18.18 18.49 19.35 24.23-34.5.21-66.68 10.95-87.96 29.48-36.24 31.57-27.02 71.54-30.12 85.93-.36-1.72-11.42-22.93-15.42-36.75-4.08-14.11-6.03-30.9-.44-45.58l15.87 7.81-13.44-11.5c.57-5.99 4.86-13.93 7.93-16.67 2.54 1.31 3.74 2.3 6.47 4.55l5.24 5.7zm638.08 230.79c5.16 2.18 11.96 16.57 11.95 22.48l2.23 3.27c-1.9 1.24-.85 1.61-6.92.8l-.18 7.32c-5.1 1-2.64 1.11-7.62 2.16-6.89-14.42-5.79-30.81-8.81-38.28-6.24-15.42-1.51-4.57-2.86-10.35l-26.12-34.76c4.17-.31 6.52 1.25 9.73 2.49 4.37-3.24 6.62-8.02 15.67-4.84 10.43 3.67 7.9 36.22 12.94 49.71zM359.8 828.36c-12.11-.93-6.53-3.93-12.72-8.85-5.26-4.2-7.82-5.21-10.41-10.44 4.61 1.59 11.07 6.73 14.5 9l40.18 26.79c-.05 8.75-4.81 10.81-12.22 6.39-5.65-3.38-4.76-7.98-5.95-14.05l-10.01 1.08c-2.18-5.1-1.95-3.79-3.36-9.92zm540.15 58.51c2-18.33-1.91-22.95 10.02-26.49-.02 5.17-.26 13.82-1.41 17.81-1.42 4.94-4.35 6.74-8.62 8.69zm-9.49 18.15c2.22-4.74 12.09-15.49 15.85-18.22-1.21 16.1-21.22 46.76-35.72 49.13.97-11.67 18.05-14.7 23.92-24.67-1.2-3.97-2.04-3.48-4.05-6.24M737.28 986.1c7.93-9.3 41.1-32.6 47.39-6.86-8.4-.24-16.31 2.5-24.03 4.28-5.02 1.16-18.67 5.74-23.36 2.58m-383.85 52.58c-1.2 10.81-12.85 10.41-18.27 11.03-19.81 2.26-14.84.04-21.52 8.17-18.26 35.72-34.75 8.74-38.87 48.49l4.44-5.5c7.61-13.22 3.62-12.51 16.63-13.86-2.84 4.9-4.29 3.8-6.99 8.19 6.57-.23 15.73-.52 20.46-2.76 5.08-3.57 1.45-7.13 1.24-9.19-.44-4.2 12.13-24.75 13.46-26.1l29.01 1.69c1.22-3.87 3.14-7.29 6.18-9.65l-.71.53c1.87-6.11 4.99-11.12 7.93-16.05 12.01.09 22.88 7.38 35.12 7.56l23.5-26.74c5.56.97 14.3 7.06 19.17 9.89 33.28 19.29 16.69 8.77 55.67-10.19 4.27 2.45 23.84 22.73 25.22 26.89l-2.96 4.77c-9 .66-10.7-3.99-15.08 6.79 4.02 1.91 10.66 6.63 13.43 9.58-2.5 10.92-2.67 7.18-.25 17.94-5.53-.43-19.84-3.43-23.73-5.85-8.67-5.39.97-7.26-17.23-10.11-19.4-3.05-33.35.51-51.74 1.65-11.63.71-10.73-4.19-25.96-1.88-22.85 3.44-46.71 16.61-62.12 21.4l-3.62 2.28c-21.75 11.52-36.44 21.68-53.97 39.67l-13.98 15.93c-1.75 1.67-1 1.11-2.67 1.88-1.65 5.26-7.09 12.07-9.9 16.84-3.49 5.92-5.56 11.42-8.66 17.23-5.15-6.57 1.24-41.37 3.34-47.49 2.66-7.77 4.94-10.61 9.44-16.88 4.85-6.72 3.55-12.79 5.1-22.05 8.62-4.14 8.15 1.53 13.22-9.27 2.72-5.77 4.86-11.31 7.57-15.87l15.93-2.38 12.28-26.63h15.71c2.46-4.72 8.55-10.68 12.13-15.17 6.67-8.37 6.63-6.88 20.04-7.38 8.51-.32 18.69 1.17 23.41-3.99 2.67-2.91 11.75-13.13 13.09-15.54l27.08 1.91c.41.09.72.16 1.12.27l2.09.81c.27.1.69.27 1.01.48l8.3-.57c16.95 1.16 18.03-19.72 31.96-14.17 14.06 5.59 24.86 12.57 35.9 8.85 7.42-2.5 17.78-6.53 26.5-7.24l-1.75 42.18c-9.65-3.83-20.26-16.21-29-20.67-8.08 1.83-33 16.17-38.27 15.54-4.28-.52-34.56-15.52-39.07-14.73-9.68 1.7-15.61 22.37-33.69 20.73-9.05-.83-18.22-2.64-27.43-2.04l-6.16 8.21c-2.67 2.89-.39.85-3.1 2.61zm473.9 45.28c16-.83 10.66 1.79 17.47 5.07.57.28 8.12-.29 10.4 14.4 1.16 7.53 1.28 10.64-4.8 12-6.55-9.14 3.98-4.21-17.18-23.53-1.12-1.03-2.71-2.15-4.01-3.62-3.32-3.75-1.16-.72-1.88-4.31zM708.64 715.7c-3.03-2.39-6.06-2.6-9.75-3.58-2.62-.7-6.2-1.87-8.25-2.91-7.02-3.53-6.9-9.32-4.76-16.11 5.28 1.18 1.64 2.04 10.5 4.75 9.57.41 4.37-.99 14.78-.7l6.66 1.17c3.5.12 7.74-.38 14.08 5.41 4.01-1.73 1.39-1.46 6.79-2.49 2.46 4.13 2.42 5.67 8.37 7.17 2.43-2.82 1.84-2.06 4.8-3.38 4.09 2.26 2.88 2.49 6.36 5.85l10.1-3.02c15.68 16.25 10.66-3.01 23.22 6.58 16.59 12.66 11.36-.47 22.73 3.57-1.29-19.18-9.17-26.53-12.01-34.16-11.28-.14-7.89 1.76-15.45-3.48-5-3.47-7.27-.97-12.54-4.87-8.38-6.19-4.55-1.98-13.77-4.71-7.25-2.16-2.33-4.38-10.96-6.61-10.66-2.76-5.6-2.04-13.01-5.75-3.42-1.72-9.84-2.35-14.06-3.42-17.57-4.45-15.28-6.24-20.74-10.67-.26-.21-.59-.44-.82-.61l-2.71-1.89c-3.83-.5-12.79-1.73-14.97-3.88-2.97-2.94-1.76-3.94-3.45-6.37s.03.04-2.42-2.46c-6.43-6.56 4.57-11.61 21.47-9.5 8.3 8.69 74.23 24.41 85.38 25.97 17.04 2.38 17.53-1.33 30.02 6.56 7.15-2.99 6.08-1.81 13.82-.54 11.85 1.95 23.73-1.89 29.62-.92 6.23 1.04 2.8 3.37 12.49 1.96 14.97-2.17 9.88 1.15 23.22 6.24 8.7 3.31 13.24 5.18 21.86 9.27 31.32 14.89 26.48 21.61 37.32 25.09 5.46 1.75 4.47 3.2 7.74 8.38 3.07 4.87 16.47 22.45 16.93 27.16 2.34 1.5.81.09 3.22 2.51.83.83 1.52 1.9 2.15 2.82l11.01 15.23c19.33 26.28 29.56 37.22 33.62 70.99 2.71 22.49 2.74 44.42 3.66 67.22.3 7.26 1.21 9.53-1.28 15.71-2.71 6.75-1.49 7.53-1.72 15.47-.27 9.48-.72 23.63-5.69 30.09l-4.25-8.57c3.67 34.2-1.14 19.33-8.44 42.86l-4.44-6.24c-.96-2-1.27-2.57-2.01-4.06.66 8.07 3.4 13.89-.52 22.02-2.44 5.07-7.59 8.8-9.63 14.03-2.94-2.07-.49.2-2.85-2.98-.04-.05-1.28-2.41-1.38-2.58-.66 13.59-1.88 11.56-9.43 19.33-2.09 2.15-10.3 11.14-14.08 13.06l-2.41-9.9c-2.62 1.64-.62.76-.98 8.96-.35 8.07-9.74 14.15-17.01 16.51-1.46-3.98-3.52-6.54-6.15-9.34l1.07 1.54c1.68 4.37 2.51 5.84 1.94 11.57-6.95 4.01-15.54 11.07-22.68 12.54l-1.56-13.31c-.14.32-.24.74-.3.99l-1.73 12.12c-1.34 3.8-2.67 4.49-7.14 6.39-20.03 8.5-11.62 2.49-19.5-.8l-3.87 5.14c-7.81-1.26-8.31-3.7-16.3.9-6.46 3.73-6.04 5.01-14.44 5.02-2.92-3.8.9-5.87-5.87-9.77-14.12-8.13-15.81-6.85-34.09-3.27-1.15 14.08 6.91 17.42 7.25 23.62-6.92 5.23-8.19.58-11.12 6.6l16.88.46c4.01 8.8 4.3 22.26 2.86 33.33l-3.69-.32-2.31.47c4.31.26.08-.33 1.92 2.14l1.6 1.44c-7.97 2.87-13.17 5.66-22.07 7.21l-3.65-4c-5.01-2.77-16.37-.69-19.48 3-1.53 1.81.16-.19-1.33 2.3l-1.47 2.4c-2.55 3.27-9.07 6.92-10.95 13.56 9.18 5.53 2.4-.17 6.94 7.36 7.87-.27 8.36-1.92 17.46-.76 22.44 2.88-2.29 5.7 30.2 1.06 8.58-1.23 8.98-2.65 18.04-.84-4.1 7.1-4.8 1.41-11.08 6.91.18.25.53.28.62.67.6 2.18 8.25 2.66 12.24 8.17-7.57.04-13.77-1.17-18.96 2.63 4.43 2.47 10.52 4.89 12.41 10.65-6.7-1.34-7.61-4.58-17.34-5.91l2.79 12.41c-18.38 1.56-29.19-10.48-42.27-16.57-27.12-12.64-47.81-6.3-44.87-22.99.92-5.23 3.37-5.91 3.91-6.37.55-3.22-.88-.45 1.81-4.06.18-.24 2.09-2.1 2.48-2.46l16.38-13.53c10.84-7.85 22.29-11.54 23.38-16.04l-11.69.4c.96-5.6 2.26-11.3 1.83-17.98-3.86 8.23-.99 12.31-9.83 19.52l-17.13-.31-3.73-20.35c.01 14.15 1.7 21.48-7.72 20.15-4.88-.68-4.4-2.95-5.1-3.99l-11.22 4.22c1.17-7.21 3.44-11.91.19-19.62l.06 1.95c-.34 10.94-1.32 10.71-6.05 16.97-9.61.76-18.07 1.83-26.63-.82l-3.78-19.12c6.07-7.18 9.25-5.14 8.28-19.06 13.27 1.65 28.84 15.05 39.68 20.55-6.54-25.79-40.57-22.78-42.93-25.29-2.34-4.52 1.73-5.85-.18-13.28-.86-3.36-2.03-3.23-2.34-6.59-.2-2.25.87-5.83 1.2-8.72l-.11-2.51c-3.96-14.83-8.94-2.92-10.2-18.32-.57-6.93-1.27-19.54-.39-26.57 9.12-3.79 17.45-6.37 27.99-6-2.09 3.4-5.76 4.37-8.7 7.02-2.53 2.28-.9.29-2.63 3.1 18.84.46 27.39-11.79 44.76-14.72 18.51-3.12 33.93 2.07 51.7-2.92-2.08 5.07-4.44 3-6.43 10.28l6.81-3.41c6.47-3.48 18.85-14.9 25.3-19.96 6.76-5.31 18.63-13.79 27.23-17.25 43.27-24.69 73.29-40.59 71.18-105.1-3.87.12-9.9 4.38-11.91 6.04-4.25-4.74.69-3.35-6.24-3.36-3.97 6.33-5.4 16.2-10.83 24.83-3.41 6.27-6.48 8.87-12.62 14.08-13.63-2.09-21.86-8.31-30.87-17.93-7.46-7.97-5.04-5.27-5.18-8.88-.39-9.59-2.76-4.53-5.99-23.69-1.75-10.43-4.34-14.34-11.85-19.35-7.22-.17-1.69.62-5.44.96-4.75.42-2.75-.4-8.44-1.87l-4.95-1.16c-5.1-2.33-15.93-12.24-17.91-18.29l13.02 1.59c-1.44-4.71-.75-3.68.08-5.66l8.79 2.06 1.14-1.22-.01-6.24c6.13-.06 6.06.5 11.21 2.69 1.67-2.94.6-3.63 3.74-5.44 9.01 3.99 20.6 16.61 26.28 26.47 12.84 22.31 7.36 30.14 12.39 40.18l7.28-6.5c.1-20.58 7.83-61.75 29.72-68.38l10.23-2.4 1.69 2.38c11.21 5.52 15.4 7.47 24.43-1.46-4.69-4.65-11.13-4.35-15.48-10.27-3.57-.45-6.61-4.68-8.33-4.96l-7.12 8.19c-7.73-1.45-14.18-7.45-17.69-13.87-3.7-6.78-4.16-16.45-7.27-23.24-3.44 2.14-2.25 1.84-5.28 5.37l-3.44-4.45c-16.4 4-.62 3.79-27.5 3.64-6.37-.03-8.03 1.42-12.68 1.96-4.56.54-7.37-1.19-12.21-2.08l-.56-2.94c-3.56-8.82-101.16-27.51-103.79-26.92z" class="fil1"></path><path d="M578.48 1242.54c-5.13-.2-16.63-3.84-21.66-5.16-6.81-1.78-6.9-.93-9.14-19.56-1.59-13.09.73-13.33 6.98-19.81 12.6-13.1 22.06-15.8 39.66-8.28 8.23 3.51 6.38 12.08 7.75 21.58 1.66 11.35-2.13 10.68-9.43 17.17-4.9 4.35-9.4 9.78-14.16 14.06m22.27-75.89c9.99 0 19.57 1.8 28.42 5.12l-.22 10.59c-4.57.48-27.47 5.14-27.49 5.13-1.52-.22-9.13-3.48-12.87-4.5-4.82-1.31-9.42-1.45-14.44-2.95l-.76-8.65a81 81 0 0 1 27.37-4.73zm33.62 7.27a81.53 81.53 0 0 1 38.63 36.84c.06.74.04 1.46-.06 2.13-3.75-.57-8.29-3.54-13.07-5.19-11.43-3.92-4.7-6.75-20.17-19.67-7.33-6.11-5.58-4.34-5.33-14.12zm44.97 41.12c9.73-.91 80.03-1.22 85.71 1.01l-.09 12.32-81.31.63-4.3-13.97zm-161.75 13.77-75.66.12-1.03-13.33c14.34-2.62 63.66-1.3 80.87-.71l-4.17 13.92zM654 1211.34c17.71 2.3 19.82 11.32 23.14 26.69 3.4 15.75-3.07 24.99-11.35 34.5-4.93-.4-12.92-5.15-17.1-7.08-1.98-16.76-5.26-22.67-6.4-30.42-1.01-6.87 9.02-16.74 11.71-23.7zm-137.64 23.1-.52 14.42c-12.4 1.73-67.26.51-87.05.51-20.22.01-22.63 2.51-22.69-7.59-.05-6.77-.06-7.3 6.32-7.63l103.93.3zm168.94-.16 105.33-.07c8.27-.11 9.48-.91 9.46 7.57-.01 10.21-1.84 7.59-23.27 7.59-18.23 0-81.57 1.22-90.58-.53-1.32-4.01-1.19-9.28-.94-14.56m-103.26 14.98c-.4-5.46 9.63-13.7 13.84-17.49 6.84-6.15 7.91-10.17 20.11-6.28 6.04 1.93 18.71 4.87 21.29 9.71 1.52 2.83 5.56 21.69 5.94 25.66.58 6.04-1.25 7.14-4.28 10.17-14.17 14.21-15.52 18.16-30.48 14.2-6.65-1.76-18.16-4.19-20.75-10.27-.62-1.46-5.54-24.04-5.66-25.7zm-62.28 4.61c-.15-1.99-.23-4-.23-6.03 0-14.19 3.65-27.53 10.05-39.14l12.14-.35c.78 4.42 4.39 28.52 3.91 30.41-.93 3.7-8.08 11.01-9.78 25.31l-12.39.51c-1.42-4.69-2.75-7.75-3.7-10.72zm27.8 55.35a81.6 81.6 0 0 1-21.39-29.17c-1.08-3.95-1.44-7.6-.95-10.48l11.95-.27c12.76 25.41 18.45 15.17 20.62 29.43.97 6.37 2.88 9.14 3.95 14.83-5.09-.11-9.86-1.75-14.18-4.34m109.73-3.1c-1.91 1.85-3.9 3.61-5.98 5.26-2.51 1.86-4.94 3.61-7.37 5.24-11.08 6.97-23.95 11.33-37.77 12.26l-3.53-.11c-.27-.08-.65-.35-.86-.43-.21-.07-.58-.3-.82-.49 4.94-2.22 9.86-2.78 14.84-5.02 5.13-2.31 9.59-7.3 11.77-8.24 4.29-1.85 11.56-1.53 16.68-3.24 10.86-3.64 10.44-7.46 13.04-5.24zm24.2-49.73c-1.75 16.78-8.61 32.03-19 44.18-.69.49-1.4.86-2.08 1.13l8.73-25.46c11.01-15.58 7.56-12.36 12.35-19.85m-163.4 9.44c-.51-2.29-.9-4.61-1.21-6.97-.37-1.2-.79-2.23-1.29-2.91-2.54-2.6-138.75-1.72-142.93-.27-6.78 19.43 9.51 14.42 23.7 14.42 38.38 0 85.32 1.11 121.77-.04.1-1.16.08-2.66-.04-4.23m166.68-8.5c-.38 3.36-.94 6.65-1.7 9.88-.07.83-.14 1.71-.21 2.65l126.37.25c19.59 0 29.6 4.38 25-14.54-15.39-2-140.64-.77-143.5-.77-2.89 0-4.7-.59-5.96 2.54zm-122.73 36.29c32.68-16.09 22.29-10.53 40.46-4.86 4.96 1.55 12.28 2 15.57 4.58 3.26 4 5.65 13.73 4.8 19.54-9.87 6.97-22.94 12.93-37.85 8.32-17.02-5.27-20.64-7.58-22.98-27.58m82.98-189.77 31.02.09c.79 33.99 15.58 60.56 34.85 84 3.64 4.43 17.42 17.67 19.23 21.81-25.93-.24-47.11 4.81-67.59-28.41-10.16-16.48-22-54.19-17.51-77.5zm-74.1-790.23c.69-4.81 29.76-40.63 32.49-42.19 3.12 2.75 31.52 38.27 32.35 42.13l-64.85.06zm-8.67 28.68c-.3-4.18-.63-13.39-.11-17.35.84-6.43 3.53-7.78 10.57-7.64l.48 14.36h16.12l.34-14.76 26.66.1.19 15.13 15.95.15.14-14.67c13.97-3.54 11.52 14.35 10.9 24.83l-81.24-.13zm-6.43 7.06c4.16-1.7 73.99-1.09 87.58-.87 14.37.23 13.89 11.21 7.08 13.67l-88.32.65c-13.63-.15-13.91-10.38-6.34-13.45m-4.16 28.78c-.87-9.03 1.79-10.82 10.66-10.82h67.28c6.44 0 18.75-2.02 23.02 2.1 5.81 5.62.71 12.64-8.05 12.63l-82.33.01c-5.53 0-7.83-1.61-10.59-3.93zm88.27 662.15c2.26-14.06-2.9-138.31-3.28-163.94-.8-53.83-2.39-108.1-3.54-162.2l-5.71-244.48c-.2-14.31-3.56-71.36-1.19-80.6l11.42.45 31.91 651.51-29.61-.73zm-72.17-649.62c.94-.53 1.1-.7 3.2-1.14 2.41-.51.13-.14 2.42-.34 1.75-.15 5.38.06 7.44.07l-15.83 651.66h-29.15l31.93-650.25zm18.7-.67 13.21-.32-.11 651.2-24.54.07c2.74-160.28 7.08-329.65 8.45-488.95l.22-1.25 2.78-160.76zm19.63-.64 13.64.1 11.14 651.5-24.79-.24V389.36zm69.72 655.43c3.47 4.83 6.25 13.56-2.81 15.54l-126.98.29c-7.56.03-17.41 1.87-19.04-6.06-2.32-11.28 6.82-10.37 15.3-10.37zm-150.94 27.19c-.73-9.35 7.73-8.95 16.16-8.95h122.24c8.64 0 14.07-1.52 16.81 5.05 4.11 10.81-6.35 11.63-15.57 11.63H542.28c-8.41 0-16.72 1.2-17.41-7.72zm-2.23 22.63c-8.25-16.47 21.79-12.73 30.87-12.73h89.81c9.9 0 37.12-2.82 40.35 4.88 6.71 16-21.19 11.98-30.38 11.97l-89.81-.03c-7.97-.01-37.44 2.7-40.84-4.09m-46.73 114.88c3.31-6.74 33.7-28.96 48.61-71.47 4.43-12.6 4.49-20.22 6.05-33.85l31.05-.33c5.37 36.78-17.24 106.15-60.49 105.92-8.39-.04-16.88.34-25.22-.28zm80.59-35.55c2.67-11.06 5.58-11.2 9.53-32.23 1.94-10.37 1.98-29.39 4-36.72l14.66-1.17c2.36 0 5.26-.14 7.54-.06 1.39.06 2.33.09 3.71.31l2.32.55c.32.08.76.19 1.14.34l.54 57.01c-7.46 1.79-15.1 1.58-22.73 3.82-8.59 2.53-12.52 5.27-20.7 8.16zm49.57-69.9 30.31-.18c2.41 14.64 1.47 27.69 4.71 42.98 1.82 8.63 8.69 28.52 12.61 33.22-5.07-1.34-20.41-16-47.03-17.42z" style="fill:#fefefe"></path><path d="M50.2 182.55V51.34h41.44c15.7 0 25.92.63 30.69 1.94 7.33 1.99 13.46 6.27 18.4 12.86 4.96 6.6 7.43 15.12 7.43 25.57 0 8.06-1.44 14.81-4.26 20.31-2.86 5.5-6.46 9.81-10.85 12.96-4.37 3.11-8.83 5.19-13.37 6.2-6.18 1.25-15.07 1.89-26.75 1.89H76.12v49.48zM76.12 73.51v37.38h14.09c10.16 0 16.93-.69 20.35-2.07 3.43-1.37 6.11-3.52 8.05-6.47 1.93-2.93 2.92-6.33 2.92-10.23 0-4.8-1.37-8.74-4.09-11.85-2.74-3.11-6.17-5.08-10.36-5.87-3.07-.58-9.24-.88-18.53-.88H76.13zm93.3 109.04V51.34h94.73v22.17h-68.81v29.14h63.99v22.17h-63.99v35.56h71.32v22.17zm119.22 0V51.34h54.42c13.68 0 23.63 1.19 29.82 3.54 6.23 2.35 11.16 6.53 14.89 12.55 3.73 6.05 5.6 12.92 5.6 20.67 0 9.87-2.8 18-8.43 24.41-5.63 6.42-14.03 10.44-25.23 12.13 5.57 3.32 10.15 6.99 13.76 11 3.64 4 8.52 11.11 14.65 21.32l15.62 25.59h-30.9l-18.53-28.65c-6.64-10.17-11.19-16.59-13.67-19.25-2.44-2.63-5.04-4.46-7.77-5.43-2.77-.98-7.12-1.47-13.08-1.47h-5.25v54.79h-25.92zm25.92-75.68h19.13c12.39 0 20.11-.56 23.21-1.63 3.06-1.07 5.5-2.92 7.24-5.55 1.75-2.63 2.62-5.93 2.62-9.87 0-4.43-1.16-7.97-3.46-10.72-2.29-2.73-5.53-4.43-9.71-5.14-2.11-.31-8.4-.46-18.86-.46h-20.17v33.35zm96.38 33.17 25.2-2.57c1.52 8.65 4.55 14.97 9.17 19.04s10.84 6.07 18.68 6.07c8.28 0 14.54-1.79 18.73-5.4 4.2-3.6 6.32-7.81 6.32-12.64 0-3.11-.89-5.74-2.65-7.94-1.75-2.17-4.86-4.07-9.27-5.65-3-1.09-9.86-2.99-20.57-5.74-13.79-3.54-23.48-7.88-29.05-13.05-7.83-7.23-11.74-16.06-11.74-26.47 0-6.69 1.85-12.98 5.51-18.82 3.7-5.83 8.99-10.26 15.94-13.32 6.94-3.05 15.28-4.58 25.11-4.58 16 0 28.07 3.64 36.14 10.94 8.1 7.3 12.33 17.01 12.75 29.2l-25.92.91c-1.1-6.78-3.45-11.64-7.06-14.6s-9.03-4.46-16.24-4.46c-7.44 0-13.29 1.6-17.48 4.77-2.72 2.04-4.09 4.76-4.09 8.18 0 3.11 1.28 5.78 3.85 7.97 3.24 2.85 11.13 5.77 23.68 8.82 12.54 3.02 21.81 6.21 27.8 9.45 6.01 3.26 10.72 7.68 14.12 13.35 3.39 5.65 5.1 12.6 5.1 20.88 0 7.53-2.03 14.58-6.11 21.14-4.09 6.57-9.84 11.46-17.28 14.63-7.45 3.2-16.74 4.8-27.85 4.8-16.18 0-28.61-3.83-37.27-11.49-8.67-7.63-13.82-18.78-15.52-33.41zm126.01 42.52V51.35h94.73v22.17h-68.81v29.14h63.98v22.17h-63.98v35.56h71.32v22.17zM656.17 51.35h51.18c10.15 0 17.7.43 22.67 1.28 5.01.88 9.45 2.69 13.38 5.4 3.94 2.75 7.21 6.39 9.83 10.94 2.63 4.55 3.94 9.69 3.94 15.33 0 6.11-1.61 11.76-4.82 16.87-3.22 5.13-7.6 8.94-13.11 11.51 7.76 2.35 13.73 6.33 17.93 11.94 4.17 5.62 6.26 12.23 6.26 19.83 0 5.99-1.34 11.79-4.06 17.44-2.71 5.65-6.4 10.17-11.11 13.55q-7.02 5.04-17.34 6.24c-4.28.46-14.68.76-31.15.88h-43.59V51.35zm25.92 21.8v30.24h16.93c10.03 0 16.29-.16 18.73-.47 4.41-.52 7.89-2.07 10.43-4.67 2.53-2.6 3.78-5.99 3.78-10.2 0-4.07-1.1-7.33-3.27-9.87-2.17-2.53-5.42-4.07-9.72-4.58-2.56-.31-9.92-.46-22.04-.46H682.1zm0 52.04v35.19h23.95c9.3 0 15.23-.28 17.73-.79 3.85-.73 6.97-2.48 9.39-5.26 2.41-2.81 3.63-6.5 3.63-11.18 0-3.97-.92-7.3-2.8-10.04-1.85-2.76-4.56-4.76-8.07-6.02-3.52-1.25-11.17-1.89-22.94-1.89H682.1zm218.45 57.36h-27.92l-11.05-29.87h-51.33l-10.63 29.87h-27.42l49.69-131.21h27.38l51.27 131.21zm-47.36-52.04-17.79-48.56-17.27 48.56zm78.35 52.04v-55.22L884.6 51.34h30.3l30.27 51.95 29.46-51.95h29.74l-46.93 76.17v55.04zm184.49 0h-27.92l-11.05-29.87h-51.33l-10.64 29.87h-27.41l49.69-131.21h27.38l51.27 131.21zm-47.37-52.04-17.78-48.56-17.28 48.56z" style="fill:#040301;fill-rule:nonzero"></path></g></g><!-- source: https://football-logos.cc --></svg>