<svg xmlns="http://www.w3.org/2000/svg" viewBox="0 0 726.72 1080"><defs><style>.cls-1{fill:#ffed00;}.cls-1,.cls-2,.cls-3,.cls-4,.cls-5,.cls-6{fill-rule:evenodd;}.cls-2{fill:#f1d009;}.cls-3{fill:#121209;}.cls-4{fill:#fff;}.cls-5{fill:#17a644;}.cls-6{fill:#213a8d;}</style></defs><g id="Layer_2" data-name="Layer 2"><g id="Layer_1-2" data-name="Layer 1"><polygon class="cls-1" points="106.27 24.94 124.69 82.16 184.6 82.06 136.04 117.27 154.67 174.38 106.27 138.96 57.87 174.38 76.5 117.27 28 82.06 87.9 82.16 106.27 24.94"/><polygon class="cls-2" points="106.27 107.54 154.67 174.38 136.04 117.27 106.27 107.54 184.6 82.06 124.69 82.16 106.27 107.54 106.27 24.94 87.9 82.16 106.27 107.54 106.27 107.54 28 82.06 76.5 117.27 106.27 107.54 57.87 174.38 106.27 138.96 106.27 107.54 106.27 107.54 106.27 107.54"/><polygon class="cls-1" points="271.09 0 289.51 57.22 349.42 57.12 300.86 92.33 319.49 149.44 271.09 114.02 222.69 149.44 241.32 92.33 192.82 57.12 252.72 57.22 271.09 0"/><polygon class="cls-2" points="271.09 82.6 319.49 149.44 300.86 92.33 271.09 82.6 349.42 57.12 289.51 57.22 271.09 82.6 271.09 0 252.72 57.22 271.09 82.6 271.09 82.6 192.82 57.12 241.32 92.33 271.09 82.6 222.69 149.44 271.09 114.02 271.09 82.6 271.09 82.6 271.09 82.6"/><polygon class="cls-1" points="455.56 0 473.98 57.22 533.88 57.11 485.32 92.32 503.96 149.44 455.56 114.01 407.15 149.44 425.79 92.32 377.28 57.11 437.18 57.22 455.56 0"/><polygon class="cls-2" points="455.56 82.6 503.96 149.44 485.32 92.32 455.56 82.6 533.88 57.11 473.98 57.22 455.56 82.6 455.56 0 437.18 57.22 455.56 82.6 455.56 82.6 377.28 57.11 425.79 92.32 455.56 82.6 407.15 149.44 455.56 114.01 455.56 82.6 455.56 82.6 455.56 82.6"/><polygon class="cls-1" points="620.39 24.94 638.82 82.16 698.72 82.06 650.16 117.27 668.8 174.38 620.39 138.96 571.99 174.38 590.63 117.27 542.12 82.06 602.02 82.16 620.39 24.94"/><polygon class="cls-2" points="620.39 107.54 668.8 174.38 650.16 117.27 620.39 107.54 698.72 82.06 638.82 82.16 620.39 107.54 620.39 24.94 602.02 82.16 620.39 107.54 620.39 107.54 542.12 82.06 590.63 117.27 620.39 107.54 571.99 174.38 620.39 138.96 620.39 107.54 620.39 107.54 620.39 107.54"/><path class="cls-3" d="M32.37,264.48q146.58-35,331-35.74,184.41.8,331,35.74c20.13,4.38,31.85,22.45,32.38,37.33V715.65c0,201.21-162.53,364.35-363.06,364.35h-.6C162.6,1080,0,916.86,0,715.65V301.81c.53-14.88,12.25-32.95,32.37-37.33Z"/><path class="cls-4" d="M713.28,314.36l-.6,399.69c0,194.7-155,350.74-349,350.74h-.53c-194,0-349-156-349-350.74l-.66-399.69C12.78,290.12,21.85,280,43.1,275.7c96.52-18.6,193.18-31.22,320.29-32.88,127.05,1.66,223.71,14.28,320.3,32.88C704.87,280,713.94,290.12,713.28,314.36Z"/><polygon class="cls-3" points="168.82 672.8 251.24 672.8 251.24 639.79 323.07 639.79 323.07 672.8 363.39 672.8 403.71 672.8 403.71 639.79 475.48 639.79 475.48 672.8 557.97 672.8 557.97 639.79 629.73 639.79 629.73 672.8 698.71 672.8 698.71 736.71 363.39 736.71 28 736.71 28 672.8 96.99 672.8 96.99 639.79 168.82 639.79 168.82 672.8"/><path class="cls-1" d="M698.72,315.43V659.12H643.43v-26a7,7,0,0,0-6.81-7H551.08a7,7,0,0,0-6.82,7v26H489.18v-26a7,7,0,0,0-6.82-7H396.89a7,7,0,0,0-6.88,7v26h-53.3v-26a7,7,0,0,0-6.81-7H244.43a7,7,0,0,0-6.82,7v26H182.46v-26a7,7,0,0,0-6.82-7H90.17a7,7,0,0,0-6.82,7v26H28V315.43c0-24.58,4.31-20.14,24.43-26.51,93.81-16.35,187.3-30.62,311-31,123.6.4,217.09,14.67,311,31C694.41,295.29,698.72,290.85,698.72,315.43Z"/><path class="cls-5" d="M643.44,633.15a7,7,0,0,0-6.82-7H551.08a7,7,0,0,0-6.82,7v26H489.18v-26a7,7,0,0,0-6.82-7H396.89a7.05,7.05,0,0,0-6.88,7v26h-53.3v-26a7,7,0,0,0-6.82-7H244.43a7,7,0,0,0-6.82,7v26H182.46v-26a7,7,0,0,0-6.82-7H90.17a7,7,0,0,0-6.82,7v26H28l70-98.65.06-.06c7.75-10.9,13.18-14.15,29.93-14.15H598.68c16.75,0,22.18,3.25,29.93,14.15l.06.06,70,98.65H643.44Z"/><path class="cls-6" d="M644.76,754.37a18.18,18.18,0,0,0-11.26,0l-81,25.65a17.27,17.27,0,0,1-11.25,0L461,754.24a17.69,17.69,0,0,0-11.26,0l-81,25.64a20.35,20.35,0,0,1-5.37.93,19.43,19.43,0,0,1-5.36-.93l-81-25.64a17.69,17.69,0,0,0-11.26,0L185.5,780a17.26,17.26,0,0,1-11.25,0l-81-25.65a18.18,18.18,0,0,0-11.26,0L32,770.45a303,303,0,0,0,7.22,32.82L82,789.51a17.69,17.69,0,0,1,11.26,0l81,25.65a17.66,17.66,0,0,0,11.25,0l80.24-25.78a17.69,17.69,0,0,1,11.26,0L358,815a19.43,19.43,0,0,0,5.36.93,20.35,20.35,0,0,0,5.37-.93l81-25.64a17.69,17.69,0,0,1,11.26,0l80.24,25.78a17.67,17.67,0,0,0,11.25,0l81-25.65a17.69,17.69,0,0,1,11.26,0l42.77,13.76c3-10.9,5.36-21.86,7.21-32.82ZM357.37,780l-81.5-25.78a2.49,2.49,0,0,1,.66.13l81.57,25.84C357.83,780.15,357.63,780.08,357.37,780Zm12,0-.47.13,81.31-25.78a3.18,3.18,0,0,1,.66-.13Z"/><path class="cls-6" d="M357.76,851.23l-81-25.65a17.66,17.66,0,0,0-11.25,0l-80.24,25.78a17.22,17.22,0,0,1-11.26,0L93,825.72a18.08,18.08,0,0,0-11.25,0L50.05,835.88a331.67,331.67,0,0,0,13.84,30.69l17.81-5.71a17.52,17.52,0,0,1,11.25,0l81,25.64a17.69,17.69,0,0,0,11.26,0l80.24-25.78a17.66,17.66,0,0,1,11.25,0l81,25.65a22.65,22.65,0,0,0,5.63.93,23.1,23.1,0,0,0,5.63-.93l81-25.65a17.66,17.66,0,0,1,11.25,0l80.24,25.78a17.7,17.7,0,0,0,11.26,0l81-25.64a17.52,17.52,0,0,1,11.25,0l17.81,5.71a334.34,334.34,0,0,0,13.84-30.69L645,825.72a18.08,18.08,0,0,0-11.25,0l-81,25.64a17.23,17.23,0,0,1-11.26,0l-80.24-25.78a17.66,17.66,0,0,0-11.25,0l-81,25.65a20.17,20.17,0,0,1-5.63.93,19.83,19.83,0,0,1-5.63-.93Z"/><path class="cls-6" d="M357.76,922.57l-81-25.64a17.59,17.59,0,0,0-11.25,0L185.24,922.7a17.62,17.62,0,0,1-11.26,0L93,897.06a17.89,17.89,0,0,0-11.19,0,346.2,346.2,0,0,0,31.65,41.65L174,957.84a17.62,17.62,0,0,0,11.26,0l80.24-25.77a17.13,17.13,0,0,1,11.25,0l81,25.64a22.2,22.2,0,0,0,5.63.93,22.63,22.63,0,0,0,5.63-.93l81-25.64a17.13,17.13,0,0,1,11.25,0l80.24,25.77a17.63,17.63,0,0,0,11.26,0l60.57-19.13A339.56,339.56,0,0,0,645,897.06a18.08,18.08,0,0,0-11.25,0l-81,25.64a17.63,17.63,0,0,1-11.26,0l-80.24-25.77a17.59,17.59,0,0,0-11.25,0l-81,25.64a19.81,19.81,0,0,1-5.63.93,19.48,19.48,0,0,1-5.63-.93Z"/><path class="cls-6" d="M357.76,993.91l-81-25.64a17.59,17.59,0,0,0-11.25,0L185.24,994a17.2,17.2,0,0,1-7.09.87,335.77,335.77,0,0,0,41,23.38l46.35-14.88a17.13,17.13,0,0,1,11.25,0l81,25.57a17.36,17.36,0,0,0,5.63.93A17.62,17.62,0,0,0,369,1029l81-25.57a17.13,17.13,0,0,1,11.25,0l46.41,14.88a334.11,334.11,0,0,0,40.91-23.38,17.13,17.13,0,0,1-7.08-.87l-80.24-25.77a17.59,17.59,0,0,0-11.25,0l-81,25.64a19.81,19.81,0,0,1-5.63.93,19.48,19.48,0,0,1-5.63-.93Z"/><path class="cls-6" d="M123,346.55H87.92V457.61h25.69v-36.8H123c25.15,0,34.62-11.82,38.13-23a51.3,51.3,0,0,0,0-28.3C157.63,358.3,148.16,346.55,123,346.55Zm-1.26,51.28h-8.14v-28.3h8.14c14.17,0,15.36,8.77,15.36,14.15S135.92,397.83,121.75,397.83Z"/><path class="cls-6" d="M370.87,397.83a49.78,49.78,0,0,0,1.92-14.15,47.72,47.72,0,0,0-2-14.15c-3.45-11.23-13-23-38.14-23H297.59V457.61h25.68v-36.8h9.4c.73,0,1.39-.06,2.06-.06l15.75,36.86h26.68L356.77,415.5A29.87,29.87,0,0,0,370.87,397.83Zm-39.45,0h-8.15v-28.3h8.15c14.16,0,15.35,8.77,15.35,14.15S345.58,397.83,331.42,397.83Z"/><polygon class="cls-6" points="259.45 369.53 268.46 346.55 218.94 346.55 193.25 346.55 193.25 369.53 193.25 390.59 193.25 413.57 193.25 434.63 193.25 457.61 218.94 457.61 263.36 457.61 263.36 434.63 218.94 434.63 218.94 413.57 257 413.57 257 390.59 218.94 390.59 218.94 369.53 259.45 369.53"/><path class="cls-6" d="M463.56,399.69c-6-4.78-14.57-7.11-21.05-9.43-7.68-3.19-15.43-7.05-15.83-11.7-.53-4.38.33-7,4.17-9.23,7.82-4.25,19.2-2.26,32.38,2.86l8.6-20.93c-9.07-3.92-16-6.77-34.95-6.77-37.61,0-48.13,38.19-26.48,57.59,6,4.85,12.64,7.71,19.13,10,7.68,3.06,17.35,7,17.94,13,.53,4.45-.53,7.31-4.57,9.7-13.11,5.18-27.34.6-39.92-5.38V454c4.77,1.79,14.5,5.64,33.9,5.64,23.3,0,36.28-15.61,37.6-32.08v-5.71A33.17,33.17,0,0,0,463.56,399.69Z"/><polygon class="cls-6" points="500.83 457.61 526.52 457.61 526.52 346.55 500.83 355.78 500.83 457.61"/><path class="cls-6" d="M633,406.73a20.43,20.43,0,0,0-7.28-5.78,28.26,28.26,0,0,0,7.28-7.31c2.85-4.38,4.44-9.77,4.38-16.46a31.38,31.38,0,0,0-2.31-12.38,25.63,25.63,0,0,0-2.07-4,28.33,28.33,0,0,0-3.77-4.71c-6-5.91-15-9.51-27-9.51H557.76V457.61h45.75c10.27,0,18.48-2.85,24.36-7.57a29.84,29.84,0,0,0,5.17-5.32A30.92,30.92,0,0,0,638.8,426C638.67,418.29,636.87,411.58,633,406.73Zm-49.59-37.2h14.9c10.46,0,15,4.85,15,11.56s-4.5,11.56-15,11.56h-14.9Zm17.94,65.1H583.45V411.51h17.68c10.46,0,13,4.85,13,11.56S611.86,434.63,601.39,434.63Z"/></g></g></svg>