<svg xmlns="http://www.w3.org/2000/svg" viewBox="119.14 599.22 227.01 363.01"><!-- Source: https://football-logos.cc --><defs data-source="https://football-logos.cc"><clipPath id="a" clipPathUnits="userSpaceOnUse"><path d="M0 841.89h595.276V0H0Z"></path></clipPath><clipPath id="b" clipPathUnits="userSpaceOnUse"><path d="M0 841.89h595.276V0H0Z"></path></clipPath><clipPath id="c" clipPathUnits="userSpaceOnUse"><path d="M0 841.89h595.276V0H0Z"></path></clipPath><clipPath id="d" clipPathUnits="userSpaceOnUse"><path d="M0 841.89h595.276V0H0Z"></path></clipPath><clipPath id="e" clipPathUnits="userSpaceOnUse"><path d="M0 841.89h595.276V0H0Z"></path></clipPath><clipPath id="f" clipPathUnits="userSpaceOnUse"><path d="M0 841.89h595.276V0H0Z"></path></clipPath><clipPath id="g" clipPathUnits="userSpaceOnUse"><path d="M0 841.89h595.276V0H0Z"></path></clipPath><clipPath id="h" clipPathUnits="userSpaceOnUse"><path d="M0 841.89h595.276V0H0Z"></path></clipPath><clipPath id="i" clipPathUnits="userSpaceOnUse"><path d="M0 841.89h595.276V0H0Z"></path></clipPath><clipPath id="j" clipPathUnits="userSpaceOnUse"><path d="M0 841.89h595.276V0H0Z"></path></clipPath><clipPath id="k" clipPathUnits="userSpaceOnUse"><path d="M0 841.89h595.276V0H0Z"></path></clipPath><clipPath id="l" clipPathUnits="userSpaceOnUse"><path d="M0 841.89h595.276V0H0Z"></path></clipPath><clipPath id="m" clipPathUnits="userSpaceOnUse"><path d="M0 841.89h595.276V0H0Z"></path></clipPath><clipPath id="n" clipPathUnits="userSpaceOnUse"><path d="M0 841.89h595.276V0H0Z"></path></clipPath><clipPath id="o" clipPathUnits="userSpaceOnUse"><path d="M0 841.89h595.276V0H0Z"></path></clipPath><clipPath id="p" clipPathUnits="userSpaceOnUse"><path d="M0 841.89h595.276V0H0Z"></path></clipPath><clipPath id="q" clipPathUnits="userSpaceOnUse"><path d="M0 841.89h595.276V0H0Z"></path></clipPath><clipPath id="r" clipPathUnits="userSpaceOnUse"><path d="M0 841.89h595.276V0H0Z"></path></clipPath><clipPath id="s" clipPathUnits="userSpaceOnUse"><path d="M0 841.89h595.276V0H0Z"></path></clipPath><clipPath id="t" clipPathUnits="userSpaceOnUse"><path d="M0 841.89h595.276V0H0Z"></path></clipPath><clipPath id="u" clipPathUnits="userSpaceOnUse"><path d="M0 841.89h595.276V0H0Z"></path></clipPath><clipPath id="v" clipPathUnits="userSpaceOnUse"><path d="M0 841.89h595.276V0H0Z"></path></clipPath><clipPath id="w" clipPathUnits="userSpaceOnUse"><path d="M0 841.89h595.276V0H0Z"></path></clipPath><clipPath id="x" clipPathUnits="userSpaceOnUse"><path d="M0 841.89h595.276V0H0Z"></path></clipPath><clipPath id="y" clipPathUnits="userSpaceOnUse"><path d="M0 841.89h595.276V0H0Z"></path></clipPath><clipPath id="z" clipPathUnits="userSpaceOnUse"><path d="M0 841.89h595.276V0H0Z"></path></clipPath><clipPath id="A" clipPathUnits="userSpaceOnUse"><path d="M0 841.89h595.276V0H0Z"></path></clipPath><clipPath id="B" clipPathUnits="userSpaceOnUse"><path d="M0 841.89h595.276V0H0Z"></path></clipPath><clipPath id="C" clipPathUnits="userSpaceOnUse"><path d="M0 841.89h595.276V0H0Z"></path></clipPath><clipPath id="D" clipPathUnits="userSpaceOnUse"><path d="M0 841.89h595.276V0H0Z"></path></clipPath><clipPath id="E" clipPathUnits="userSpaceOnUse"><path d="M0 841.89h595.276V0H0Z"></path></clipPath><clipPath id="F" clipPathUnits="userSpaceOnUse"><path d="M0 841.89h595.276V0H0Z"></path></clipPath><clipPath id="G" clipPathUnits="userSpaceOnUse"><path d="M0 841.89h595.276V0H0Z"></path></clipPath><clipPath id="H" clipPathUnits="userSpaceOnUse"><path d="M0 841.89h595.276V0H0Z"></path></clipPath><clipPath id="I" clipPathUnits="userSpaceOnUse"><path d="M0 841.89h595.276V0H0Z"></path></clipPath><clipPath id="J" clipPathUnits="userSpaceOnUse"><path d="M0 841.89h595.276V0H0Z"></path></clipPath><clipPath id="K" clipPathUnits="userSpaceOnUse"><path d="M0 841.89h595.276V0H0Z"></path></clipPath><clipPath id="L" clipPathUnits="userSpaceOnUse"><path d="M0 841.89h595.276V0H0Z"></path></clipPath><clipPath id="M" clipPathUnits="userSpaceOnUse"><path d="M0 841.89h595.276V0H0Z"></path></clipPath><clipPath id="N" clipPathUnits="userSpaceOnUse"><path d="M0 841.89h595.276V0H0Z"></path></clipPath><clipPath id="O" clipPathUnits="userSpaceOnUse"><path d="M0 841.89h595.276V0H0Z"></path></clipPath><clipPath id="P" clipPathUnits="userSpaceOnUse"><path d="M0 841.89h595.276V0H0Z"></path></clipPath><clipPath id="Q" clipPathUnits="userSpaceOnUse"><path d="M0 841.89h595.276V0H0Z"></path></clipPath><clipPath id="R" clipPathUnits="userSpaceOnUse"><path d="M0 841.89h595.276V0H0Z"></path></clipPath><clipPath id="S" clipPathUnits="userSpaceOnUse"><path d="M0 841.89h595.276V0H0Z"></path></clipPath><clipPath id="T" clipPathUnits="userSpaceOnUse"><path d="M0 841.89h595.276V0H0Z"></path></clipPath><clipPath id="U" clipPathUnits="userSpaceOnUse"><path d="M0 841.89h595.276V0H0Z"></path></clipPath><clipPath id="V" clipPathUnits="userSpaceOnUse"><path d="M0 841.89h595.276V0H0Z"></path></clipPath><clipPath id="W" clipPathUnits="userSpaceOnUse"><path d="M0 841.89h595.276V0H0Z"></path></clipPath><clipPath id="X" clipPathUnits="userSpaceOnUse"><path d="M0 841.89h595.276V0H0Z"></path></clipPath><clipPath id="Y" clipPathUnits="userSpaceOnUse"><path d="M0 841.89h595.276V0H0Z"></path></clipPath><clipPath id="Z" clipPathUnits="userSpaceOnUse"><path d="M0 841.89h595.276V0H0Z"></path></clipPath><clipPath id="aa" clipPathUnits="userSpaceOnUse"><path d="M0 841.89h595.276V0H0Z"></path></clipPath><clipPath id="ab" clipPathUnits="userSpaceOnUse"><path d="M0 841.89h595.276V0H0Z"></path></clipPath><clipPath id="ac" clipPathUnits="userSpaceOnUse"><path d="M0 841.89h595.276V0H0Z"></path></clipPath><clipPath id="ad" clipPathUnits="userSpaceOnUse"><path d="M0 841.89h595.276V0H0Z"></path></clipPath><clipPath id="ae" clipPathUnits="userSpaceOnUse"><path d="M0 841.89h595.276V0H0Z"></path></clipPath><clipPath id="af" clipPathUnits="userSpaceOnUse"><path d="M0 841.89h595.276V0H0Z"></path></clipPath><clipPath id="ag" clipPathUnits="userSpaceOnUse"><path d="M0 841.89h595.276V0H0Z"></path></clipPath><clipPath id="ah" clipPathUnits="userSpaceOnUse"><path d="M0 841.89h595.276V0H0Z"></path></clipPath><clipPath id="ai" clipPathUnits="userSpaceOnUse"><path d="M0 841.89h595.276V0H0Z"></path></clipPath><clipPath id="aj" clipPathUnits="userSpaceOnUse"><path d="M0 841.89h595.276V0H0Z"></path></clipPath><clipPath id="ak" clipPathUnits="userSpaceOnUse"><path d="M0 841.89h595.276V0H0Z"></path></clipPath><clipPath id="al" clipPathUnits="userSpaceOnUse"><path d="M0 841.89h595.276V0H0Z"></path></clipPath><clipPath id="am" clipPathUnits="userSpaceOnUse"><path d="M0 841.89h595.276V0H0Z"></path></clipPath><clipPath id="an" clipPathUnits="userSpaceOnUse"><path d="M0 841.89h595.276V0H0Z"></path></clipPath><clipPath id="ao" clipPathUnits="userSpaceOnUse"><path d="M0 841.89h595.276V0H0Z"></path></clipPath><clipPath id="ap" clipPathUnits="userSpaceOnUse"><path d="M0 841.89h595.276V0H0Z"></path></clipPath><clipPath id="aq" clipPathUnits="userSpaceOnUse"><path d="M0 841.89h595.276V0H0Z"></path></clipPath><clipPath id="ar" clipPathUnits="userSpaceOnUse"><path d="M0 841.89h595.276V0H0Z"></path></clipPath><clipPath id="as" clipPathUnits="userSpaceOnUse"><path d="M0 841.89h595.276V0H0Z"></path></clipPath><clipPath id="at" clipPathUnits="userSpaceOnUse"><path d="M0 841.89h595.276V0H0Z"></path></clipPath><clipPath id="au" clipPathUnits="userSpaceOnUse"><path d="M0 841.89h595.276V0H0Z"></path></clipPath><clipPath id="av" clipPathUnits="userSpaceOnUse"><path d="M0 841.89h595.276V0H0Z"></path></clipPath><clipPath id="aw" clipPathUnits="userSpaceOnUse"><path d="M0 841.89h595.276V0H0Z"></path></clipPath><clipPath id="ax" clipPathUnits="userSpaceOnUse"><path d="M0 841.89h595.276V0H0Z"></path></clipPath><clipPath id="ay" clipPathUnits="userSpaceOnUse"><path d="M0 841.89h595.276V0H0Z"></path></clipPath><clipPath id="az" clipPathUnits="userSpaceOnUse"><path d="M0 841.89h595.276V0H0Z"></path></clipPath><clipPath id="aA" clipPathUnits="userSpaceOnUse"><path d="M0 841.89h595.276V0H0Z"></path></clipPath><clipPath id="aB" clipPathUnits="userSpaceOnUse"><path d="M0 841.89h595.276V0H0Z"></path></clipPath><clipPath id="aC" clipPathUnits="userSpaceOnUse"><path d="M0 841.89h595.276V0H0Z"></path></clipPath><clipPath id="aD" clipPathUnits="userSpaceOnUse"><path d="M0 841.89h595.276V0H0Z"></path></clipPath><clipPath id="aE" clipPathUnits="userSpaceOnUse"><path d="M0 841.89h595.276V0H0Z"></path></clipPath><clipPath id="aF" clipPathUnits="userSpaceOnUse"><path d="M0 841.89h595.276V0H0Z"></path></clipPath><clipPath id="aG" clipPathUnits="userSpaceOnUse"><path d="M0 841.89h595.276V0H0Z"></path></clipPath><clipPath id="aH" clipPathUnits="userSpaceOnUse"><path d="M0 841.89h595.276V0H0Z"></path></clipPath><clipPath id="aI" clipPathUnits="userSpaceOnUse"><path d="M0 841.89h595.276V0H0Z"></path></clipPath><clipPath id="aJ" clipPathUnits="userSpaceOnUse"><path d="M0 841.89h595.276V0H0Z"></path></clipPath><clipPath id="aK" clipPathUnits="userSpaceOnUse"><path d="M0 841.89h595.276V0H0Z"></path></clipPath><clipPath id="aL" clipPathUnits="userSpaceOnUse"><path d="M0 841.89h595.276V0H0Z"></path></clipPath><clipPath id="aM" clipPathUnits="userSpaceOnUse"><path d="M0 841.89h595.276V0H0Z"></path></clipPath><clipPath id="aN" clipPathUnits="userSpaceOnUse"><path d="M0 841.89h595.276V0H0Z"></path></clipPath><clipPath id="aO" clipPathUnits="userSpaceOnUse"><path d="M0 841.89h595.276V0H0Z"></path></clipPath><clipPath id="aP" clipPathUnits="userSpaceOnUse"><path d="M0 841.89h595.276V0H0Z"></path></clipPath><clipPath id="aQ" clipPathUnits="userSpaceOnUse"><path d="M0 841.89h595.276V0H0Z"></path></clipPath><clipPath id="aR" clipPathUnits="userSpaceOnUse"><path d="M0 841.89h595.276V0H0Z"></path></clipPath><clipPath id="aS" clipPathUnits="userSpaceOnUse"><path d="M0 841.89h595.276V0H0Z"></path></clipPath><clipPath id="aT" clipPathUnits="userSpaceOnUse"><path d="M0 841.89h595.276V0H0Z"></path></clipPath><clipPath id="aU" clipPathUnits="userSpaceOnUse"><path d="M0 841.89h595.276V0H0Z"></path></clipPath><clipPath id="aV" clipPathUnits="userSpaceOnUse"><path d="M0 841.89h595.276V0H0Z"></path></clipPath><clipPath id="aW" clipPathUnits="userSpaceOnUse"><path d="M0 841.89h595.276V0H0Z"></path></clipPath><clipPath id="aX" clipPathUnits="userSpaceOnUse"><path d="M0 841.89h595.276V0H0Z"></path></clipPath><clipPath id="aY" clipPathUnits="userSpaceOnUse"><path d="M0 841.89h595.276V0H0Z"></path></clipPath><clipPath id="aZ" clipPathUnits="userSpaceOnUse"><path d="M0 841.89h595.276V0H0Z"></path></clipPath><clipPath id="ba" clipPathUnits="userSpaceOnUse"><path d="M0 841.89h595.276V0H0Z"></path></clipPath><clipPath id="bb" clipPathUnits="userSpaceOnUse"><path d="M0 841.89h595.276V0H0Z"></path></clipPath><clipPath id="bc" clipPathUnits="userSpaceOnUse"><path d="M0 841.89h595.276V0H0Z"></path></clipPath><clipPath id="bd" clipPathUnits="userSpaceOnUse"><path d="M0 841.89h595.276V0H0Z"></path></clipPath><clipPath id="be" clipPathUnits="userSpaceOnUse"><path d="M0 841.89h595.276V0H0Z"></path></clipPath><clipPath id="bf" clipPathUnits="userSpaceOnUse"><path d="M0 841.89h595.276V0H0Z"></path></clipPath><clipPath id="bg" clipPathUnits="userSpaceOnUse"><path d="M0 841.89h595.276V0H0Z"></path></clipPath><clipPath id="bh" clipPathUnits="userSpaceOnUse"><path d="M0 841.89h595.276V0H0Z"></path></clipPath><clipPath id="bi" clipPathUnits="userSpaceOnUse"><path d="M0 841.89h595.276V0H0Z"></path></clipPath><clipPath id="bj" clipPathUnits="userSpaceOnUse"><path d="M0 841.89h595.276V0H0Z"></path></clipPath><clipPath id="bk" clipPathUnits="userSpaceOnUse"><path d="M0 841.89h595.276V0H0Z"></path></clipPath><clipPath id="bl" clipPathUnits="userSpaceOnUse"><path d="M0 841.89h595.276V0H0Z"></path></clipPath><clipPath id="bm" clipPathUnits="userSpaceOnUse"><path d="M0 841.89h595.276V0H0Z"></path></clipPath><clipPath id="bn" clipPathUnits="userSpaceOnUse"><path d="M0 841.89h595.276V0H0Z"></path></clipPath><clipPath id="bo" clipPathUnits="userSpaceOnUse"><path d="M0 841.89h595.276V0H0Z"></path></clipPath><clipPath id="bp" clipPathUnits="userSpaceOnUse"><path d="M0 841.89h595.276V0H0Z"></path></clipPath><clipPath id="bq" clipPathUnits="userSpaceOnUse"><path d="M0 841.89h595.276V0H0Z"></path></clipPath><clipPath id="br" clipPathUnits="userSpaceOnUse"><path d="M0 841.89h595.276V0H0Z"></path></clipPath><clipPath id="bs" clipPathUnits="userSpaceOnUse"><path d="M0 841.89h595.276V0H0Z"></path></clipPath><clipPath id="bt" clipPathUnits="userSpaceOnUse"><path d="M0 841.89h595.276V0H0Z"></path></clipPath><clipPath id="bu" clipPathUnits="userSpaceOnUse"><path d="M0 841.89h595.276V0H0Z"></path></clipPath><clipPath id="bv" clipPathUnits="userSpaceOnUse"><path d="M0 841.89h595.276V0H0Z"></path></clipPath><clipPath id="bw" clipPathUnits="userSpaceOnUse"><path d="M0 841.89h595.276V0H0Z"></path></clipPath><clipPath id="bx" clipPathUnits="userSpaceOnUse"><path d="M0 841.89h595.276V0H0Z"></path></clipPath><clipPath id="by" clipPathUnits="userSpaceOnUse"><path d="M0 841.89h595.276V0H0Z"></path></clipPath><clipPath id="bz" clipPathUnits="userSpaceOnUse"><path d="M0 841.89h595.276V0H0Z"></path></clipPath><clipPath id="bA" clipPathUnits="userSpaceOnUse"><path d="M0 841.89h595.276V0H0Z"></path></clipPath><clipPath id="bB" clipPathUnits="userSpaceOnUse"><path d="M0 841.89h595.276V0H0Z"></path></clipPath><clipPath id="bC" clipPathUnits="userSpaceOnUse"><path d="M0 841.89h595.276V0H0Z"></path></clipPath><clipPath id="bD" clipPathUnits="userSpaceOnUse"><path d="M0 841.89h595.276V0H0Z"></path></clipPath><clipPath id="bE" clipPathUnits="userSpaceOnUse"><path d="M0 841.89h595.276V0H0Z"></path></clipPath><clipPath id="bF" clipPathUnits="userSpaceOnUse"><path d="M0 841.89h595.276V0H0Z"></path></clipPath><clipPath id="bG" clipPathUnits="userSpaceOnUse"><path d="M0 841.89h595.276V0H0Z"></path></clipPath><clipPath id="bH" clipPathUnits="userSpaceOnUse"><path d="M0 841.89h595.276V0H0Z"></path></clipPath><clipPath id="bI" clipPathUnits="userSpaceOnUse"><path d="M0 841.89h595.276V0H0Z"></path></clipPath><clipPath id="bJ" clipPathUnits="userSpaceOnUse"><path d="M0 841.89h595.276V0H0Z"></path></clipPath><clipPath id="bK" clipPathUnits="userSpaceOnUse"><path d="M0 841.89h595.276V0H0Z"></path></clipPath><clipPath id="bL" clipPathUnits="userSpaceOnUse"><path d="M0 841.89h595.276V0H0Z"></path></clipPath><clipPath id="bM" clipPathUnits="userSpaceOnUse"><path d="M0 841.89h595.276V0H0Z"></path></clipPath><clipPath id="bN" clipPathUnits="userSpaceOnUse"><path d="M0 841.89h595.276V0H0Z"></path></clipPath><clipPath id="bO" clipPathUnits="userSpaceOnUse"><path d="M0 841.89h595.276V0H0Z"></path></clipPath><clipPath id="bP" clipPathUnits="userSpaceOnUse"><path d="M0 841.89h595.276V0H0Z"></path></clipPath><clipPath id="bQ" clipPathUnits="userSpaceOnUse"><path d="M0 841.89h595.276V0H0Z"></path></clipPath><clipPath id="bR" clipPathUnits="userSpaceOnUse"><path d="M0 841.89h595.276V0H0Z"></path></clipPath><clipPath id="bS" clipPathUnits="userSpaceOnUse"><path d="M0 841.89h595.276V0H0Z"></path></clipPath><clipPath id="bT" clipPathUnits="userSpaceOnUse"><path d="M0 841.89h595.276V0H0Z"></path></clipPath><clipPath id="bU" clipPathUnits="userSpaceOnUse"><path d="M0 841.89h595.276V0H0Z"></path></clipPath></defs><path d="M260.84 548.741v112.064c0 9.155-7.421 16.577-16.577 16.577H126.896c-9.154 0-16.577-7.422-16.577-16.577V523.877s-.663-16.246 10.278-25.197c3.286-2.69 54.374-39.455 54.374-39.455s8.288-8.951 19.56.332c3.124 2.572 54.043 37.133 54.043 37.133s11.493 7.183 12.156 25.75c.155 4.32.11 26.301.11 26.301" clip-path="url(#a)" style="fill:#fb0f0c;fill-opacity:1;fill-rule:nonzero;stroke:none" transform="matrix(1.33333 0 0 -1.33333 -13.972 1568.718)"></path><path d="m175.335 459.563-.034.036-.041.029c-.51.369-51.112 36.788-54.348 39.436-10.616 8.686-10.102 24.632-10.096 24.793v136.948c0 8.866 7.214 16.079 16.08 16.079h117.367c8.866 0 16.08-7.213 16.08-16.079V548.741c0-.219.042-22.022-.11-26.283-.646-18.062-11.811-25.276-11.923-25.348-2.096-1.42-50.989-34.611-54.095-37.17-10.763-8.863-18.553-.727-18.88-.377m-48.439 218.315c-9.415 0-17.074-7.659-17.074-17.073V523.877a12 12 0 0 1-.006-.451c0-2.712.493-16.972 10.466-25.132 3.247-2.656 51.902-37.675 54.364-39.447.582-.595 9.048-8.859 20.202.326 3.07 2.529 53.496 36.76 54.005 37.105.102.063 11.71 7.529 12.374 26.143.153 4.282.111 26.103.111 26.323v-.003 112.064c0 9.414-7.66 17.073-17.075 17.073z" clip-path="url(#b)" style="fill:#000;fill-opacity:1;fill-rule:nonzero;stroke:none" transform="matrix(1.33333 0 0 -1.33333 -13.972 1568.718)"></path><path d="M211.11 625.55c0-14.283-11.579-25.861-25.861-25.861s-25.86 11.578-25.86 25.861 11.578 25.86 25.86 25.86 25.861-11.577 25.861-25.86" clip-path="url(#c)" style="fill:#000;fill-opacity:1;fill-rule:nonzero;stroke:none" transform="matrix(1.33333 0 0 -1.33333 -13.972 1568.718)"></path><path d="M159.554 625.55c0 14.168 11.527 25.695 25.695 25.695s25.695-11.527 25.695-25.695-11.527-25.695-25.695-25.695-25.695 11.527-25.695 25.695m-.331 0c0-14.352 11.675-26.027 26.026-26.027s26.026 11.675 26.026 26.027c0 14.35-11.675 26.026-26.026 26.026s-26.026-11.676-26.026-26.026" clip-path="url(#d)" style="fill:#000;fill-opacity:1;fill-rule:nonzero;stroke:none" transform="matrix(1.33333 0 0 -1.33333 -13.972 1568.718)"></path><path d="m182.659 667.055 2.59 8.29 2.59-8.29h8.461l-6.562-5.008 2.591-8.979-7.08 5.354-6.736-5.181 2.418 8.462-6.562 5.352z" clip-path="url(#e)" style="fill:#fff;fill-opacity:1;fill-rule:nonzero;stroke:none" transform="matrix(1.33333 0 0 -1.33333 -13.972 1568.718)"></path><path d="M182.659 666.89h.121l2.469 7.899 2.467-7.899h8.094l-6.262-4.779 2.483-8.61-6.783 5.129-6.436-4.951 2.309 8.083-6.286 5.128zm2.431 8.504-2.554-8.173h-8.632l6.838-5.578-2.526-8.84 7.033 5.41 7.377-5.577-2.697 9.349 6.861 5.236h-8.83l-2.711 8.679z" clip-path="url(#f)" style="fill:#000;fill-opacity:1;fill-rule:nonzero;stroke:none" transform="matrix(1.33333 0 0 -1.33333 -13.972 1568.718)"></path><path d="M222.492 682.907c.221.443-.11 1.437.663.885.774-.553 2.099-.885 2.099-.885zm-5.194-.442c.774.553 1.326 2.653 1.326 2.653.111-.884 1.216-2.653 1.216-2.653zm-1.327 2.763s.443 2.873-.221 3.205c0 0-.442.221-.663-.332-.22-.552-.22.222-.774.442-.552.221-4.31.332-3.536-3.868 0 0-1.105-1.547-.22-2.321H200.5s.22 2.764-5.306 3.316c0 0 3.316.221 3.979 2.431 0 0 .442-2.431 3.979-2.32 0 0 .221-1.106-.552-1.879-.774-.774-1.327-.995-.332-.884s2.1.332 2.32.663c0 0 1.88.332 2.542.774.663.441 1.875.663 2.098 2.644-.103-.029-.323-.091-.771-.213-1.216-.332-2.21.22-1.879.883.331.664.774.885.774 1.659s-.111.662.552 1.105c.664.442 2.652 1.547 3.537 1.547.543 0 4.375.59 5.415-2.763.995-3.204-.714-3.749-.885-4.089m-23.207 6.521s0 .11.662.442c.663.331 1.548.883 1.658 2.763.046.772-.553 0-1.105-.332-.553-.331-1.769-.111-1.657.552.109.663.442 1.879-.222 2.984-.401.671-1.104.995-.995 1.658.111.663.554 1.658.995 1.106.442-.553.222-1.438.773-1.658.553-.222.664-.663 1.327-.331.663.331 1.548.883 1.548.331 0-.554-.774-2.211.441-4.31.351-.605.553-.664.442-1.216-.11-.553-.442-1.325-.11-1.879 0 0 .442-.995-.221-1.436-.663-.443-3.315-.664-3.536 1.326m-4.642-9.836s-.11.552-.11.884.219.663.219.663c1.879.221 3.648-1.547 3.648-1.547zm-3.757.332h-3.537c.663.662 2.542 1.215 3.094 1.215.553 0 .443-1.215.443-1.215m-4.199 12.377c-.333-.331-1.218-.331-1.659.111-.442.441-.7.891-.663.109a3.07 3.07 0 0 1 2.099-2.872c-1.436-2.653-3.094-1.547-3.425-1.216-.332.331-.554.884-.332 1.326s.332.552.221 1.105.22 2.321.552 3.095c.333.773.442 1.547.111 2.653-.331 1.104 0 1.878 0 1.878.995-2.321 2.211-1.658 2.763-1.437.553.221.664 2.543.664 2.543.441-.554.663-1.438.772-2.101.112-.663-.772-1.989-1.103-2.873-.333-.884.331-1.989 0-2.321m-5.528-9.504c-1.768 0-2.872-2.321-2.872-2.321l-9.283-.111c0 1.106-.443 1.769-.443 1.769.221.773 0 2.321-.552 3.646-.553 1.327-2.431.553-3.205.442-.774-.11-.774.332-.774.332-.332-.995-.221-1.989.332-2.652.552-.663-.664-.553-.664-.553-1.105.663-1.326 3.205.111 4.973.61.752 2.321 1.712 3.757 1.658 1.574-.059 2.744-1.095 3.205-1.326.885-.442 1.215-.552 1.215-.552-.33-.664 0-1.437 0-1.437.995-.663.443-1.879.443-1.879-1.436-.442-2.099.222-2.099.222 1.656-3.537 4.531-2.764 4.531-2.764.331-1.658 2.541-1.105 2.541-1.105-.441.11-.331.553-.663 1.436a1.3 1.3 0 0 0 .332 1.437c2.32-.552 3.537 1.768 3.537 1.768.441-1.215 1.215-1.436 2.32-1.768 1.106-.331 2.984-.331 2.984-.331-.884-.553-2.984-.884-4.753-.884m-21.66-2.432s.884 1.769 1.547 2.21c0 0 .995-1.436 1.216-2.32zm-2.763-.332-2.874-.221s1.326 1.548 2.764 1.327c0 0 .442-.553.11-1.106m77.913 0c-.331 1.106-1.437 2.211-1.437 2.211.995-.442 2.984.222 3.536.774 1.659 1.658.222 3.647-.773 4.199-.994.553-1.905-.42-2.542-1.215-.884-1.106-2.653-.554-2.653-.554-1.657.222-2.392 1.015-3.757 2.433-5.747 5.967-10.719 4.089-10.719 4.089s0 .442.22 1.326c.221.884.885 1.105 0 .773-.883-.331-1.326-.995-2.1-1.326-.773-.331-.883 0-1.215.773-.331.775 0 1.106 0 1.88s-.884.33-1.326.773.221.884.663 1.437c.443.552.332.662.332 1.325 0 .665.221.774.331 1.99s-.331.442-.995-.443c-.663-.882-.883-.993-1.546-1.436s-.995-.111-1.437.221c-.442.333-.664.664-1.216.774-.553.11-.442.221-.553 1.104-.11.885.443 1.439.774 2.101.331.663 0 .552-1.215.441-1.217-.109-1.548-1.768-1.99-1.989s-.774-.441-.774 1.327-1.436 5.415-1.657 5.968-.554 1.657-.442 2.542c.11.882.552 1.768.552 1.768l-1.878-.11c-.112 1.767 1.437 3.646 1.437 3.646-.774-.442-.996-.774-1.88-1.325-.884-.554-1.104-.111-1.104-.111-.333 1.325.773 3.205.773 3.205-.773.221-1.658-.111-2.21-.332-.553-.221-.884-.111-.884-.111-.332.443-1.106.774-1.658 1.216-.553.443-.994 1.326-1.326 1.99-.333.662-.333 1.988-.443 2.651-.111.663-.883.444-.883-.11 0-.553 0-1.768-.553-2.541s-.995-2.322-.995-2.322c-.552-.11-.774-.22-1.215-.663-.443-.442-.663-.552-1.106-.221-.442.332-.773.443-1.658.443-.883 0-1.104-.111-.773-.553s.442-1.327.333-2.1c-.111-.773-.443-.884-1.218 0-.773.885-1.878.773-1.878.773 1.99-1.878 1.658-4.419 1.658-4.419l-2.101-.111c.553-.332.443-.885.443-1.658 0-.774-.994-2.432-1.326-3.647-.331-1.216-.553-3.978-.662-4.752-.111-.774-.59-.081-.885.552-.773 1.658-2.874 1.326-2.874 1.326.552-.22.553-.662.774-1.326.221-.662.11-1.436 0-2.098-.111-.664-.663-.554-1.216-.554s-.884-.995-.884-.995c-.332.554-.552.332-1.215.663-.663.332-.221.663-.553 1.216-.331.552-.664.111-1.105.663-.442.553-.774.11-.774.11.442-.662.442-.884.442-1.767 0-.885.11-1.437.442-1.99.331-.553.553-1.547.553-1.547-1.437-.332-1.548-1.326-1.548-1.326.775 0 .443-1.99.443-1.99-1.658 0-1.99.222-2.432.664s-1.657.553-1.657.553c.552-.222 1.325-1.99 1.325-1.99-6.188 1.327-9.503-2.321-10.498-3.315-.995-.995-1.768-2.211-3.426-2.984-1.657-.774-3.316 0-3.868.663-.553.663-.774 1.437-2.21 1.104-1.437-.331-1.878-2.95-1.547-3.536 1.437-2.541 4.199-1.326 4.199-1.326-.663-.441-.885-1.105-.995-1.658s-.552-.884-.552-.884h-4.2v-4.973l90.18.111v4.53z" clip-path="url(#g)" style="fill:#ffe600;fill-opacity:1;fill-rule:nonzero;stroke:#1b1918;stroke-opacity:1" transform="matrix(1.33333 0 0 -1.33333 -13.972 1568.718)"></path><path d="M132.091 492.601s3.978 3.536 0 8.178c-1.238 1.444-11.715 9.725-14.589 10.168-2.873.441-5.524-2.211-7.072-3.095s-7.736-5.305-10.167-6.853c0 0 .884-1.767 3.093-2.209 2.211-.442 9.063.663 9.726-2.653s.885-9.504 1.106-10.83c.22-1.327.441-3.758 1.768-4.864 0 0 1.325 2.211 2.873 3.979 1.547 1.768 6.189 7.737 13.262 8.179" clip-path="url(#h)" style="fill:#0c419a;fill-opacity:1;fill-rule:nonzero;stroke:none" transform="matrix(1.33333 0 0 -1.33333 -13.972 1568.718)"></path><path d="M105.338 504.038c2.177 1.5 4.429 3.053 5.256 3.526.372.212.786.509 1.265.853 1.485 1.064 3.516 2.521 5.593 2.201 2.784-.429 13.222-8.696 14.386-10.055 1.271-1.482 1.694-2.837 1.694-3.984 0-2.004-1.279-3.36-1.59-3.661-6.677-.48-11.119-5.661-13.021-7.881l-.341-.396c-1.198-1.369-2.241-2.961-2.683-3.661-.855.979-1.125 2.702-1.305 3.884l-.078.497c-.075.452-.152 1.506-.249 2.841-.179 2.461-.425 5.832-.858 8-.542 2.709-4.588 2.752-7.543 2.783-1.015.011-1.892.019-2.442.13a4.33 4.33 0 0 0-2.707 1.782c1.14.739 2.905 1.956 4.623 3.141m6.135 4.918c-.465-.333-.866-.621-1.208-.817-.851-.487-3.015-1.977-5.303-3.556-1.855-1.278-3.772-2.6-4.877-3.303l-.253-.161.134-.267c.039-.079.983-1.919 3.326-2.388.61-.121 1.517-.132 2.565-.142 2.727-.029 6.464-.068 6.9-2.25.426-2.128.67-5.475.847-7.919.099-1.351.176-2.419.256-2.902l.077-.487c.212-1.4.535-3.515 1.805-4.575l.299-.247.198.33c.015.022 1.331 2.207 2.84 3.933l.345.399c1.86 2.173 6.217 7.261 12.688 7.666l.114.006.085.077c.042.037 4.174 3.809.031 8.642-1.102 1.285-11.743 9.81-14.789 10.279-2.344.36-4.503-1.188-6.08-2.318" clip-path="url(#i)" style="fill:#fff;fill-opacity:1;fill-rule:nonzero;stroke:none" transform="matrix(1.33333 0 0 -1.33333 -13.972 1568.718)"></path><path d="M237.831 492.601s-3.98 3.536 0 8.178c1.236 1.444 11.713 9.725 14.587 10.168 2.874.441 5.525-2.211 7.073-3.095 1.546-.884 7.736-5.305 10.167-6.853 0 0-.884-1.767-3.095-2.209-2.21-.442-9.062.663-9.725-2.653s-.884-9.504-1.105-10.83-.441-3.758-1.769-4.864c0 0-1.325 2.211-2.873 3.979-1.547 1.768-6.189 7.737-13.26 8.179" clip-path="url(#j)" style="fill:#0c419a;fill-opacity:1;fill-rule:nonzero;stroke:none" transform="matrix(1.33333 0 0 -1.33333 -13.972 1568.718)"></path><path d="M269.206 500.897a4.34 4.34 0 0 0-2.708-1.782c-.549-.111-1.427-.119-2.442-.13-2.954-.031-7.001-.074-7.543-2.783-.433-2.168-.678-5.539-.857-8-.098-1.335-.175-2.389-.25-2.841l-.078-.497c-.18-1.182-.45-2.905-1.306-3.884-.44.7-1.483 2.292-2.681 3.661l-.341.396c-1.902 2.22-6.344 7.401-13.023 7.881-.31.301-1.588 1.657-1.588 3.661 0 1.147.422 2.502 1.692 3.984 1.166 1.359 11.604 9.626 14.388 10.055 2.076.32 4.108-1.137 5.592-2.201.48-.344.893-.641 1.266-.853.827-.473 3.078-2.026 5.256-3.526 1.718-1.185 3.482-2.402 4.623-3.141m-16.839 10.377c-3.045-.469-13.688-8.994-14.789-10.279-4.143-4.833-.011-8.605.031-8.642l.085-.077.115-.006c6.47-.405 10.827-5.493 12.688-7.666l.345-.399c1.509-1.726 2.826-3.911 2.839-3.933l.198-.33.299.247c1.271 1.06 1.593 3.175 1.805 4.575l.077.487c.08.483.158 1.551.256 2.902.178 2.444.422 5.791.848 7.919.436 2.182 4.172 2.221 6.899 2.25 1.05.01 1.955.021 2.566.142 2.342.469 3.287 2.309 3.325 2.388l.134.267-.252.161c-1.107.703-3.024 2.025-4.878 3.303-2.289 1.579-4.451 3.069-5.303 3.556-.342.196-.743.484-1.207.817-1.576 1.13-3.737 2.678-6.081 2.318" clip-path="url(#k)" style="fill:#fff;fill-opacity:1;fill-rule:nonzero;stroke:none" transform="matrix(1.33333 0 0 -1.33333 -13.972 1568.718)"></path><path d="M103.136 509.841s-1.768 2.652.885 4.2c2.651 1.547 28.07 17.019 59.014 19.45 3.972.312 34.701 3.758 54.374-.884 3.811-.899 31.607-6.63 47.079-16.355 1.609-1.013 5.305-3.979 2.652-7.294-1.113-1.392-9.063-7.738-10.167-8.621-1.105-.884-2.21-5.305-20.335-2.211 0 0 4.642-.221 5.968.222 1.326.442.442.884-.663 1.768s-22.545 9.947-39.565 11.936c-4.396.513-23.712.906-34.701-.663-7.736-1.105-26.082-5.526-37.134-10.83-2.323-1.116-3.536-2.433-2.43-2.433 1.104 0 3.535-.22 5.083 0 0 0-8.842-1.768-12.156-1.105-3.315.664-10.832 4.199-17.904 12.82" clip-path="url(#l)" style="fill:#0c419a;fill-opacity:1;fill-rule:nonzero;stroke:none" transform="matrix(1.33333 0 0 -1.33333 -13.972 1568.718)"></path><path d="M102.891 511.74q-.001.248.055.5c.142.608.559 1.117 1.241 1.513l.308.182c8.611 5.074 31.558 17.104 58.567 19.226l1.573.14c23.058 2.136 40.788 1.793 52.697-1.017l1.279-.289c20.874-4.694 36.249-10.083 45.7-16.025.707-.443 3.039-2.052 3.385-4.105.156-.921-.118-1.83-.815-2.7-.677-.847-4.333-3.945-10.03-8.501l-.085-.068-.45-.469c-1.01-1.178-3.24-3.769-15.162-2.328.643.043 1.204.117 1.557.234.376.126.818.32.885.715l.008.099c0 .41-.434.741-1.019 1.189l-.435.339c-1.295 1.037-22.889 10.038-39.733 12.005-4.262.499-23.731.917-34.788-.663-7.024-1.005-25.757-5.353-37.229-10.861-1.156-.554-3.031-1.679-3.031-2.505l.011-.113c.038-.165.183-.443.733-.443l.965-.031c-2.753-.404-6.202-.771-7.973-.417-3.236.647-10.605 4.049-17.7 12.69-.046.072-.514.828-.514 1.703m61.682 22.222-1.565-.14c-27.145-2.133-50.199-14.218-58.851-19.315l-.304-.18c-.847-.494-1.37-1.147-1.554-1.941-.32-1.385.526-2.676.56-2.728l.01-.014.01-.014c7.219-8.796 14.77-12.269 18.096-12.935 3.341-.667 11.923 1.033 12.286 1.107l-.112.653c-1.07-.152-2.576-.088-3.786-.037l-1.25.04-.031.004c.208.324 1.049 1.05 2.605 1.797 11.407 5.475 30.046 9.803 37.037 10.801 11.004 1.572 30.376 1.157 34.616.663 17.321-2.026 38.499-11.149 39.396-11.866l.448-.348c.287-.219.665-.512.738-.652-.044-.035-.151-.105-.421-.195-1.04-.347-4.573-.265-5.847-.204l-.072-.657c16.235-2.773 19.04.498 20.237 1.894l.361.383.085.068c3.37 2.694 9.167 7.396 10.134 8.604.819 1.025 1.14 2.11.951 3.227-.393 2.323-2.921 4.074-3.685 4.554-9.516 5.982-24.961 11.402-45.908 16.11l-1.272.289c-11.98 2.827-29.78 3.174-52.912 1.032" clip-path="url(#m)" style="fill:#fff;fill-opacity:1;fill-rule:nonzero;stroke:none" transform="matrix(1.33333 0 0 -1.33333 -13.972 1568.718)"></path><path d="M165.245 547.417s3.537-.664 7.736 0c4.199.663 8.841 1.988 10.609 2.21s5.747-.221 7.737-.884c1.988-.663 9.946-1.769 13.04-1.106v-3.867s-1.546-.552-6.189.11c-2.852.407-7.294 1.049-9.781 1.713-2.025.54-5.47.939-8.122.276s-7.073-2.211-8.841-2.211-4.42-.44-6.189.443z" clip-path="url(#n)" style="fill:#0d3896;fill-opacity:1;fill-rule:nonzero;stroke:none" transform="matrix(1.33333 0 0 -1.33333 -13.972 1568.718)"></path><path d="M173.032 547.09c2.375.374 4.906.963 6.94 1.436 1.558.363 2.903.678 3.66.771 1.76.221 5.661-.226 7.59-.869 1.94-.646 9.433-1.701 12.814-1.183v-3.215c-.56-.113-2.264-.329-5.81.178-2.523.361-7.218 1.031-9.742 1.705-2.263.604-5.704.924-8.289.277l-2.976-.836c-2.172-.64-4.634-1.365-5.785-1.365l-1.394-.05c-1.509-.079-3.204-.157-4.463.386v2.702c1.034-.152 4-.484 7.455.063m10.518 2.867c-.791-.1-2.088-.402-3.728-.785-2.024-.47-4.542-1.057-6.892-1.428-4.091-.646-7.589-.008-7.624-.001l-.392.072v-3.919l.184-.092c1.428-.714 3.314-.615 4.977-.526l1.359.049c1.247 0 3.649.706 5.973 1.39l2.948.83c2.471.618 5.776.307 7.958-.275 2.562-.683 7.282-1.358 9.819-1.72 4.669-.667 6.281-.118 6.347-.095l.22.078v4.513l-.401-.086c-2.995-.642-10.949.456-12.866 1.095-1.999.666-6.05 1.128-7.882.9" clip-path="url(#o)" style="fill:#fff;fill-opacity:1;fill-rule:nonzero;stroke:none" transform="matrix(1.33333 0 0 -1.33333 -13.972 1568.718)"></path><path d="M165.245 541.283s3.537-.663 7.736 0 8.841 1.988 10.609 2.21 5.747-.221 7.737-.884c1.988-.663 9.946-1.769 13.04-1.106v-3.867s-1.546-.553-6.189.111c-2.852.406-7.294 1.048-9.781 1.712-2.025.541-5.47.939-8.122.277-2.652-.664-7.073-2.211-8.841-2.211s-4.42-.441-6.189.443z" clip-path="url(#p)" style="fill:#0d3896;fill-opacity:1;fill-rule:nonzero;stroke:none" transform="matrix(1.33333 0 0 -1.33333 -13.972 1568.718)"></path><path d="M173.032 540.956c2.375.374 4.906.963 6.94 1.437 1.558.362 2.903.676 3.66.771 1.76.221 5.661-.226 7.59-.87 1.94-.646 9.433-1.7 12.814-1.183v-3.215c-.56-.113-2.264-.329-5.81.179-2.523.36-7.218 1.03-9.742 1.704-2.263.604-5.704.925-8.289.278l-2.976-.836c-2.172-.64-4.634-1.365-5.785-1.365l-1.394-.05c-1.509-.079-3.204-.159-4.463.387v2.701c1.034-.153 4-.485 7.455.062m10.518 2.866c-.791-.099-2.088-.401-3.728-.783-2.024-.471-4.542-1.058-6.892-1.429-4.091-.647-7.589-.008-7.624-.002l-.392.075v-3.92l.184-.093c1.428-.714 3.314-.614 4.977-.526l1.359.05c1.247 0 3.649.705 5.973 1.389l2.948.83c2.471.618 5.776.307 7.958-.274 2.562-.684 7.282-1.359 9.819-1.721 4.669-.667 6.281-.118 6.347-.094l.22.077v4.514l-.401-.087c-2.995-.642-10.949.457-12.866 1.095-1.999.667-6.05 1.128-7.882.899" clip-path="url(#q)" style="fill:#fff;fill-opacity:1;fill-rule:nonzero;stroke:none" transform="matrix(1.33333 0 0 -1.33333 -13.972 1568.718)"></path><path d="M166.664 479.522h-3.647v13.71q-1.986-1.873-4.684-2.769v3.315q1.423.466 3.092 1.768 1.668 1.303 2.29 3.04h2.949z" clip-path="url(#r)" style="fill:#ffe600;fill-opacity:1;fill-rule:nonzero;stroke:none" transform="matrix(1.33333 0 0 -1.33333 -13.972 1568.718)"></path><path d="M166.415 498.336v-18.565h-3.149v14.037l-.42-.395c-1.209-1.139-2.647-2-4.263-2.587v2.783c.926.332 1.93.911 2.995 1.742 1.091.851 1.856 1.857 2.297 2.985zm.249.498h-3.124l-.059-.165c-.397-1.107-1.14-2.092-2.21-2.926-1.083-.846-2.098-1.428-3.015-1.729l-.171-.056v-3.84l.327.108a12.85 12.85 0 0 1 4.357 2.473v-13.426h4.143v19.561z" clip-path="url(#s)" style="fill:#000;fill-opacity:1;fill-rule:nonzero;stroke:none" transform="matrix(1.33333 0 0 -1.33333 -13.972 1568.718)"></path><path d="M179.131 491.881q0 1.748-.809 2.714-.807.966-1.866.966-1.009 0-1.674-.792-.666-.792-.666-2.593 0-1.827.723-2.681.724-.856 1.81-.855 1.048-.001 1.765.823.716.823.717 2.418m-8.206-7.942 3.523.39q.13-1.076.668-1.595.542-.518 1.429-.518 1.12 0 1.905 1.043.785 1.044 1.004 4.319-1.37-1.591-3.424-1.591-2.234 0-3.857 1.721-1.62 1.72-1.621 4.481 0 2.875 1.711 4.636 1.711 1.76 4.358 1.761 2.878 0 4.726-2.234 1.845-2.233 1.845-7.348 0-5.205-1.921-7.51-1.924-2.304-5.006-2.304-2.219 0-3.585 1.191-1.368 1.191-1.755 3.558" clip-path="url(#t)" style="fill:#ffe600;fill-opacity:1;fill-rule:nonzero;stroke:none" transform="matrix(1.33333 0 0 -1.33333 -13.972 1568.718)"></path><path d="M172.354 487.877c-1.031 1.096-1.553 2.546-1.553 4.312 0 1.843.552 3.343 1.641 4.462 1.087 1.119 2.492 1.685 4.179 1.685 1.831 0 3.358-.72 4.534-2.142 1.187-1.437 1.788-3.856 1.788-7.19 0-3.393-.626-5.867-1.864-7.35-1.225-1.469-2.845-2.214-4.814-2.214-1.409 0-2.561.379-3.422 1.128-.811.706-1.346 1.775-1.614 3.155l3.016.333c.113-.649.343-1.159.699-1.501.407-.39.946-.588 1.601-.588.825 0 1.534.385 2.104 1.142.557.742.902 2.198 1.053 4.452l.049.743-.486-.565c-.87-1.012-1.93-1.503-3.235-1.503-1.412 0-2.649.551-3.676 1.641m-.27 9.121c-1.182-1.216-1.78-2.833-1.78-4.809 0-1.897.568-3.462 1.689-4.652 1.124-1.194 2.482-1.798 4.037-1.798 1.204 0 2.241.418 3.113 1.199-.162-1.742-.456-2.951-.892-3.53-.478-.635-1.036-.943-1.706-.943-.53 0-.941.146-1.256.449s-.517.79-.594 1.444l-.029.245-4.029-.444.042-.26c.266-1.629.885-2.877 1.838-3.705.954-.832 2.215-1.252 3.748-1.252 2.124 0 3.872.804 5.196 2.394 1.315 1.575 1.979 4.156 1.979 7.668 0 3.452-.64 5.979-1.903 7.506-1.275 1.543-2.929 2.324-4.916 2.324-1.826 0-3.353-.618-4.537-1.836" clip-path="url(#u)" style="fill:#000;fill-opacity:1;fill-rule:nonzero;stroke:none" transform="matrix(1.33333 0 0 -1.33333 -13.972 1568.718)"></path><path d="M175.029 489.655c-.44.521-.665 1.369-.665 2.521 0 1.136.205 1.954.608 2.433.399.473.882.703 1.484.703.634 0 1.182-.287 1.677-.876.497-.596.749-1.455.749-2.555 0-.996-.221-1.755-.656-2.256-.432-.497-.948-.737-1.577-.737-.653 0-1.183.251-1.62.767m-.438 5.274c-.486-.579-.724-1.479-.724-2.753 0-1.273.264-2.229.783-2.842.529-.627 1.202-.943 1.999-.943.77 0 1.427.305 1.953.907.515.595.777 1.464.777 2.583 0 1.221-.292 2.187-.866 2.875-.586.698-1.278 1.053-2.057 1.053-.746 0-1.373-.296-1.865-.88" clip-path="url(#v)" style="fill:#000;fill-opacity:1;fill-rule:nonzero;stroke:none" transform="matrix(1.33333 0 0 -1.33333 -13.972 1568.718)"></path><path d="m185.672 484.701 3.606.374q.155-1.224.923-1.939.769-.714 1.772-.713 1.144 0 1.938.93.796.932.796 2.807 0 1.757-.798 2.636-.799.88-2.076.88-1.597 0-2.861-1.368l-2.927.421 1.865 9.857h9.697v-3.398h-6.942l-.603-3.199q1.232.587 2.518.588c1.631 0 3.018-.59 4.152-1.766q1.704-1.765 1.704-4.58 0-2.35-1.359-4.191-1.852-2.518-5.139-2.518c-1.754 0-3.18.468-4.286 1.404q-1.657 1.405-1.98 3.775" clip-path="url(#w)" style="fill:#ffe600;fill-opacity:1;fill-rule:nonzero;stroke:none" transform="matrix(1.33333 0 0 -1.33333 -13.972 1568.718)"></path><path d="M197.358 498.336v-2.899h-6.899l-.731-3.883.441.21a5.6 5.6 0 0 0 2.411.564c1.555 0 2.892-.569 3.974-1.689 1.085-1.124 1.633-2.607 1.633-4.408 0-1.505-.44-2.865-1.311-4.044-1.178-1.604-2.841-2.416-4.938-2.416-1.683 0-3.071.452-4.124 1.345-.99.84-1.598 1.977-1.841 3.366.439.046 2.744.286 3.106.322.139-.756.452-1.383.953-1.849.557-.518 1.21-.781 1.941-.781.835 0 1.551.342 2.128 1.017.566.664.854 1.663.854 2.969 0 1.229-.29 2.172-.862 2.803-.579.638-1.339.961-2.26.961-1.09 0-2.076-.462-2.941-1.353l-2.555.367 1.778 9.398zm.249.498h-9.902l-1.953-10.314 3.313-.477.09.097c.801.865 1.677 1.287 2.678 1.287.786 0 1.404-.262 1.892-.798.486-.537.733-1.367.733-2.469 0-1.184-.248-2.073-.736-2.646-.484-.567-1.057-.843-1.749-.843-.61 0-1.134.211-1.602.647-.466.435-.751 1.036-.847 1.788l-.031.241-4.102-.425.035-.254c.223-1.636.918-2.959 2.066-3.932 1.145-.97 2.642-1.463 4.446-1.463 2.265 0 4.062.881 5.339 2.619.934 1.265 1.408 2.726 1.408 4.339 0 1.935-.596 3.533-1.773 4.753-1.18 1.223-2.637 1.842-4.332 1.842-.742 0-1.475-.177-2.194-.46l.485 2.573h6.984v3.895z" clip-path="url(#x)" style="fill:#000;fill-opacity:1;fill-rule:nonzero;stroke:none" transform="matrix(1.33333 0 0 -1.33333 -13.972 1568.718)"></path><path d="M208.5 486.526v6.406l-4.302-6.406zm0-7.004v3.812h-7.708v3.179l8.174 12.032h3.057v-12.019h2.362v-3.192h-2.362v-3.812z" clip-path="url(#y)" style="fill:#ffe600;fill-opacity:1;fill-rule:nonzero;stroke:none" transform="matrix(1.33333 0 0 -1.33333 -13.972 1568.718)"></path><path d="M211.774 498.296v-12.019h2.362v-2.694h-2.362v-3.812h-3.025v3.812h-7.709v2.854c.084.124 7.915 11.646 8.058 11.859zm.249.497h-3.189l-8.291-12.204v-3.504h7.708v-3.812h4.02v3.812h2.363v3.689h-2.363v12.019z" clip-path="url(#z)" style="fill:#000;fill-opacity:1;fill-rule:nonzero;stroke:none" transform="matrix(1.33333 0 0 -1.33333 -13.972 1568.718)"></path><path d="M208.251 492.115v-5.341h-3.586zm.042.956-4.561-6.794h5.017v7.472z" clip-path="url(#A)" style="fill:#000;fill-opacity:1;fill-rule:nonzero;stroke:none" transform="matrix(1.33333 0 0 -1.33333 -13.972 1568.718)"></path><path d="M121.741 511.273c2.084.921 3.132 1.362 5.239 2.206 1.05.42 1.755.806 2.101 1.177q.333.356.421.899.089.538-.107 1.073a2 2 0 0 1-.609.871q-.42.348-.912.391c-.505.044-1.304-.146-2.388-.58a137 137 0 0 1-5.372-2.263zm1.006-2.333 2.022-4.693q.136-.312.368-.414.23-.102.65-.029l.142-.335a125 125 0 0 1-4.595-2.097l-.152.329q.339.287.414.522t-.068.546l-5.462 11.914q-.146.32-.386.406-.24.089-.712-.01l-.153.329c4.021 1.916 6.057 2.802 10.165 4.434 1.198.476 2.18.769 2.938.892q1.138.186 2.133-.046a3.86 3.86 0 0 0 1.803-.97 4.4 4.4 0 0 0 1.131-1.787q.504-1.485.024-2.901-.413-1.217-1.484-2.067c-.712-.567-1.786-1.123-3.223-1.694a131 131 0 0 1-5.555-2.329" clip-path="url(#B)" style="fill:#fff;fill-opacity:1;fill-rule:nonzero;stroke:none" transform="matrix(1.33333 0 0 -1.33333 -13.972 1568.718)"></path><path d="m141.147 516.275 1.193-4.096c3.991 1.194 6.004 1.721 10.049 2.637q.345.077.495.273.151.197.181.622l.371.081.83-3.91-.361-.079q-.2.375-.415.49-.214.116-.553.039c-5.624-1.273-8.416-2.045-13.929-3.864l-.112.345q.366.24.467.464.103.224-.002.558l-3.952 12.501q-.106.336-.331.453-.227.118-.701.08c-.044.138-.065.208-.11.346 5.95 1.962 8.962 2.801 15.029 4.186q.375.086.539.288t.206.624l.401.089.837-3.907-.391-.086q-.21.366-.44.478-.231.115-.6.031c-4.194-.957-6.28-1.505-10.42-2.743l1.033-3.545c2.631.787 3.954 1.152 6.608 1.823q.36.09.514.291.155.202.179.63l.385.094.904-3.8-.375-.091q-.21.357-.438.47t-.583.023a131 131 0 0 1-6.508-1.795" clip-path="url(#C)" style="fill:#fff;fill-opacity:1;fill-rule:nonzero;stroke:none" transform="matrix(1.33333 0 0 -1.33333 -13.972 1568.718)"></path><path d="M159.813 522.725c2.226.374 3.342.54 5.577.834q1.238.16 1.741.288.502.129.903.394c.58.381.837.975.751 1.784s-.468 1.335-1.125 1.577a2.9 2.9 0 0 1-.985.176c-.341.001-.943-.05-1.805-.163-2.29-.302-3.436-.472-5.717-.855zm.412-2.509.83-5.082q.055-.336.253-.492.196-.158.613-.194l.058-.359a126 126 0 0 1-4.871-.874l-.068.357q.39.192.516.4.127.21.064.545c-.964 5.162-1.443 7.745-2.409 12.907q-.064.346-.273.49t-.681.168l-.069.357c4.282.843 6.434 1.193 10.75 1.75 1.314.169 2.365.222 3.151.171q1.18-.078 2.085-.503a3.62 3.62 0 0 0 1.625-1.458 4.75 4.75 0 0 0 .637-2.045c.21-2.522-1.164-4.104-4.078-4.871a133 133 0 0 0 3.573-3.933c.614-.696 1.051-1.143 1.319-1.337q.405-.29.952-.28l.028-.363a125 125 0 0 1-5.684-.56l-.042.361q.578.159.543.475-.021.203-.656.917a133 133 0 0 1-3.83 4.117 130 130 0 0 1-4.336-.664" clip-path="url(#D)" style="fill:#fff;fill-opacity:1;fill-rule:nonzero;stroke:none" transform="matrix(1.33333 0 0 -1.33333 -13.972 1568.718)"></path><path d="M191.824 530.138a161 161 0 0 1-2.134-3.59c-.137.077-.206.113-.342.189l.016.181c.005.257-.235.539-.705.843-1.456.943-3.213 1.438-5.219 1.405-.874-.015-1.648-.128-2.301-.349-.478-.162-.866-.407-1.154-.72q-.431-.474-.409-1.005c.023-.583.421-.967 1.184-1.149.393-.094 1.238-.178 2.529-.276.768-.06 1.151-.091 1.919-.16 1.139-.107 2.06-.269 2.76-.473a6.3 6.3 0 0 0 1.849-.861 3.84 3.84 0 0 0 1.256-1.502 4.1 4.1 0 0 0 .409-1.955c-.036-1.088-.443-2.043-1.185-2.868-.674-.751-1.696-1.301-3.059-1.663a13.3 13.3 0 0 0-3.258-.432c-2.079-.029-4.151.422-6.234 1.26-.437.176-.709.256-.794.25q-.152-.009-.461-.279l-.349.148c.59 1.565.894 2.346 1.519 3.905l.354-.141.007-.147c.018-.341.207-.645.557-.916.531-.411 1.339-.756 2.414-1.038s2.084-.418 3.036-.405c1.038.014 1.925.186 2.661.525q.612.28.983.748.37.467.377.981.011.773-.858 1.109c-.405.155-1.228.3-2.467.417-.739.066-1.109.098-1.85.155-1.242.096-2.121.18-2.638.27a7.6 7.6 0 0 0-1.565.462 4.06 4.06 0 0 0-1.809 1.442c-.414.589-.651 1.282-.699 2.076-.079 1.308.347 2.421 1.294 3.328 1.246 1.191 3.204 1.852 5.839 1.897a13.8 13.8 0 0 0 3.106-.279c.956-.203 2.156-.6 3.559-1.156.478-.189.78-.283.889-.286q.264-.008.626.244z" clip-path="url(#E)" style="fill:#fff;fill-opacity:1;fill-rule:nonzero;stroke:none" transform="matrix(1.33333 0 0 -1.33333 -13.972 1568.718)"></path><path d="M195.124 516.966c.304 5.245.458 7.87.761 13.115q.02.339-.146.531-.167.192-.617.329l.02.364c2.167-.118 3.25-.195 5.413-.385l-.031-.362q-.464-.062-.656-.233-.192-.173-.22-.512l-1.054-13.093q-.028-.35.125-.551.152-.201.548-.338l-.031-.362c-1.966.172-2.95.241-4.919.349l.018.363q.423.09.596.262.172.172.193.523" clip-path="url(#F)" style="fill:#fff;fill-opacity:1;fill-rule:nonzero;stroke:none" transform="matrix(1.33333 0 0 -1.33333 -13.972 1568.718)"></path><path d="M201.345 515.862a191 191 0 0 0 1.902 3.75l.341-.163-.037-.226c-.034-.309.137-.625.505-.927.382-.313.926-.603 1.609-.874a8.7 8.7 0 0 1 1.984-.544c1.039-.148 1.827-.037 2.371.345q.416.29.62.746.203.456.356 1.421l1.398 8.855q.054.348-.092.555-.147.207-.584.39l.057.36c2.15-.337 3.223-.523 5.364-.932l-.067-.358q-.471-.025-.679-.171t-.271-.493l-1.628-8.985q-.403-2.215-1.213-3.082c-.57-.612-1.32-1.029-2.252-1.261s-1.973-.258-3.133-.088q-.994.145-1.71.372c-.478.152-1.251.469-2.326.919-.666.279-1.152.43-1.445.462q-.382.04-.738-.242z" clip-path="url(#G)" style="fill:#fff;fill-opacity:1;fill-rule:nonzero;stroke:none" transform="matrix(1.33333 0 0 -1.33333 -13.972 1568.718)"></path><path d="M228.395 516.304c-.447 2.403-.69 3.605-1.21 6.009a166 166 0 0 1-3.981-4.646 131 131 0 0 0 5.191-1.363m.427-2.324a129 129 0 0 1-7.132 1.872c-.627-.751-.936-1.128-1.552-1.886q-.317-.395-.375-.65-.108-.49.607-.854l-.081-.355a125 125 0 0 1-5.134 1.103l.069.357q.474 0 .757.174t.723.757c3.244 4.198 4.951 6.258 8.532 10.283q.428.479.51.809.124.508-.543.904c.033.141.048.213.082.354 2.41-.587 3.612-.903 6.005-1.581-.039-.141-.06-.21-.098-.35q-.779.019-.903-.442-.087-.317.035-.787c1.286-5.321 1.832-7.986 2.736-13.3q.141-.846.335-1.201t.635-.599c-.045-.138-.07-.207-.114-.345-2.238.75-3.362 1.103-5.621 1.762l.1.349q.774-.098.937.462.066.227-.032.744c-.185.968-.28 1.452-.478 2.42" clip-path="url(#H)" style="fill:#fff;fill-opacity:1;fill-rule:nonzero;stroke:none" transform="matrix(1.33333 0 0 -1.33333 -13.972 1568.718)"></path><path d="M242.823 514.434a134 134 0 0 0 5.266-2.117c1.044-.442 1.817-.663 2.324-.643q.484.02.922.345.435.322.664.846.222.513.16 1.054a1.68 1.68 0 0 1-.385.925c-.336.389-1.041.82-2.119 1.276a139 139 0 0 1-5.398 2.17zm-.885-2.382-1.782-4.792q-.118-.319-.023-.555.094-.236.444-.48l-.129-.341a126 126 0 0 1-4.7 1.732c.046.138.07.205.117.343q.435-.031.649.084.216.117.328.438l4.288 12.396q.115.334.004.566-.109.23-.509.491l.116.344c4.157-1.453 6.218-2.25 10.297-3.987 1.189-.506 2.1-.991 2.732-1.441q.95-.675 1.509-1.546c.384-.6.6-1.265.634-1.972a4.4 4.4 0 0 0-.414-2.086c-.44-.946-1.109-1.642-1.992-2.09q-1.14-.578-2.501-.426c-.906.101-2.067.464-3.493 1.072a131 131 0 0 1-5.575 2.25" clip-path="url(#I)" style="fill:#fff;fill-opacity:1;fill-rule:nonzero;stroke:none" transform="matrix(1.33333 0 0 -1.33333 -13.972 1568.718)"></path><path d="m167.013 637.265 4.476-2.653.332-7.626-5.636-4.144-5.803 4.808.995 5.305z" clip-path="url(#J)" style="fill:#fff;fill-opacity:1;fill-rule:nonzero;stroke:none" transform="matrix(1.33333 0 0 -1.33333 -13.972 1568.718)"></path><path d="M167.024 637.065c.183-.107 4.157-2.462 4.303-2.549.008-.173.318-7.278.324-7.449l-5.461-4.014-5.626 4.662.965 5.147zm-.111.331-5.687-4.348-1.024-5.464 5.976-4.951 5.813 4.272-.34 7.805-4.65 2.754z" clip-path="url(#K)" style="fill:#000;fill-opacity:1;fill-rule:nonzero;stroke:none" transform="matrix(1.33333 0 0 -1.33333 -13.972 1568.718)"></path><path d="m169.168 644.228-2.155-6.963-5.636-4.31s1.824 8.952 7.791 11.273" clip-path="url(#L)" style="fill:#000;fill-opacity:1;fill-rule:nonzero;stroke:none" transform="matrix(1.33333 0 0 -1.33333 -13.972 1568.718)"></path><path d="m168.898 643.916-2.027-6.552c-.078-.058-4.585-3.506-5.224-3.994.451 1.78 2.44 8.408 7.251 10.546m.21.465c-5.983-2.326-7.875-11.303-7.893-11.393l-.089-.434 6.031 4.611 2.271 7.341z" clip-path="url(#M)" style="fill:#000;fill-opacity:1;fill-rule:nonzero;stroke:none" transform="matrix(1.33333 0 0 -1.33333 -13.972 1568.718)"></path><path d="m171.489 634.612-3.978 2.653 1.657 6.963 3.813 2.652 6.133-2.818-.994-4.808z" clip-path="url(#N)" style="fill:#fff;fill-opacity:1;fill-rule:nonzero;stroke:none" transform="matrix(1.33333 0 0 -1.33333 -13.972 1568.718)"></path><path d="M172.998 646.689c.164-.074 5.7-2.619 5.927-2.723l-.954-4.614-6.485-4.539c-.173.117-3.609 2.407-3.787 2.525l1.616 6.79zm-.111.327-3.865-2.688-1.7-7.137 4.17-2.78 6.777 4.745 1.035 5.001-6.34 2.913z" clip-path="url(#O)" style="fill:#000;fill-opacity:1;fill-rule:nonzero;stroke:none" transform="matrix(1.33333 0 0 -1.33333 -13.972 1568.718)"></path><path d="m184.585 647.708-5.471-3.646-6.133 2.818s2.652 3.978 11.604 3.978z" clip-path="url(#P)" style="fill:#000;fill-opacity:1;fill-rule:nonzero;stroke:none" transform="matrix(1.33333 0 0 -1.33333 -13.972 1568.718)"></path><path d="M184.419 650.688v-2.891l-5.319-3.547-5.859 2.692c.595.712 3.556 3.702 11.178 3.746m.166.335c-8.938 0-11.632-3.887-11.741-4.052l-.108-.161 6.393-2.938 5.621 3.748v3.403z" clip-path="url(#Q)" style="fill:#000;fill-opacity:1;fill-rule:nonzero;stroke:none" transform="matrix(1.33333 0 0 -1.33333 -13.972 1568.718)"></path><path d="m184.585 635.11-6.299 3.647.828 5.305 5.471 3.646 4.144-2.817 1.327-6.134z" clip-path="url(#R)" style="fill:#fff;fill-opacity:1;fill-rule:nonzero;stroke:none" transform="matrix(1.33333 0 0 -1.33333 -13.972 1568.718)"></path><path d="m184.584 647.508 3.998-2.717 1.288-5.959-5.29-3.527c-.172.098-5.926 3.43-6.113 3.538l.8 5.121zm-.09.338-5.532-3.688-.858-5.488 6.487-3.755 5.65 3.767-1.364 6.309-4.291 2.917z" clip-path="url(#S)" style="fill:#000;fill-opacity:1;fill-rule:nonzero;stroke:none" transform="matrix(1.33333 0 0 -1.33333 -13.972 1568.718)"></path><path d="m188.729 645.221-4.144 2.487v3.15s3.978.663 7.128-.83z" clip-path="url(#T)" style="fill:#fff;fill-opacity:1;fill-rule:nonzero;stroke:none" transform="matrix(1.33333 0 0 -1.33333 -13.972 1568.718)"></path><path d="m191.466 649.945-2.791-4.497-3.925 2.354v2.912c.669.091 3.983.446 6.716-.769m-6.908 1.076-.139-.022v-3.385l4.366-2.618 3.168 5.103-.169.08c-3.16 1.497-7.061.87-7.226.842" clip-path="url(#U)" style="fill:#000;fill-opacity:1;fill-rule:nonzero;stroke:none" transform="matrix(1.33333 0 0 -1.33333 -13.972 1568.718)"></path><path d="m207.13 633.95-4.309 3.646v5.969s4.309-4.311 4.973-6.963z" clip-path="url(#V)" style="fill:#fff;fill-opacity:1;fill-rule:nonzero;stroke:none" transform="matrix(1.33333 0 0 -1.33333 -13.972 1568.718)"></path><path d="M202.986 643.155c.952-.992 4.063-4.364 4.635-6.558l-.587-2.35c-.363.309-3.939 3.335-4.048 3.427zm-.332.41v-6.046l4.572-3.868.738 2.951-.009.039c-.667 2.667-4.841 6.862-5.018 7.041l-.283.282z" clip-path="url(#W)" style="fill:#000;fill-opacity:1;fill-rule:nonzero;stroke:none" transform="matrix(1.33333 0 0 -1.33333 -13.972 1568.718)"></path><path d="m207.959 626.82-.829 6.632.664 3.15s3.315-3.979 2.817-12.434z" clip-path="url(#X)" style="fill:#000;fill-opacity:1;fill-rule:nonzero;stroke:none" transform="matrix(1.33333 0 0 -1.33333 -13.972 1568.718)"></path><path d="M207.878 636.2c.653-.961 2.617-4.351 2.617-10.345 0-.417-.017-.857-.038-1.297-.43.429-2.27 2.271-2.341 2.34-.012.111-.811 6.493-.818 6.547zm-.248.436-.667-3.177.838-6.715 2.954-2.954.022.369c.496 8.423-2.822 12.508-2.856 12.549l-.219.263z" clip-path="url(#Y)" style="fill:#000;fill-opacity:1;fill-rule:nonzero;stroke:none" transform="matrix(1.33333 0 0 -1.33333 -13.972 1568.718)"></path><path d="m203.152 623.008 4.807 3.812 2.488-3.315s-.333-8.62-4.808-12.93l-3.481 2.984z" clip-path="url(#Z)" style="fill:#fff;fill-opacity:1;fill-rule:nonzero;stroke:none" transform="matrix(1.33333 0 0 -1.33333 -13.972 1568.718)"></path><path d="m207.929 626.586 2.347-3.132c-.029-.592-.515-8.539-4.651-12.649l-3.294 2.824.979 9.293zm-.073.365-4.862-3.857-1.011-9.604 3.662-3.138.108.104c4.472 4.306 4.855 12.956 4.858 13.044l.003.059-2.625 3.498z" clip-path="url(#aa)" style="fill:#000;fill-opacity:1;fill-rule:nonzero;stroke:none" transform="matrix(1.33333 0 0 -1.33333 -13.972 1568.718)"></path><path d="m196.521 610.575 5.637 2.984 3.481-2.984s-4.31-4.973-8.124-7.128l-1.658 1.824z" clip-path="url(#ab)" style="fill:#fff;fill-opacity:1;fill-rule:nonzero;stroke:none" transform="matrix(1.33333 0 0 -1.33333 -13.972 1568.718)"></path><path d="m202.136 613.359 3.266-2.799c-.661-.747-4.458-4.935-7.856-6.9l-1.514 1.665.642 5.145c.146.077 5.27 2.789 5.462 2.889m-.056.346-5.713-3.024-.683-5.465 1.797-1.978.116.065c3.794 2.144 8.124 7.114 8.167 7.163l.109.127-3.694 3.165z" clip-path="url(#ac)" style="fill:#000;fill-opacity:1;fill-rule:nonzero;stroke:none" transform="matrix(1.33333 0 0 -1.33333 -13.972 1568.718)"></path><path d="m188.481 600.463 7.211 4.475 1.657-1.74s-4.724-3.067-8.868-2.735" clip-path="url(#ad)" style="fill:#000;fill-opacity:1;fill-rule:nonzero;stroke:none" transform="matrix(1.33333 0 0 -1.33333 -13.972 1568.718)"></path><path d="M195.665 604.727c.15-.159 1.203-1.263 1.423-1.496-.819-.498-4.585-2.66-8.06-2.623zm-.06.352-7.64-4.741.502-.04c4.153-.333 8.778 2.635 8.973 2.761l.167.11-1.887 1.982z" clip-path="url(#ae)" style="fill:#000;fill-opacity:1;fill-rule:nonzero;stroke:none" transform="matrix(1.33333 0 0 -1.33333 -13.972 1568.718)"></path><path d="m183.59 604.276.332 6.465 6.134 4.309 6.465-4.475-.912-5.304-7.378-4.559z" clip-path="url(#af)" style="fill:#fff;fill-opacity:1;fill-rule:nonzero;stroke:none" transform="matrix(1.33333 0 0 -1.33333 -13.972 1568.718)"></path><path d="m190.056 614.849 6.283-4.349c-.033-.198-.856-4.987-.881-5.128l-7.216-4.459-4.481 3.441.323 6.298zm-.095.338-6.2-4.356-.341-6.633 4.802-3.688 7.538 4.66.942 5.482-6.647 4.601z" clip-path="url(#ag)" style="fill:#000;fill-opacity:1;fill-rule:nonzero;stroke:none" transform="matrix(1.33333 0 0 -1.33333 -13.972 1568.718)"></path><path d="m178.948 601.293 4.144 2.983 5.057-3.978s-4.89-.995-9.201.995" clip-path="url(#ah)" style="fill:#fff;fill-opacity:1;fill-rule:nonzero;stroke:none" transform="matrix(1.33333 0 0 -1.33333 -13.972 1568.718)"></path><path d="m183.089 604.069 4.662-3.669c-1.163-.172-4.975-.556-8.455.939.433.309 3.612 2.599 3.793 2.73m-.092.342-4.375-3.15.257-.119c4.31-1.989 9.254-1.017 9.304-1.006l.35.07-5.436 4.277z" clip-path="url(#ai)" style="fill:#000;fill-opacity:1;fill-rule:nonzero;stroke:none" transform="matrix(1.33333 0 0 -1.33333 -13.972 1568.718)"></path><path d="m172.152 604.11-.663 6.134 6.464 4.973 5.969-4.476-.332-5.968-4.642-3.48s-2.486-.333-6.796 2.817" clip-path="url(#aj)" style="fill:#000;fill-opacity:1;fill-rule:nonzero;stroke:none" transform="matrix(1.33333 0 0 -1.33333 -13.972 1568.718)"></path><path d="M177.955 615.008c.193-.143 5.661-4.244 5.797-4.345l-.322-5.803-4.542-3.406c-.305-.021-2.688-.075-6.579 2.751l-.645 5.965zm-.101.34-6.54-5.03.682-6.298.059-.043c4.315-3.154 6.812-2.864 6.916-2.849l.043.006 4.738 3.552.341 6.134-6.141 4.605z" clip-path="url(#ak)" style="fill:#000;fill-opacity:1;fill-rule:nonzero;stroke:none" transform="matrix(1.33333 0 0 -1.33333 -13.972 1568.718)"></path><path d="m164.03 611.902.994 2.818 6.465-4.476.663-6.134s-6.133 3.481-8.122 7.792" clip-path="url(#al)" style="fill:#fff;fill-opacity:1;fill-rule:nonzero;stroke:none" transform="matrix(1.33333 0 0 -1.33333 -13.972 1568.718)"></path><path d="M165.108 614.459c.334-.231 6.106-4.226 6.224-4.309.016-.138.558-5.145.619-5.727-1.216.738-6.016 3.829-7.741 7.492zm-.241.316-1.016-2.882.027-.06c1.989-4.31 7.94-7.724 8.192-7.867l.282-.16-.706 6.532-6.707 4.641z" clip-path="url(#am)" style="fill:#000;fill-opacity:1;fill-rule:nonzero;stroke:none" transform="matrix(1.33333 0 0 -1.33333 -13.972 1568.718)"></path><path d="m160.382 627.65 5.803-4.808-.166-7.957-1.823-3.646s-5.637 8.122-3.814 16.411" clip-path="url(#an)" style="fill:#000;fill-opacity:1;fill-rule:nonzero;stroke:none" transform="matrix(1.33333 0 0 -1.33333 -13.972 1568.718)"></path><path d="M160.188 624.246c0 1.018.104 2.054.312 3.091l5.517-4.571-.163-7.84-1.678-3.355c-.739 1.155-3.988 6.571-3.988 12.675m.032 3.439c-1.818-8.263 3.781-16.459 3.839-16.541l.16-.23 1.964 3.931.169 8.075-6.073 5.031z" clip-path="url(#ao)" style="fill:#000;fill-opacity:1;fill-rule:nonzero;stroke:none" transform="matrix(1.33333 0 0 -1.33333 -13.972 1568.718)"></path><path d="m171.821 626.986 6.465-4.972-.333-6.797-6.464-4.973-5.636 4.144.332 8.454z" clip-path="url(#ap)" style="fill:#fff;fill-opacity:1;fill-rule:nonzero;stroke:none" transform="matrix(1.33333 0 0 -1.33333 -13.972 1568.718)"></path><path d="m171.818 626.779 6.297-4.843c-.006-.168-.316-6.486-.323-6.635l-6.306-4.85-5.464 4.018.325 8.287c.123.092 5.279 3.883 5.471 4.023m-.095.342-5.701-4.191-.339-8.624 5.809-4.269 6.623 5.095.34 6.96-6.632 5.102z" clip-path="url(#aq)" style="fill:#000;fill-opacity:1;fill-rule:nonzero;stroke:none" transform="matrix(1.33333 0 0 -1.33333 -13.972 1568.718)"></path><path d="m183.59 626.655.995 8.455-6.299 3.647-6.3-3.813-.165-7.958 6.631-4.641z" clip-path="url(#ar)" style="fill:#000;fill-opacity:1;fill-rule:nonzero;stroke:none" transform="matrix(1.33333 0 0 -1.33333 -13.972 1568.718)"></path><path d="m178.288 638.564 6.12-3.543c-.025-.209-.96-8.154-.974-8.282-.097-.08-4.805-4.03-4.991-4.185l-6.455 4.517.161 7.778zm-.088.334-6.377-3.859-.171-8.136 6.809-4.767 5.287 4.435 1.015 8.627-6.479 3.751z" clip-path="url(#as)" style="fill:#000;fill-opacity:1;fill-rule:nonzero;stroke:none" transform="matrix(1.33333 0 0 -1.33333 -13.972 1568.718)"></path><path d="m189.558 622.842-5.554 3.896-5.552-4.614-.332-6.741 5.884-4.394 6.052 4.061z" clip-path="url(#at)" style="fill:#fff;fill-opacity:1;fill-rule:nonzero;stroke:none" transform="matrix(1.33333 0 0 -1.33333 -13.972 1568.718)"></path><path d="M184.014 626.53c.195-.139 5.259-3.69 5.384-3.778l.487-7.616-5.875-3.944c-.18.135-5.584 4.17-5.72 4.27l.323 6.581zm-.115.335-5.609-4.66-.341-6.902 6.051-4.516 6.227 4.179-.508 7.966-5.722 4.015z" clip-path="url(#au)" style="fill:#000;fill-opacity:1;fill-rule:nonzero;stroke:none" transform="matrix(1.33333 0 0 -1.33333 -13.972 1568.718)"></path><path d="M196.521 627.318v7.294l-6.383 3.813-5.553-3.315-.498-8.124 5.886-4.227z" clip-path="url(#av)" style="fill:#fff;fill-opacity:1;fill-rule:nonzero;stroke:none" transform="matrix(1.33333 0 0 -1.33333 -13.972 1568.718)"></path><path d="M190.138 638.232c.164-.098 6.061-3.622 6.216-3.713v-7.114l-6.38-4.443-5.716 4.105c.013.178.477 7.776.488 7.945zm-.084.336-5.628-3.361-.509-8.302 6.054-4.348 6.716 4.675v7.475l-6.549 3.912z" clip-path="url(#aw)" style="fill:#000;fill-opacity:1;fill-rule:nonzero;stroke:none" transform="matrix(1.33333 0 0 -1.33333 -13.972 1568.718)"></path><path d="m196.354 611.073 5.638 2.983.912 8.289-6.383 4.559-6.548-4.476.414-7.295z" clip-path="url(#ax)" style="fill:#000;fill-opacity:1;fill-rule:nonzero;stroke:none" transform="matrix(1.33333 0 0 -1.33333 -13.972 1568.718)" data-source="https://football-logos.cc"></path><path d="M196.519 626.702c.18-.13 6.056-4.327 6.209-4.435l-.892-8.105c-.149-.079-5.301-2.807-5.47-2.895l-5.817 3.958c-.01.158-.395 6.939-.405 7.118zm-.092.339-6.624-4.529.424-7.469 6.118-4.163 5.801 3.071.932 8.473-6.556 4.682z" clip-path="url(#ay)" style="fill:#000;fill-opacity:1;fill-rule:nonzero;stroke:none" transform="matrix(1.33333 0 0 -1.33333 -13.972 1568.718)"></path><path d="m207.959 626.82-.829 7.13-4.807 3.812-5.802-3.15v-7.294l6.548-4.641z" clip-path="url(#az)" style="fill:#fff;fill-opacity:1;fill-rule:nonzero;stroke:none" transform="matrix(1.33333 0 0 -1.33333 -13.972 1568.718)"></path><path d="m202.305 637.563 4.668-3.701.811-6.972c-.129-.109-4.539-3.846-4.723-4.004l-6.374 4.517v7.111zm-.061.345-5.89-3.197v-7.479l6.724-4.765 5.056 4.285-.847 7.285-4.947 3.923z" clip-path="url(#aA)" style="fill:#000;fill-opacity:1;fill-rule:nonzero;stroke:none" transform="matrix(1.33333 0 0 -1.33333 -13.972 1568.718)"></path><path d="m196.438 634.529 5.803 3.15.497 5.802s-3.813 4.973-11.108 6.465l-2.569-5.304 1.409-6.051z" clip-path="url(#aB)" style="fill:#000;fill-opacity:1;fill-rule:nonzero;stroke:none" transform="matrix(1.33333 0 0 -1.33333 -13.972 1568.718)"></path><path d="M191.721 649.754c6.723-1.421 10.467-5.858 10.846-6.325l-.485-5.646-5.635-3.059-5.831 3.968c-.028.122-1.354 5.82-1.381 5.931.05.1 2.377 4.904 2.486 5.131m-.24.265-2.595-5.358 1.437-6.171 6.106-4.155 5.968 3.241.511 5.955-.04.051c-.038.05-3.934 5.04-11.203 6.526l-.127.027z" clip-path="url(#aC)" style="fill:#000;fill-opacity:1;fill-rule:nonzero;stroke:none" transform="matrix(1.33333 0 0 -1.33333 -13.972 1568.718)"></path><path d="M160.382 569.796s-2.652 9.449-12.764 11.437c-2.946.58-3.812.332-4.807.83 0 0 2.818-6.134 5.635-7.792 1.472-.865 5.664-2.699 8.124-3.315 1.989-.498 2.652-.165 3.812-1.16" clip-path="url(#aD)" style="fill:#ffe600;fill-opacity:1;fill-rule:nonzero;stroke:none" transform="matrix(1.33333 0 0 -1.33333 -13.972 1568.718)"></path><path d="M158.238 570.898c-.443.062-.948.134-1.608.299-2.368.593-6.57 2.414-8.057 3.289-2.236 1.314-4.514 5.609-5.272 7.134.389-.105.803-.153 1.342-.207.671-.068 1.589-.161 2.926-.424 8.251-1.622 11.478-8.357 12.323-10.551-.537.295-1.034.373-1.654.46m-15.653 11.061c.117-.253 2.883-6.224 5.736-7.901 1.505-.887 5.7-2.722 8.189-3.343a15 15 0 0 1 1.659-.309c.835-.117 1.339-.188 2.051-.799l.624-.534-.222.79c-.027.095-2.811 9.619-12.956 11.615-1.359.267-2.292.361-2.973.43-.794.08-1.273.128-1.771.377l-.632.316z" clip-path="url(#aE)" style="fill:#000;fill-opacity:1;fill-rule:nonzero;stroke:none" transform="matrix(1.33333 0 0 -1.33333 -13.972 1568.718)"></path><path d="M160.382 570.625s-.497 2.154-.165 4.476c.331 2.319.662 6.63 0 9.615 0 0-.497 3.48 0 4.972 0 0-4.311-3.646-3.979-7.294.227-2.498 1.658-5.967 2.155-6.962.498-.994 1.989-3.979 1.989-4.807" clip-path="url(#aF)" style="fill:#ffe600;fill-opacity:1;fill-rule:nonzero;stroke:none" transform="matrix(1.33333 0 0 -1.33333 -13.972 1568.718)"></path><path d="M158.616 575.542c-.492.983-1.908 4.437-2.13 6.875a4 4 0 0 0-.017.38c0 2.57 2.27 5.114 3.349 6.178-.049-.389-.07-.814-.07-1.251 0-1.453.21-2.949.222-3.045.273-1.227.379-2.719.379-4.232 0-1.894-.166-3.823-.379-5.312a12.3 12.3 0 0 1-.106-2.212 64 64 0 0 1-1.248 2.619m1.441 14.335c-.174-.145-4.085-3.499-4.085-7.074q0-.215.018-.432c.246-2.703 1.807-6.304 2.181-7.051q1.543-3.09 1.87-4.223c.05-.312.094-.503.1-.529l.49.057-.008.055h.002l-.003.019a2.6 2.6 0 0 1-.081.43 14.4 14.4 0 0 0-.188 2.301c0 .516.029 1.071.11 1.634.215 1.509.383 3.463.383 5.387 0 1.543-.107 3.066-.387 4.318-.001.01-.215 1.54-.215 2.976 0 .709.052 1.395.209 1.865l.28.84z" clip-path="url(#aG)" style="fill:#000;fill-opacity:1;fill-rule:nonzero;stroke:none" transform="matrix(1.33333 0 0 -1.33333 -13.972 1568.718)"></path><path d="M154.912 579.411s.994 5.967 1.492 7.791c.497 1.822 2.321 5.802 0 10.775 0 0-.83-1.16-1.327-1.989-.496-.829-4.143-5.636-3.315-8.455.829-2.817 1.327-6.63 3.15-8.122" clip-path="url(#aH)" style="fill:#ffe600;fill-opacity:1;fill-rule:nonzero;stroke:none" transform="matrix(1.33333 0 0 -1.33333 -13.972 1568.718)"></path><path d="m152.551 585.502-.551 2.101a3 3 0 0 0-.112.847c0 2.346 2.177 5.577 3.058 6.886l.345.524c.315.526.769 1.191 1.053 1.599.7-1.649.966-3.18.966-4.545 0-2-.525-3.655-.903-4.848l-.243-.799c-.419-1.538-1.172-5.893-1.417-7.339-1.109 1.2-1.664 3.415-2.196 5.574m3.651 12.619a38 38 0 0 1-1.338-2.005l-.33-.503c-1.03-1.528-3.764-5.586-3.011-8.15l.544-2.079c.602-2.445 1.225-4.97 2.688-6.166l.331-.272.071.424c.01.059.998 5.976 1.487 7.767l.237.779c.635 2.003 1.817 5.732-.252 10.166l-.18.386z" clip-path="url(#aI)" style="fill:#000;fill-opacity:1;fill-rule:nonzero;stroke:none" transform="matrix(1.33333 0 0 -1.33333 -13.972 1568.718)"></path><path d="M153.751 579.576s-1.16 7.294-6.133 10.444c-1.638 1.037-6.465 2.32-7.625 3.812 0 0 .993-5.471 1.823-6.465.83-.995.83-1.989 4.31-2.818 0 0 6.299-2.155 7.625-4.973" clip-path="url(#aJ)" style="fill:#ffe600;fill-opacity:1;fill-rule:nonzero;stroke:none" transform="matrix(1.33333 0 0 -1.33333 -13.972 1568.718)"></path><path d="M146.207 584.784c-2.758.658-3.254 1.389-3.778 2.165l-.423.577c-.557.671-1.269 3.807-1.628 5.615 1.003-.76 2.716-1.446 4.275-2.064 1.146-.455 2.229-.885 2.832-1.268 3.608-2.285 5.182-6.868 5.75-9.055-2.103 2.323-6.8 3.952-7.028 4.03m-6.46 9.004c.104-.566 1.032-5.564 1.878-6.58l.392-.54c.555-.818 1.129-1.665 4.051-2.361.04-.015 6.192-2.147 7.458-4.836l.471.145c-.049.302-1.235 7.441-6.247 10.614-.642.407-1.745.844-2.914 1.308-1.861.739-3.97 1.576-4.648 2.447z" clip-path="url(#aK)" style="fill:#000;fill-opacity:1;fill-rule:nonzero;stroke:none" transform="matrix(1.33333 0 0 -1.33333 -13.972 1568.718)"></path><path d="M150.602 589.024s.165 3.15.663 3.98c.497.828 2.985 3.149 3.812 7.459.314 1.628-.662 3.482-1.16 5.306 0 0-3.979-1.824-5.304-4.809-.694-1.559-.995-3.647-.167-6.464.445-1.509 1.492-4.31 2.156-5.472" clip-path="url(#aL)" style="fill:#ffe600;fill-opacity:1;fill-rule:nonzero;stroke:none" transform="matrix(1.33333 0 0 -1.33333 -13.972 1568.718)"></path><path d="M148.686 594.565q-.488 1.66-.488 3.144c0 1.135.214 2.188.642 3.151 1.085 2.442 4.055 4.107 4.929 4.557l.403-1.257c.367-1.068.719-2.087.719-3.028q.001-.318-.058-.622c-.651-3.391-2.347-5.528-3.257-6.675l-.523-.704c-.358-.595-.546-2.165-.633-3.187-.637 1.373-1.393 3.461-1.734 4.621m5.128 11.429c-.166-.075-4.08-1.897-5.428-4.931-.851-1.914-.91-4.146-.177-6.638.422-1.439 1.48-4.305 2.176-5.523l.421-.735.044.845c.046.86.247 3.228.628 3.863l.487.652c.938 1.179 2.683 3.379 3.357 6.889.239 1.24-.229 2.595-.68 3.906l-.571 1.779z" clip-path="url(#aM)" style="fill:#000;fill-opacity:1;fill-rule:nonzero;stroke:none" transform="matrix(1.33333 0 0 -1.33333 -13.972 1568.718)"></path><path d="M148.944 590.683s-2.818 8.289-4.31 9.615-5.967 4.309-6.797 4.973c0 0-.497-3.813 0-4.973.498-1.161 1.493-3.316 3.979-4.31.984-.395 6.63-3.482 7.128-5.305" clip-path="url(#aN)" style="fill:#ffe600;fill-opacity:1;fill-rule:nonzero;stroke:none" transform="matrix(1.33333 0 0 -1.33333 -13.972 1568.718)"></path><path d="M141.908 596.219c-2.476.99-3.433 3.223-3.842 4.177-.149.345-.2.983-.2 1.699 0 .947.09 2.005.168 2.716.375-.273.933-.665 1.598-1.129 1.637-1.148 3.879-2.719 4.837-3.57 1.033-.919 2.775-5.444 3.671-7.904-1.862 1.794-5.54 3.734-6.232 4.011m-4.317 9.084c-.014-.103-.222-1.725-.222-3.179 0-.776.06-1.504.24-1.925.433-1.01 1.447-3.375 4.115-4.442.981-.392 6.507-3.447 6.978-5.134l.007-.019.475.144-.006.014h.002c-.116.342-2.857 8.367-4.381 9.721-.979.87-3.235 2.452-4.883 3.606-.878.616-1.639 1.148-1.923 1.376l-.345.276z" clip-path="url(#aO)" style="fill:#000;fill-opacity:1;fill-rule:nonzero;stroke:none" transform="matrix(1.33333 0 0 -1.33333 -13.972 1568.718)"></path><path d="M146.955 597.479s0 3.979.663 5.139 3.647 3.316 4.31 4.808.166 4.973-.994 8.619c0 0-.829-2.155-1.492-2.984-.664-.827-3.483-3.812-3.648-5.138s-1.16-4.641 1.161-10.444" clip-path="url(#aP)" style="fill:#ffe600;fill-opacity:1;fill-rule:nonzero;stroke:none" transform="matrix(1.33333 0 0 -1.33333 -13.972 1568.718)"></path><path d="M145.693 604.568c0 1.218.155 2.134.262 2.767l.087.558c.124.997 1.998 3.159 3.004 4.32l.59.693c.45.563.953 1.668 1.257 2.384.695-2.344 1.082-4.475 1.082-5.997 0-.748-.09-1.352-.274-1.766-.351-.791-1.454-1.838-2.428-2.762-.803-.761-1.561-1.481-1.872-2.024-.443-.776-.602-2.667-.661-3.96-.816 2.39-1.047 4.311-1.047 5.787m5.008 11.567c-.008-.021-.823-2.129-1.453-2.917l-.579-.679c-1.441-1.664-2.988-3.526-3.121-4.585l-.085-.537c-.264-1.571-.815-4.841 1.261-10.03l.479.092c0 1.089.114 4.112.631 5.016.272.479 1.006 1.173 1.781 1.909 1.056 1.004 2.148 2.039 2.541 2.921.778 1.753.002 5.693-.985 8.796l-.215.675z" clip-path="url(#aQ)" style="fill:#000;fill-opacity:1;fill-rule:nonzero;stroke:none" transform="matrix(1.33333 0 0 -1.33333 -13.972 1568.718)"></path><path d="M145.297 600.629s-.663 7.128-4.144 10.444c0 0-4.808 2.983-5.637 4.807 0 0-.331-6.134.995-7.957s4.475-3.15 5.47-4.144 2.819-1.823 3.316-3.15" clip-path="url(#aR)" style="fill:#ffe600;fill-opacity:1;fill-rule:nonzero;stroke:none" transform="matrix(1.33333 0 0 -1.33333 -13.972 1568.718)"></path><path d="M143.365 602.982c-.451.331-.879.643-1.207.973-.4.399-1.095.829-1.901 1.326-1.227.758-2.752 1.699-3.546 2.788-.841 1.158-.981 4.228-.981 6.153 0 .331.004.61.009.858 1.413-1.782 4.938-4.004 5.256-4.201 2.571-2.464 3.575-7.12 3.909-9.208-.434.481-.985.905-1.539 1.311m-8.097 12.911c-.014-.253-.321-6.243 1.043-8.116.849-1.168 2.421-2.14 3.685-2.92.779-.481 1.452-.896 1.809-1.254.358-.356.799-.68 1.266-1.021.832-.611 1.693-1.24 1.993-2.04l.481.11c-.028.294-.712 7.26-4.22 10.601l-.019.018-.023.013c-.047.029-4.751 2.965-5.54 4.698z" clip-path="url(#aS)" style="fill:#000;fill-opacity:1;fill-rule:nonzero;stroke:none" transform="matrix(1.33333 0 0 -1.33333 -13.972 1568.718)"></path><path d="M143.971 609.415s1.988 3.979 3.481 5.47c1.492 1.493 3.648 2.819 3.813 4.808s-.165 3.978.497 5.304c0 0-1.16-1.161-2.487-2.155-1.326-.994-4.807-2.155-4.971-4.311-.167-2.153-.664-7.292-.333-9.116" clip-path="url(#aT)" style="fill:#ffe600;fill-opacity:1;fill-rule:nonzero;stroke:none" transform="matrix(1.33333 0 0 -1.33333 -13.972 1568.718)"></path><path d="M144.107 611.214c0 1.899.217 4.523.362 6.286l.081 1.013c.112 1.45 1.955 2.458 3.437 3.27.551.302 1.072.586 1.438.861a25 25 0 0 1 1.811 1.514c-.154-.754-.164-1.607-.164-2.5 0-.635 0-1.292-.055-1.945-.118-1.418-1.376-2.526-2.593-3.598l-1.149-1.053c-1.121-1.124-2.488-3.564-3.143-4.797q-.024.433-.025.949m5.019 11.827c-.336-.252-.842-.529-1.378-.822-1.586-.869-3.56-1.949-3.693-3.668l-.082-1.01c-.202-2.453-.54-6.559-.247-8.171l.134-.733.333.667c.02.04 1.989 3.96 3.434 5.405l1.126 1.034c1.29 1.136 2.625 2.311 2.76 3.929.056.673.056 1.341.056 1.986 0 1.232 0 2.397.415 3.229l-.398.286a26 26 0 0 0-2.46-2.132" clip-path="url(#aU)" style="fill:#000;fill-opacity:1;fill-rule:nonzero;stroke:none" transform="matrix(1.33333 0 0 -1.33333 -13.972 1568.718)"></path><path d="M143.142 610.741s.167 5.801-1.326 7.46c-1.492 1.657-3.315 3.315-4.145 4.309-.828.995-1.989 1.824-2.486 2.984 0 0 .166-4.641.663-5.801.497-1.162 1.658-3.979 3.316-4.973 1.657-.995 3.812-3.15 3.978-3.979" clip-path="url(#aV)" style="fill:#ffe600;fill-opacity:1;fill-rule:nonzero;stroke:none" transform="matrix(1.33333 0 0 -1.33333 -13.972 1568.718)"></path><path d="M139.292 614.933c-1.533.92-2.675 3.592-3.162 4.733l-.054.126c-.337.787-.518 3.326-.596 4.739.331-.442.722-.847 1.114-1.238l.886-.941c.422-.507 1.079-1.163 1.839-1.923.737-.737 1.57-1.571 2.312-2.395 1.058-1.175 1.239-4.643 1.263-6.331-.806 1.08-2.409 2.514-3.602 3.23m-4.355 10.553c.005-.192.173-4.701.683-5.89l.053-.125c.549-1.287 1.693-3.963 3.362-4.964 1.702-1.021 3.723-3.113 3.863-3.815l.493.043c.006.24.151 5.92-1.39 7.632-.75.834-1.59 1.674-2.331 2.414-.752.751-1.4 1.401-1.807 1.889l-.918.975c-.626.626-1.219 1.218-1.532 1.948z" clip-path="url(#aW)" style="fill:#000;fill-opacity:1;fill-rule:nonzero;stroke:none" transform="matrix(1.33333 0 0 -1.33333 -13.972 1568.718)"></path><path d="M143.309 618.201s1.325 2.984 2.485 4.144c1.161 1.16 3.98 2.984 4.642 3.813.664.828 1.824 4.31 2.486 5.304 0 0-1.988.995-3.811 0-1.825-.994-4.146-3.812-4.477-5.304-.33-1.492-1.325-5.637-1.325-7.957" clip-path="url(#aX)" style="fill:#ffe600;fill-opacity:1;fill-rule:nonzero;stroke:none" transform="matrix(1.33333 0 0 -1.33333 -13.972 1568.718)"></path><path d="m144.762 625.595.114.509c.3 1.345 2.506 4.133 4.353 5.141 1.332.726 2.779.308 3.339.096-.301-.537-.656-1.384-1.035-2.298-.473-1.139-.962-2.317-1.292-2.729-.323-.406-1.272-1.123-2.19-1.815-.915-.692-1.86-1.407-2.433-1.977-.72-.721-1.483-2.084-1.983-3.069.207 2.057.806 4.723 1.127 6.142m4.229 6.086c-1.836-1.001-4.242-3.864-4.599-5.469l-.115-.507c-.396-1.747-1.217-5.382-1.217-7.504l.476-.101c.012.03 1.32 2.955 2.434 4.069.548.547 1.479 1.251 2.381 1.932.985.745 1.917 1.448 2.279 1.901.374.467.854 1.626 1.363 2.85.412.995.839 2.025 1.137 2.473l.156.235-.252.125c-.086.043-2.128 1.042-4.043-.004" clip-path="url(#aY)" style="fill:#000;fill-opacity:1;fill-rule:nonzero;stroke:none" transform="matrix(1.33333 0 0 -1.33333 -13.972 1568.718)"></path><path d="M142.811 619.526s.663 4.476-.83 7.958c-.789 1.841-3.978 5.637-4.806 7.128 0 0-1.161-4.641-.83-6.466.333-1.822 2.156-4.31 3.979-5.801 1.364-1.116 2.487-1.492 2.487-2.819" clip-path="url(#aZ)" style="fill:#ffe600;fill-opacity:1;fill-rule:nonzero;stroke:none" transform="matrix(1.33333 0 0 -1.33333 -13.972 1568.718)"></path><path d="m141.413 621.837-.931.7c-1.918 1.569-3.591 4.001-3.892 5.655a4.4 4.4 0 0 0-.057.761c0 1.544.498 3.925.746 5.016.394-.602.968-1.382 1.568-2.195 1.149-1.558 2.451-3.325 2.907-4.388.77-1.801.952-3.894.952-5.463 0-.448-.016-.846-.035-1.189-.3.41-.747.737-1.258 1.103m-4.48 12.835c-.049-.191-1.169-4.714-.832-6.569.363-2.002 2.366-4.561 4.066-5.95l.956-.719c.898-.644 1.439-1.033 1.439-1.908l.494-.035c.028.185.657 4.586-.846 8.091-.478 1.116-1.799 2.907-2.962 4.487-.785 1.064-1.525 2.069-1.855 2.664l-.308.551z" clip-path="url(#ba)" style="fill:#000;fill-opacity:1;fill-rule:nonzero;stroke:none" transform="matrix(1.33333 0 0 -1.33333 -13.972 1568.718)"></path><path d="M144.468 628.313s3.813 4.31 5.47 4.642c1.659.332 3.648.829 3.979 2.32.333 1.493.166 3.316.498 4.31 0 0-3.15-.331-4.808-1.325-1.658-.995-4.476-2.985-5.139-9.284-.157-1.493 0-.663 0-.663" clip-path="url(#bb)" style="fill:#ffe600;fill-opacity:1;fill-rule:nonzero;stroke:none" transform="matrix(1.33333 0 0 -1.33333 -13.972 1568.718)"></path><path d="M149.736 638.046c1.281.769 3.508 1.131 4.349 1.246-.1-.492-.137-1.09-.17-1.72-.041-.756-.083-1.535-.24-2.242-.296-1.328-2.108-1.797-3.785-2.131-1.396-.28-4.113-3.095-5.174-4.243.686 6.488 3.722 8.312 5.02 9.09m4.653 1.787c-.131-.014-3.224-.35-4.91-1.36-2.118-1.271-4.628-3.496-5.258-9.471-.107-1.02-.118-1.126.149-1.165.226-.032.289.168.328.358 1.076 1.212 4.011 4.261 5.289 4.515 1.83.367 3.813.893 4.173 2.512.166.747.209 1.548.251 2.324.041.762.079 1.483.239 1.96l.123.366z" clip-path="url(#bc)" style="fill:#000;fill-opacity:1;fill-rule:nonzero;stroke:none" transform="matrix(1.33333 0 0 -1.33333 -13.972 1568.718)"></path><path d="M143.474 626.655s.994 4.31.83 6.3c-.167 1.989-1.162 3.813-1.825 5.139s-1.658 4.144-1.658 5.471c0 0-2.486-3.648-2.154-5.803.331-2.156.994-4.807 2.154-6.3 1.16-1.491 2.488-3.812 2.653-4.807" clip-path="url(#bd)" style="fill:#ffe600;fill-opacity:1;fill-rule:nonzero;stroke:none" transform="matrix(1.33333 0 0 -1.33333 -13.972 1568.718)"></path><path d="M141.017 631.616c-1.252 1.61-1.855 4.565-2.105 6.184a2.6 2.6 0 0 0-.028.388c0 1.521 1.149 3.621 1.763 4.636.236-1.476 1.03-3.682 1.61-4.842l.167-.332c.66-1.308 1.483-2.936 1.631-4.715q.018-.223.018-.478c0-1.442-.402-3.632-.651-4.85-.503 1.205-1.527 2.881-2.405 4.009m-.401 12.088c-.104-.153-2.539-3.753-2.196-5.98.256-1.666.885-4.717 2.205-6.414 1.213-1.56 2.454-3.797 2.603-4.696l.489-.014c.04.177 1.001 4.37.833 6.376-.156 1.876-1.038 3.622-1.682 4.899l-.166.329c-.651 1.3-1.632 4.1-1.632 5.361v.805z" clip-path="url(#be)" style="fill:#000;fill-opacity:1;fill-rule:nonzero;stroke:none" transform="matrix(1.33333 0 0 -1.33333 -13.972 1568.718)"></path><path d="M145.131 635.275s1.99 3.316 3.15 3.979c1.161.663 3.149 1.326 4.475 1.492 1.327.166 3.316.663 3.648 2.321.331 1.657.331 3.813.663 5.305 0 0-3.481 0-4.642-1.492-1.16-1.492-3.647-2.652-4.973-6.3-.684-1.882-1.989-4.31-2.321-5.305" clip-path="url(#bf)" style="fill:#ffe600;fill-opacity:1;fill-rule:nonzero;stroke:none" transform="matrix(1.33333 0 0 -1.33333 -13.972 1568.718)"></path><path d="M147.686 640.496c.906 2.49 2.381 3.807 3.566 4.865.517.463 1.007.9 1.37 1.367.893 1.146 3.333 1.348 4.152 1.384-.133-.709-.215-1.507-.291-2.362-.08-.902-.164-1.834-.322-2.634-.289-1.436-2.026-1.948-3.435-2.124-1.367-.17-3.373-.839-4.568-1.522-.484-.276-1.086-.964-1.64-1.697.42.902.856 1.86 1.168 2.723m9.381 8.125c-.148 0-3.617-.018-4.838-1.589-.335-.431-.787-.834-1.309-1.3-1.226-1.095-2.753-2.458-3.701-5.067-.372-1.021-.926-2.2-1.414-3.241-.405-.862-.755-1.607-.909-2.07l.448-.207c.02.034 1.97 3.269 3.06 3.891 1.128.644 3.095 1.3 4.384 1.461 2.252.282 3.587 1.153 3.86 2.52.165.825.249 1.772.33 2.686.086.961.167 1.868.331 2.612l.069.304z" clip-path="url(#bg)" style="fill:#000;fill-opacity:1;fill-rule:nonzero;stroke:none" transform="matrix(1.33333 0 0 -1.33333 -13.972 1568.718)"></path><path d="M144.634 637.1s1.325 3.48 2.156 5.303c.828 1.825 1.491 3.813 1.491 5.638 0 1.823-.165 4.475-.165 4.475s-2.653-2.321-3.482-3.979c-.828-1.657-1.823-3.813-1.492-6.299.332-2.487 1.326-4.144 1.492-5.138" clip-path="url(#bh)" style="fill:#ffe600;fill-opacity:1;fill-rule:nonzero;stroke:none" transform="matrix(1.33333 0 0 -1.33333 -13.972 1568.718)"></path><path d="M144.417 638.575c-.367.962-.824 2.159-1.029 3.696a7 7 0 0 0-.062.956c0 1.952.777 3.691 1.531 5.199.614 1.229 2.288 2.858 3.039 3.555.048-.86.136-2.624.136-3.94 0-1.549-.48-3.358-1.469-5.534-.599-1.318-1.46-3.508-1.893-4.622-.073.212-.156.436-.253.69m3.535 14.128c-.11-.097-2.699-2.372-3.54-4.054-.908-1.815-1.848-3.959-1.516-6.444.213-1.594.7-2.874 1.057-3.807.203-.535.379-.995.436-1.339l.15-.907.327.858c.014.035 1.333 3.495 2.15 5.291 1.018 2.242 1.513 4.118 1.513 5.74 0 1.809-.163 4.463-.165 4.49l-.032.504z" clip-path="url(#bi)" style="fill:#000;fill-opacity:1;fill-rule:nonzero;stroke:none" transform="matrix(1.33333 0 0 -1.33333 -13.972 1568.718)"></path><path d="M148.446 644.393s2.654 3.813 3.648 4.31 3.48.166 3.978.994c.498.829.995 4.808 1.658 6.465 0 0-3.979.332-5.636-1.491s-1.824-2.984-2.156-4.476c-.331-1.492-1.16-5.139-1.492-5.802" clip-path="url(#bj)" style="fill:#ffe600;fill-opacity:1;fill-rule:nonzero;stroke:none" transform="matrix(1.33333 0 0 -1.33333 -13.972 1568.718)"></path><path d="m150.181 650.141.064.289c.294 1.35.527 2.418 2.032 4.073 1.295 1.424 4.163 1.458 5.113 1.427-.291-.852-.545-2.055-.791-3.244-.251-1.22-.512-2.481-.74-2.861-.224-.373-1.173-.462-2.012-.54-.723-.067-1.407-.131-1.864-.36-.673-.337-1.96-1.96-2.842-3.143.349 1.306.766 3.121 1.04 4.359m1.729 4.697c-1.596-1.754-1.852-2.936-2.151-4.303l-.063-.286c-.701-3.157-1.253-5.306-1.472-5.745l.427-.254c.728 1.046 2.785 3.846 3.554 4.231.375.187 1.043.249 1.688.31 1.049.097 2.039.188 2.392.778.272.453.517 1.641.802 3.016.258 1.256.552 2.68.875 3.486l.123.311-.334.028c-.168.014-4.12.321-5.841-1.572" clip-path="url(#bk)" style="fill:#000;fill-opacity:1;fill-rule:nonzero;stroke:none" transform="matrix(1.33333 0 0 -1.33333 -13.972 1568.718)"></path><path d="M210.663 569.463s2.651 9.45 12.764 11.44c2.945.578 3.812.33 4.807.828 0 0-2.818-6.133-5.636-7.791-1.471-.866-5.663-2.7-8.122-3.315-1.99-.498-2.653-.167-3.813-1.162" clip-path="url(#bl)" style="fill:#ffe600;fill-opacity:1;fill-rule:nonzero;stroke:none" transform="matrix(1.33333 0 0 -1.33333 -13.972 1568.718)"></path><path d="M223.476 580.658c1.336.264 2.254.356 2.926.424.537.053.954.101 1.342.206-.758-1.523-3.037-5.819-5.272-7.133-1.488-.876-5.688-2.697-8.056-3.29a15 15 0 0 0-1.609-.298c-.619-.088-1.117-.165-1.654-.461.846 2.194 4.072 8.93 12.323 10.552m4.648 1.296c-.499-.25-.978-.298-1.772-.378-.681-.069-1.613-.161-2.973-.43-10.145-1.996-12.929-11.519-12.956-11.615l-.222-.79.622.535c.714.611 1.218.681 2.053.799.434.06.975.136 1.66.308 2.487.621 6.682 2.457 8.188 3.343 2.854 1.677 5.62 7.648 5.737 7.902l.294.642z" clip-path="url(#bm)" style="fill:#000;fill-opacity:1;fill-rule:nonzero;stroke:none" transform="matrix(1.33333 0 0 -1.33333 -13.972 1568.718)"></path><path d="M210.663 570.293s.496 2.155.165 4.476c-.331 2.32-.663 6.63 0 9.615 0 0 .497 3.48 0 4.972 0 0 4.311-3.647 3.979-7.293-.228-2.499-1.658-5.967-2.156-6.962-.497-.995-1.988-3.979-1.988-4.808" clip-path="url(#bn)" style="fill:#ffe600;fill-opacity:1;fill-rule:nonzero;stroke:none" transform="matrix(1.33333 0 0 -1.33333 -13.972 1568.718)"></path><path d="M211.193 573.08c0 .541-.034 1.126-.119 1.724a39 39 0 0 0-.378 5.317c0 1.508.105 2.992.375 4.208.016.107.227 1.611.227 3.065 0 .436-.022.862-.071 1.25 1.078-1.064 3.35-3.608 3.35-6.179a4 4 0 0 0-.018-.381c-.222-2.437-1.639-5.891-2.129-6.873a61 61 0 0 1-1.247-2.62q.009.238.01.489m-.6 16.199c.156-.47.208-1.155.208-1.864 0-1.438-.216-2.974-.219-2.997-.276-1.241-.383-2.754-.383-4.292 0-1.922.167-3.882.383-5.393.081-.563.112-1.119.112-1.635 0-.979-.11-1.814-.19-2.3a2.5 2.5 0 0 1-.08-.431l-.003-.017.001-.001-.008-.056.49-.057c.007.027.05.217.101.529q.326 1.133 1.869 4.225c.374.746 1.934 4.345 2.18 7.051q.02.215.02.43c0 3.576-3.912 6.929-4.085 7.075l-.677.574z" clip-path="url(#bo)" style="fill:#000;fill-opacity:1;fill-rule:nonzero;stroke:none" transform="matrix(1.33333 0 0 -1.33333 -13.972 1568.718)"></path><path d="M216.133 579.079s-.994 5.968-1.493 7.791c-.496 1.823-2.32 5.802 0 10.775 0 0 .83-1.16 1.327-1.989.498-.829 4.144-5.636 3.316-8.454s-1.327-6.631-3.15-8.123" clip-path="url(#bp)" style="fill:#ffe600;fill-opacity:1;fill-rule:nonzero;stroke:none" transform="matrix(1.33333 0 0 -1.33333 -13.972 1568.718)"></path><path d="m214.881 586.936-.243.798c-.377 1.193-.903 2.848-.903 4.848 0 1.365.265 2.896.966 4.545.284-.408.737-1.072 1.053-1.599l.345-.524c.881-1.308 3.058-4.541 3.058-6.885q.001-.45-.113-.848l-.549-2.1c-.533-2.16-1.088-4.375-2.198-5.575-.244 1.446-.997 5.802-1.416 7.34m-.465 10.814c-2.07-4.434-.888-8.163-.252-10.166l.237-.779c.489-1.791 1.477-7.707 1.487-7.767l.07-.424.333.272c1.462 1.197 2.084 3.723 2.687 6.166l.544 2.079c.753 2.564-1.982 6.624-3.011 8.151l-.33.502c-.497.827-1.304 1.958-1.337 2.006l-.248.346z" clip-path="url(#bq)" style="fill:#000;fill-opacity:1;fill-rule:nonzero;stroke:none" transform="matrix(1.33333 0 0 -1.33333 -13.972 1568.718)"></path><path d="M217.293 579.245s1.162 7.294 6.134 10.443c1.639 1.039 6.466 2.321 7.625 3.813 0 0-.994-5.47-1.823-6.465-.829-.994-.829-1.989-4.31-2.818 0 0-6.299-2.155-7.626-4.973" clip-path="url(#br)" style="fill:#ffe600;fill-opacity:1;fill-rule:nonzero;stroke:none" transform="matrix(1.33333 0 0 -1.33333 -13.972 1568.718)"></path><path d="M223.56 589.478c.604.382 1.687.812 2.832 1.267 1.558.618 3.273 1.305 4.275 2.064-.359-1.808-1.069-4.944-1.629-5.615l-.422-.576c-.525-.775-1.02-1.508-3.755-2.159-.248-.083-4.948-1.713-7.051-4.036.567 2.188 2.142 6.769 5.75 9.055m2.648 1.728c-1.168-.463-2.271-.901-2.913-1.308-5.012-3.172-6.2-10.312-6.247-10.614l.471-.145c1.265 2.69 7.419 4.822 7.481 4.843 2.9.69 3.473 1.537 4.028 2.356l.392.538c.846 1.016 1.774 6.014 1.878 6.581l-.442.197c-.677-.872-2.787-1.709-4.648-2.448" clip-path="url(#bs)" style="fill:#000;fill-opacity:1;fill-rule:nonzero;stroke:none" transform="matrix(1.33333 0 0 -1.33333 -13.972 1568.718)"></path><path d="M220.444 588.693s-.168 3.149-.665 3.979c-.496.829-2.984 3.15-3.812 7.459-.313 1.629.663 3.482 1.161 5.305 0 0 3.977-1.823 5.304-4.807.694-1.56.995-3.647.166-6.465-.443-1.509-1.493-4.31-2.154-5.471" clip-path="url(#bt)" style="fill:#ffe600;fill-opacity:1;fill-rule:nonzero;stroke:none" transform="matrix(1.33333 0 0 -1.33333 -13.972 1568.718)"></path><path d="m219.993 592.8-.523.704c-.911 1.147-2.606 3.284-3.259 6.674a3.3 3.3 0 0 0-.056.623c0 .941.351 1.96.719 3.028l.402 1.256c.874-.449 3.844-2.116 4.929-4.557q.643-1.447.642-3.15 0-1.483-.487-3.145c-.342-1.159-1.096-3.246-1.735-4.621-.087 1.023-.274 2.592-.632 3.188m-3.105 12.702-.485-1.512c-.451-1.311-.918-2.667-.679-3.906.674-3.51 2.419-5.709 3.355-6.89l.488-.65c.381-.636.582-3.005.628-3.864l.045-.844.419.734c.695 1.219 1.755 4.085 2.178 5.524.733 2.491.672 4.723-.177 6.636-1.349 3.035-5.263 4.857-5.429 4.933l-.254.117z" clip-path="url(#bu)" style="fill:#000;fill-opacity:1;fill-rule:nonzero;stroke:none" transform="matrix(1.33333 0 0 -1.33333 -13.972 1568.718)"></path><path d="M222.1 590.352s2.819 8.287 4.311 9.613c1.492 1.328 5.968 4.311 6.797 4.973 0 0 .497-3.812 0-4.973-.498-1.159-1.493-3.316-3.979-4.309-.985-.394-6.631-3.482-7.129-5.304" clip-path="url(#bv)" style="fill:#ffe600;fill-opacity:1;fill-rule:nonzero;stroke:none" transform="matrix(1.33333 0 0 -1.33333 -13.972 1568.718)"></path><path d="M226.576 599.78c.957.85 3.201 2.422 4.839 3.571.664.464 1.221.855 1.595 1.129.079-.712.169-1.77.169-2.715 0-.717-.052-1.356-.199-1.701-.409-.954-1.366-3.187-3.843-4.177-.693-.277-4.37-2.217-6.231-4.011.894 2.461 2.636 6.985 3.67 7.904m6.476 5.353c-.285-.227-1.044-.759-1.923-1.376-1.649-1.153-3.904-2.736-4.884-3.606-1.522-1.353-4.263-9.379-4.379-9.72l.001-.001-.006-.013.475-.146.008.021c.47 1.687 5.996 4.741 6.978 5.133 2.667 1.068 3.681 3.433 4.114 4.443.18.421.24 1.148.24 1.924 0 1.453-.208 3.077-.222 3.18l-.058.437z" clip-path="url(#bw)" style="fill:#000;fill-opacity:1;fill-rule:nonzero;stroke:none" transform="matrix(1.33333 0 0 -1.33333 -13.972 1568.718)"></path><path d="M224.09 597.148s0 3.978-.663 5.139c-.664 1.16-3.648 3.315-4.31 4.807-.662 1.491-.166 4.973.994 8.62 0 0 .829-2.155 1.493-2.984.662-.828 3.48-3.813 3.646-5.139s1.161-4.642-1.16-10.443" clip-path="url(#bx)" style="fill:#ffe600;fill-opacity:1;fill-rule:nonzero;stroke:none" transform="matrix(1.33333 0 0 -1.33333 -13.972 1568.718)"></path><path d="M223.643 602.41c-.31.542-1.068 1.262-1.872 2.024-.972.924-2.076 1.97-2.427 2.761-.185.415-.274 1.019-.274 1.767 0 1.521.387 3.652 1.082 5.996.304-.716.808-1.821 1.258-2.383l.59-.694c1.006-1.161 2.878-3.323 3.003-4.32l.087-.558c.108-.632.263-1.549.263-2.767 0-1.475-.232-3.397-1.048-5.786-.058 1.292-.219 3.184-.662 3.96m-3.768 13.38c-.987-3.104-1.765-7.043-.985-8.797.39-.881 1.484-1.917 2.54-2.92.776-.737 1.507-1.431 1.781-1.909.517-.905.63-3.928.63-5.016l.48-.093c2.075 5.19 1.525 8.46 1.26 10.031l-.084.536c-.132 1.059-1.681 2.922-3.122 4.586l-.577.677c-.631.79-1.446 2.898-1.454 2.919l-.255.661z" clip-path="url(#by)" style="fill:#000;fill-opacity:1;fill-rule:nonzero;stroke:none" transform="matrix(1.33333 0 0 -1.33333 -13.972 1568.718)"></path><path d="M225.748 600.298s.663 7.128 4.145 10.443c0 0 4.807 2.984 5.636 4.807 0 0 .331-6.133-.995-7.957-1.326-1.822-4.476-3.149-5.471-4.144s-2.818-1.823-3.315-3.149" clip-path="url(#bz)" style="fill:#ffe600;fill-opacity:1;fill-rule:nonzero;stroke:none" transform="matrix(1.33333 0 0 -1.33333 -13.972 1568.718)"></path><path d="M235.306 614.748c.005-.248.01-.527.01-.858 0-1.925-.141-4.994-.984-6.153-.792-1.088-2.319-2.03-3.544-2.788-.806-.497-1.501-.926-1.9-1.325-.33-.33-.757-.643-1.207-.973-.556-.406-1.106-.83-1.54-1.311.334 2.088 1.338 6.744 3.909 9.207.319.198 3.844 2.419 5.256 4.201m-5.545-3.796-.022-.013-.017-.018c-3.51-3.341-4.194-10.306-4.222-10.6l.481-.111c.3.8 1.161 1.43 1.993 2.04.467.342.908.665 1.265 1.022.359.358 1.032.773 1.81 1.254 1.264.779 2.837 1.75 3.686 2.919 1.362 1.874 1.056 7.863 1.041 8.118l-.474.089c-.788-1.734-5.493-4.67-5.541-4.7" clip-path="url(#bA)" style="fill:#000;fill-opacity:1;fill-rule:nonzero;stroke:none" transform="matrix(1.33333 0 0 -1.33333 -13.972 1568.718)"></path><path d="M227.074 609.083s-1.99 3.978-3.482 5.47-3.646 2.819-3.813 4.808c-.164 1.989.167 3.978-.496 5.305 0 0 1.161-1.161 2.486-2.156 1.326-.994 4.807-2.154 4.973-4.309s.664-7.294.332-9.118" clip-path="url(#bB)" style="fill:#ffe600;fill-opacity:1;fill-rule:nonzero;stroke:none" transform="matrix(1.33333 0 0 -1.33333 -13.972 1568.718)"></path><path d="m223.769 614.73-1.148 1.055c-1.217 1.07-2.475 2.179-2.594 3.597-.053.653-.053 1.31-.053 1.944 0 .893-.01 1.746-.165 2.501a25 25 0 0 1 1.811-1.515c.366-.274.887-.559 1.438-.86 1.481-.812 3.325-1.821 3.436-3.27l.082-1.014c.145-1.762.361-4.386.361-6.285q0-.518-.024-.95c-.654 1.234-2.021 3.673-3.144 4.797m-4.709 9.825c.417-.832.417-1.997.417-3.229 0-.645 0-1.312.055-1.985.135-1.619 1.468-2.793 2.76-3.929l1.125-1.035c1.446-1.445 3.415-5.365 3.435-5.404l.333-.668.134.734c.292 1.611-.045 5.717-.247 8.17l-.081 1.011c-.132 1.718-2.108 2.798-3.695 3.667-.534.294-1.04.571-1.378.822-1.295.973-2.447 2.121-2.46 2.133z" clip-path="url(#bC)" style="fill:#000;fill-opacity:1;fill-rule:nonzero;stroke:none" transform="matrix(1.33333 0 0 -1.33333 -13.972 1568.718)"></path><path d="M227.903 610.409s-.167 5.802 1.326 7.461c1.492 1.656 3.315 3.315 4.145 4.31.828.994 1.989 1.822 2.486 2.984 0 0-.166-4.643-.664-5.803-.496-1.16-1.656-3.978-3.315-4.973-1.656-.994-3.813-3.149-3.978-3.979" clip-path="url(#bD)" style="fill:#ffe600;fill-opacity:1;fill-rule:nonzero;stroke:none" transform="matrix(1.33333 0 0 -1.33333 -13.972 1568.718)"></path><path d="M229.414 617.703c.741.824 1.576 1.658 2.311 2.394.761.76 1.417 1.417 1.839 1.923l.888.941c.392.393.782.796 1.114 1.238-.078-1.413-.259-3.952-.597-4.739l-.054-.126c-.488-1.141-1.629-3.813-3.161-4.733-1.194-.716-2.798-2.15-3.602-3.229.023 1.687.203 5.155 1.262 6.331m4.686 5.61-.918-.975c-.407-.488-1.056-1.137-1.807-1.889-.74-.741-1.581-1.58-2.331-2.413-1.541-1.712-1.396-7.392-1.39-7.633l.493-.042c.139.702 2.161 2.793 3.862 3.815 1.671 1.001 2.814 3.678 3.363 4.963l.053.125c.511 1.189.676 5.699.683 5.89l-.477.107c-.312-.729-.904-1.321-1.531-1.948" clip-path="url(#bE)" style="fill:#000;fill-opacity:1;fill-rule:nonzero;stroke:none" transform="matrix(1.33333 0 0 -1.33333 -13.972 1568.718)"></path><path d="M227.736 617.87s-1.325 2.983-2.486 4.144c-1.16 1.16-3.979 2.983-4.642 3.812-.662.829-1.823 4.31-2.485 5.305 0 0 1.988.994 3.813 0 1.822-.995 4.143-3.813 4.475-5.305s1.325-5.636 1.325-7.956" clip-path="url(#bF)" style="fill:#ffe600;fill-opacity:1;fill-rule:nonzero;stroke:none" transform="matrix(1.33333 0 0 -1.33333 -13.972 1568.718)"></path><path d="M221.816 630.914c1.848-1.009 4.053-3.796 4.351-5.142l.116-.508c.321-1.418.919-4.085 1.127-6.142-.5.984-1.263 2.347-1.984 3.068-.572.571-1.517 1.286-2.432 1.977-.917.693-1.867 1.409-2.191 1.815-.33.412-.818 1.59-1.291 2.729-.378.914-.734 1.762-1.034 2.299.558.211 2.006.629 3.338-.096m-3.805.44-.252-.126.156-.235c.298-.447.726-1.477 1.138-2.472.508-1.225.989-2.383 1.361-2.85.364-.453 1.295-1.156 2.28-1.901.902-.682 1.833-1.386 2.381-1.933 1.113-1.113 2.422-4.039 2.435-4.069l.476.102c0 2.122-.824 5.758-1.218 7.504l-.114.507c-.357 1.605-2.765 4.467-4.599 5.47-1.917 1.044-3.958.045-4.044.003" clip-path="url(#bG)" style="fill:#000;fill-opacity:1;fill-rule:nonzero;stroke:none" transform="matrix(1.33333 0 0 -1.33333 -13.972 1568.718)"></path><path d="M228.234 619.195s-.663 4.476.829 7.958c.788 1.842 3.979 5.636 4.808 7.128 0 0 1.161-4.642.829-6.466s-2.156-4.31-3.979-5.801c-1.364-1.117-2.487-1.493-2.487-2.819" clip-path="url(#bH)" style="fill:#ffe600;fill-opacity:1;fill-rule:nonzero;stroke:none" transform="matrix(1.33333 0 0 -1.33333 -13.972 1568.718)"></path><path d="M228.339 621.593c0 1.567.182 3.661.953 5.462.456 1.063 1.758 2.829 2.906 4.387.6.814 1.175 1.594 1.569 2.195.248-1.09.745-3.471.745-5.015 0-.289-.017-.546-.057-.762-.301-1.654-1.974-4.085-3.891-5.653l-.931-.701c-.511-.366-.959-.695-1.258-1.104-.02.343-.036.742-.036 1.191m5.314 12.808c-.331-.594-1.07-1.599-1.855-2.664-1.164-1.579-2.485-3.371-2.964-4.486-1.501-3.506-.873-7.906-.845-8.092l.494.036c0 .875.541 1.263 1.439 1.907l.957.719c1.699 1.39 3.701 3.949 4.067 5.95.335 1.855-.786 6.379-.834 6.57l-.153.611z" clip-path="url(#bI)" style="fill:#000;fill-opacity:1;fill-rule:nonzero;stroke:none" transform="matrix(1.33333 0 0 -1.33333 -13.972 1568.718)"></path><path d="M226.576 627.981s-3.813 4.311-5.471 4.642-3.646.829-3.977 2.321c-.333 1.492-.167 3.316-.498 4.31 0 0 3.149-.331 4.808-1.326 1.657-.995 4.476-2.984 5.138-9.283.159-1.493 0-.664 0-.664" clip-path="url(#bJ)" style="fill:#ffe600;fill-opacity:1;fill-rule:nonzero;stroke:none" transform="matrix(1.33333 0 0 -1.33333 -13.972 1568.718)"></path><path d="M221.155 632.867c-1.676.336-3.491.804-3.784 2.131-.158.708-.201 1.487-.24 2.243-.035.629-.069 1.227-.172 1.719.843-.114 3.068-.476 4.351-1.246 1.297-.777 4.335-2.601 5.018-9.089-1.059 1.147-3.777 3.962-5.173 4.242m-4.76 6.308c.159-.477.197-1.199.239-1.962.041-.775.085-1.575.251-2.322.36-1.62 2.343-2.145 4.173-2.512 1.277-.255 4.213-3.304 5.29-4.515.039-.191.101-.391.327-.358.268.039.257.145.149 1.164-.629 5.976-3.141 8.201-5.259 9.471-1.684 1.011-4.776 1.346-4.908 1.36l-.385.041z" clip-path="url(#bK)" style="fill:#000;fill-opacity:1;fill-rule:nonzero;stroke:none" transform="matrix(1.33333 0 0 -1.33333 -13.972 1568.718)"></path><path d="M227.571 626.324s-.995 4.31-.829 6.299 1.161 3.813 1.824 5.139 1.659 4.145 1.659 5.47c0 0 2.485-3.647 2.154-5.801-.332-2.156-.995-4.808-2.154-6.3-1.162-1.492-2.489-3.813-2.654-4.807" clip-path="url(#bL)" style="fill:#ffe600;fill-opacity:1;fill-rule:nonzero;stroke:none" transform="matrix(1.33333 0 0 -1.33333 -13.972 1568.718)"></path><path d="M226.973 632.125q0 .255.018.478c.147 1.779.969 3.407 1.631 4.715l.166.333c.58 1.159 1.374 3.366 1.608 4.841.616-1.016 1.765-3.114 1.765-4.635q0-.202-.028-.388c-.249-1.62-.854-4.575-2.106-6.184-.878-1.129-1.901-2.805-2.405-4.01-.249 1.218-.649 3.409-.649 4.85m3.002 11.107c0-1.259-.982-4.06-1.632-5.358l-.166-.332c-.644-1.275-1.525-3.021-1.682-4.898-.167-2.005.793-6.199.835-6.375l.487.014c.15.899 1.391 3.137 2.603 4.695 1.321 1.7 1.949 4.748 2.205 6.415.342 2.226-2.092 5.827-2.196 5.98l-.454.667z" clip-path="url(#bM)" style="fill:#000;fill-opacity:1;fill-rule:nonzero;stroke:none" transform="matrix(1.33333 0 0 -1.33333 -13.972 1568.718)"></path><path d="M225.914 634.944s-1.99 3.316-3.151 3.979c-1.159.662-3.148 1.326-4.475 1.491s-3.316.663-3.648 2.321c-.331 1.658-.331 3.813-.661 5.306 0 0 3.48 0 4.641-1.493 1.159-1.492 3.646-2.652 4.972-6.299.685-1.882 1.99-4.31 2.322-5.305" clip-path="url(#bN)" style="fill:#ffe600;fill-opacity:1;fill-rule:nonzero;stroke:none" transform="matrix(1.33333 0 0 -1.33333 -13.972 1568.718)"></path><path d="M222.887 639.139c-1.196.682-3.202 1.352-4.568 1.523-1.408.175-3.146.686-3.434 2.121-.16.801-.242 1.734-.323 2.635-.076.856-.159 1.652-.291 2.362.82-.036 3.261-.238 4.152-1.385.363-.466.853-.903 1.371-1.365 1.185-1.058 2.659-2.375 3.565-4.866.314-.863.75-1.821 1.169-2.723-.555.733-1.157 1.422-1.641 1.698m-9.219 9.15.067-.303c.166-.745.246-1.652.331-2.611.082-.917.166-1.863.332-2.688.273-1.367 1.607-2.237 3.86-2.519 1.289-.161 3.255-.817 4.383-1.461 1.09-.624 3.04-3.858 3.06-3.891l.448.206c-.154.463-.504 1.208-.909 2.07-.489 1.041-1.042 2.221-1.414 3.242-.947 2.608-2.474 3.972-3.701 5.066-.522.467-.973.87-1.309 1.301-1.222 1.57-4.691 1.588-4.837 1.588z" clip-path="url(#bO)" style="fill:#000;fill-opacity:1;fill-rule:nonzero;stroke:none" transform="matrix(1.33333 0 0 -1.33333 -13.972 1568.718)"></path><path d="M226.411 636.768s-1.327 3.481-2.156 5.304c-.828 1.824-1.492 3.813-1.492 5.636 0 1.824.166 4.476.166 4.476s2.653-2.32 3.482-3.978c.828-1.658 1.823-3.813 1.492-6.299-.332-2.487-1.327-4.145-1.492-5.139" clip-path="url(#bP)" style="fill:#ffe600;fill-opacity:1;fill-rule:nonzero;stroke:none" transform="matrix(1.33333 0 0 -1.33333 -13.972 1568.718)"></path><path d="M224.483 642.176c-.989 2.175-1.471 3.985-1.471 5.532 0 1.318.089 3.081.135 3.941.754-.697 2.427-2.326 3.041-3.554.754-1.507 1.532-3.247 1.532-5.2q0-.471-.064-.956c-.205-1.537-.661-2.734-1.027-3.697-.098-.253-.18-.477-.254-.689-.432 1.114-1.294 3.306-1.892 4.623m-1.802 10.024c-.001-.027-.166-2.681-.166-4.492 0-1.62.496-3.497 1.514-5.739.817-1.795 2.136-5.256 2.149-5.29l.327-.858.151.907c.058.342.233.804.436 1.338.357.934.845 2.213 1.058 3.807.33 2.485-.609 4.629-1.516 6.444-.842 1.682-3.431 3.958-3.54 4.055l-.381.332z" clip-path="url(#bQ)" style="fill:#000;fill-opacity:1;fill-rule:nonzero;stroke:none" transform="matrix(1.33333 0 0 -1.33333 -13.972 1568.718)"></path><path d="M222.598 644.062s-2.652 3.812-3.647 4.31-3.481.165-3.979.995c-.496.828-.993 4.806-1.658 6.465 0 0 3.979.33 5.637-1.493s1.823-2.984 2.154-4.475c.333-1.492 1.161-5.14 1.493-5.802" clip-path="url(#bR)" style="fill:#ffe600;fill-opacity:1;fill-rule:nonzero;stroke:none" transform="matrix(1.33333 0 0 -1.33333 -13.972 1568.718)"></path><path d="M218.767 654.171c1.505-1.655 1.739-2.722 2.033-4.074l.063-.287c.276-1.238.692-3.054 1.04-4.361-.882 1.185-2.167 2.808-2.84 3.145-.459.229-1.143.293-1.865.36-.838.077-1.787.167-2.012.54-.228.379-.488 1.641-.739 2.86-.245 1.189-.501 2.393-.792 3.245.95.03 3.818-.003 5.112-1.428m-5.473 1.908-.335-.027.125-.312c.322-.806.616-2.23.875-3.486.283-1.375.529-2.563.8-3.016.355-.59 1.345-.682 2.392-.78.646-.06 1.315-.122 1.689-.308.77-.385 2.827-3.184 3.554-4.23l.427.252c-.221.44-.77 2.587-1.471 5.745l-.063.286c-.299 1.367-.558 2.549-2.152 4.303-1.721 1.893-5.673 1.587-5.841 1.573" clip-path="url(#bS)" style="fill:#000;fill-opacity:1;fill-rule:nonzero;stroke:none" transform="matrix(1.33333 0 0 -1.33333 -13.972 1568.718)"></path><path d="M176.131 561.838s-4.642 7.958-2.487 15.417c.582 2.014 2.32 5.637 4.973 8.787 2.652 3.149 5.636 6.464 5.968 12.433 0 0 .829-5.969 4.476-11.108 1.251-1.763 5.636-5.636 6.631-11.438.366-2.131.497-9.283-2.155-12.929 0 0 1.16-.996 4.31-.167s8.289 1.989 10.61 5.968c.86 1.474 1.657 3.316-1.492 5.637 0 0 17.737-7.461 4.476-15.916 0 0 2.818-.496 5.139.332 2.32.829 6.465 1.823 3.481 4.642 0 0 5.802-1.492 6.63-5.47.372-1.785-2.817-3.979-8.951-5.471-3.577-.869-17.572-3.315-24.867-.995-2.613.832-2.981.317-3.812.166-1.824-.331-4.974-.995-8.455-.166-1.228.293-2.486.332-3.813-.165-1.325-.499-10.277-1.493-21.716.663-1.906.359-8.32 2.943-10.443 4.641-1.658 1.327-1.658 2.984.829 4.311s3.315 1.99 7.791 2.983c0 0-3.764-2.155-1.824-3.647 2.156-1.658 4.808-1.989 8.787-2.155 0 0-12.599 9.45 5.139 16.578 0 0-10.112-9.45 10.775-12.931" clip-path="url(#bT)" style="fill:#0c419a;fill-opacity:1;fill-rule:nonzero;stroke:none" transform="matrix(1.33333 0 0 -1.33333 -13.972 1568.718)"></path><path d="M176.417 562.006c-.037.063-3.007 5.244-3.007 11.062 0 1.349.159 2.733.553 4.095.601 2.079 2.392 5.677 4.908 8.664l.3.358c2.227 2.636 4.713 5.583 5.512 10.212.558-2.221 1.754-5.904 4.107-9.221.268-.377.67-.843 1.136-1.382 1.744-2.022 4.665-5.406 5.439-9.922.106-.613.194-1.684.194-2.981 0-2.997-.472-7.197-2.29-9.698l-.181-.247.233-.199c.053-.045 1.331-1.098 4.61-.234l.484.126c3.206.835 8.054 2.096 10.328 5.996.451.772.805 1.579.805 2.436 0 .67-.224 1.37-.781 2.107 2.603-1.411 6.954-4.264 7.248-7.735a5 5 0 0 0 .016-.366c0-2.146-1.603-4.256-4.768-6.275l-.719-.458.838-.147c.119-.022 2.932-.504 5.309.345l.708.244c1.651.559 3.705 1.255 3.999 2.596q.036.168.037.335c0 .352-.131.716-.369 1.094 1.67-.638 4.738-2.151 5.301-4.853l.021-.204c0-1.365-2.652-3.4-8.726-4.877-3.13-.762-17.361-3.333-24.687-1.001-2.193.697-2.912.48-3.546.288l-.428-.112-.301-.055c-1.791-.331-4.788-.883-8.017-.114-1.473.351-2.746.294-4.006-.178-1.22-.458-10.053-1.485-21.537.679-1.835.345-8.198 2.894-10.299 4.574-.478.383-1.031.975-1.031 1.67l.006.121c.063.692.688 1.373 1.802 1.968l.883.477c1.557.85 2.613 1.417 5.209 2.087-.574-.513-1.117-1.171-1.163-1.86l-.003-.095c0-.346.13-.816.685-1.243 2.148-1.652 4.708-2.045 8.975-2.223l1.065-.044-.854.641c-.044.033-4.206 3.209-4.206 7.125q0 .35.046.71c.379 2.869 3.051 5.415 7.895 7.589-.722-.964-1.576-2.447-1.576-4.126 0-.448.062-.909.203-1.378.98-3.248 5.455-5.559 13.3-6.866l.695-.115zm7.836 36.488c-.312-5.633-2.993-8.81-5.587-11.882l-.302-.357c-2.592-3.078-4.398-6.692-5.039-8.907a15.6 15.6 0 0 1-.589-4.342c0-4.837 1.97-9.155 2.776-10.72-7.052 1.264-11.237 3.427-12.099 6.28-.12.394-.172.786-.172 1.169 0 2.564 2.314 4.766 2.341 4.791l-.35.551c-5.948-2.39-9.19-5.318-9.633-8.702a6 6 0 0 1-.054-.809c0-3.188 2.424-5.823 3.707-6.992-3.539.193-5.778.619-7.62 2.036-.285.22-.425.453-.425.715l.001.05c.062.906 1.616 1.99 2.211 2.331l-.237.61c-3.953-.878-5.1-1.503-6.999-2.54l-.876-.474c-1.669-.891-2.092-1.847-2.151-2.491-.076-.824.363-1.643 1.271-2.371 2.209-1.766 8.655-4.343 10.59-4.708 11.618-2.189 20.637-1.119 21.894-.648 1.13.424 2.28.473 3.618.153 3.366-.8 6.449-.232 8.291.108l.301.055.499.129c.57.171 1.158.351 3.152-.285 7.475-2.378 21.88.219 25.046.99 6.117 1.487 9.641 3.733 9.198 5.859-.861 4.134-6.628 5.662-6.872 5.724l-1.245.32.934-.882c.712-.672 1.021-1.255.917-1.731-.213-.976-2.15-1.632-3.563-2.111l-.72-.247c-1.455-.519-3.117-.493-4.104-.413 2.865 2.001 4.331 4.121 4.331 6.32q0 .213-.019.427c-.454 5.344-9.21 9.085-9.583 9.243l-.325-.573c2.867-2.112 2.3-3.666 1.402-5.203-2.135-3.66-6.82-4.88-9.92-5.686l-.487-.127c-2.175-.573-3.311-.239-3.762-.032 1.743 2.658 2.216 6.827 2.216 9.825 0 1.321-.09 2.411-.196 3.038-.806 4.696-3.802 8.168-5.593 10.243-.454.526-.846.981-1.095 1.332-3.556 5.009-4.41 10.9-4.419 10.96z" clip-path="url(#bU)" style="fill:#fff;fill-opacity:1;fill-rule:nonzero;stroke:none" transform="matrix(1.33333 0 0 -1.33333 -13.972 1568.718)" data-source="https://football-logos.cc"></path><!-- source: https://football-logos.cc --></svg>