<svg xmlns="http://www.w3.org/2000/svg" viewBox="0.26 0.26 65.75 78.85"><!-- Source: https://football-logos.cc --><path d="M71.518 21.758c-1.91.544-4.003 1.463-5.779 2.327a52 52 0 0 0-12.153 8.208c-7.828 7.11-12.147 14.695-13.143 25.205-.754 7.954-.603 15.585.55 23.488.49 3.35.987 6.803 1.657 10.123l.156.774.683.397c.612.357 1.3.675 1.947.963 1.746.777 3.566 1.426 5.393 1.984 6.775 2.07 14.058 3 21.122 3.193l.048.001.048-.001c7.065-.193 14.348-1.123 21.123-3.193 1.826-.558 3.647-1.207 5.393-1.984.646-.288 1.334-.606 1.947-.963l.683-.397.156-.774c.67-3.32 1.167-6.774 1.656-10.123 1.154-7.903 1.305-15.534.55-23.488-.996-10.51-5.314-18.095-13.142-25.205a52 52 0 0 0-12.153-8.208c-1.776-.864-3.87-1.783-5.78-2.327l-.48-.137z" style="fill:#f1b136;fill-opacity:1;fill-rule:evenodd;stroke:none" transform="matrix(1.02664 0 0 -1.02664 -40.779 101.308)" data-source="https://football-logos.cc"></path><path d="M72 23.449s-8.823 2.508-17.232 10.145c-8.41 7.638-11.727 15.121-12.575 24.07-.849 8.95-.463 16.202.54 23.068s1.64 10.03 1.64 10.03 9.277 5.4 27.626 5.9c18.35-.5 27.627-5.9 27.627-5.9s.637-3.164 1.64-10.03 1.389-14.118.54-23.068c-.849-8.949-4.166-16.432-12.575-24.07-8.41-7.637-17.232-10.145-17.232-10.145" style="fill:#613493;fill-opacity:1;fill-rule:evenodd;stroke:none" transform="matrix(1.02664 0 0 -1.02664 -40.779 101.308)"></path><path d="m72 61.387-3.035-.829v-1.871l-2.854-.752v1.843l-3.106-.848v-1.81l-2.854-.753v1.783l-3.048-.833v-4.902L72 56.34l14.897-3.925v4.902l-3.048.833v-1.783l-2.854.752v1.81l-3.106.85v-1.844l-2.855.752v1.871zm14.896-10.013v-1.881l-14.897 3.925-14.896-3.925v1.88L72 55.3zm0-2.923v-.237l-3.453-3.279L72 48.06l-11.443-3.125-3.453 3.279v.237L72 52.377z" style="fill:#ed3237;fill-opacity:1;fill-rule:evenodd;stroke:none" transform="matrix(1.02664 0 0 -1.02664 -40.779 101.308)"></path><path d="m72 46.835-1.963-.54V24.13c1.235-.475 1.962-.682 1.962-.682s.728.207 1.963.682v22.164ZM82.274 36.71l-1.563-.773v-8.55q.765.441 1.563.942zm-6.848-11.983a49 49 0 0 1 4.032 1.957v10.218l2.816 1.254v2.14l1.138.618v2.777l-7.986 2.2zM61.724 36.71l1.563-.773v-8.55q-.765.441-1.563.942zm6.848-11.982a49 49 0 0 0-4.032 1.956v10.218l-2.816 1.254v2.14l-1.138.618v2.777l7.986 2.2z" style="fill:#00ae6f;fill-opacity:1;fill-rule:evenodd;stroke:none" transform="matrix(1.02664 0 0 -1.02664 -40.779 101.308)" data-source="https://football-logos.cc"></path><path d="M62.844 76.48v-2.045s-3.935-.192-10.03-1.89-7.483-2.237-7.483-2.237 7.715 4.938 17.513 6.172m18.311 0v-2.045s3.935-.192 10.03-1.89 7.483-2.237 7.483-2.237-7.715 4.938-17.513 6.172M73.314 61.541s1.497.328 1.948 2.527c.451 2.198-1.28 3.336-1.28 3.336s.252-.733 0-1.33c-.253-.598-.956-.386-.668.578.289.964.74 2.006.054 2.97s-2.038.772-2.038.772.775-.617.794-1.524c.018-.906-.92-1.311-1.533-1.042-.614.27-.361 1.08-.361 1.08s-1.777-1.513-1.741-3.847 1.894-3.318 1.894-3.318-.352 1.051.072 1.968c.424.916 1.37 1.128 1.37 1.128s-.522-.463.037-.906c.559-.444.83-.126.91-.01.082.116.235.26.479.096.243-.164 1.136-1.408.063-2.478" style="fill:#ed3237;fill-opacity:1;fill-rule:evenodd;stroke:none" transform="matrix(1.02664 0 0 -1.02664 -40.779 101.308)"></path><path d="M46.913 87.586s-.552-2.68-1.015-6.074c-.463-3.395-.725-7.174-.725-7.174.314.166.953.49 1.914.908l.49 5.128s2.16.579 2.796 1.196 1.176 1.447 1.33 2.565c.155 1.119.589 3.848.589 3.848s.106.684-.367.945c-.458.252-1.032.12-1.415-.01l-.019-.006-.018-.006a90 90 0 0 1-3.56-1.32m51.641-13.254s.222.009.241.182c.02.174-.964 4.803-2.256 8.853s-1.718 4.97-1.968 5.142c-.272.1-1.022.372-2.12.733a.4.4 0 0 1-.184-.291c-.03-.3-.782-11.312-.782-11.312s-.046-.388.174-.47l.005-.002a90 90 0 0 0 1.602-.612s.345-.001.37.138c.014.083.056 1.242.112 2.701.396-.12.907-.287 1.348-.464.395-.158.794-.332 1.112-.475.533-2.182.662-3.04.662-3.04s.04-.362.29-.47c.504-.219.972-.425 1.394-.613m-4.722 7.164.05 1.133c.115 2.546.038 3.915.038 3.915s.71-2.055 1.688-5.743c-.19.097-.436.212-.739.333-.317.126-.696.254-1.037.362m-9.939 10.075c-.02 0-.234-.011-.206-.204.029-.202.096-1.003.096-1.003s.049-.338.3-.405c.25-.068 1.899-.444 1.899-.444s.338-2.921.666-6.451c.327-3.53.405-4.195.405-4.195s.06-.329.25-.377l.005-.001q.985-.25 1.839-.5s.181.039.181.155-.299 3.384-.646 6.567c-.347 3.182-.607 4.358-.607 4.358s.675-.221 1.195-.385l.521-.164s.28-.068.26.096c-.019.164-.163 1.264-.163 1.264s-.033.165-.352.261l-.016.005a82 82 0 0 1-5.627 1.423m-4.107.734s-.013 0-.012-.018c.03-.355.347-4.01.567-7.786.232-3.973.231-4.368.231-4.368s.073-.347.295-.38l.012-.001a65 65 0 0 0 1.939-.308s.242.08.252.283S82.77 84 82.5 87.336s-.366 4.089-.415 4.291c-.047.2-.285.354-.454.388q-.901.16-1.818.294c-.014.002-.014-.006-.028-.004m-6.647-6.951h-1.755s-.4-.005-.4-.362v-1.89s-.03-1.12.607-1.794c.477-.506.992-.73 1.613-.92 1.094-.289 2.223-.298 3.236-.154 0 0 .937.216 1.41.862s.463 1.465.434 2.295-.135 3.23-.135 3.23.029.608-.502.83c-.53.222-4.122 1.434-4.122 1.434v1.822s-.068.502.51.502c.58 0 1.428-.02 1.496-.376.067-.357.057-1.186.057-1.186s.02-.357.28-.396c.26-.038 1.9-.096 1.9-.096s.231-.01.202.24c-.029.252.03 1.554-.202 2.084-.224.514-1.174 1.19-2.495 1.269h-.025l-.139.006c-1.375.041-2.718.1-3.426-.397-.714-.502-.647-1.486-.647-1.727v-2.883s0-.347.396-.492c.395-.144 3.944-1.292 3.944-1.292s.386-.126.386-.309.062-2.068.062-2.068.044-.603-.443-.685-1.066-.048-1.293.02c-.227.067-.559.298-.54.934s.039 1.143.039 1.143-.005.362-.448.356m-10.81 6.593c-.002-.009-.336-1.75-.682-6.906-.347-5.169-.414-5.523-.221-5.635q.915.167 1.88.324l.2.031.001.001s.242.052.271.505c.03.454.193 4.504.193 4.504l1.157.145 1.003-4.514s.098-.286.318-.265h.015q.966.095 1.922.155s.291.072.253.351c-.039.28-1.157 4.735-1.157 4.735s.685.3 1.013.897c.328.598.405.993.405 1.823s.043 2.974.043 2.974.058.685-.376 1.022c-.281.22-.623.385-1.282.47a68 68 0 0 1-4.956-.617m2.014-1.212-.26-3.78 1.697.202s.502.135.617.415c.116.28.116.984.116 1.456 0 .473.02 1.523.02 1.523s.018.367-.31.386c-.327.02-1.88-.202-1.88-.202m-9.963-.57s-.654-3.29-1.133-8.07c-.302-3.013-.43-4.266-.484-4.78a74 74 0 0 0 6.438 1.652s.16.11.18.341.105 2.15.105 2.15.01.174-.308.136c-.318-.039-4.014-1.01-4.014-1.01.11 1.145.234 2.417.347 3.49 0 0 .581.2 1.574.46.993.261 1.408.32 1.408.32s.357.086.405.414.164 1.557.164 1.557.087.347-.289.319c-.325-.026-2.13-.496-2.996-.804.239 1.788.411 2.766.411 2.766l2.739.617c1.109.25 1.35.318 1.35.318l.237 1.587a64 64 0 0 1-6.134-1.464m-5.85-3.513-.636-3.954s1.283.415 1.543.685.357.608.444 1.244.308 2.18.308 2.18.049.467-.597.24c-.647-.226-1.061-.395-1.061-.395M69.41 78.486h1.051c.393 0 .714-.32.714-.713v-1.536c0-.044.001-.4-.058-.55-.062-.159-.858-1.96-.858-1.96s-.053-.14-.226-.14h-.704s-.12.02-.034.236c.087.217.713 1.45.733 1.512s0 .193 0 .193h-.618a.716.716 0 0 0-.713.713v1.532c0 .392.32.713.713.713m-1.574-.002-.825-.11-.502-.066v-.934l.502.086v-3.873h.825zm8.006.002h.848c.45 0 .82-.37.82-.82V76.36c0-.197-.319-.327-.363-.344l-.002-.001.002-.001c.044-.017.363-.146.363-.344v-1.263a.82.82 0 0 0-.82-.82h-.848a.82.82 0 0 0-.82.82v.262c0 .004.035.144.149.144h.627s.12-.01.12-.086v-.23s.022-.103.092-.103h.569s.096.019.096.13v.892s.02.145-.168.145h-.7s-.217-.02-.217.192v.485c0 .212.218.193.218.193h.699c.188 0 .168.145.168.145v.892c0 .11-.096.13-.096.13h-.57c-.07 0-.09-.104-.09-.104v-.23c0-.076-.121-.086-.121-.086h-.627c-.114 0-.148.14-.15.145v.343c0 .45.37.82.82.82m-3.215 0h1.7550000000000001v-.887h-1.553v-.887l1.37-.444s.183-.078.183-.17v-1.827a.687.687 0 0 0-.685-.684h-1.07a.686.686 0 0 0-.685.684v.46c0 .097.135.092.135.092h.569c.125 0 .152-.098.152-.098v-.236c0-.092.113-.097.113-.097h.475c.178 0 .169.15.169.15v.901c0 .13-.147.16-.147.16s-1.157.342-1.297.39a.26.26 0 0 0-.169.173v2.3200000000000003zm-2.902-.8h.403a.21.21 0 0 0 .208-.208v-.986a.21.21 0 0 0-.208-.208h-.403a.21.21 0 0 0-.208.208v.986c0 .114.093.208.208.208" style="fill:#fefefe;fill-opacity:1;fill-rule:evenodd;stroke:none" transform="matrix(1.02664 0 0 -1.02664 -40.779 101.308)" data-source="https://football-logos.cc"></path><!-- source: https://football-logos.cc --></svg>