<svg xmlns="http://www.w3.org/2000/svg" xml:space="preserve" style="clip-rule:evenodd;fill-rule:evenodd;image-rendering:optimizeQuality;shape-rendering:geometricPrecision;text-rendering:geometricPrecision" viewBox="1 1 240 324.01"><!-- Source: https://football-logos.cc --><path d="M463 100h2074v1614c-53 907-584 1186-1039 1186-498 0-1003-389-1035-1186z" style="fill:#e00820" transform="matrix(.11572 0 0 .11572 -52.578 -10.572)" data-source="https://football-logos.cc"></path><path d="M543 179v1533c4 98 16 195 37 291 18-43 50-54 89-23 76 62 158 6 220-142 227-2 340-2 340-2v-295h186l-1-394c-27-1-49-24-49-51s22-50 50-50V711c6-32 28-58 57-70 2-15-2-39-18-71-21-45-1-81 59-126 46 45 73 77 53 126-14 34-18 49-20 70 30 12 52 38 59 71v334c27 2 47 24 47 50s-20 48-47 50v395h183l2 297c225-1 337-1 337-1 62 140 146 196 212 150 42-29 70-31 85-8 17-88 28-178 33-267V179zm930 2613v-4l32-13 31 14v2s-32 13-63 1m34-2588 28 87h92l-75 54 29 87-74-54-74 54 28-87-74-54h92zm497 1371-28 87h-92l74 54-28 87 74-54 74 54-28-87 74-54h-92zM1773 247l-28 87h-92l75 54-29 87 74-54 75 54-29-87 75-54h-92zm237 142-28 87h-92l74 54-28 87 74-54 74 54-28-87 74-54h-92zm181 203-28 88-92-1 74 54-28 87 74-54 74 54-28-87 74-54-92 1zm91 267-28 87h-92l74 54-28 87 74-54 74 54-29-87 75-54h-92zm-8 262-28 88-92-1 74 54-28 88 74-55 74 55-29-88 75-54-92 1zm-122 232-29 87h-92l75 54-29 87 75-54 74 54-29-87 75-54h-92zm-1140 222 28 87h92l-75 54 29 87-74-54-75 54 29-87-75-54h92zm230-1328 28 87h92l-74 54 28 87-74-54-74 54 28-87-74-54h92zm-236 142 28 87h92l-75 54 29 87-74-54-75 54 29-87-74-54h91zM825 592l28 88 92-1-75 54 29 87-74-54-75 54 29-87-74-54 91 1zm-91 267 28 87h92l-75 54 29 87-74-54-74 54 28-87-74-54h92zm8 262 28 88 92-1-75 54 29 88-74-55-74 55 28-88-74-54 92 1zm122 232 28 87h92l-74 54 28 87-74-54-74 54 28-87-74-54h92zm629-681h8c24 0 44 20 44 44v331h-37V889h-17v158h-42V716c0-24 20-44 44-44m-74 2030 8-36 33-10 18 24-11 33-28 8zm182 7h-6l-17 18-2 31 4 2s16-19 21-51m-195-1 7 1 20 18-1 32-6 1s-19-24-20-52m11-55c12-20 31-36 56-47l5 12-16 29-39 10zm116-47-3 13 20 26 35 12 5-3s-12-30-57-48m-49 67h38l19-24-20-24h-35l-17 25zm46 6 20-25 30 12 9 36-17 19-31-8zm6 43 33 9-1 25-30 23-30-12v-23zm-96 36 2-29 28-7 29 22v24l-28 11zm62-165c58 0 106 48 106 106 0 59-48 106-106 106-59 0-106-47-106-106 0-58 47-106 106-106m-617-21c165 158 382 249 613 249 228 0 447-75 616-232 6-6 12-11 18-17zm-28-93v-257c30 0 109 0 131 4 92 15 93 139-6 152-22 3-41 4-69 4v97zm1096-81h59c2 62 73 54 92 40 22-16 20-39-12-55-45-23-131-26-131-92 1-83 138-90 182-53 18 14 23 32 24 56l-52 1c-2-25-18-42-47-43-54 0-57 37-40 51 37 31 153 30 151 106-2 87-150 92-195 56-19-15-33-35-31-67m-104 81v-257h58v257zm-271-81h59c2 62 73 54 92 40 22-16 20-39-12-55-45-23-131-26-131-92 1-83 138-90 182-53 18 14 23 32 24 56l-52 1c-2-25-18-42-47-43-54 0-57 37-39 51 36 31 152 30 150 106-2 87-150 92-195 56-19-15-33-35-31-67m-248 81v-257l153 2c69 2 88 110 6 126 36 7 43 16 48 57 3 30 4 50 19 74l-66-1c-13-20-5-85-18-96-15-13-59-7-83-7v102zm59-144 64-2c38-2 43-64 0-70l-64-1zm-294 147v-260h187v43h-128v62h120v44h-120v68h132v43zm-182-217v74c38 0 82 7 82-37s-43-37-82-37m-264-265c91 57 196 16 257-119h189c-183 159-329 205-472 155-9-4-15-12-14-22 3-19 23-25 40-14m-57 51c6 23 15 55 23 78h1771c7-23 14-46 20-69-19 7-40 14-65 14-553 2-1105 4-1658 2-29 0-62-11-91-25m1780-51c-91 57-196 16-258-119h-188c183 159 329 205 472 155 9-4 15-12 14-22-3-19-23-25-40-14m-669-119h61v166h-61zm-341 6h310v35h-310zm0 118h310v35h-310zm0-59h310v35h-310zm-93-65h62v166h-62zm-6-307h103v43h400v86h-400v112h-103zm152-494h189c9 0 16 8 16 17s-7 16-16 16h-189c-9 0-17-7-17-16s8-17 17-17m34 66h42v320h17v-320h37v393h-96z" style="fill:#fff" transform="matrix(.11572 0 0 .11572 -52.578 -10.572)" data-source="https://football-logos.cc"></path><!-- source: https://football-logos.cc --></svg>