<svg xmlns="http://www.w3.org/2000/svg" viewBox="149.04 82.2 291.31 271.5"><!-- Source: https://football-logos.cc --><path d="m294.697 84.203 71.828 51.089 71.828 51.089-27.436 82.663-27.436 82.663H205.912l-27.436-82.663-27.436-82.663 71.828-51.089Z" style="fill:#ffec00;fill-rule:evenodd;stroke:#000200;stroke-width:4;stroke-linecap:butt;stroke-linejoin:miter;stroke-dasharray:none" data-source="https://football-logos.cc"></path><path d="m294.697 95.719 65.643 46.69 65.644 46.69-25.073 75.546-25.074 75.547h-162.28l-25.075-75.547L163.41 189.1l65.644-46.69z" style="fill:#000200;fill-rule:evenodd;stroke:#000200;stroke-width:4;stroke-linecap:butt;stroke-linejoin:miter;stroke-dasharray:none"></path><path d="M294.679 95.731v244.46h-81.123l-25.074-75.546-25.074-75.546 65.644-46.69z" style="fill:#e30016;fill-rule:evenodd;stroke:#000200;stroke-width:2.9999001;stroke-linecap:butt;stroke-linejoin:miter;stroke-dasharray:none"></path><path d="M306.971 160.8h13.55v22.82l18.417.005.326 11.573 11.736.003v9.944l9.453.01v11.74l9.354.009v9.544l9.888.007-.018 14.167h-9.946l.027 9.621-25.744.092-.028 36.954 23.583.393-.203 9.264 12.249.009-.026 14.305H306.97zM320.52 183.62h-13.549M339.264 195.199h-32.293M351 205.146H306.97M317.39 195.199v9.947M360.453 216.896H306.97M327.154 205.146v11.75M369.807 226.448h-62.836M336.336 216.896v9.552M369.73 240.621h-62.759M312.364 226.448v14.173M346.486 226.448v14.173M344.014 250.334h-37.043M337.11 240.621v9.713M344.007 260.321H306.97M343.994 276.754h-37.023M343.986 287.289h-37.015M367.366 296.945h-60.395M343.103 296.945l.177 14.314" style="fill:#ffec00;fill-rule:evenodd;stroke:#e30016;stroke-width:2.0000999;stroke-linecap:butt;stroke-linejoin:miter;stroke-dasharray:none"></path><path d="M282.421 160.8h-13.548v22.82l-18.418.005-.326 11.573-11.736.003v9.944l-9.453.01v11.74l-9.354.009v9.544l-9.888.007.018 14.167h9.946l-.027 9.621 25.744.092.028 36.954-23.583.393.203 9.264-12.249.009.026 14.305h72.617zM268.873 183.62h13.548M250.129 195.199h32.292M238.393 205.146h44.028M272.002 195.199v9.947M228.94 216.896h53.481M262.24 205.146v11.75M219.586 226.448h62.835M253.057 216.896v9.552M219.662 240.621h62.76M277.029 226.448v14.173M242.907 226.448v14.173M245.379 250.334h37.042M252.283 240.621v9.713M245.386 260.321h37.035M245.399 276.754h37.022M245.407 287.289h37.014M222.027 296.945h60.394M246.29 296.945l-.177 14.314" style="fill:#ffec00;fill-rule:evenodd;stroke:#000200;stroke-width:2.0000999;stroke-linecap:butt;stroke-linejoin:miter;stroke-dasharray:none"></path><path d="M312.66 250.334v26.42" style="fill:none;stroke:#e30016;stroke-width:2.0000999;stroke-linecap:butt;stroke-linejoin:miter;stroke-dasharray:none" data-source="https://football-logos.cc"></path><path d="M276.848 250.334v26.42" style="fill:none;stroke:#000200;stroke-width:2.0000999;stroke-linecap:butt;stroke-linejoin:miter;stroke-dasharray:none"></path><path d="M358.234 315.827c-25.651 1.096-40.967-1.188-63.842-6.469-22.717 5.38-37.96 7.84-63.233 6.084 11.164-9.141 20.782-15.388 40.288-14.549-7.01-5.547-13.548-9.702-19.398-16.414 8.705.978 17.41 2.108 26.113 4.714-.948-17.953 3.56-32.77 16.04-44.256 12.27 10.547 16.78 25.985 16.284 44.326 8.208-2.968 17.712-4.165 25.918-5.038-5.008 6.003-12.065 11.597-18.7 16.668 18.742-1.22 30.098 4.84 40.53 14.934z" style="fill:#fff;fill-rule:evenodd;stroke:#000200;stroke-width:2.0000999;stroke-linecap:butt;stroke-linejoin:miter;stroke-dasharray:none"></path><path d="M320.69 307.157c-3.512 1.63-7.024 1.848-10.535 0 3.512-1.631 7.024-1.849 10.536 0zm-40.389 0c-3.512 1.63-7.024 1.848-10.536 0 3.512-1.631 7.025-1.849 10.536 0zM316.113 294.26c-2.36 4.339-5.794 7.23-10.796 8.003 2.36-4.338 5.794-7.229 10.796-8.003zm-41.008 0c2.36 4.339 5.793 7.23 10.795 8.003-2.36-4.338-5.793-7.229-10.795-8.003zM290.085 265.489c0 8.429.95 16.961.187 22.015-.763 5.053-3.634 5.931-4.917 0s.458-14.904 4.73-22.015zM299.307 265.489c0 8.429-.95 16.961-.187 22.015.763 5.053 3.634 5.931 4.917 0s-.457-14.904-4.73-22.015z" style="fill:#000200;fill-rule:evenodd;stroke:#000200;stroke-width:.21600001;stroke-linecap:butt;stroke-linejoin:miter;stroke-dasharray:none"></path><text x="260.463" y="334.104">
      <tspan font-size="18" style="font-size:18px;font-family:&quot;Arial Black&quot;;fill:#fff">KEDIRI</tspan>
    </text><path d="m240.695 147.843 8.061-3.589q2.632-1.173 4.501-.502c1.245.444 2.214 1.44 2.898 2.978q1.06 2.379.226 4.353t-3.767 3.28l-2.653 1.181 2.593 5.825-4.87 2.169zm7.85 4.522 1.188-.529q1.401-.622 1.753-1.363.348-.74.012-1.498-.33-.741-1.052-1.034-.718-.297-2.078.308l-1.381.615zm11.043-12.694 13.86-3.2.824 3.574-8.676 2.003.615 2.662 8.048-1.858.789 3.414-8.049 1.858.761 3.297 8.93-2.061.875 3.792-14.112 3.258zm20.837 12.925-1.198-17.138 8.826-.617c1.636-.115 2.899-.063 3.78.16q1.329.329 2.204 1.414.875 1.083.989 2.718.098 1.428-.435 2.504a4.8 4.8 0 0 1-1.554 1.797c-.436.303-1.039.574-1.813.804q.968.252 1.425.538.304.19.909.839c.404.437.676.77.817 1.014l2.909 4.788-5.985.419-3.196-5.042c-.406-.649-.756-1.07-1.054-1.253a2.23 2.23 0 0 0-1.324-.305l-.467.033.486 6.955zm4.606-10.567 2.235-.156q.359-.024 1.384-.33.52-.144.824-.599a1.6 1.6 0 0 0 .262-1.016q-.058-.831-.616-1.236-.558-.412-2.006-.31l-2.326.164zm13.757 4.194 5.053.302q.012 1.24.434 1.943c.455.758 1.192 1.195 2.2 1.319q1.125.139 1.804-.315.672-.455.758-1.152c.054-.44-.088-.861-.434-1.258q-.517-.595-2.578-1.32-3.37-1.204-4.69-2.676-1.33-1.474-1.084-3.474.162-1.317 1.068-2.392.903-1.072 2.516-1.557 1.612-.479 4.275-.152 3.27.402 4.837 1.827 1.565 1.426 1.566 4.118l-5.002-.32q-.056-1.175-.629-1.778-.568-.596-1.683-.735c-.615-.075-1.091-.005-1.433.22q-.512.33-.581.891-.05.404.291.778c.223.257.785.535 1.694.844q3.361 1.17 4.762 2.116 1.402.944 1.943 2.157c.36.806.488 1.676.373 2.61a5.45 5.45 0 0 1-1.28 2.909q-1.076 1.276-2.795 1.789-1.714.514-4.193.21c-2.898-.356-4.839-1.158-5.817-2.415q-1.473-1.879-1.375-4.489m22.161-8.145 5.139 1.377-4.446 16.595-5.14-1.377zm11.366 3.035 4.85 2.159-2.64 5.93 7.726-3.665 6.446 2.87-8.354 3.373 1.623 12.435-5.975-2.66-.432-7.93-3.675 1.508-1.707 3.833-4.85-2.159z" style="fill:#fff;fill-rule:evenodd" data-source="https://football-logos.cc"></path><!-- source: https://football-logos.cc --></svg>