<svg xmlns="http://www.w3.org/2000/svg" viewBox="0 0 1080 1080"><!-- Source: https://football-logos.cc --><defs data-source="https://football-logos.cc"><style>.cls-1{fill:#12529c}.cls-2{fill:#1576d4}.cls-6{fill:#fff}.cls-7{fill:#ffca0d}</style></defs><g id="Layer_2" data-name="Layer 2" data-source="https://football-logos.cc"><g id="Layer_1-2" data-name="Layer 1"><path d="M540 0v1080C241.77 1080 0 838.23 0 540S241.77 0 540 0" class="cls-1"></path><path d="M1080 540c0 298.23-241.77 540-540 540V0c298.23 0 540 241.77 540 540" class="cls-2"></path><path d="M540 30C258.33 30 30 258.33 30 540s228.33 510 510 510 510-228.33 510-510S821.67 30 540 30m0 1008c-275 0-498-223-498-498S265 42 540 42s498 223 498 498-223 498-498 498" style="fill:#4dcecf"></path><path d="M540 42C265 42 42 265 42 540s223 498 498 498 498-223 498-498S815 42 540 42m0 793c-162.92 0-295-132.08-295-295s132.08-295 295-295 295 132.08 295 295-132.08 295-295 295" class="cls-2"></path><path d="M540 245v12c156.3 0 283 126.7 283 283S696.3 823 540 823v12c162.92 0 295-132.08 295-295S702.92 245 540 245" style="fill:#ffc907"></path><path d="M257 540c0 156.3 126.7 283 283 283v12c-162.92 0-295-132.08-295-295s132.08-295 295-295v12c-156.3 0-283 126.7-283 283" style="fill:#e1b106"></path><circle cx="540" cy="540" r="283" class="cls-1"></circle><path d="m756.48 931.39-20.35 8.85-33.82-27.39-2.56-2.13-6.98 27.5 2.14 4.95 1.44 3.36 4.05 8.89-9.54 4.16-8.89 3.83-4.37-10.12-3.26-7.52-10.44-23.92-18.32-42.02 10.66-4.74 7.55-3.25 4.48 10.22 1.92 4.38 12.25 27.97 3.94-14.82 1.66-6.61 3.83-14.46 5.49-21.1 20.56-8.89-10.33 42.71 38.88 31.91zM615.83 972.69l.29.11-30.13-69-4.45-10.22-5.49.22-13.62.68-5.28.22-3.61 10.55L541.79 941l-15 46.4 20.78-1 3.25-10.66 3.14-10.34 37-1.81 4.16 10 4.26 10.34 21-1Zm-56.22-24.83 5.49-18.06 5.06-16.52 5.71 13.8 8.13 19.66ZM489.3 891.13l-2.35 10.92-15.07 67.43-2.35 10.84-19.33-4.38 2.35-10.84 15.06-67.42 2.35-10.85zM398.85 867l-42.21-18.8-4.48 10.12L324 921.23l-4.48 10.12 44.73 19.95c17 7.58 33.71 2.85 40-11.24a21.08 21.08 0 0 0-5.81-25.28 21.29 21.29 0 0 0 17.77-12.63c5.48-12.29-.21-27.46-17.36-35.15m-11.42 63.05c-1.84 5.17-7.66 8.53-16.77 5.06h.11l-25.29-9.65 7.66-20.12 25.29 9.68c9.11 3.64 10.85 9.9 9 15.06Zm9.51-36.17c-2 5.06-7.23 7.88-14.46 5.06l-23.27-8.89 6.94-18.43 23.27 8.89c7.22 2.85 9.58 8.34 7.52 13.4ZM707.41 158.19c-2.24 6.1 6.94 11.16 15.24 16.4 16 9.22 33.43 21.11 26.67 39.75-5.78 16.19-25.07 21-45 13.81A97.3 97.3 0 0 1 679 214.34h-.18c-6.25-4.8-9.47-3.61-9.47-3.61l8.21-22.88s18.06 18.07 31.65 23c10.44 3.79 18.32 3.32 20.41-2.68s-4.66-10.51-19.11-18.79c-13-7.55-29.16-19.19-22.69-37.15 5.81-16.18 26.16-20.45 47-13.11 12.69 4.51 24.68 17.2 28.91 18.75l-7.23 20.27a58.9 58.9 0 0 0-27.89-22.54c-10.61-3.6-19.29-2.94-21.2 2.59M638.07 142.13a21.4 21.4 0 0 0 4.33-10.5c1.63-13.26-8.16-26.27-27-28.59l-45.85-5.7-1.3 11-8.53 68.66-1.3 11 48.64 6c18.43 2.31 33-7.23 35-22.48 1.19-9.32-3-17.49-13-22.54l-.11-.11a21.5 21.5 0 0 0 9.12-6.74M621.84 168c-.65 5.24-5.46 10.08-15.1 8.85h.07L580 173.62l2.64-21.36 26.78 3.29c9.67 1.23 13.07 7.23 12.42 12.45m.65-37.33c-.65 5.49-5.13 9.36-13 8.35L584.77 136l2.42-19.55 24.71 3.08c7.88.93 11.24 5.67 10.59 11.16ZM485.58 192.05a92.8 92.8 0 0 1-28.91-.4h-.18c-7.84-1.27-10 1.12-10 1.12l-3.36-24s24.24 7.62 38.7 5.64c10.84-1.56 17.74-5.71 16.91-11.82s-9-7.23-25.73-7.7c-15-.61-34.72-3.39-37.36-22.37-2.39-17.08 13.54-30.38 35.35-33.52 13.3-1.91 29.88 3.62 34.29 3.18l3 21.32a59.45 59.45 0 0 0-35.2-7c-11.05 1.52-18.39 6.36-17.59 12.21.9 6.43 11.34 6.69 21.24 7.45 18.4.61 39.35 3.1 42.17 22.76 2.41 17.08-12.44 30.2-33.33 33.13M397 159.7a30.7 30.7 0 0 0-3.81-11.81c-8.27-14.89-26.38-20.46-43.18-11.1l-22.08 12.33-17.35 9.72 5.35 9.68 33.75 60.28 5.35 9.68 17.35-9.76-5.38-9.65-9-16.15 22-12.32a30.78 30.78 0 0 0 17-30.9m-28 16.55.25.29-19.93 11.06-13.05-23 19.88-11.2c9-5 16-1.23 19.08 4.26s2.77 13.57-6.29 18.59Z" class="cls-6"></path><path d="M162.65 519.08c-9.32 0-18.07 5.35-18.07 15.21S153.33 549 161.64 549a18.5 18.5 0 0 0 11.74-4 12 12 0 0 1-12.61 11.2 24.8 24.8 0 0 1-15.54-5v9.69a29.6 29.6 0 0 0 16.59 3.61c11.38 0 21.25-8.31 21.25-23.17s-9.51-22.25-20.42-22.25m0 21.68c-4.84 0-8.64-2.28-8.64-6.58s3.62-6.57 8.46-6.57a10.49 10.49 0 0 1 10.23 8.63 15.34 15.34 0 0 1-10.23 4.34ZM132.73 519.47V564h-9.65v-34.15h-6.76v-3.15c6.4 0 13.12-7.23 13.12-7.23ZM973.37 546.72v-26.6h-10.85l-23.16 27.29 4.48 7.22h20.38v9.65h9.15v-9.65h6.71v-7.8Zm-9-.15h-13.68L964 531l.36-.51ZM915.52 534.79a18.46 18.46 0 0 0-11.75 4 12 12 0 0 1 12.62-11.24 24.77 24.77 0 0 1 15.53 5v-9.68a29.67 29.67 0 0 0-16.58-3.62c-11.42 0-21.25 8.32-21.25 23.17s9.4 22.44 20.27 22.44c9.32 0 18.07-5.35 18.07-15.22s-8.64-14.85-16.91-14.85m-1 21.54a10.42 10.42 0 0 1-10.19-8.64 15.32 15.32 0 0 1 10.19-4.33l-.18-.18c4.84 0 8.64 2.24 8.64 6.57s-3.59 6.58-8.44 6.58ZM521.7 594.44v18.55l16.06 9.28 16.07-9.28v-18.55l-16.07-9.28z" class="cls-7"></path><path d="M581.17 587a46.59 46.59 0 0 0-42.87-29 47 47 0 0 0-5.72.39A46.29 46.29 0 1 0 581.17 587m-10.86 40.86L558.45 621l-16.07 9.28v13.59c-1.34.13-2.7.2-4.08.2a42 42 0 0 1-4.34-.24V630.3L517.9 621l-11.69 6.75a40 40 0 0 1-4.55-7.89l11.93-6.86v-18.56l-11.51-6.65a39.5 39.5 0 0 1 4.38-7.36L517.9 587l16.1-9.24v-13.08a42 42 0 0 1 4.34-.25 39 39 0 0 1 4.08.21v13.12l16.03 9.24 11.61-6.7a39.4 39.4 0 0 1 4.22 7l-12.38 7.15V613l12.79 7.39a39.5 39.5 0 0 1-4.38 7.48Z" class="cls-7"></path><path d="M628.53 492.87c-97.56-26.52-140.93 45-140.93 45 68.37-50.87 140.93-29.74 178 4 42.68 35.49 47.59 101.58 26.71 147.44A160.2 160.2 0 0 1 570.89 780c13.88 0 32.53-.73 47.78-6.62 101-34.44 126.93-124.92 107.6-194.23-12.43-34.78-39.53-70.48-97.74-86.28" class="cls-6"></path><path d="M763.74 567.46c-16.69-69.27-65.58-109.35-135.68-116.87-65.37-7-96.48 4.78-130.09 34.08-30.1 24.36-24.82 49.15-24.82 49.15s12.75-37.3 68.18-57c38.12-13.52 83.11-7.95 120.37 5.85 45.46 16.91 74.29 54.2 86.36 93.95 15.46 47.52-9.94 99.81-9.94 99.81s41.88-41.69 25.62-108.97" class="cls-6"></path><path d="M642 309c22.37 33.46-2 72.06-96.08 105.23-29.45 10.44-50.84 26.52-62.55 40.25-21.14 24.39-18.68 42.14-18.07 57.82 1.34-8.53 2.17-22 12.22-35.23 17.05-22.55 36.13-31.4 99.51-48.39C664.66 405.14 677.31 347 642 309" class="cls-6"></path><path d="M580.25 290.08c8.45 11.92 27.75 49.83-44.48 83.33-58.07 29.38-72.27 65.33-74.4 95.29 0 0 6-42.75 77.65-73.35 96.37-44.96 53.15-93.67 41.23-105.27M641 416.58c7.37-3.59 21.38-5.33 32.59-7.21 66.77-11.24 24.6-60.37 24.6-60.37s11.18 38.06-21 46.11c-10.69 2.7-28.81 9.08-36.19 21.47M773.82 518.93c-9.43-26.16-28.18-45.82-45.24-54.21a100.4 100.4 0 0 0-33.6-9.25c12.17 4.23 24 11 44.51 30.87 34.19 33.1 41.41 87.48 38.81 110.75a140.87 140.87 0 0 0-4.48-78.16M741.91 406.44c2 3.69 1.67 31.09-46.23 24a257.8 257.8 0 0 0-49.07-3.75c-33.89 1.28-41.32 9.33-41.32 9.33 6.7-2.21 41.14-1.49 64.45 2.84 20.72 3.87 39.22 8.06 48.8 8.15 37.4 1.79 25.56-36.29 23.37-40.57M430.15 611.66a169 169 0 0 1-42.46-48.44c-13.79-24.09-23.43-39.1-33.6-89.82-5.33-26.6-1.2-62 .32-69.81l.8-3.9a143.9 143.9 0 0 0-14.1 59.69 220.8 220.8 0 0 0 6.11 57.07c5.12 20.72 13.47 40.54 22 53.62 23.45 36.17 65 66.46 114.18 72.35-.04 0-28.35-11.42-53.25-30.76" class="cls-6"></path><path d="M601.33 570.33c1.74 1.39 3.51 2.88 5.4 4.48a70.7 70.7 0 0 1 18.9 25.35c16.63 36.28.19 81.81-40.58 106.89-34.61 21.43-77.5 26.38-116.42 22.19-68.62-7.41-142-52.83-164.77-142.85-3.6-14.67-5.61-26.19-6-41.29 2.85 14.58 6.81 25.41 11.85 39.38 19 49 56.59 89.11 117.69 108.7 41.38 13.29 93.16 13.65 131.71-5.57 14.32-7.17 25.27-16.19 33-26.38l1.62-2.09a73 73 0 0 0-1.37-94.41Z" class="cls-6"></path><path d="M504.54 548.63a96.54 96.54 0 0 1 121.11 18.9l2.8 3a74 74 0 0 1 5.6 7.17c48.46 58.25 1.67 124-34.51 147.69-45.45 29.77-98 34.87-153.1 26.16a118.9 118.9 0 0 1-51.56-20.06 84.7 84.7 0 0 0 27.82 18.83c85.35 37.54 169.69 22.91 225.73-31 34.62-33.21 42.14-83.62 29.31-119.25-11.6-42.13-59.08-76.46-112-74.69-42.2 2.78-60.05 21.58-60.05 21.58Z" class="cls-6"></path><path d="M560.62 665c-26.66 18.36-64.75 20.92-99.71 14.77-96.54-17-163-103.52-145.36-209.66 2.4-14.4 8-27.42 13.58-40.21L325 448.49C306.85 551.79 376.7 646 479.17 668.4c23.83 5.21 52.02 6.07 81.45-3.4M504.37 375.61a157 157 0 0 0-15.9 9.58 59.7 59.7 0 0 0-15.07 15.54s14.52-29.92-5.75-45.39c-1.08-.83-2.13-1.52-3.18-2.2-16.92-10.66-27.6 1.38-31.66 7.59a3.49 3.49 0 0 0 1.23 5c3 1.66 7.56 4.23 11 6.26l.29.2c6 3.62 10.42 9.53 10.42 16.93 0 2.57-.84 4.93-1.44 7.26l-.13.52a82.8 82.8 0 0 1-7.81 18.93s-3.23 6.6-3.53 7.36a83.35 83.35 0 0 0 3 67.69 72 72 0 0 1-11.24-66.45 246 246 0 0 0 8.8-25.36l.56-2a20.7 20.7 0 0 0 .31-6.06 20.4 20.4 0 0 0-19.92-18.07 22 22 0 0 0-6 .9l-.68.14c-6.65 1.58-51.31 11.87-50.64 11 6.43-8.57 30.28-16.48 40.29-20.39a42 42 0 0 0 6.54-3 6.7 6.7 0 0 0 2.54-2.64c3.23-5.85 16.61-22.6 36.41-22.08h2.32a37 37 0 0 1 15.31 3.13c6 2.86 9.74 7.26 12.87 11.68 0 .02 16.82 21.69 21.06 23.93" class="cls-6"></path></g></g><!-- source: https://football-logos.cc --></svg>