<svg xmlns="http://www.w3.org/2000/svg" viewBox="143.98 55.37 292.93 390.72"><!-- Source: https://football-logos.cc --><path d="M290.438 76.382a130.528 174.355 0 0 1 130.528 174.355A130.528 174.355 0 1 1 290.438 76.382Z" style="fill:#fff;fill-rule:evenodd;stroke:#1b1918;stroke-width:.21600001;stroke-linecap:butt;stroke-linejoin:miter;stroke-dasharray:none" data-source="https://football-logos.cc"></path><path d="M420.919 255.399H159.957q-.046-2.324-.047-4.662c0-96.278 58.452-174.355 130.528-174.355 72.077 0 130.528 78.077 130.528 174.355q-.001 2.338-.047 4.662z" style="fill:#06579d;fill-rule:evenodd;stroke:#1b1918;stroke-width:.21600001;stroke-linecap:butt;stroke-linejoin:miter;stroke-dasharray:none"></path><path d="M244.055 353.056c-.31-2.073-6.112.069-.361 4.83 4.433 3.67 9.053.342 10.487-.706 1.435-1.047 4.503-9.418-.921-12.523s-15.117-9.52-21.03-17.858c-1.183-2.601-1.59-5.202-.294-7.804 9.241-8.717 20.259-19.404 25.622-29.303 5.363-9.898 5.09-17.923-1.338-28.007s-20.353-14.967-26.827-34.04c-2.026-5.97-1.304-14.018 5.375-14.253 8.228-.289 5.672 9.049 2.318 8.054s-1.535 4.636 2.642 3.056 5.767-5.685 4.918-9.694c-.848-4.009-3.767-6.428-9.612-6.861-5.846-.434-13.098 5.424-13.405 19.164-6.715 2.053-25.714-45.314-5.124-48.773 12.098-2.128 8.837 10.692 3.624 7.393-3.471-2.197-5.66 5.236 1.405 6.313.806.123 3.411-.22 5.802-2.115 9.567-7.579 2.278-19.788-8.665-19.548-10.944.24-19.02 6.826-21.486 18.74-2.495 12.053-2.806 24.505-1.472 37.254-5.005-4.864-9.292-12.602-13.253-21.646-1.517 14.235-1.553 28.469 2.503 42.703-7.067-7.641-11.533-19.039-15.46-31.217-2.63 17.768-2.006 35.537 4.417 53.304-5.669-3.526-8.28-9.193-10.455-15.167-1.563 18.55 2.63 35.975 17.08 51.39q-7.374-.694-12.663-7.656c1.98 13.738 8.842 23.275 18.828 29.354-2.404 1.517-4.937.294-7.342-1.671q2.886 11.526 12.56 13.652c14.415 5.287 30.323 3.49 46.964 2.394 3.828.963 5.306 2.647 8.917 4.702 3.612 2.056 5.676 4.148 3.35 7.59-2.326 3.444-6.794 1.022-7.104-1.051z" style="fill:#fee706;fill-rule:evenodd;stroke:#0d2585;stroke-width:2.4999001;stroke-linecap:butt;stroke-linejoin:miter;stroke-dasharray:none"></path><path d="M238.892 341.815c-5.009-3.884-8.832-7.064-12.12-12.514-2.844-4.714-3.283-11.568 1.174-15.414 6.713-5.791 14.998-13.429 23.369-25.283 4.825-6.834 5.384-14.305.875-21.848-5.393-9.025-13.701-15.309-21.482-21.818-2.373 8.085-.398 16.962 3.803 26.494-7.532-2.126-11.605-5.915-14.229-9.077-.968 7.903.112 15.76 3.558 23.55" style="fill:none;stroke:#0d2585;stroke-width:2.4999001;stroke-linecap:butt;stroke-linejoin:miter;stroke-dasharray:none"></path><path d="M191.928 339.422c5.405.45 10.43.234 14.9-.954-2.678-3.995-2.273-7.99-1.427-11.986q4.03 5.038 12.272 6.564c-4.685-4.419-5.71-11.034-5.708-18.265 3.596 3.545 6.849 8.865 11.616 9.836-6.42-7.087-7.133-17.64-6.765-24.962 2.84 4.61 5.267 7.7 9.746 10.437-2.284-6.365-4.618-11.643-2.325-18.998 4.563 7.157 6.77 7.967 11.335 11.092-4.528-11.36-4.393-18.18-1.917-22.793 1.819 5.451 2.887 7.082 9.587 12.09-5.174-8.947-4.632-15.195-3.594-26.36 4.9 5.41 9.98 8.656 15.323 8.741M186.71 327.44c1.706.067 3.225-.57 4.88-.807-3.632-4.998-5.676-10.095-4.89-15.37 3.98 2.46 8.844 3.857 14.205 4.658-5.69-5.054-7.934-11.747-7.825-19.563 3.091 4.202 7.559 7.652 13.687 10.195-6.341-8.332-9.512-16.665-10.055-24.999 5.148 6.734 11.353 11.807 18.435 15.502-5.439-8.996-7.75-18.242-6.285-27.792 1.877 4.646 4.427 8.17 7.96 10.056M180.546 305.743c1.912 2.14 3.98 3.945 6.154 5.52" style="fill:none;stroke:#0d2585;stroke-width:2.4999001;stroke-linecap:butt;stroke-linejoin:miter;stroke-dasharray:none"></path><path d="M185.535 300.319c-6.083-5.705-7.97-13.275-6.986-22.122 3.754 5.92 8.795 10.336 14.904 13.506-6.222-11.173-10.723-22.431-9.082-33.999 2.724 5.735 5.787 11.065 10.48 14.438M200.572 268.636c-3.755-6.626-4.54-15.952-3.976-26.505 4.123 9.326 10.11 15.854 17.376 20.467-7.265-14.393-10.701-30.222-8.54-48.15 2.293 7.682 5.704 13.768 10.748 17.522" style="fill:none;stroke:#0d2585;stroke-width:2.4999001;stroke-linecap:butt;stroke-linejoin:miter;stroke-dasharray:none"></path><path d="M336.822 353.355c.31-2.073 6.112.07.361 4.83-4.433 3.67-9.053.343-10.487-.705-1.435-1.048-4.503-9.419.92-12.524 5.425-3.105 15.118-9.519 21.03-17.857 1.184-2.601 1.592-5.202.295-7.804-9.241-8.717-20.259-19.404-25.622-29.303-5.363-9.898-5.09-17.924 1.338-28.007s20.353-14.967 26.827-34.04c2.026-5.97 1.303-14.019-5.375-14.253-8.228-.289-5.672 9.048-2.318 8.054 3.354-.995 1.535 4.636-2.642 3.056s-5.767-5.685-4.918-9.694c.848-4.01 3.767-6.428 9.612-6.862 5.845-.433 13.098 5.425 13.405 19.165 6.715 2.052 25.714-45.314 5.124-48.773-12.099-2.128-8.837 10.691-3.624 7.393 3.471-2.197 5.66 5.235-1.405 6.312-.806.123-3.411-.22-5.803-2.114-9.566-7.579-2.278-19.789 8.666-19.549s19.02 6.827 21.486 18.74c2.494 12.054 2.806 24.505 1.472 37.255 5.005-4.865 9.292-12.602 13.253-21.646 1.516 14.234 1.553 28.469-2.504 42.702 7.067-7.64 11.534-19.038 15.462-31.216 2.629 17.768 2.005 35.537-4.418 53.304 5.669-3.526 8.28-9.193 10.455-15.167 1.563 18.55-2.63 35.975-17.081 51.39q7.375-.694 12.663-7.657c-1.98 13.74-8.841 23.276-18.828 29.354 2.405 1.518 4.937.295 7.343-1.67q-2.885 11.526-12.56 13.652c-14.415 5.286-30.323 3.49-46.965 2.393-3.828.964-5.305 2.648-8.916 4.703s-5.676 4.147-3.35 7.59 6.794 1.021 7.104-1.052z" style="fill:#fee706;fill-rule:evenodd;stroke:#0d2585;stroke-width:2.4999001;stroke-linecap:butt;stroke-linejoin:miter;stroke-dasharray:none"></path><path d="M341.984 342.114c5.01-3.883 8.833-7.063 12.12-12.513 2.844-4.714 3.284-11.569-1.173-15.414-6.713-5.792-14.998-13.429-23.369-25.283-4.825-6.834-5.384-14.305-.876-21.849 5.393-9.024 13.702-15.308 21.483-21.817 2.373 8.085.398 16.962-3.803 26.494 7.532-2.127 11.605-5.915 14.228-9.077.97 7.903-.11 15.759-3.557 23.55" style="fill:none;stroke:#0d2585;stroke-width:2.4999001;stroke-linecap:butt;stroke-linejoin:miter;stroke-dasharray:none"></path><path d="M388.949 339.721c-5.405.45-10.43.235-14.9-.953 2.678-3.995 2.273-7.99 1.427-11.986q-4.03 5.037-12.272 6.564c4.685-4.419 5.71-11.034 5.708-18.265-3.596 3.545-6.85 8.865-11.616 9.836 6.42-7.088 7.133-17.64 6.764-24.962-2.84 4.61-5.267 7.7-9.745 10.437 2.284-6.365 4.618-11.643 2.325-18.999-4.564 7.158-6.77 7.967-11.335 11.092 4.528-11.36 4.393-18.179 1.917-22.793-1.82 5.452-2.887 7.083-9.588 12.09 5.175-8.946 4.633-15.195 3.595-26.36-4.9 5.41-9.98 8.657-15.324 8.742M394.166 327.74c-1.705.067-3.224-.57-4.88-.807 3.633-4.998 5.677-10.095 4.891-15.37-3.98 2.46-8.844 3.857-14.205 4.658 5.689-5.054 7.934-11.747 7.824-19.563-3.09 4.201-7.558 7.651-13.686 10.195 6.341-8.333 9.512-16.666 10.055-25-5.148 6.734-11.353 11.807-18.435 15.503 5.438-8.996 7.75-18.242 6.285-27.792-1.877 4.646-4.427 8.17-7.96 10.055" style="fill:none;stroke:#0d2585;stroke-width:2.4999001;stroke-linecap:butt;stroke-linejoin:miter;stroke-dasharray:none"></path><path d="M400.33 306.042c-1.912 2.14-3.979 3.945-6.153 5.521M395.341 300.619c6.084-5.705 7.97-13.276 6.986-22.123-3.753 5.92-8.794 10.337-14.903 13.507 6.222-11.173 10.723-22.432 9.082-33.999-2.725 5.735-5.787 11.065-10.48 14.438M380.305 268.935c3.755-6.625 4.54-15.95 3.976-26.505-4.123 9.327-10.111 15.855-17.376 20.468 7.265-14.393 10.701-30.223 8.54-48.15-2.294 7.681-5.705 13.768-10.749 17.522" style="fill:none;stroke:#0d2585;stroke-width:2.4999001;stroke-linecap:butt;stroke-linejoin:miter;stroke-dasharray:none"></path><path d="M290.438 348.677a24.81 24.81 0 0 1 24.811 24.811 24.811 24.811 0 1 1-24.81-24.81z" style="fill:#fee706;fill-rule:evenodd;stroke:#0d2585;stroke-width:2.4999001;stroke-linecap:butt;stroke-linejoin:miter;stroke-dasharray:none"></path><path d="M311.653 360.618c-7.913 2.102-15.372 5.382-21.215 12.87-1.435 8.27-1.047 16.54 0 24.812" style="fill:none;stroke:#0d2585;stroke-width:2.4999001;stroke-linecap:butt;stroke-linejoin:miter;stroke-dasharray:none"></path><path d="M290.438 373.489c-8.205-4.253-16.301-7.075-24.093-5.946M280.615 350.7c10.326 3.175 15.609 6.807 19.303 14.535M314.021 381.22c-8.962-2.359-13.993 3.881-16.336 16.004" style="fill:none;stroke:#0d2585;stroke-width:2.4999001;stroke-linecap:butt;stroke-linejoin:miter;stroke-dasharray:none"></path><path d="M270.764 388.605c3.195-2.559 7.024-3.723 11.287-3.934l.118-14.904" style="fill:none;stroke:#0d2585;stroke-width:2.4999001;stroke-linecap:butt;stroke-linejoin:miter;stroke-dasharray:none"></path><path d="M282.051 384.67c2.796.692 4.731 1.626 7.527 3.84" style="fill:none;stroke:#0d2585;stroke-width:2.4999001;stroke-linecap:butt;stroke-linejoin:miter;stroke-dasharray:none"></path><path d="m323.73 375.623 1.364 1.684 23.09-7.768-1.947-9.078c-6.71-.42-14.649 8.702-22.507 15.161z" style="fill:#fee706;fill-rule:evenodd;stroke:#102a83;stroke-width:2.4999001;stroke-linecap:butt;stroke-linejoin:miter;stroke-dasharray:none"></path><path d="M312.477 410.217c7.733-.08 15.254-.87 22.015-4.194 7.728-8.265 15.393-16.9 24.112-19.22 1.534-2.395 2.055-4.993.35-8.037-6.512-6.29-9.867-9.358-11.843-15.648-1.8 5.358-8.723 7.495-23.801 12.852l-.35 10.833-17.472 13.28c-3.319 4.107.266 7.323 6.989 10.134z" style="fill:#fee706;fill-rule:evenodd;stroke:#102a83;stroke-width:2.4999001;stroke-linecap:butt;stroke-linejoin:miter;stroke-dasharray:none"></path><path d="m345.407 394.869-18.937.746.762-7.877-4.272-.935M327.232 387.738l6.417-16.01M331.604 376.831l-8.37 1.506M329.9 381.08l-6.765.307M328.338 384.979l-5.314-.172M314.224 393.443c2.348 4.266 6.567 6.952 11.483 7.255M345.529 372.745a5.59 5.59 0 0 0-5.59 5.59 5.59 5.59 0 1 0 5.59-5.59z" style="fill:none;stroke:#102a83;stroke-width:2.4999001;stroke-linecap:butt;stroke-linejoin:miter;stroke-dasharray:none"></path><path d="m257.146 375.623-1.363 1.684-23.09-7.768 1.947-9.078c6.71-.42 14.649 8.702 22.506 15.161z" style="fill:#fee706;fill-rule:evenodd;stroke:#0d2585;stroke-width:2.4999001;stroke-linecap:butt;stroke-linejoin:miter;stroke-dasharray:none"></path><path d="M268.4 410.217c-7.733-.08-15.254-.87-22.015-4.194-7.728-8.265-15.393-16.9-24.113-19.22-1.533-2.395-2.055-4.993-.35-8.037 6.513-6.29 9.868-9.358 11.844-15.648 1.8 5.358 8.723 7.495 23.8 12.852q.176 5.418.35 10.833l17.473 13.28c3.318 4.107-.267 7.323-6.989 10.134z" style="fill:#fee706;fill-rule:evenodd;stroke:#0d2585;stroke-width:2.4999001;stroke-linecap:butt;stroke-linejoin:miter;stroke-dasharray:none"></path><path d="m235.47 394.869 18.937.746-.762-7.877 4.271-.935M253.645 387.738l-6.417-16.01M249.273 376.831l8.37 1.506M250.976 381.08l6.766.307M252.539 384.979l5.313-.172M266.653 393.443c-2.348 4.266-6.568 6.952-11.484 7.255M235.348 372.745a5.59 5.59 0 0 1 5.59 5.59 5.59 5.59 0 1 1-5.59-5.59zM221.947 387.164l-1.25 1.387M228.324 389.615l-2.054 1.908M246.385 406.023l-1.452 2.05M252.995 408.47l-1.618 2.236M260.744 410.426l-1.267 2.259M265.962 410.166l-1.527 2.41" style="fill:none;stroke:#0d2585;stroke-width:2.4999001;stroke-linecap:butt;stroke-linejoin:miter;stroke-dasharray:none"></path><path d="m323.73 375.623 1.364 1.684 23.09-7.768-1.947-9.078c-6.71-.42-14.649 8.702-22.507 15.161z" style="fill:#fee706;fill-rule:evenodd;stroke:#0d2585;stroke-width:2.4999001;stroke-linecap:butt;stroke-linejoin:miter;stroke-dasharray:none"></path><path d="M312.477 410.217c7.733-.08 15.254-.87 22.015-4.194 7.728-8.265 15.393-16.9 24.112-19.22 1.534-2.395 2.055-4.993.35-8.037-6.512-6.29-9.867-9.358-11.843-15.648-1.8 5.358-8.723 7.495-23.801 12.852l-.35 10.833-17.472 13.28c-3.319 4.107.266 7.323 6.989 10.134z" style="fill:#fee706;fill-rule:evenodd;stroke:#0d2585;stroke-width:2.4999001;stroke-linecap:butt;stroke-linejoin:miter;stroke-dasharray:none"></path><path d="m345.407 394.869-18.937.746.762-7.877-4.272-.935M327.232 387.738l6.417-16.01M331.604 376.831l-8.37 1.506M329.9 381.08l-6.765.307M328.338 384.979l-5.314-.172M314.224 393.443c2.348 4.266 6.567 6.952 11.483 7.255M345.529 372.745a5.59 5.59 0 0 0-5.59 5.59 5.59 5.59 0 1 0 5.59-5.59zM358.93 387.164l1.249 1.387M352.552 389.615l2.054 1.908M334.492 406.023l1.452 2.05M327.882 408.47l1.618 2.236M320.133 410.426l1.267 2.259M314.915 410.166l1.527 2.41" style="fill:none;stroke:#0d2585;stroke-width:2.4999001;stroke-linecap:butt;stroke-linejoin:miter;stroke-dasharray:none"></path><path d="m244.709 325.837 45.574 18.26 45.885-18.26-20.848-23.162-.504-46.42 7.894-1.55-6.717-18.07-8.787 2.765-13.726-77.054-1.692-34.146h-3.162l-1.91 34.146-13.419 77.27-8.444-2.98-6.747 18.033 8.091 1.52-.3 46.486z" style="fill:#fee706;fill-rule:evenodd;stroke:#0d2585;stroke-width:2.4999001;stroke-linecap:butt;stroke-linejoin:miter;stroke-dasharray:none"></path><path d="M290.283 344.097V128.2M264.853 236.636c16.716 7.257 33.801 6.403 51.14 0M281.867 241.307l.05-51.624M298.383 240.939l.05-51.624" style="fill:none;stroke:#0d2585;stroke-width:2.4999001;stroke-linecap:butt;stroke-linejoin:miter;stroke-dasharray:none"></path><path d="M290.283 162.738a8.855 8.855 0 0 1 8.855 8.855 8.855 8.855 0 1 1-8.855-8.855z" style="fill:#0d2585;fill-rule:evenodd;stroke:#0d2585;stroke-width:2.4999001;stroke-linecap:butt;stroke-linejoin:miter;stroke-dasharray:none"></path><path d="M258.106 254.67c21.535 4.586 43.069 4.892 64.604.034M265.897 302.675l24.386 12.349 25.037-12.349" style="fill:none;stroke:#0d2585;stroke-width:2.4999001;stroke-linecap:butt;stroke-linejoin:miter;stroke-dasharray:none"></path><path d="m255.303 314.256 34.98 14.352 35.461-14.352" style="fill:none;stroke:#0d2585;stroke-width:2.4999001;stroke-linecap:butt;stroke-linejoin:miter;stroke-dasharray:none"></path><path d="m250.268 319.76 40.015 16.84 40.22-17.057" style="fill:none;stroke:#0d2585;stroke-width:2.4999001;stroke-linecap:butt;stroke-linejoin:miter;stroke-dasharray:none"></path><path d="m260.77 308.279 29.754 13.153 30.144-12.816" style="fill:none;stroke:#0d2585;stroke-width:2.4999001;stroke-linecap:butt;stroke-linejoin:miter;stroke-dasharray:none"></path><path d="M287.662 276.619v18.87h5.242v-18.87z" style="fill:#0d2585;fill-rule:evenodd;stroke:#0d2585;stroke-width:2.4999001;stroke-linecap:butt;stroke-linejoin:miter;stroke-dasharray:none"></path><path d="m265.986 288.935 21.676 6.554M292.904 295.49l22.254-7.736M265.935 296.76l24.348 8.773 24.968-9.255M276.824 292.212l.038 16.016M304.031 291.622l-.006 16.624" style="fill:none;stroke:#0d2585;stroke-width:2.4999001;stroke-linecap:butt;stroke-linejoin:miter;stroke-dasharray:none"></path><path d="M308.784 260.893v15.376h5.941v-15.376zM266.125 260.893v15.376h5.941v-15.376z" style="fill:#0d2585;fill-rule:evenodd;stroke:#0d2585;stroke-width:2.4999001;stroke-linecap:butt;stroke-linejoin:miter;stroke-dasharray:none"></path><path d="m273.298 239.616-4.114 17.03M307.206 239.4l2.718 17.588M298.383 240.939l.036 17.102M281.867 241.307l-1.138 16.568M277.373 240.581l-1.866 16.846M286.075 241.676l-.424 16.457M294.063 241.594l.3 16.597M303.322 240.3l1.863 17.235M311.6 238.018l3.57 18.168M269.075 238.126l-3.376 17.97M280.73 257.875l-1.776 34.981M298.419 258.04l2.212 34.763M305.185 257.535l2.825 32.703M275.507 257.427l-4.239 33.105M280.73 257.875l6.932 18.744M298.419 258.04l-5.515 18.579" style="fill:none;stroke:#0d2585;stroke-width:2.4999001;stroke-linecap:butt;stroke-linejoin:miter;stroke-dasharray:none"></path><path d="M290.283 125.603a2.597 2.597 0 0 1 2.597 2.597 2.597 2.597 0 1 1-2.597-2.597z" style="fill:#0d2585;fill-rule:evenodd;stroke:#0d2585;stroke-width:2.4999001;stroke-linecap:butt;stroke-linejoin:miter;stroke-dasharray:none"></path><path d="m207.726 131.905 12.892-13.824c2.805-3.008 5.623-4.598 8.454-4.757 2.826-.166 5.57.988 8.208 3.448 2.72 2.536 4.084 5.331 4.089 8.393q.005 4.592-4.684 9.621l-4.243 4.55 9.99 9.314-7.79 8.354zm19.264 2.347 1.9-2.037c1.496-1.604 2.266-2.983 2.316-4.155.044-1.165-.367-2.158-1.231-2.964-.847-.789-1.83-1.179-2.939-1.159-1.11.008-2.391.793-3.84 2.347l-2.21 2.37zm28.775-15.514 10.216-3.634c.707 1.625 1.537 2.778 2.484 3.469 1.53 1.112 3.348 1.357 5.44.757 1.557-.446 2.656-1.153 3.294-2.13q.945-1.46.53-2.906c-.262-.914-.893-1.625-1.909-2.118-1.014-.493-3.072-.643-6.188-.445-5.103.296-8.93-.15-11.485-1.35-2.572-1.198-4.254-3.176-5.047-5.943-.522-1.82-.488-3.693.103-5.61.591-1.916 1.81-3.638 3.659-5.176q2.778-2.294 8.3-3.878 6.786-1.945 11.069-.446c2.854 1 5.03 3.273 6.534 6.809l-10.132 3.556q-1.092-2.27-2.726-2.98c-1.079-.467-2.394-.482-3.934-.04-1.276.366-2.156.903-2.643 1.631q-.733 1.081-.399 2.245.24.838 1.225 1.289c.654.32 1.995.4 4.047.248 5.072-.34 8.79-.275 11.16.187 2.37.461 4.25 1.33 5.638 2.626 1.385 1.288 2.364 2.897 2.919 4.833.65 2.265.615 4.539-.09 6.809q-1.052 3.414-4.013 5.866c-1.965 1.633-4.665 2.942-8.092 3.924-6.012 1.725-10.51 1.766-13.491.107q-4.477-2.47-6.469-7.7m52.453-30.758 10.954 3.14-10.144 35.377-10.954-3.142zm34.17 12.386 11.118 10.01-10.69 20.503 19.255-12.79 11.08 9.976-24.626 27.348-6.902-6.215 18.777-20.854-24.132 16.032-6.247-5.624 13.44-25.659-18.776 20.854-6.922-6.232z" style="fill:#ffff01;fill-rule:evenodd"></path><path d="m272.77 134.139 7.765 6.212m-20.188 6.212 15.219 11.18m-24.226 2.175 20.499 13.356M308.106 133.222l-7.765 6.212m20.189 6.211-15.22 11.182M329.538 159l-20.5 13.355" style="fill:none;stroke:#fee706;stroke-width:2.9999001;stroke-linecap:butt;stroke-linejoin:miter;stroke-dasharray:none"></path><path d="M236.707 428.295s8.102-7.235 13.06-8.842c7.013-2.09 11.003 4.983 11.003 4.983s-8.222 7.074-13.18 8.682c-7.013 2.25-10.883-4.823-10.883-4.823z" style="fill:#ffec00;fill-rule:evenodd;stroke:#06579d;stroke-width:1.96759999;stroke-linecap:butt;stroke-linejoin:miter;stroke-dasharray:none"></path><path d="M247.47 433.439s7.617-8.038 12.454-9.967c6.892-2.894 11.245 3.697 11.245 3.697s-7.618 8.038-12.575 10.128c-6.772 2.894-11.125-3.858-11.125-3.858z" style="fill:#ffec00;fill-rule:evenodd;stroke:#06579d;stroke-width:1.96759999;stroke-linecap:butt;stroke-linejoin:miter;stroke-dasharray:none"></path><path d="M258.594 437.297s7.255-8.68 11.97-11.092c6.65-3.537 11.367 2.572 11.367 2.572s-7.134 8.681-11.971 11.253c-6.65 3.537-11.367-2.733-11.367-2.733z" style="fill:#ffec00;fill-rule:evenodd;stroke:#06579d;stroke-width:1.96759999;stroke-linecap:butt;stroke-linejoin:miter;stroke-dasharray:none"></path><path d="M269.96 440.03s6.65-9.485 11.124-12.54c6.53-4.18 11.608 1.448 11.608 1.448s-6.65 9.485-11.245 12.54c-6.409 4.34-11.487-1.448-11.487-1.448z" style="fill:#ffec00;fill-rule:evenodd;stroke:#06579d;stroke-width:1.96759999;stroke-linecap:butt;stroke-linejoin:miter;stroke-dasharray:none"></path><path d="M281.326 441.799s6.167-10.128 10.52-13.665c6.167-4.823 11.487.321 11.487.321s-6.046 10.128-10.399 13.665c-6.167 4.823-11.608-.321-11.608-.321z" style="fill:#ffec00;fill-rule:evenodd;stroke:#06579d;stroke-width:1.96759999;stroke-linecap:butt;stroke-linejoin:miter;stroke-dasharray:none"></path><path d="M293.176 441.96s5.441-10.772 9.553-14.79c5.804-5.627 11.487-1.126 11.487-1.126s-5.32 10.771-9.553 14.79c-5.804 5.627-11.487 1.125-11.487 1.125z" style="fill:#ffec00;fill-rule:evenodd;stroke:#06579d;stroke-width:1.96759999;stroke-linecap:butt;stroke-linejoin:miter;stroke-dasharray:none"></path><path d="M304.784 441.156s4.837-11.415 8.706-15.755c5.442-6.11 11.367-2.25 11.367-2.25s-4.716 11.253-8.586 15.754c-5.44 6.109-11.487 2.25-11.487 2.25z" style="fill:#ffec00;fill-rule:evenodd;stroke:#06579d;stroke-width:1.96759999;stroke-linecap:butt;stroke-linejoin:miter;stroke-dasharray:none"></path><path d="M316.15 439.066s4.112-11.897 7.74-16.72c5.078-6.59 11.245-3.376 11.245-3.376s-4.112 11.736-7.618 16.559c-5.079 6.752-11.366 3.537-11.366 3.537z" style="fill:#ffec00;fill-rule:evenodd;stroke:#06579d;stroke-width:1.96759999;stroke-linecap:butt;stroke-linejoin:miter;stroke-dasharray:none"></path><path d="M327.154 435.85s3.386-12.218 6.65-17.362c4.716-7.395 11.004-4.823 11.004-4.823s-3.265 12.218-6.53 17.363c-4.715 7.395-11.124 4.822-11.124 4.822z" style="fill:#ffec00;fill-rule:evenodd;stroke:#06579d;stroke-width:1.96759999;stroke-linecap:butt;stroke-linejoin:miter;stroke-dasharray:none"></path><path d="M338.4 431.188s2.539-12.54 5.562-18.005c4.11-7.877 10.64-5.948 10.64-5.948s-2.539 12.54-5.562 18.005c-4.232 7.717-10.64 5.948-10.64 5.948z" style="fill:#ffec00;fill-rule:evenodd;stroke:#06579d;stroke-width:1.96759999;stroke-linecap:butt;stroke-linejoin:miter;stroke-dasharray:none"></path><path d="M348.92 425.722s1.934-12.86 4.594-18.648c3.749-8.038 10.278-6.913 10.278-6.913s-1.814 12.7-4.474 18.488c-3.748 8.199-10.399 7.073-10.399 7.073z" style="fill:#ffec00;fill-rule:evenodd;stroke:#06579d;stroke-width:1.96759999;stroke-linecap:butt;stroke-linejoin:miter;stroke-dasharray:none"></path><path d="M359.44 418.649s.966-12.861 3.264-18.97c3.265-8.52 9.794-8.2 9.794-8.2s-.967 13.023-3.265 18.97c-3.143 8.682-9.794 8.2-9.794 8.2z" style="fill:#ffec00;fill-rule:evenodd;stroke:#06579d;stroke-width:1.96759999;stroke-linecap:butt;stroke-linejoin:miter;stroke-dasharray:none"></path><path d="M369.475 410.61s.242-13.021 2.056-19.29c2.66-8.843 9.31-9.164 9.31-9.164s-.241 13.021-2.055 19.291c-2.66 8.842-9.31 9.164-9.31 9.164z" style="fill:#ffec00;fill-rule:evenodd;stroke:#06579d;stroke-width:1.96759999;stroke-linecap:butt;stroke-linejoin:miter;stroke-dasharray:none"></path><path d="M378.907 401.447s-.484-13.022.967-19.452c2.177-9.003 8.827-9.967 8.827-9.967s.484 12.86-1.088 19.452c-2.056 9.003-8.706 9.967-8.706 9.967z" style="fill:#ffec00;fill-rule:evenodd;stroke:#06579d;stroke-width:1.96759999;stroke-linecap:butt;stroke-linejoin:miter;stroke-dasharray:none"></path><path d="M387.855 391.32s-1.33-12.862-.242-19.453c1.572-9.325 8.102-11.093 8.102-11.093s1.33 12.861.241 19.613c-1.572 9.325-8.101 10.932-8.101 10.932z" style="fill:#ffec00;fill-rule:evenodd;stroke:#06579d;stroke-width:1.96759999;stroke-linecap:butt;stroke-linejoin:miter;stroke-dasharray:none"></path><path d="M396.198 380.227s-2.176-12.7-1.45-19.292c.966-9.485 7.375-11.897 7.375-11.897s2.056 12.7 1.451 19.292c-.967 9.485-7.376 11.897-7.376 11.897z" style="fill:#ffec00;fill-rule:evenodd;stroke:#06579d;stroke-width:1.96759999;stroke-linecap:butt;stroke-linejoin:miter;stroke-dasharray:none"></path><path d="M403.695 368.33s-2.902-12.379-2.54-19.13c.485-9.486 6.651-12.54 6.651-12.54s2.902 12.378 2.54 19.13c-.363 9.646-6.65 12.54-6.65 12.54z" style="fill:#ffec00;fill-rule:evenodd;stroke:#06579d;stroke-width:1.96759999;stroke-linecap:butt;stroke-linejoin:miter;stroke-dasharray:none"></path><path d="M410.467 355.79s-3.507-12.057-3.628-18.809c-.12-9.646 5.925-13.182 5.925-13.182s3.628 12.057 3.628 18.809c.241 9.485-5.925 13.182-5.925 13.182z" style="fill:#ffec00;fill-rule:evenodd;stroke:#06579d;stroke-width:1.96759999;stroke-linecap:butt;stroke-linejoin:miter;stroke-dasharray:none"></path><path d="M416.392 342.769s-4.233-11.575-4.716-18.327c-.605-9.485 5.2-13.826 5.2-13.826s4.231 11.736 4.715 18.488c.726 9.485-5.2 13.665-5.2 13.665z" style="fill:#ffec00;fill-rule:evenodd;stroke:#06579d;stroke-width:1.96759999;stroke-linecap:butt;stroke-linejoin:miter;stroke-dasharray:none" data-source="https://football-logos.cc"></path><path d="M421.591 329.425s-4.958-11.092-5.925-17.844c-1.33-9.325 4.111-14.308 4.111-14.308s5.079 11.092 6.046 17.844c1.33 9.325-4.232 14.308-4.232 14.308zM432.11 285.859s-6.892-9.325-8.947-15.434c-3.023-8.842 1.45-15.272 1.45-15.272s6.893 9.163 8.949 15.433c3.023 8.681-1.451 15.273-1.451 15.273z" style="fill:#ffec00;fill-rule:evenodd;stroke:#06579d;stroke-width:1.96759999;stroke-linecap:butt;stroke-linejoin:miter;stroke-dasharray:none"></path><path d="M425.944 315.117s-5.683-10.61-7.013-17.04c-1.814-9.325 3.265-14.79 3.265-14.79s5.683 10.61 7.013 17.04c1.934 9.324-3.265 14.79-3.265 14.79z" style="fill:#ffec00;fill-rule:evenodd;stroke:#06579d;stroke-width:1.96759999;stroke-linecap:butt;stroke-linejoin:miter;stroke-dasharray:none"></path><path d="M434.53 278.383q.003-.627.073-1.228-.017.631-.073 1.228z" style="fill:#ffec00;fill-rule:evenodd;stroke:#06579d;stroke-width:2.0000999;stroke-linecap:butt;stroke-linejoin:miter;stroke-dasharray:none"></path><path d="M429.45 300.488s-6.287-9.806-7.98-16.237c-2.418-9.003 2.297-15.112 2.297-15.112s6.41 9.967 8.102 16.398c2.418 8.842-2.418 14.951-2.418 14.951zM433.804 270.747s-7.497-8.36-9.916-14.308c-3.506-8.36.484-15.433.484-15.433s7.497 8.36 9.915 14.308c3.507 8.36-.483 15.433-.483 15.433z" style="fill:#ffec00;fill-rule:evenodd;stroke:#06579d;stroke-width:1.96759999;stroke-linecap:butt;stroke-linejoin:miter;stroke-dasharray:none"></path><path d="M434.408 254.992s-7.86-7.716-10.64-13.343c-3.99-8.038-.363-15.273-.363-15.273s7.86 7.556 10.64 13.344c3.99 7.877.363 15.272.363 15.272z" style="fill:#ffec00;fill-rule:evenodd;stroke:#06579d;stroke-width:1.96759999;stroke-linecap:butt;stroke-linejoin:miter;stroke-dasharray:none"></path><path d="M434.166 239.559s-8.343-6.752-11.487-12.218c-4.353-7.395-1.209-15.273-1.209-15.273s8.343 6.752 11.487 12.218c4.353 7.395 1.21 15.273 1.21 15.273z" style="fill:#ffec00;fill-rule:evenodd;stroke:#06579d;stroke-width:1.96759999;stroke-linecap:butt;stroke-linejoin:miter;stroke-dasharray:none"></path><path d="M433.078 224.286s-8.706-5.787-12.212-10.77c-4.837-7.074-2.177-15.112-2.177-15.112s8.706 5.787 12.213 10.77c4.836 7.074 2.176 15.112 2.176 15.112z" style="fill:#ffec00;fill-rule:evenodd;stroke:#06579d;stroke-width:1.96759999;stroke-linecap:butt;stroke-linejoin:miter;stroke-dasharray:none"></path><path d="M431.144 209.175s-9.07-4.823-12.818-9.485c-5.32-6.43-3.144-14.79-3.144-14.79s9.07 4.983 12.818 9.484c5.32 6.431 3.144 14.79 3.144 14.79z" style="fill:#ffec00;fill-rule:evenodd;stroke:#06579d;stroke-width:1.96759999;stroke-linecap:butt;stroke-linejoin:miter;stroke-dasharray:none"></path><path d="M427.879 193.902s-9.311-4.019-13.301-8.199c-5.562-5.948-3.99-14.468-3.99-14.468s9.31 4.019 13.421 8.198c5.563 5.949 3.87 14.47 3.87 14.47z" style="fill:#ffec00;fill-rule:evenodd;stroke:#06579d;stroke-width:1.96759999;stroke-linecap:butt;stroke-linejoin:miter;stroke-dasharray:none"></path><path d="M423.888 179.112s-9.431-3.054-13.663-6.752c-6.046-5.305-4.837-13.987-4.837-13.987s9.432 2.894 13.785 6.753c5.925 5.305 4.715 13.986 4.715 13.986z" style="fill:#ffec00;fill-rule:evenodd;stroke:#06579d;stroke-width:1.96759999;stroke-linecap:butt;stroke-linejoin:miter;stroke-dasharray:none"></path><path d="M419.052 164.804s-9.553-1.93-14.027-5.305c-6.287-4.502-5.683-13.344-5.683-13.344s9.553 1.93 14.026 5.145c6.41 4.662 5.684 13.504 5.684 13.504z" style="fill:#ffec00;fill-rule:evenodd;stroke:#06579d;stroke-width:1.96759999;stroke-linecap:butt;stroke-linejoin:miter;stroke-dasharray:none"></path><path d="M413.006 150.818s-9.674-.804-14.39-3.698c-6.529-3.858-6.529-12.7-6.529-12.7s9.794.964 14.39 3.697c6.65 3.859 6.529 12.7 6.529 12.7z" style="fill:#ffec00;fill-rule:evenodd;stroke:#06579d;stroke-width:1.96759999;stroke-linecap:butt;stroke-linejoin:miter;stroke-dasharray:none"></path><path d="M406.718 137.796s-9.794.321-14.631-1.93c-6.771-3.054-7.255-11.896-7.255-11.896s9.794-.321 14.631 1.93c6.771 3.215 7.255 11.896 7.255 11.896z" style="fill:#ffec00;fill-rule:evenodd;stroke:#06579d;stroke-width:1.96759999;stroke-linecap:butt;stroke-linejoin:miter;stroke-dasharray:none"></path><path d="M399.221 125.578s-9.673 1.286-14.63-.482c-6.893-2.573-7.982-11.254-7.982-11.254s9.795-1.286 14.753.483c6.892 2.572 7.86 11.253 7.86 11.253z" style="fill:#ffec00;fill-rule:evenodd;stroke:#06579d;stroke-width:1.96759999;stroke-linecap:butt;stroke-linejoin:miter;stroke-dasharray:none"></path><path d="M390.999 114.003s-9.553 2.411-14.631 1.125c-7.014-1.607-8.586-10.128-8.586-10.128s9.553-2.411 14.631-1.286c7.135 1.608 8.586 10.289 8.586 10.289z" style="fill:#ffec00;fill-rule:evenodd;stroke:#06579d;stroke-width:1.96759999;stroke-linecap:butt;stroke-linejoin:miter;stroke-dasharray:none"></path><path d="M381.93 103.393s-9.553 3.054-14.631 2.411c-7.134-1.125-9.07-9.485-9.07-9.485s9.433-3.215 14.511-2.411c7.134.964 9.19 9.485 9.19 9.485z" style="fill:#ffec00;fill-rule:evenodd;stroke:#06579d;stroke-width:1.96759999;stroke-linecap:butt;stroke-linejoin:miter;stroke-dasharray:none"></path><path d="M372.377 93.425s-9.19 4.502-14.268 4.502c-7.134 0-9.794-8.039-9.794-8.039s9.19-4.662 14.268-4.662c7.134 0 9.794 8.2 9.794 8.2z" style="fill:#ffec00;fill-rule:evenodd;stroke:#06579d;stroke-width:1.96759999;stroke-linecap:butt;stroke-linejoin:miter;stroke-dasharray:none"></path><path d="M362.946 85.226s-8.827 5.466-13.906 5.949c-7.255.803-10.278-6.913-10.278-6.913s8.827-5.466 13.906-6.11c7.134-.803 10.278 7.074 10.278 7.074z" style="fill:#ffec00;fill-rule:evenodd;stroke:#06579d;stroke-width:1.96759999;stroke-linecap:butt;stroke-linejoin:miter;stroke-dasharray:none"></path><path d="M352.668 78.153s-8.464 6.27-13.543 7.395c-7.134 1.447-10.64-6.11-10.64-6.11s8.463-6.269 13.542-7.394c7.134-1.447 10.64 6.109 10.64 6.109z" style="fill:#ffec00;fill-rule:evenodd;stroke:#06579d;stroke-width:1.96759999;stroke-linecap:butt;stroke-linejoin:miter;stroke-dasharray:none"></path><path d="M342.632 72.044s-8.102 7.234-13.06 8.842c-7.013 2.25-11.003-4.823-11.003-4.823s8.101-7.235 13.059-8.842c7.013-2.25 11.004 4.823 11.004 4.823z" style="fill:#ffec00;fill-rule:evenodd;stroke:#06579d;stroke-width:1.96759999;stroke-linecap:butt;stroke-linejoin:miter;stroke-dasharray:none"></path><path d="M331.265 67.06s-7.618 8.038-12.454 10.128c-6.893 3.055-11.246-3.537-11.246-3.537s7.618-8.038 12.455-10.288c6.771-2.894 11.245 3.697 11.245 3.697z" style="fill:#ffec00;fill-rule:evenodd;stroke:#06579d;stroke-width:1.96759999;stroke-linecap:butt;stroke-linejoin:miter;stroke-dasharray:none"></path><path d="M319.536 63.202s-7.134 9.003-11.85 11.575c-6.65 3.697-11.487-2.412-11.487-2.412s7.134-8.842 11.85-11.575c6.65-3.697 11.487 2.412 11.487 2.412z" style="fill:#ffec00;fill-rule:evenodd;stroke:#06579d;stroke-width:1.96759999;stroke-linecap:butt;stroke-linejoin:miter;stroke-dasharray:none"></path><path d="M308.049 60.63s-6.53 9.645-11.004 12.86c-6.408 4.341-11.487-1.125-11.487-1.125s6.53-9.645 11.004-12.86c6.408-4.341 11.487 1.125 11.487 1.125zM258.956 64.649s-4.353 11.735-7.98 16.398c-5.2 6.59-11.367 3.215-11.367 3.215s4.353-11.736 7.981-16.398c5.2-6.591 11.366-3.215 11.366-3.215z" style="fill:#ffec00;fill-rule:evenodd;stroke:#06579d;stroke-width:1.96759999;stroke-linecap:butt;stroke-linejoin:miter;stroke-dasharray:none"></path><path d="M295.957 59.504s-5.925 10.29-10.157 13.826c-6.167 5.144-11.608.16-11.608.16s5.925-10.288 10.278-13.986c6.046-4.983 11.487 0 11.487 0z" style="fill:#ffec00;fill-rule:evenodd;stroke:#06579d;stroke-width:1.96759999;stroke-linecap:butt;stroke-linejoin:miter;stroke-dasharray:none"></path><path d="M283.986 59.665s-5.32 10.771-9.431 14.79c-5.804 5.788-11.608 1.286-11.608 1.286s5.32-10.77 9.431-14.95c5.804-5.627 11.608-1.126 11.608-1.126z" style="fill:#ffec00;fill-rule:evenodd;stroke:#06579d;stroke-width:1.96759999;stroke-linecap:butt;stroke-linejoin:miter;stroke-dasharray:none"></path><path d="M271.532 61.273s-4.837 11.253-8.706 15.594c-5.563 6.109-11.488 2.25-11.488 2.25s4.837-11.414 8.707-15.754c5.562-6.11 11.487-2.09 11.487-2.09zM246.018 69.472s-3.507 12.057-6.892 17.201c-4.837 7.074-11.125 4.34-11.125 4.34s3.507-12.217 7.013-17.2c4.716-7.074 11.004-4.341 11.004-4.341zM222.802 81.85s-1.21 12.861-3.507 18.81c-3.385 8.52-9.915 7.877-9.915 7.877s1.088-12.861 3.506-18.81c3.265-8.52 9.916-7.877 9.916-7.877z" style="fill:#ffec00;fill-rule:evenodd;stroke:#06579d;stroke-width:1.96759999;stroke-linecap:butt;stroke-linejoin:miter;stroke-dasharray:none"></path><path d="M212.645 90.05s-.484 12.86-2.54 19.13c-2.902 8.842-9.431 8.842-9.431 8.842s.483-13.022 2.418-19.291c2.902-8.682 9.553-8.682 9.553-8.682z" style="fill:#ffec00;fill-rule:evenodd;stroke:#06579d;stroke-width:1.96759999;stroke-linecap:butt;stroke-linejoin:miter;stroke-dasharray:none"></path><path d="M202.73 99.213s.362 13.022-1.33 19.452c-2.298 9.003-8.828 9.807-8.828 9.807s-.362-12.861 1.21-19.453c2.297-9.002 8.947-9.806 8.947-9.806z" style="fill:#ffec00;fill-rule:evenodd;stroke:#06579d;stroke-width:1.96759999;stroke-linecap:butt;stroke-linejoin:miter;stroke-dasharray:none"></path><path d="M193.54 109.502s1.209 12.86 0 19.452c-1.693 9.324-8.102 10.771-8.102 10.771s-1.33-12.861-.12-19.452c1.692-9.325 8.222-10.771 8.222-10.771z" style="fill:#ffec00;fill-rule:evenodd;stroke:#06579d;stroke-width:1.96759999;stroke-linecap:butt;stroke-linejoin:miter;stroke-dasharray:none"></path><path d="M185.196 120.273s2.056 12.7 1.33 19.452c-.967 9.324-7.376 11.736-7.376 11.736s-2.055-12.7-1.33-19.453c.968-9.485 7.376-11.735 7.376-11.735z" style="fill:#ffec00;fill-rule:evenodd;stroke:#06579d;stroke-width:1.96759999;stroke-linecap:butt;stroke-linejoin:miter;stroke-dasharray:none"></path><path d="M177.7 132.008s2.78 12.38 2.539 19.131c-.484 9.485-6.772 12.54-6.772 12.54s-2.78-12.379-2.418-19.292c.363-9.485 6.65-12.379 6.65-12.379z" style="fill:#ffec00;fill-rule:evenodd;stroke:#06579d;stroke-width:1.96759999;stroke-linecap:butt;stroke-linejoin:miter;stroke-dasharray:none"></path><path d="M171.049 143.905s3.506 12.218 3.506 18.97c.121 9.485-5.925 13.182-5.925 13.182s-3.506-12.217-3.627-18.97c-.12-9.485 6.046-13.182 6.046-13.182z" style="fill:#ffec00;fill-rule:evenodd;stroke:#06579d;stroke-width:1.96759999;stroke-linecap:butt;stroke-linejoin:miter;stroke-dasharray:none"></path><path d="M165.003 156.927s4.232 11.735 4.595 18.487c.604 9.646-5.079 13.826-5.079 13.826s-4.232-11.736-4.716-18.488c-.725-9.485 5.2-13.825 5.2-13.825z" style="fill:#ffec00;fill-rule:evenodd;stroke:#06579d;stroke-width:1.96759999;stroke-linecap:butt;stroke-linejoin:miter;stroke-dasharray:none"></path><path d="M159.683 170.43s4.957 11.254 5.804 17.845c1.209 9.485-4.353 14.308-4.353 14.308s-4.837-11.253-5.804-18.005c-1.21-9.324 4.353-14.147 4.353-14.147z" style="fill:#ffec00;fill-rule:evenodd;stroke:#06579d;stroke-width:1.96759999;stroke-linecap:butt;stroke-linejoin:miter;stroke-dasharray:none"></path><path d="M155.33 185.06s5.562 10.61 6.771 17.202c1.814 9.163-3.386 14.63-3.386 14.63s-5.562-10.611-6.892-17.202c-1.814-9.325 3.507-14.63 3.507-14.63z" style="fill:#ffec00;fill-rule:evenodd;stroke:#06579d;stroke-width:1.96759999;stroke-linecap:butt;stroke-linejoin:miter;stroke-dasharray:none"></path><path d="M151.702 199.529s6.167 10.128 7.86 16.558c2.297 9.003-2.66 14.951-2.66 14.951s-6.167-9.967-7.74-16.397c-2.297-9.164 2.54-15.112 2.54-15.112z" style="fill:#ffec00;fill-rule:evenodd;stroke:#06579d;stroke-width:1.96759999;stroke-linecap:butt;stroke-linejoin:miter;stroke-dasharray:none"></path><path d="M149.042 214.48s6.892 9.324 8.948 15.433c2.902 8.681-1.572 15.273-1.572 15.273s-6.893-9.325-8.948-15.434c-2.902-8.842 1.572-15.272 1.572-15.272z" style="fill:#ffec00;fill-rule:evenodd;stroke:#06579d;stroke-width:1.96759999;stroke-linecap:butt;stroke-linejoin:miter;stroke-dasharray:none"></path><path d="M147.47 229.913s7.255 8.681 9.552 14.63c3.386 8.52-.846 15.433-.846 15.433s-7.255-8.682-9.552-14.79c-3.386-8.36.846-15.273.846-15.273z" style="fill:#ffec00;fill-rule:evenodd;stroke:#06579d;stroke-width:1.96759999;stroke-linecap:butt;stroke-linejoin:miter;stroke-dasharray:none"></path><path d="M146.503 245.507s7.86 7.717 10.64 13.343c3.99 8.039.363 15.434.363 15.434s-7.86-7.717-10.762-13.344c-3.869-8.038-.241-15.433-.241-15.433z" style="fill:#ffec00;fill-rule:evenodd;stroke:#06579d;stroke-width:1.96759999;stroke-linecap:butt;stroke-linejoin:miter;stroke-dasharray:none"></path><path d="M146.744 261.262s8.344 6.913 11.488 12.379c4.353 7.555 1.209 15.272 1.209 15.272s-8.344-6.913-11.487-12.379c-4.353-7.556-1.21-15.272-1.21-15.272z" style="fill:#ffec00;fill-rule:evenodd;stroke:#06579d;stroke-width:1.96759999;stroke-linecap:butt;stroke-linejoin:miter;stroke-dasharray:none"></path><path d="M147.833 276.856s8.706 6.109 12.091 11.253c4.716 7.074 2.056 15.112 2.056 15.112s-8.706-6.109-12.092-11.093c-4.836-7.234-2.055-15.272-2.055-15.272z" style="fill:#ffec00;fill-rule:evenodd;stroke:#06579d;stroke-width:1.96759999;stroke-linecap:butt;stroke-linejoin:miter;stroke-dasharray:none"></path><path d="M150.01 292.45s9.068 4.823 12.817 9.485c5.32 6.43 3.143 14.63 3.143 14.63s-9.069-4.824-12.817-9.325c-5.32-6.43-3.144-14.79-3.144-14.79z" style="fill:#ffec00;fill-rule:evenodd;stroke:#06579d;stroke-width:1.96759999;stroke-linecap:butt;stroke-linejoin:miter;stroke-dasharray:none"></path><path d="M152.911 307.4s9.31 4.02 13.301 8.36c5.562 5.949 3.87 14.47 3.87 14.47s-9.311-4.18-13.301-8.36c-5.563-5.949-3.87-14.47-3.87-14.47z" style="fill:#ffec00;fill-rule:evenodd;stroke:#06579d;stroke-width:1.96759999;stroke-linecap:butt;stroke-linejoin:miter;stroke-dasharray:none"></path><path d="M156.78 321.87s9.553 2.893 13.785 6.59c6.046 5.306 4.958 13.987 4.958 13.987s-9.553-2.894-13.785-6.591c-6.046-5.144-4.957-13.986-4.957-13.986z" style="fill:#ffec00;fill-rule:evenodd;stroke:#06579d;stroke-width:1.96759999;stroke-linecap:butt;stroke-linejoin:miter;stroke-dasharray:none"></path><path d="M161.738 336.017s9.674 2.09 14.148 5.305c6.166 4.823 5.562 13.504 5.562 13.504s-9.674-1.93-14.148-5.305c-6.166-4.662-5.562-13.504-5.562-13.504z" style="fill:#ffec00;fill-rule:evenodd;stroke:#06579d;stroke-width:1.96759999;stroke-linecap:butt;stroke-linejoin:miter;stroke-dasharray:none"></path><path d="M167.3 349.52s9.795.965 14.51 3.698c6.53 4.02 6.41 12.7 6.41 12.7s-9.795-.803-14.39-3.536c-6.53-4.02-6.53-12.861-6.53-12.861z" style="fill:#ffec00;fill-rule:evenodd;stroke:#06579d;stroke-width:1.96759999;stroke-linecap:butt;stroke-linejoin:miter;stroke-dasharray:none"></path><path d="M173.71 362.543s9.673-.322 14.51 1.929c6.77 3.215 7.254 11.896 7.254 11.896s-9.673.322-14.51-1.929c-6.771-3.215-7.255-11.896-7.255-11.896z" style="fill:#ffec00;fill-rule:evenodd;stroke:#06579d;stroke-width:1.96759999;stroke-linecap:butt;stroke-linejoin:miter;stroke-dasharray:none"></path><path d="M180.964 374.6s9.795-1.286 14.752.482c6.893 2.412 7.86 11.093 7.86 11.093s-9.674 1.286-14.631-.322c-6.893-2.411-7.98-11.253-7.98-11.253z" style="fill:#ffec00;fill-rule:evenodd;stroke:#06579d;stroke-width:1.96759999;stroke-linecap:butt;stroke-linejoin:miter;stroke-dasharray:none"></path><path d="M188.582 385.692s9.673-2.25 14.631-.964c7.134 1.607 8.585 10.289 8.585 10.289s-9.552 2.25-14.63.964c-7.014-1.607-8.586-10.289-8.586-10.289z" style="fill:#ffec00;fill-rule:evenodd;stroke:#06579d;stroke-width:1.96759999;stroke-linecap:butt;stroke-linejoin:miter;stroke-dasharray:none"></path><path d="M197.167 396.303s9.432-3.376 14.51-2.572c7.135.964 9.19 9.324 9.19 9.324s-9.431 3.215-14.51 2.572c-7.134-.965-9.19-9.324-9.19-9.324z" style="fill:#ffec00;fill-rule:evenodd;stroke:#06579d;stroke-width:1.96759999;stroke-linecap:butt;stroke-linejoin:miter;stroke-dasharray:none"></path><path d="M206.357 405.949s9.19-4.502 14.268-4.341c7.255.16 9.795 8.199 9.795 8.199s-9.19 4.501-14.39 4.34c-7.134-.16-9.673-8.198-9.673-8.198z" style="fill:#ffec00;fill-rule:evenodd;stroke:#06579d;stroke-width:1.96759999;stroke-linecap:butt;stroke-linejoin:miter;stroke-dasharray:none"></path><path d="M216.151 414.308s8.948-5.144 14.027-5.626c7.255-.483 10.157 7.395 10.157 7.395s-8.948 5.144-14.027 5.626c-7.134.483-10.157-7.395-10.157-7.395z" style="fill:#ffec00;fill-rule:evenodd;stroke:#06579d;stroke-width:1.96759999;stroke-linecap:butt;stroke-linejoin:miter;stroke-dasharray:none"></path><path d="M226.188 421.703s8.585-6.109 13.663-7.073c7.134-1.447 10.641 6.109 10.641 6.109s-8.585 6.27-13.664 7.234c-7.134 1.286-10.64-6.27-10.64-6.27zM233.805 75.098s-2.176 12.7-5.078 18.327c-3.99 7.878-10.52 6.43-10.52 6.43s2.297-12.7 5.078-18.326c3.99-8.038 10.52-6.43 10.52-6.43z" style="fill:#ffec00;fill-rule:evenodd;stroke:#06579d;stroke-width:1.96759999;stroke-linecap:butt;stroke-linejoin:miter;stroke-dasharray:none"></path><path d="M290.439 76.382a130.951 174.355 0 0 1 130.95 174.355A130.951 174.355 0 1 1 290.44 76.382Z" style="fill:none;stroke:#0d2585;stroke-width:2.0000999;stroke-linecap:butt;stroke-linejoin:miter;stroke-dasharray:none"></path><path d="M290.439 56.375a144.85 194.362 0 0 1 144.85 194.362 144.85 194.362 0 1 1-144.85-194.362Z" style="fill:none;stroke:#0d2585;stroke-width:2.0000999;stroke-linecap:butt;stroke-linejoin:miter;stroke-dasharray:none" data-source="https://football-logos.cc"></path><!-- source: https://football-logos.cc --></svg>