<svg xmlns="http://www.w3.org/2000/svg" xml:space="preserve" id="svg85" style="clip-rule:evenodd;fill-rule:evenodd;image-rendering:optimizeQuality;shape-rendering:geometricPrecision;text-rendering:geometricPrecision" version="1.1" viewBox="0 -0.22 220.2 250"><!-- Source: https://football-logos.cc --><defs id="defs4" data-source="https://football-logos.cc"><style id="style2" type="text/css">.fil2{fill:#e62129}.fil1{fill:#222}.fil5{fill:#c80000}.fil4{fill:#fe0000}.fil6,.fil7{fill:#fefefe;fill-rule:nonzero}.fil7{fill:#c80000}</style></defs><g id="Layer_x0020_1" transform="matrix(1.04358 0 0 1.04358 0 -.22)" data-source="https://football-logos.cc"><g id="_3163287682656"><path id="path7" d="M105.5 232.17c33.83-12.71 61.74-37.66 82.54-75.51 19.58-35.61 21.46-78.99 6.85-129.48-28.65-11.94-58.45-18.54-89.39-19.79-30.94 1.25-60.74 7.85-89.39 19.79C1.5 77.67 3.38 121.05 22.96 156.66c20.8 37.85 48.71 62.8 82.54 75.51" style="fill:#fefefe"></path><path id="path9" d="M105.5 232.17c33.83-12.71 61.74-37.66 82.54-75.51 19.58-35.61 21.46-78.99 6.85-129.48-28.65-11.94-58.45-18.54-89.39-19.79-30.94 1.25-60.74 7.85-89.39 19.79C1.5 77.67 3.38 121.05 22.96 156.66c20.8 37.85 48.71 62.8 82.54 75.51m0-2.09c33.2-12.48 60.59-36.96 81.01-74.11 19.21-34.95 21.06-77.52 6.72-127.07-28.12-11.72-57.37-18.19-87.73-19.42-30.36 1.23-59.61 7.7-87.73 19.42-14.34 49.55-12.49 92.12 6.72 127.07 20.42 37.15 47.81 61.63 81.01 74.11" class="fil1" style="fill:#222"></path><path id="path11" d="M105.5 239.56c36.05-13.55 65.8-40.14 87.97-80.48 20.86-37.95 22.86-84.17 7.3-137.99C170.23 8.37 138.47 1.34 105.5 0 72.53 1.34 40.77 8.37 10.23 21.09c-15.56 53.82-13.56 100.04 7.3 137.99 22.17 40.34 51.92 66.93 87.97 80.48m0-2.01c35.44-13.33 64.69-39.47 86.49-79.13 20.51-37.31 22.48-82.76 7.18-135.67-30.03-12.51-61.25-19.42-93.67-20.74-32.42 1.32-63.64 8.23-93.67 20.74-15.3 52.91-13.33 98.36 7.18 135.67 21.8 39.66 51.05 65.8 86.49 79.13" class="fil1" style="fill:#222"></path><path id="path13" d="M105.5 237.55c35.44-13.33 64.69-39.47 86.49-79.13 20.51-37.31 22.48-82.76 7.18-135.67-30.03-12.51-61.25-19.42-93.67-20.74-32.42 1.32-63.64 8.23-93.67 20.74-15.3 52.91-13.33 98.36 7.18 135.67 21.8 39.66 51.05 65.8 86.49 79.13m0-1.49c34.99-13.16 63.87-38.97 85.39-78.13 20.25-36.84 22.2-81.71 7.09-133.95C168.33 11.63 137.51 4.8 105.5 3.5c-32.01 1.3-62.83 8.13-92.48 20.48-15.11 52.24-13.16 97.11 7.09 133.95 21.52 39.16 50.4 64.97 85.39 78.13" class="fil2" style="fill:#e62129"></path><path id="path15" d="M105.5 236.06c34.99-13.16 63.87-38.97 85.39-78.13 20.25-36.84 22.2-81.71 7.09-133.95C168.33 11.63 137.51 4.8 105.5 3.5c-32.01 1.3-62.83 8.13-92.48 20.48-15.11 52.24-13.16 97.11 7.09 133.95 21.52 39.16 50.4 64.97 85.39 78.13m0-2.09c34.37-12.92 62.72-38.27 83.86-76.73 19.88-36.17 21.8-80.24 6.96-131.54C167.2 13.57 136.93 6.87 105.5 5.59 74.07 6.87 43.8 13.57 14.68 25.7-.16 77 1.76 121.07 21.64 157.24c21.14 38.46 49.49 63.81 83.86 76.73" style="fill:#fab000"></path><path id="path17" d="M105.5 233.97c34.37-12.92 62.72-38.27 83.86-76.73 19.88-36.17 21.8-80.24 6.96-131.54C167.2 13.57 136.93 6.87 105.5 5.59 74.07 6.87 43.8 13.57 14.68 25.7-.16 77 1.76 121.07 21.64 157.24c21.14 38.46 49.49 63.81 83.86 76.73m0-1.8c33.83-12.71 61.74-37.66 82.54-75.51 19.58-35.61 21.46-78.99 6.85-129.48-28.65-11.94-58.45-18.54-89.39-19.79-30.94 1.25-60.74 7.85-89.39 19.79C1.5 77.67 3.38 121.05 22.96 156.66c20.8 37.85 48.71 62.8 82.54 75.51" class="fil2" style="fill:#e62129"></path><path id="path19" d="M105.5 232.17c33.83-12.71 61.74-37.66 82.54-75.51 19.58-35.61 21.46-78.99 6.85-129.48-28.65-11.94-58.45-18.54-89.39-19.79-30.94 1.25-60.74 7.85-89.39 19.79C1.5 77.67 3.38 121.05 22.96 156.66c20.8 37.85 48.71 62.8 82.54 75.51m0-2.09c33.2-12.48 60.59-36.96 81.01-74.11 19.21-34.95 21.06-77.52 6.72-127.07-28.12-11.72-57.37-18.19-87.73-19.42-30.36 1.23-59.61 7.7-87.73 19.42-14.34 49.55-12.49 92.12 6.72 127.07 20.42 37.15 47.81 61.63 81.01 74.11" class="fil1" style="fill:#222"></path><path id="path21" d="M105.5 230.08c37.9-18.28 64.21-48.41 77.69-90.77 9.79-30.75 9.68-68.88.92-114.01-25.31-9.45-51.51-14.72-78.61-15.82Z" class="fil4" style="fill:#fe0000"></path><path id="path23" d="M105.5 9.48c-27.1 1.1-53.3 6.37-78.61 15.82-8.76 45.13-8.87 83.26.92 114.01 13.48 42.36 39.79 72.49 77.69 90.77z" class="fil5" style="fill:#c80000"></path><path id="path25" d="M105.5 230.08c37.9-18.28 64.21-48.41 77.69-90.77 9.79-30.75 9.68-68.88.92-114.01 1.09.41 2.18.82 3.27 1.25 4.18 22.03 6.3 42.43 6.2 61.16-.1 19.32-2.57 36.83-7.56 52.5-6.82 21.45-16.89 39.83-30.03 55.18-4.54 5.32-9.46 10.26-14.73 14.85a138.8 138.8 0 0 1-35.76 19.84 138.8 138.8 0 0 1-35.76-19.84c-5.27-4.59-10.19-9.53-14.73-14.85-13.14-15.35-23.21-33.73-30.03-55.18-4.99-15.67-7.46-33.18-7.56-52.5-.1-18.73 2.02-39.13 6.2-61.16 1.09-.43 2.18-.84 3.27-1.25-8.76 45.13-8.87 83.26.92 114.01 13.48 42.36 39.79 72.49 77.69 90.77" class="fil1" style="fill:#222"></path><path id="path27" d="M114.51 34.97c0 1.44-2.23 2.4-3.73 2.4H99.13c-1.89 0-3.93-.81-3.98-4.03h14.84v-2.6H99.41c-1.5 0-2.74-.54-3.73-1.61-.93-1.02-1.41-2.25-1.41-3.71 0-1.45.49-2.71 1.45-3.77.96-1.05 2.19-1.58 3.69-1.58h11.65c1.72 0 4.1 1.87 3.98 4.04H99.38v2.59h11.39c1.51 0 3.74.95 3.74 2.41z" class="fil6" style="fill:#fefefe;fill-rule:nonzero"></path><path id="path29" d="M141.16 37.37c-3-.03-4.76-.51-4.76-2.38v-8.15l-6.27 7.88-6.28-7.88v7.75c0 1.93-1.26 2.65-4.75 2.78v-17.3h1.77c3.49 0 6.7 5.08 9.26 7.61 2.83-2.53 5.59-7.61 9.28-7.61h1.75z" class="fil6" style="fill:#fefefe;fill-rule:nonzero"></path><path id="path31" d="M90.38 27.91c0 1.56-2.63 2.65-4.2 2.65h-8.94c-.09-2.5 1.36-3.24 2.79-3.24h4.56c.61 0 .92-.6.92-1.79 0-1.21-.31-1.82-.92-1.82h-9.72v10.48c0 1.98-.46 3.21-5.02 3.18v-17.3h16.33c1.57 0 4.2 1.09 4.2 2.65z" class="fil6" style="fill:#fefefe;fill-rule:nonzero"></path><path id="path33" d="M92.37 27.91c0 1.48-.92 2.64-2.18 3.43-1.2.76-2.82 1.21-4.01 1.21h-8.94c-.13 0-.26-.01-.39-.04v1.68c0 1.54-.22 2.83-1.54 3.89-1.03.83-2.68 1.29-5.47 1.28a1.985 1.985 0 0 1-1.97-1.99h-.01v-17.3c0-1.1.89-1.99 1.99-1.99h16.33c1.19 0 2.81.45 4.01 1.21 1.26.79 2.18 1.95 2.18 3.43v1.54c.08-.55.21-1.07.41-1.58.33-.86.82-1.65 1.47-2.36.67-.74 1.45-1.3 2.33-1.68.87-.37 1.82-.56 2.83-.56h11.65c.04 0 .12.01.26.01l.07.01c1.25.09 2.65.75 3.71 1.73 1.12 1.05 1.93 2.5 1.93 4.12 0 .04 0 .13-.01.28a1.975 1.975 0 0 1-1.98 1.86v.01h-.15c.96.74 1.61 1.75 1.61 3.01v5.86c0 1.42-.84 2.53-2.01 3.29-1.09.7-2.55 1.1-3.71 1.1H99.13c-1.51 0-3.13-.4-4.35-1.64-.95-.96-1.58-2.36-1.61-4.36-.01-1.09.87-1.99 1.96-2h.02v-.01h.03c-.34-.26-.66-.55-.96-.88a7.2 7.2 0 0 1-1.45-2.32c-.19-.5-.32-1.01-.4-1.55Zm-1.99 0c0 1.56-2.63 2.65-4.2 2.65h-8.94c-.09-2.5 1.36-3.24 2.79-3.24h4.56c.61 0 .92-.6.92-1.79 0-1.21-.31-1.82-.92-1.82h-9.72v10.48c0 1.98-.46 3.21-5.02 3.18v-17.3h16.33c1.57 0 4.2 1.09 4.2 2.65zm50.78 9.46c-3-.03-4.76-.51-4.76-2.38v-8.15l-6.27 7.88-6.28-7.88v7.75c0 1.93-1.26 2.65-4.75 2.78v-17.3h1.77c3.49 0 6.7 5.08 9.26 7.61 2.83-2.53 5.59-7.61 9.28-7.61h1.75zm-26.65-2.4c0 1.44-2.23 2.4-3.73 2.4H99.13c-1.89 0-3.93-.81-3.98-4.03h14.84v-2.6H99.41c-1.5 0-2.74-.54-3.73-1.61-.93-1.02-1.41-2.25-1.41-3.71 0-1.45.49-2.71 1.45-3.77.96-1.05 2.19-1.58 3.69-1.58h11.65c1.72 0 4.1 1.87 3.98 4.04H99.38v2.59h11.39c1.51 0 3.74.95 3.74 2.41zm-37.66-8.54c.37-.32.77-.56 1.2-.73h-1.2zm64.09 12.92c-1.66-.03-3.03-.21-4.08-.67h-.01c-1.58-.69-2.44-1.85-2.44-3.69v-2.47l-2.73 3.43c-.68.86-1.93 1.01-2.79.32q-.195-.15-.33-.33l-2.72-3.42v2.07c0 1.73-.61 2.94-2.06 3.78-1.05.61-2.53.9-4.61.99a1.98 1.98 0 0 1-2.05-1.91l-.01-.08v-17.3c0-1.1.89-1.99 1.99-1.99h1.77c3.54 0 6.32 3.25 8.75 6.08l.55.64c.32-.37.65-.76.99-1.15 2.31-2.71 4.75-5.57 8.25-5.57h1.75c1.09 0 1.98.89 1.98 1.99v17.3c0 1.1-.89 1.99-1.98 1.99-.07 0-.15 0-.22-.01" class="fil5" style="fill:#c80000"></path><path id="path35" d="M118.92 50.05c0 .84-1.31 1.4-2.18 1.4h-6.81c-1.1 0-2.29-.47-2.32-2.36h8.66v-1.51h-6.17c-.88 0-1.6-.32-2.18-.94-.55-.6-.82-1.31-.82-2.17 0-.85.28-1.58.84-2.2.56-.61 1.28-.92 2.16-.92h6.8c1 0 2.4 1.09 2.33 2.36h-9.15v1.51h6.65c.88 0 2.19.55 2.19 1.41z" class="fil6" style="fill:#fefefe;fill-rule:nonzero"></path><path id="path37" d="M120.9 50.05c0 1.15-.64 2.03-1.55 2.61-.76.49-1.8.78-2.61.78h-6.81c-1.07 0-2.23-.3-3.12-1.21-.7-.7-1.16-1.71-1.18-3.11-.01-.56.22-1.06.58-1.43-.32-.4-.58-.85-.76-1.33-.23-.59-.34-1.22-.34-1.89 0-.66.12-1.29.34-1.89.23-.6.57-1.15 1.02-1.64a4.8 4.8 0 0 1 1.66-1.19c.61-.26 1.27-.39 1.97-.39h6.8c.08 0 .15 0 .22.01.93.06 1.94.53 2.7 1.23.8.75 1.39 1.81 1.39 3.01v.06l-.01.09a1.95 1.95 0 0 1-.67 1.44c.24.41.37.89.37 1.43zm-1.98 0c0 .84-1.31 1.4-2.18 1.4h-6.81c-1.1 0-2.29-.47-2.32-2.36h8.66v-1.51h-6.17c-.88 0-1.6-.32-2.18-.94-.55-.6-.82-1.31-.82-2.17 0-.85.28-1.58.84-2.2.56-.61 1.28-.92 2.16-.92h6.8c1 0 2.4 1.09 2.33 2.36h-9.15v1.51h6.65c.88 0 2.19.55 2.19 1.41z" class="fil5" style="fill:#c80000"></path><path id="path39" d="M133.03 50.05c0 .84-1.3 1.4-2.18 1.4h-6.8c-1.1 0-2.3-.47-2.32-2.36h8.66v-1.51h-6.17c-.88 0-1.61-.32-2.18-.94-.55-.6-.82-1.31-.82-2.17 0-.85.28-1.58.84-2.2.56-.61 1.28-.92 2.16-.92h6.8c1 0 2.39 1.09 2.32 2.36h-9.14v1.51h6.65c.88 0 2.18.55 2.18 1.41z" class="fil6" style="fill:#fefefe;fill-rule:nonzero"></path><path id="path41" d="M135.02 50.05c0 1.15-.65 2.03-1.55 2.61-.77.49-1.8.78-2.62.78h-6.8c-1.07 0-2.23-.3-3.13-1.21-.69-.7-1.15-1.71-1.17-3.11-.01-.56.22-1.06.58-1.43-.33-.4-.58-.85-.76-1.33-.23-.59-.34-1.22-.34-1.89 0-.66.11-1.29.34-1.89s.57-1.15 1.02-1.64a4.7 4.7 0 0 1 1.65-1.19c.62-.26 1.27-.39 1.98-.39h6.8c.07 0 .15 0 .22.01.93.06 1.94.53 2.7 1.23.8.75 1.38 1.81 1.38 3.01v.15c-.01.58-.27 1.09-.68 1.44.24.41.38.89.38 1.43zm-1.99 0c0 .84-1.3 1.4-2.18 1.4h-6.8c-1.1 0-2.3-.47-2.32-2.36h8.66v-1.51h-6.17c-.88 0-1.61-.32-2.18-.94-.55-.6-.82-1.31-.82-2.17 0-.85.28-1.58.84-2.2.56-.61 1.28-.92 2.16-.92h6.8c1 0 2.39 1.09 2.32 2.36h-9.14v1.51h6.65c.88 0 2.18.55 2.18 1.41z" class="fil5" style="fill:#c80000"></path><path id="path43" d="M61.68 51.47c-1.76-.02-2.79-.3-2.79-1.39v-4.77l-3.67 4.61-3.66-4.61v4.53c0 1.13-.75 1.55-2.79 1.63V41.35h1.04c2.04 0 3.92 2.97 5.41 4.45 1.66-1.48 3.27-4.45 5.44-4.45h1.02z" class="fil6" style="fill:#fefefe;fill-rule:nonzero"></path><path id="path45" d="M61.46 53.45c-1.04-.03-1.92-.15-2.62-.46h-.01c-1-.44-1.63-1.1-1.84-2.1l-.21.26c-.68.86-1.93 1-2.79.32-.13-.1-.24-.21-.33-.34l-.23-.28c-.2.81-.68 1.44-1.51 1.92-.74.43-1.72.63-3.07.68a1.98 1.98 0 0 1-2.06-1.9v-.08h-.01V41.35c0-1.1.89-1.99 1.99-1.99h1.04c2.28 0 3.98 1.8 5.44 3.49 1.46-1.71 3.01-3.49 5.41-3.49h1.02c1.1 0 1.99.89 1.99 1.99v10.12c0 1.1-.89 1.99-1.99 1.99-.07 0-.15 0-.22-.01m.22-1.98c-1.76-.02-2.79-.3-2.79-1.39v-4.77l-3.67 4.61-3.66-4.61v4.53c0 1.13-.75 1.55-2.79 1.63V41.35h1.04c2.04 0 3.92 2.97 5.41 4.45 1.66-1.48 3.27-4.45 5.44-4.45h1.02z" class="fil5" style="fill:#c80000"></path><path id="path47" d="M75.69 51.45h-2.36v-4h-6.49v2.41c0 1.06-.7 1.68-2.76 1.59v-6.98c0-.85.26-1.59.8-2.2.52-.61 1.21-.92 2.05-.92h8.76zm-8.85-8.21h6.49v2.06h-6.49z" class="fil6" style="fill:#fefefe;fill-rule:nonzero"></path><path id="path49" d="M75.69 53.44h-2.36c-1.1 0-1.99-.89-1.99-1.99v-2.01h-2.52v.42c0 1.22-.44 2.2-1.53 2.9-.77.49-1.83.73-3.29.67-1.07-.04-1.9-.92-1.9-1.98h-.01v-6.98c0-.65.11-1.27.32-1.87.22-.59.54-1.14.97-1.63.45-.53.99-.93 1.6-1.2s1.26-.41 1.95-.41h8.76c1.1 0 1.99.89 1.99 1.99v10.1c0 1.1-.89 1.99-1.99 1.99m0-1.99h-2.36v-4h-6.49v2.41c0 1.06-.7 1.68-2.76 1.59v-6.98c0-.85.26-1.59.8-2.2.52-.61 1.21-.92 2.05-.92h8.76zm-8.85-8.21h6.49v2.06h-6.49z" class="fil5" style="fill:#c80000"></path><path id="polygon51" d="M66.84 45.3v-2.06h6.49v2.06z" class="fil7" style="fill:#c80000;fill-rule:nonzero"></path><path id="path53" d="M104.31 51.45h-2.36v-4h-6.5v2.41c0 1.06-.69 1.68-2.75 1.59v-6.98c0-.85.26-1.59.79-2.2s1.22-.92 2.06-.92h8.76zm-8.86-8.21h6.5v2.06h-6.5z" class="fil6" style="fill:#fefefe;fill-rule:nonzero"></path><path id="path55" d="M104.31 53.44h-2.36c-1.1 0-1.99-.89-1.99-1.99v-2.01h-2.52v.42c0 1.22-.44 2.2-1.53 2.9-.77.49-1.83.73-3.29.67a1.97 1.97 0 0 1-1.9-1.98h-.01v-6.98c0-.65.11-1.27.32-1.87.22-.59.54-1.14.96-1.63.46-.53.99-.93 1.61-1.2.6-.27 1.26-.41 1.95-.41h8.76c1.09 0 1.98.89 1.98 1.99v10.1c0 1.1-.89 1.99-1.98 1.99m0-1.99h-2.36v-4h-6.5v2.41c0 1.06-.69 1.68-2.75 1.59v-6.98c0-.85.26-1.59.79-2.2s1.22-.92 2.06-.92h8.76zm-8.86-8.21h6.5v2.06h-6.5z" class="fil5" style="fill:#c80000"></path><path id="polygon57" d="M95.45 45.3v-2.06h6.5v2.06z" class="fil7" style="fill:#c80000;fill-rule:nonzero"></path><path id="path59" d="M147.33 51.45h-2.36v-4h-6.49v2.41c0 1.06-.7 1.68-2.76 1.59v-6.98c0-.85.26-1.59.8-2.2.52-.61 1.21-.92 2.05-.92h8.76zm-8.85-8.21h6.49v2.06h-6.49z" class="fil6" style="fill:#fefefe;fill-rule:nonzero"></path><path id="path61" d="M147.33 53.44h-2.36c-1.1 0-1.99-.89-1.99-1.99v-2.01h-2.52v.42c0 1.22-.44 2.2-1.53 2.9-.77.49-1.83.73-3.29.67-1.07-.04-1.9-.92-1.9-1.98h-.01v-6.98c0-.65.11-1.27.32-1.87.22-.59.54-1.14.97-1.63.45-.53.99-.93 1.6-1.2s1.26-.41 1.95-.41h8.76c1.1 0 1.99.89 1.99 1.99v10.1c0 1.1-.89 1.99-1.99 1.99m0-1.99h-2.36v-4h-6.49v2.41c0 1.06-.7 1.68-2.76 1.59v-6.98c0-.85.26-1.59.8-2.2.52-.61 1.21-.92 2.05-.92h8.76zm-8.85-8.21h6.49v2.06h-6.49z" class="fil5" style="fill:#c80000"></path><path id="path63" d="M89.65 51.45h-3.62l-3.9-4.25h-1.11v2.66c0 1.06-.11 1.76-2.76 1.59v-10.1h2.76v3.89h1.06l3.27-3.89h3.23l-4.04 4.66z" class="fil6" style="fill:#fefefe;fill-rule:nonzero"></path><path id="path65" d="M89.65 53.44h-3.62c-.65 0-1.23-.31-1.59-.79L82.93 51c-.12.59-.4 1.14-1.05 1.67-.75.59-1.86.89-3.74.76a1.98 1.98 0 0 1-1.86-1.98h-.01v-10.1c0-1.1.89-1.99 1.99-1.99h2.76c1.01 0 1.84.75 1.97 1.72l.85-1.01c.39-.46.95-.7 1.51-.7v-.01h3.23c1.1 0 1.99.89 1.99 1.99 0 .55-.23 1.05-.59 1.41l-2.77 3.2 3.88 4.13c.75.8.72 2.06-.08 2.81-.38.36-.87.54-1.36.54m0-1.99h-3.62l-3.9-4.25h-1.11v2.66c0 1.06-.11 1.76-2.76 1.59v-10.1h2.76v3.89h1.06l3.27-3.89h3.23l-4.04 4.66z" class="fil5" style="fill:#c80000"></path><path id="path67" d="M162.23 51.45h-3.22l-4.66-6.06h4.49v-2.08h-6.12v6.55c0 1.06-.02 1.66-2.76 1.59v-10.1h9.41c3.73 0 3.76 6.43-.11 6z" class="fil6" style="fill:#fefefe;fill-rule:nonzero"></path><path id="path69" d="M162.23 53.44h-3.22c-.69 0-1.3-.35-1.66-.89l-2.65-3.44v.75c0 1.08-.01 1.92-1.11 2.78-.71.56-1.78.84-3.67.79-1.08-.02-1.94-.9-1.94-1.98h-.01v-10.1c0-1.1.89-1.99 1.99-1.99h9.41c2.31 0 3.8 1.41 4.44 3.18.25.69.36 1.44.33 2.18-.03.76-.21 1.51-.54 2.17-.28.58-.66 1.09-1.14 1.49l1.38 1.91c.64.89.44 2.13-.44 2.77-.36.26-.76.38-1.17.38m0-1.99h-3.22l-4.66-6.06h4.49v-2.08h-6.12v6.55c0 1.06-.02 1.66-2.76 1.59v-10.1h9.41c3.73 0 3.76 6.43-.11 6z" class="fil5" style="fill:#c80000"></path><path id="path71" d="M96.12 217.3h-2v-6.92h-1.93v-2.11h3.93zm9.19-2.86c0 .82-.27 1.5-.81 2.05-.54.54-1.19.81-1.97.81h-4.25v-2.1h4.25c.52 0 .78-.26.78-.76h-3.56c-.79 0-1.45-.27-1.99-.81q-.81-.81-.81-2.04v-.43c0-.82.28-1.51.82-2.06s1.2-.83 1.98-.83h2.78c.78 0 1.43.28 1.97.83s.81 1.23.81 2.05zm-2-2.11v-1.17q0-.78-.78-.78h-2.78c-.53 0-.8.26-.8.78v.43c0 .5.27.74.8.74zm6.29 4.97h-1.99v-6.92h-1.94v-2.11h3.93zm9.21-2.85c0 .82-.27 1.5-.82 2.04q-.81.81-1.98.81h-2.78c-.78 0-1.44-.26-1.98-.81-.54-.54-.81-1.22-.81-2.03h1.99c0 .49.27.74.8.74h2.78c.53 0 .8-.25.8-.75v-.44c0-.49-.27-.73-.8-.73h-5.57v-5.01h7.88v2.11h-5.89v.79h3.58q1.17 0 1.98.81c.55.54.82 1.21.82 2.03z" class="fil6" style="fill:#fefefe;fill-rule:nonzero"></path><path id="path73" d="M96.12 218.69h-2c-.76 0-1.39-.62-1.39-1.39v-5.53h-.54c-.77 0-1.39-.62-1.39-1.39v-2.11c0-.76.62-1.39 1.39-1.39h3.93c.54 0 1 .31 1.24.75.24-.17.5-.32.78-.43.5-.21 1.04-.32 1.61-.32h2.78c.57 0 1.11.11 1.61.32.15.06.3.13.44.22.25-.33.65-.54 1.09-.54h3.93c.15 0 .29.03.42.07.13-.04.27-.07.42-.07h7.88c.77 0 1.4.63 1.4 1.39v2.11c0 .39-.16.74-.41.99.24.31.44.64.58 1 .21.51.31 1.06.31 1.64v.44c0 .58-.1 1.12-.31 1.63-.21.52-.51.99-.91 1.39h-.01c-.4.4-.85.71-1.35.91-.51.21-1.05.31-1.61.31h-2.78c-.56 0-1.1-.1-1.6-.31-.28-.11-.55-.25-.8-.43-.23.44-.69.74-1.23.74h-1.99c-.77 0-1.4-.62-1.4-1.39v-.81c-.18.35-.42.68-.72.98-.03.02-.06.05-.09.08-.79.76-1.75 1.14-2.87 1.14h-4.25c-.43 0-.82-.2-1.08-.51-.25.31-.64.51-1.08.51m0-1.39h-2v-6.92h-1.93v-2.11h3.93zm9.19-2.86c0 .82-.27 1.5-.81 2.05-.54.54-1.19.81-1.97.81h-4.25v-2.1h4.25c.52 0 .78-.26.78-.76h-3.56c-.79 0-1.45-.27-1.99-.81q-.81-.81-.81-2.04v-.43c0-.82.28-1.51.82-2.06s1.2-.83 1.98-.83h2.78c.78 0 1.43.28 1.97.83s.81 1.23.81 2.05zm-2-2.11v-1.17q0-.78-.78-.78h-2.78c-.53 0-.8.26-.8.78v.43c0 .5.27.74.8.74zm6.29 4.97h-1.99v-6.92h-1.94v-2.11h3.93zm9.21-2.85c0 .82-.27 1.5-.82 2.04q-.81.81-1.98.81h-2.78c-.78 0-1.44-.26-1.98-.81-.54-.54-.81-1.22-.81-2.03h1.99c0 .49.27.74.8.74h2.78c.53 0 .8-.25.8-.75v-.44c0-.49-.27-.73-.8-.73h-5.57v-5.01h7.88v2.11h-5.89v.79h3.58q1.17 0 1.98.81c.55.54.82 1.21.82 2.03z" class="fil5" style="fill:#c80000"></path><path id="path75" d="M53.25 86.76c8.53-4.49 15.77-6.36 21.74-5.61C76.07 75 78.7 70.38 82.88 67.3c-5.65 2.56-9.1 5.83-10.34 9.82-6.68.87-13.11 4.09-19.29 9.64m-4.39 57.91c-4.76-3.79-7.95-8.21-9.56-13.24 3.96 4.88 8.46 8.41 13.51 10.61-2 3.61-2.85 8.31-2.55 14.12-1.4-3.75-1.86-7.58-1.4-11.49m6.31-53.3q5.88-5.865 21.75-8.46c3.54-8.31 7.75-14.21 12.62-17.71 16.07-3.57 31.33-1.41 45.77 6.48 1.68 2.45 3.02 5.67 4.03 9.65 5.01.26 9.92 1.43 14.73 3.5q15.585 17.91 16.65 38.4c-1.24 1.95-2.96 3.44-5.17 4.48 1.79.37 3.22.83 4.3 1.4.49-1.05 1.42-1.11 2.72-.09.97.76.94 2.24-.44 4.03-4.47 5.82-9.78 10.5-15.52 14.38.55 3.45.46 7.98-.26 13.59 2.19-.32 4.32-.12 6.4.62-7.85 12-17.15 20.71-27.88 26.12 11.15-9.59 18.05-17.54 20.69-23.85-13.06 13.1-27.15 20.99-42.26 23.68-7.04-.58-7.71-2.91-2.01-7.02-8.13-.26-15.45.75-20.87 4.69-7.42 5.41-14.28 4.96-22.97-1.4-11.82-8.66-14.96-13.01-8.33-14.64-2.37-.97-3.86-2.69-4.47-5.17-2.18-6.5-1.54-14.45 1.93-23.85-5.77-2.25-10.79-6.05-15.08-11.4-.07-10.12 3.26-20.94 9.99-32.44-4.28 4.38-7.79 9.47-10.52 15.26 3.09-9.57 6.71-16.94 10.87-22.09.6 2.22 1.71 2.84 3.33 1.84" class="fil4" style="fill:#fe0000"></path><path id="path77" d="M84.75 118.44c2.21-12.05 6.52-21.49 12.94-28.3q-.825 14.385.18 22.62c-1.21 3.11-.98 3.47.7 1.1.9-.72.93-.27.09 1.36.26.75.3 1.74.13 2.98 1.16 2.29 3.15 4.95 5.96 7.98-.97-2.96-2.37-5.18-4.21-6.67 3.89 1.02 13.59 5.99 29.11 14.91-8.34-10.75-17.31-15.89-26.92-15.43 11.51-4.28 32.46-.66 62.86 10.87-5.56.07-10.6.34-15.11.82l2.35 6.32c6.59-4.12 9.94-6.09 10.04-5.91.88.23 1.47.88 1.76 1.92 1.81-.81 2.71-1.22 2.71-1.22-1.21-1.74-.77-2.03 1.32-.88 2.92-.93 3.16-.46.7 1.4-.09.39-.2.7-.31.92l.06.06c.15.15.14.41-.01.56l-53.64 51.44c-.16.15-.41.15-.57-.01v-.01c-.88.81-1.83 1.54-2.84 2.19-5.85-.75-6.1-3.04-.76-6.89-8.13-.26-15.45.75-20.87 4.69-7.42 5.41-14.28 4.96-22.97-1.4 15.67-3.64 33.62-9.07 53.87-16.3 1.41-1.33 2.23-2.73 2.45-4.21-28.38 11.52-47.94 17.78-58.66 18.76-4.01-3.05-6.77-5.5-8.22-7.44-.07-2.24 1.13-3.5 3.58-3.78l12.72-.18v-3.24l-.6 1.29c-2.7-.74-5.04-1.25-7.01-1.51l7.59-21.65-9.38 21.47c-1.07-.07-2-.04-2.8.07-1.59-10.4 2.01-20.22 10.79-29.46l2.8 3.25c.71-1.87 1.06-2.81 1.06-2.81-1-1.78-2.23-2.75-3.69-2.89-.62-4.16 1.58-10.8 6.58-19.9-2.03 7.06-2.79 14.08-2.28 21.04.16-5.52.6-9.99 1.31-13.41-.19 3.79-.34 7.39-.43 10.78 2.04-4.74 4.64-9.06 7.8-12.98 4.17 1.26 7.68 1.96 10.52 2.11.48.48 1.02.69 1.62.61.41-2.18-.32-3.38-2.19-3.59-2.53-.8-2.78-1.44-.75-1.93q1.08.27 1.23 1.44c.59.36 1.15.51 1.67.44.17-.5.17-.91 0-1.22-1.31-.58-1.23-1.09.26-1.54-3.6-3.09-7.78-2.64-12.54 1.36m83.42 15.2c-.15-.09-.31-.24-.47-.45l-12.89 8.59c1.63 2.37 1.13 2.72-1.49 1.05l-9.21 5.88c1.31 2.08.78 2.49-1.58 1.22-3.74 2.58-5.61 3.86-5.61 3.86 1.64 1.18 1.03 1.56-1.84 1.14-3.45 2.16-5.17 3.25-5.17 3.25-10.94 16.33-15.96 25.2-15.07 26.62a.3.3 0 0 1 .07-.08zm-18.71-2.85c-7.56.86-13.61 2.3-18.15 4.33 2.8 1.72 6.77 3.67 11.93 5.87-10.04-.59-16.94-.3-20.69.88q2.7 2.415 8.85 6.57-13.785-3.27-31.56 2.28c.17 9.82.26 14.73.26 14.73 7.42-3.5 11.14-5.26 11.14-5.26-.72-1.56.12-1.91 2.54-1.05 1.23-.47 1.84-.7 1.84-.7-1.24-1.69-.74-1.93 1.49-.7l3.59-2.11c-.49-1.11-.02-1.35 1.41-.7 5.2-2.75 7.8-4.12 7.8-4.12-.76-1.7-.3-1.9 1.4-.61 4.91-2.34 7.37-3.51 7.37-3.51-.72-2.32-.11-2.7 1.84-1.14l11.04-5.52c-.7-1.05-1.05-1.58-1.05-1.58l1.46-.91zm-17.87 25.88-.92.22 4.03-2.68.38.17zm-6.88.35-.62-.88 6.89-3.48.91.38zm8.04-5.25 7.48-3.78.3.26-7.02 3.89zm9.43-4.76 6.72-3.4-6.49 3.6zm-9.93 7.91v-.66l1.05-.63.56.23zm2.52-2.17 6.5-3.88.11.1-6.15 4zm8.3-4.96 1.36-.81-1.31.86zm-7.07 5.56 5.63-3.74.44.18-5.7 3.74zm26.49-21.14-9.55 5.87.44 1.14 10.34-5.52zm-80.81 40.57c4.29-2.23 8.93-4.05 13.94-5.44a36.7 36.7 0 0 0-6.48-1.76l6.79-41.38-.97-.2-10.08 41.03-.02.09c-3.28-.14-6.6.19-9.93.99v5.79c3.66-.28 5.91.01 6.75.88m4.57-9.16.51-2.06h2.04l-.34 2.06zm.7-2.85.51-2.06h1.8l-.33 2.06zm.68-2.76.49-2.02h1.59l-.33 2.02zm.71-2.9.47-1.9h1.36l-.32 1.9zm.63-2.56.47-1.91h1.15l-.31 1.91zm.65-2.65.37-1.49h.96l-.24 1.49zm.52-2.11.35-1.44h.8l-.23 1.44zm.5-2.06 2.26-9.19-1.51 9.19zm-25.62 28.4h1.18v3.73h-1.18zm2.85-1.01 12.19.18-9.43 3.24.05-2.36h-1.93l.13 3.24-1.71.26-.13-3.15zm14.99.97-1.66.13.17 1.41zm-3.79 2.9h.9v.81h-.9zm-2.52.83h.97v.79h-.97zm-2.49.54h.85v.78h-.85zm-1.79.52h.67v.8h-.67zm-1.78.59h.69v.59h-.69zm-.08-1.43h.88v1.01h-.88zm1.63-.44h.92v.96h-.92zm1.88-.66h1.1v1.05h-1.1zm2.5-.96h1.31v1.36h-1.31zm2.24-.7h1.44v1.27h-1.44zm-1.49 6.98h.91v1.51h-.91zm-4.1 1.01h.92v1.52h-.92zm-3.62.79h.92v.67h-.92zm13.44-3.05h.92v1.51h-.92z" style="fill:#000"></path><path id="path79" d="M105.5 58.91c38.24 0 69.24 31.15 69.24 69.59 0 38.43-31 69.58-69.24 69.58s-69.24-31.15-69.24-69.58c0-38.44 31-69.59 69.24-69.59m15.25 39.65c-9.71.03-16.58.33-20.6.87-.38 6.85-.26 12.64.35 17.36 7.05-2.11 16.61-1.99 28.67.35-1.69-5.45-3.44-9.98-5.26-13.59l13.85-20.42c-9.05 8.25-14.71 13.4-17.01 15.43m-32.88 2.28c-4.01-7.35-6.99-12.56-8.94-15.61 7.95 6.61 11.93 9.91 11.93 9.91-1.39 2.17-2.38 4.07-2.99 5.7M70.6 136.78c-1.22-1.15-2.01-2.17-2.36-3.07-2.24 1.91-4.87 3.64-7.89 5.18 2.98-.56 6.4-1.26 10.25-2.11M53.25 86.76c8.53-4.49 15.77-6.36 21.74-5.61C76.07 75 78.7 70.38 82.88 67.3c-5.65 2.56-9.1 5.83-10.34 9.82-6.68.87-13.11 4.09-19.29 9.64m-4.39 57.91c-4.76-3.79-7.95-8.21-9.56-13.24 3.96 4.88 8.46 8.41 13.51 10.61-2 3.61-2.85 8.31-2.55 14.12-1.4-3.75-1.86-7.58-1.4-11.49m6.31-53.3q5.88-5.865 21.75-8.46c3.54-8.31 7.75-14.21 12.62-17.71 16.07-3.57 31.33-1.41 45.77 6.48 1.68 2.45 3.02 5.67 4.03 9.65 5.01.26 9.92 1.43 14.73 3.5q15.585 17.91 16.65 38.4c-1.24 1.95-2.96 3.44-5.17 4.48 1.79.37 3.22.83 4.3 1.4.49-1.05 1.42-1.11 2.72-.09.97.76.94 2.24-.44 4.03-4.47 5.82-9.78 10.5-15.52 14.38.55 3.45.46 7.98-.26 13.59 2.19-.32 4.32-.12 6.4.62-7.85 12-17.15 20.71-27.88 26.12 11.15-9.59 18.05-17.54 20.69-23.85-13.06 13.1-27.15 20.99-42.26 23.68-7.04-.58-7.71-2.91-2.01-7.02-8.13-.26-15.45.75-20.87 4.69-7.42 5.41-14.28 4.96-22.97-1.4-11.82-8.66-14.96-13.01-8.33-14.64-2.37-.97-3.86-2.69-4.47-5.17-2.18-6.5-1.54-14.45 1.93-23.85-5.77-2.25-10.79-6.05-15.08-11.4-.07-10.12 3.26-20.94 9.99-32.44-4.28 4.38-7.79 9.47-10.52 15.26 3.09-9.57 6.71-16.94 10.87-22.09.6 2.22 1.71 2.84 3.33 1.84" class="fil5" style="fill:#c80000"></path><path id="path81" d="M105.5 55.93c20.04 0 38.18 8.12 51.31 21.25s21.26 31.28 21.26 51.31c0 20.04-8.13 38.19-21.26 51.32s-31.27 21.25-51.31 21.25-38.18-8.12-51.31-21.25-21.26-31.28-21.26-51.32c0-20.03 8.13-38.18 21.26-51.31s31.27-21.25 51.31-21.25m0 2.98c38.43 0 69.58 31.16 69.58 69.58 0 38.43-31.15 69.59-69.58 69.59s-69.58-31.16-69.58-69.59c0-38.42 31.15-69.58 69.58-69.58" class="fil4" style="fill:#fe0000"></path></g></g><!-- source: https://football-logos.cc --></svg>