<svg xmlns="http://www.w3.org/2000/svg" viewBox="2 2 66.15 66.15"><!-- Source: https://football-logos.cc --><g style="clip-rule:evenodd;fill-rule:evenodd;image-rendering:optimizeQuality;shape-rendering:geometricPrecision;text-rendering:geometricPrecision" data-source="https://football-logos.cc"><path d="M857.5 459.65c465.32 0 842.53 377.21 842.53 842.53s-377.21 842.53-842.53 842.53S14.97 1767.5 14.97 1302.18 392.18 459.65 857.5 459.65" class="fil0" style="fill:#b6b6b7" transform="matrix(.03857 0 0 .03857 2 -15.15)"></path><path d="M857.5 444.68c236.79 0 451.17 95.98 606.34 251.16C1619.02 851.01 1715 1065.39 1715 1302.18s-95.98 451.17-251.16 606.34c-155.17 155.18-369.55 251.16-606.34 251.16s-451.17-95.98-606.34-251.16C95.98 1753.35 0 1538.97 0 1302.18s95.98-451.17 251.16-606.34C406.33 540.66 620.71 444.68 857.5 444.68m0 14.97c465.32 0 842.53 377.21 842.53 842.53s-377.21 842.53-842.53 842.53S14.97 1767.5 14.97 1302.18 392.18 459.65 857.5 459.65" class="fil1" style="fill:#fefefe" transform="matrix(.03857 0 0 .03857 2 -15.15)"></path><path d="M857.5 681.49c342.8 0 620.69 277.89 620.69 620.69 0 342.81-277.89 620.7-620.69 620.7-342.81 0-620.7-277.89-620.7-620.7 0-342.8 277.89-620.69 620.7-620.69" class="fil2" style="fill:#fefefe" transform="matrix(.03857 0 0 .03857 2 -15.15)"></path><path d="M966.73 1868.45c-226.96 43.73-467.64-52.44-597.78-260.05-130.14-207.62-111.77-466.15 26.53-651.36Z" class="fil3" style="fill:#e62129" transform="matrix(.03857 0 0 .03857 2 -15.15)"></path><path d="M775.19 731.4c218.87-31.44 445.85 65.14 570.85 264.56 125 199.43 112.98 445.82-10.72 629.1z" class="fil4" style="fill:#1d1819" transform="matrix(.03857 0 0 .03857 2 -15.15)"></path><path d="M551.28 813.63c56.77-35.58 117.35-60.03 179.21-73.98l577.92 922.04c-39.52 49.59-87.92 93.45-144.7 129.03-56.09 35.16-115.91 59.46-176.99 73.51l19.56-12.27-582.69-929.65c36.15-41.26 78.83-78.05 127.69-108.68" class="fil5" style="fill:#fff000" transform="matrix(.03857 0 0 .03857 2 -15.15)"></path><path d="M475.69 1010.45c-128.3 120.19-58.55 296.76 74.06 346.8-52.82-.02-97.17 10.58-132.59 32.33 81.86 92.54 172.71 116.51 246.94 71.86-4.19 32.59-2.62 59.45 5.37 79.84 31.77 55.64 58.41 106.36 73.17 145.68-9.9 13.9-16.19 27.78-19.99 41.68-9.13 47.99-5.95 98.46 45.41 85.26 50.8 37.25 128.06 37.25 178.86 0 51.36 13.2 54.55-37.27 45.42-85.26-3.81-13.9-10.08-27.78-20-41.68 14.77-39.32 41.41-90.04 73.17-145.68 8-20.39 9.57-47.25 5.38-79.84 74.22 44.65 165.08 20.68 246.94-71.86-35.43-21.75-79.77-32.35-132.59-32.33 132.6-50.04 202.37-226.61 74.05-346.8 47.59 333.76-342.3 200.1-382.05 279.07-21.92-78.65-429.37 56.34-381.55-279.07" class="fil3" style="fill:#e62129" transform="matrix(.03857 0 0 .03857 2 -15.15)"></path><path d="M467.73 1026.8c-19.69 21.17-33.57 43.85-42.31 67.02-13.62 36.07-14.86 73.49-6.46 108.53 8.44 35.13 26.59 67.98 51.74 94.82v.02c22.19 23.7 49.88 42.73 81.13 54.52l30.35 11.46-32.43-.01c-25.92-.01-49.78 2.58-71.43 7.83-18.97 4.61-36.3 11.27-51.92 20.03 38.34 41.89 78.42 68.55 117.58 79.93 41 11.93 81.09 7.07 117.08-14.58l10.45-6.29-1.56 12.1c-2.03 15.88-2.68 30.38-1.83 43.39.81 12.55 3.04 23.66 6.72 33.2 15.85 27.79 30.43 54.33 42.86 78.79h.01c12.53 24.64 22.97 47.35 30.46 67.34l1.1 2.94-1.8 2.55c-4.75 6.65-8.63 13.31-11.76 19.94-3.1 6.54-5.49 13.07-7.28 19.56-3.98 20.98-5.55 42.32-1.55 57.94 1.53 5.95 3.88 11.02 7.2 14.77l.02-.01c3.14 3.53 7.28 5.98 12.57 6.99 5.36 1.01 11.95.65 19.93-1.4l2.72-.7 2.24 1.65c24.34 17.85 55.13 26.78 85.93 26.78 30.81 0 61.6-8.93 85.93-26.78l2.25-1.65 2.71.7c7.98 2.05 14.57 2.41 19.93 1.4 5.29-1.01 9.44-3.46 12.58-6.99l.01.01c3.33-3.75 5.67-8.81 7.2-14.77 4.01-15.62 2.43-36.95-1.54-57.94-1.79-6.49-4.19-13.02-7.28-19.56-3.13-6.63-7.02-13.29-11.76-19.94l-1.81-2.55 1.1-2.94c7.5-19.99 17.94-42.7 30.46-67.34h.02c12.42-24.46 27-51 42.85-78.79 3.69-9.54 5.91-20.65 6.73-33.2.84-13.01.2-27.51-1.84-43.39l-1.55-12.1 10.45 6.29c35.99 21.65 76.08 26.51 117.07 14.58 39.16-11.38 79.25-38.04 117.59-79.93-15.63-8.76-32.95-15.42-51.92-20.03-21.66-5.25-45.52-7.84-71.43-7.83l-32.44.01 30.35-11.46c31.25-11.78 58.93-30.82 81.14-54.53 25.14-26.84 43.3-59.7 51.73-94.83 8.41-35.04 7.16-72.46-6.45-108.53-8.74-23.16-22.61-45.83-42.31-67.01 17.56 169.98-82.75 213.26-187.06 228.13-27.65 3.94-55.47 5.84-81.36 7.62-57.35 3.91-105.03 7.18-116.33 29.62l-6.87 13.65-4.1-14.73c-5.95-21.36-51.46-24.36-108.37-28.08-26.49-1.74-55.37-3.63-84.16-7.74-105.27-15-208.54-58.99-191.28-228.48m-53.38 62.85c11.04-29.27 29.72-57.69 57.29-83.51l12.28-11.51-2.37 16.65c-24.76 173.71 76.18 217.61 179.13 232.3 28.36 4.04 56.98 5.91 83.23 7.63 54 3.53 98.52 6.47 114.19 27.01 19.66-20.61 65.74-23.77 119.95-27.47 25.69-1.75 53.3-3.64 80.48-7.53 101.9-14.51 199.75-57.69 174.91-231.94l-2.38-16.65 12.29 11.51c27.57 25.82 46.24 54.24 57.29 83.51 14.47 38.37 15.81 78.15 6.86 115.43-8.92 37.19-28.08 71.89-54.59 100.21-17.64 18.81-38.56 34.84-61.89 46.92 17.12 1.2 33.28 3.63 48.42 7.3 22.74 5.52 43.26 13.84 61.47 25.02l6 3.68-4.66 5.28c-41.31 46.71-85.04 76.32-127.96 88.8-40.42 11.77-80.08 8.38-116.29-10.14 1.11 12.27 1.35 23.68.67 34.16-.9 13.95-3.43 26.36-7.65 37.12l-.14.35-.23.41c-15.81 27.7-30.37 54.21-42.81 78.71v.02c-11.82 23.24-21.69 44.56-28.87 63.22 4.34 6.37 7.99 12.76 11 19.14 3.42 7.23 6.06 14.51 8.06 21.81l.11.47c4.28 22.48 5.9 45.63 1.39 63.2-1.97 7.72-5.17 14.45-9.8 19.67v.03c-4.84 5.44-11.17 9.2-19.24 10.74-6.33 1.19-13.74.99-22.31-.92-26.07 18.32-58.41 27.49-90.69 27.49s-64.61-9.17-90.68-27.49c-8.58 1.91-15.98 2.11-22.32.92-8.07-1.54-14.39-5.3-19.24-10.74v-.03c-4.63-5.22-7.82-11.95-9.8-19.67-4.5-17.56-2.89-40.72 1.39-63.2l.12-.47c1.99-7.3 4.64-14.58 8.05-21.81 3.02-6.38 6.66-12.77 11-19.14-7.18-18.66-17.04-39.98-28.86-63.22v-.02c-12.45-24.5-27.01-51.01-42.82-78.71l-.23-.41-.14-.35c-4.22-10.76-6.74-23.17-7.65-37.12-.67-10.48-.43-21.89.68-34.16-36.22 18.52-75.86 21.91-116.3 10.14-42.91-12.48-86.64-42.09-127.95-88.8l-4.67-5.28 6.01-3.68c18.2-11.18 38.73-19.5 61.46-25.02 15.14-3.67 31.3-6.09 48.42-7.3-23.31-12.08-44.22-28.11-61.87-46.94h-.01c-26.52-28.3-45.68-63-54.59-100.19-8.96-37.28-7.62-77.06 6.86-115.43" class="fil6" style="fill:#f8ef5f;fill-rule:nonzero" transform="matrix(.03857 0 0 .03857 2 -15.15)"></path><path d="M510.11 1407.07c-4.74-1.5-7.94-2.84-10.83-4.04-5.81-2.44-10.37-4.35-25.3-5.91l-47.49-5 47.58-3.98 7.99-.66c66.57-5.61 75.45-6.36 133.77 24.85 10.04 5.38 19.5 8.08 28.02 7.19 8.21-.86 15.8-5.22 22.44-13.93l26.19-34.39-18.54 39.03c-25.28 53.26-72.27 33.7-123.12 12.54-13.47-5.6-27.25-11.34-40.71-15.71zm-20.19-12.88c72.33-3.22 59.97-.1 120.46 24.86 22.68 9.35 41.24 12.81 56.17-6.78-27.42 57.69-135.67-15.32-176.63-18.08" class="fil7" style="fill:#fff582" transform="matrix(.03857 0 0 .03857 2 -15.15)"></path><path d="M1204.88 1407.07c4.74-1.5 7.93-2.84 10.83-4.04 5.81-2.44 10.37-4.35 25.28-5.91l47.5-5-47.57-3.98-8-.66c-66.56-5.61-75.44-6.36-133.76 24.85-10.04 5.38-19.5 8.08-28.02 7.19-8.22-.86-15.8-5.22-22.44-13.93l-5.47-7.19c10.65-9.55 21.5-17.58 32.53-24.1 11.08-6.55 22.35-11.57 33.77-15.04v.01c53.83-13.7 95.71-39.79 124.81-69.67 58.7-60.26 54.83-122.63 44.23-199.75.54 31.57.08 62.28-4.62 89.38-12.81 44.86-35.28 78.75-65.18 104.17-30.02 25.52-67.62 42.65-110.53 53.83-11.4 2.79-22.03 7.17-32.02 12.81-8.38 4.75-16.34 10.43-23.93 16.84-3.93-7.68-6.96-18.23-9.38-31.19-2.99-16.01-5.03-35.72-6.72-58.36l-1.24-16.76-4.9.62-2.79 15.66c-4.91 27.47-5.82 51.83-2.67 72.27 1.61 10.48 4.29 19.95 8.03 28.31-58.6 21.48-100.62 97.47-110.96 154.77.23 49.48 2.89 93.89 17.96 130.09-25.38-3.17-50.21-4.72-74.48-4.71-23.78.03-47.04 1.57-69.73 4.59 15.02-36.17 17.67-80.55 17.92-129.97-10.35-57.3-52.37-133.29-110.97-154.77 3.75-8.36 6.42-17.83 8.04-28.31 3.14-20.44 2.24-44.8-2.67-72.27l-2.8-15.66-4.9-.62-1.24 16.76c-1.68 22.64-3.72 42.35-6.71 58.36h-.01c-2.41 12.96-5.44 23.51-9.38 31.19-7.58-6.41-15.54-12.09-23.93-16.84-9.99-5.64-20.61-10.02-32.01-12.81-42.92-11.18-80.52-28.31-110.54-53.83-29.9-25.42-52.36-59.31-65.17-104.17-4.7-27.1-5.17-57.81-4.63-89.38-10.59 77.12-14.47 139.49 44.23 199.75 29.1 29.88 70.98 55.97 124.82 69.67v-.01c11.42 3.47 22.68 8.49 33.77 15.04 11.15 6.59 22.13 14.75 32.91 24.46l3.26 2.92 3.03-3.18c5.32-5.56 9.74-12.16 13.28-19.68 19.39 15.31 44.48 35.51 56.09 57.99-31.85-30.11-44.03-19.12-78.85-22.05l-2.63 4.41c13.91-.69 25.29 1.47 32.67 8.16-2.47 27.34 2.79 46.25 19.92 52.26 16.23 5.85 24.72-1.59 28.75-16.65 54.24 39.82 42.86 114.25 17.65 195.98-11.14 26.49-17.39 89.33 28.56 77.06 22-12.13 7.03-37.65-22.24-43.08-.86-7.43.65-13.69 3.62-18.72 25.85-4.07 52.49-6.15 79.89-6.18 27.36-.01 55.55 2.02 84.6 6.19 2.96 5.04 4.47 11.31 3.61 18.71-29.26 5.43-44.24 30.95-22.23 43.08 45.95 12.27 39.69-50.57 28.55-77.06-25.19-81.73-36.58-156.16 17.66-195.98 4.03 15.06 12.52 22.5 28.74 16.65 17.14-6.01 22.4-24.92 19.93-52.26 6.87-6.23 17.22-8.54 29.84-8.26 26.15 42.05 70.54 23.59 118.32 3.7 13.48-5.6 27.25-11.34 40.72-15.71zm-166.39-14.89-3.69-4.84c-16.82-27.94-18.81-45.9-12.66-71.92 8.46 38.44 8.9 42.24 19.4 60.68 17.17-15.4 37.01-26.58 58.98-31.96 86.88-22.64 151.25-71.88 177.53-162.9l.36 1.14c-.6 66.29-59.98 133.97-166.27 169.19-23.59 7.14-51.71 21.02-73.65 40.61m-4.22 3.81 6.76 14.24a99 99 0 0 0 2.41 4.72c-32.85 2.22-45.22-7.49-76.26 21.86 11.61-22.48 36.7-42.68 56.09-57.99 3.02 6.42 6.68 12.16 11 17.17m-597.34-214.75-.37 1.14c.61 66.29 59.99 133.97 166.28 169.19 23.75 7.19 52.1 21.21 74.09 41.02 19.81-31.02 22.44-49.56 15.91-77.17-8.46 38.44-8.89 42.24-19.4 60.68-17.17-15.4-37-26.58-58.98-31.96-86.87-22.64-151.25-71.88-177.53-162.9m292.09 287.08c-17.89-3.69-23.81-17.74-17.16-42.67 32.48 6.46 37.61 41.06 17.16 42.67m35.87 229.64c71.29 20.73-2.03 60.18 0 0m9.21-46.7c7.12-10.64 12.49-32.41 17.64-55.53-.32 5.47-4.69 74.88-17.64 66.31-3.52-1.89-3.64-5.42 0-10.78m211.87-182.94c17.9-3.69 23.81-17.74 17.15-42.67-32.48 6.46-37.61 41.06-17.15 42.67m-35.87 229.64c-71.29 20.73 2.02 60.18 0 0m-9.22-46.7c-7.11-10.64-12.49-32.41-17.64-55.53.33 5.47 4.7 74.88 17.64 66.31 3.53-1.89 3.64-5.42 0-10.78m284.18-257.07c-72.32-3.22-59.96-.1-120.46 24.86-22.68 9.35-41.25 12.81-56.17-6.78 27.42 57.69 135.68-15.32 176.63-18.08M966.86 1752.11c-70.32 66.17-143.17 67.61-218.73 0 72.41 35.91 145.28 36.71 218.73 0m-107.44 41.32c15.84-.09 31.61-3.61 47.32-10.51-16.56 3.56-33.1 5.31-49.63 5.28-15.04-.05-30.04-1.57-45.01-4.55 15.97 6.61 31.75 9.85 47.32 9.78" class="fil8" style="fill:#f8ef5f" transform="matrix(.03857 0 0 .03857 2 -15.15)"></path><path d="M920.12 1080.53c-10.31-8.39-22.08-14.53-34.95-18.27s-26.1-4.84-39.3-3.28c-12.75 1.51-24.95 5.43-36.25 11.64-11.29 6.21-21.13 14.42-29.23 24.39-8.38 10.31-14.53 22.06-18.27 34.94-3.73 12.88-4.83 26.09-3.27 39.3 1.5 12.75 5.43 24.95 11.64 36.25 6.22 11.3 14.42 21.14 24.38 29.22 10.32 8.4 22.07 14.54 34.95 18.28 12.87 3.74 26.09 4.84 39.3 3.28 12.74-1.51 24.94-5.43 36.24-11.65s21.13-14.42 29.24-24.37c8.38-10.32 14.53-22.08 18.26-34.96 3.74-12.87 4.85-26.08 3.29-39.3-1.52-12.74-5.44-24.94-11.65-36.23a99.1 99.1 0 0 0-24.38-29.24" class="fil9" style="fill:#332c2b;fill-rule:nonzero" transform="matrix(.03857 0 0 .03857 2 -15.15)"></path><path d="M784.96 1112.52c.33-5.64 1.23-11.17 2.92-16.55 11.81-13.31 27.24-22.95 44.26-27.8 4.09-.13 8.2.03 12.3.49 1.26.15 2.55.22 3.81.44l-.81 26.02c-.16.08-.33.17-.5.27-10.59 5.76-20.48 12.6-29.64 20.42-.04.03-.07.05-.1.09l-32.25-2.1c-.02-.42-.02-.85.01-1.28M776.71 1193.11c.14 4.34.59 8.62 1.38 12.85-9.03-14.83-13.92-32.16-13.59-50.03l12.24 36.15c-.02.34-.04.68-.03 1.03M782.59 1189.72l-14.44-42.65c3.01-7.58 6.6-14.88 10.91-21.83 1.09-1.77 2.08-3.61 3.32-5.28l32.23 2.09c.1.38.22.81.34 1.29 2.68 10.92 6.21 21.6 10.15 32.13.23.62.42 1.14.61 1.56l-21.5 35.59c-6.19-.73-12.38-1.49-18.55-2.35-1.02-.14-2.04-.33-3.07-.55M831.57 1246.95a92 92 0 0 1-13.76-5.21c4.24-3.07 8.16-6.51 11.75-10.29l47.01-.52c5.39 4.02 11 7.67 17.07 10.57.79.39 1.57.64 2.34.74-19.53 8.91-42.22 11.14-64.41 4.71M878.17 1220.19c-.98 1.48-1.98 2.96-3 4.46l-45.4.49c-.08-.09-.16-.18-.24-.29-7.48-9.11-14.12-18.8-19.86-29.09l22.12-36.6c7.02-.07 14.05-.16 21.08-.3 4.76-.07 9.54-.21 14.3-.34l25.34 36.63c-4.35 8.58-9 17-14.34 25.04M915.42 1189.43c-5.87.84-11.78 1.52-17.68 2.21l-24.68-35.67c.35-.78.67-1.58.96-2.38 2.61-7.24 5.16-14.5 7.73-21.76.06.01.13.03.21.05.8-2.8 1.62-5.62 2.42-8.43l37.49-6.91c.6.62 1.16 1.26 1.65 1.96 3.72 5.4 7.54 10.77 11.02 16.33 2.14 3.4 4.19 6.87 5.9 10.58l-15.03 42.19c-3.32.67-6.64 1.36-9.99 1.83M946.81 1183.56a92.6 92.6 0 0 1-14.98 29.96c.67-6.71.57-13.42-.19-20.14-.12-1.04-.29-2.09-.48-3.14l14.79-41.53c1.35-.51 2.65-1.1 3.93-1.76 1.4 11.94.48 24.35-3.07 36.61M920.08 1089.2c-.01.14-.05.23-.03.29 1.19 6.97 1.14 13.95.38 20.92l-35.04 6.45c-.03-.03-.08-.07-.12-.12-1.94-1.55-3.82-3.19-5.8-4.67-8.21-6.13-16.7-11.82-25.75-16.61l.81-25.72c.62-.3 1.29-.54 1.95-.64 4.19-.6 8.39-1.24 12.61-1.64 3.24-.31 6.48-.41 9.73-.36 1.53.37 3.07.77 4.59 1.21 14.29 4.15 26.82 11.44 37.07 20.91-.13-.01-.26-.02-.4-.02" class="fil10" style="fill:#fefefe;fill-rule:nonzero" transform="matrix(.03857 0 0 .03857 2 -15.15)"></path><path d="M1009.54 1026.79c10.29-58.99 20.34-121.31 22.8-178.99-4.94 25.18-29.6 51.11-58.94 70.67 7.15-39.91 13.29-79.58 14.51-108.23-11.83 37.37-68.56 67.56-102.84 83.48-12.78-42.22-21.43-87.73-27.35-134.43l-.1-2.69-.12.98-.13-.98-.09 2.69c-5.93 46.72-14.59 92.25-27.36 134.49-34.29-15.93-91.01-46.17-102.84-83.54 1.22 28.65 7.36 68.32 14.5 108.23-29.34-19.56-53.99-45.49-58.93-70.67 2.47 57.74 12.53 120.09 22.83 179.12l-.76.02-.06 16.41c82.57-3.34 133.19 1.24 155.18 16.37 21.97-15.13 72.61-18.56 155.17-15.22l-.06-17.56zm-270.57-.41c-11.65-32.23-19.32-57.04-26.32-95.49l32.81 8.82c5.94 31.93 12.07 62.78 16.34 86.94-7.42-.19-15.05-.28-22.83-.27m62.36 2.48c37.03-68.03 52.95-142.58 56.17-216.34 3.22 73.92 19.21 148.64 56.4 216.78-24.87 2.6-44.24 7.09-54.06 13.94-10.41-7.25-31.5-11.85-58.51-14.38m151.84-2.08c4.27-24.18 10.42-55.08 16.35-87.07l32.82-8.82c-7 38.45-14.67 63.25-26.33 95.49-7.8.04-15.43.18-22.84.4m-65.55-124.85c21.7-2.5 43.89-7.38 66.47-14.24-4.34 29.34-15.26 73.33-25.96 106.5-16.65-27.9-29.92-59-40.51-92.26m-60.24 0c-10.6 33.26-23.87 64.36-40.51 92.26-10.71-33.17-21.62-77.16-25.97-106.5 22.58 6.86 44.77 11.74 66.48 14.24" class="fil2" style="fill:#fefefe" transform="matrix(.03857 0 0 .03857 2 -15.15)"></path><path d="M690.68 879.38c3.94 47.48 11.78 95.07 19.91 141.79l20.22.24c-10.46-29.8-18.31-57.77-24.09-89.43l-1.7-9.37 35.48 9.54-1.94-8.46c-16.41-10.92-35.15-26.39-47.88-44.31M791.16 1024.02c-15.77-36.46-30.96-99.97-36.21-135.43l-1.39-9.42 9.09 2.77c18 5.46 36.4 9.86 55.01 12.64-27.13-13.03-62.29-32.66-82.56-57.87 2.95 28.52 8.28 57.84 13.22 85.2 6.14 33.99 13.06 67.86 19.09 101.86z" class="fil4" style="fill:#1d1819" transform="matrix(.03857 0 0 .03857 2 -15.15)"></path><path d="M797.06 1024.09c30.5-56.75 46.54-118.68 52.4-182.01-14.07 64.97-36.77 129.77-75.01 181.76zM1024.3 879.38c-3.93 47.48-11.76 95.07-19.89 141.79l-20.24.24c10.46-29.8 18.33-57.77 24.1-89.43l1.7-9.37-35.49 9.54 1.95-8.46c16.41-10.92 35.16-26.39 47.87-44.31M923.84 1024.02c15.75-36.46 30.95-99.97 36.2-135.43l1.39-9.42-9.1 2.77c-17.99 5.46-36.38 9.86-55 12.64 27.13-13.03 62.29-32.66 82.56-57.87-2.95 28.52-8.28 57.84-13.22 85.2-6.14 33.99-13.06 67.86-19.08 101.86z" class="fil4" style="fill:#1d1819" transform="matrix(.03857 0 0 .03857 2 -15.15)"></path><path d="m917.92 1024.09 22.62-.25c-38.24-51.99-60.95-116.79-75.01-181.76 5.85 63.33 21.9 125.26 52.39 182.01M706.22 1028.4l-.05 9.61c36.69-1.46 119.28-4.33 152.16 15.4h3.01c32.89-19.73 115.47-16.86 152.17-15.4l-.06-9.61c-35.67-1.05-123.36-1.68-152.11 16.72h-3.01c-27.69-18.31-118.1-17.72-152.11-16.72" class="fil4" style="fill:#1d1819" transform="matrix(.03857 0 0 .03857 2 -15.15)"></path><path d="m1553.78 1214.17-4.19 29.41c-16.26-1.71-29.02-6.87-38.24-15.57-9.21-8.69-15.13-20.7-17.66-36.01-3.2-18.92.69-35.55 11.59-49.93q16.335-21.525 49.98-27.18c23.75-3.94 43.21-.89 58.38 9.14 15.18 10.07 24.45 25.08 27.79 45.06 2.94 17.45.14 32.47-8.33 45.1-5.01 7.5-12.96 13.82-23.83 19l-11.59-27.37c7.13-2.94 12.36-7.41 15.73-13.47 3.41-6.08 4.44-12.96 3.19-20.59-1.79-10.57-6.99-18.52-15.72-23.84-8.69-5.29-21.5-6.54-38.51-3.7-18.02 3.01-30.31 8.43-36.88 16.19-6.59 7.76-9 16.83-7.24 27.19 1.25 7.68 4.79 13.84 10.58 18.53 5.78 4.71 14.12 7.38 24.95 8.04m-1389.73 28.3 1.34-28.5c9.67-.33 17.09-2.74 22.25-7.29 5.17-4.51 8.39-11.19 9.65-19.94 1.36-9.29.4-16.62-2.86-21.89-3.22-5.27-7.51-8.3-12.76-9.06-3.38-.5-6.42.08-9.06 1.72-2.67 1.65-5.25 4.82-7.73 9.51-1.63 3.2-4.83 10.61-9.59 22.21-6.05 14.93-12.34 25.1-18.86 30.53-9.11 7.63-19.33 10.65-30.67 8.98-7.29-1.02-13.8-4.09-19.54-9.13-5.73-5.05-9.72-11.69-11.89-19.94-2.18-8.25-2.48-17.88-.9-28.85 2.59-17.96 8.48-30.9 17.65-38.85 9.21-7.93 20.4-11.17 33.59-9.73l-2.92 29.05c-7.51.18-13.2 2.07-16.98 5.66-3.82 3.59-6.31 9.47-7.49 17.58-1.2 8.4-.45 15.23 2.31 20.48 1.8 3.36 4.53 5.34 8.21 5.86 3.41.49 6.48-.53 9.31-3.03 3.6-3.2 8.04-11.58 13.4-25.16 5.37-13.54 10.29-23.45 14.83-29.69 4.49-6.21 10.09-10.77 16.81-13.69 6.67-2.9 14.56-3.72 23.58-2.4 8.19 1.19 15.56 4.59 22.04 10.15 6.51 5.6 10.88 12.82 13.16 21.63 2.28 8.84 2.51 19.45.7 31.85q-3.885 27.135-18.57 39.87c-9.74 8.46-22.74 12.49-39.01 12.07m70.07-133.9-133.13-56.61 41.99-98.71 22.53 9.57-30.58 71.85 29.53 12.53 28.42-66.83 22.43 9.53-28.43 66.86 36.26 15.38 31.62-74.37 22.43 9.53zm53.4-123.44-121.48-78.31 23.68-36.73 97.09 31.37-68.84-75.2 23.72-36.78 121.49 78.29-14.7 22.81-95.61-61.65 80.08 85.78-15.22 23.58-111.12-37.6 95.61 61.65zm99.9-135.69-98.41-105.82 78.42-72.97 16.67 17.91-57.09 53.11 21.81 23.45 53.11-49.43 16.61 17.83-53.14 49.42 26.8 28.77 59.11-54.97 16.56 17.82zm101.88-88.99-71.7-125.51 24.65-14.05 99.25 54.45-47.87-83.79 23.54-13.45 71.69 125.49-25.45 14.54-97.31-52.96L512.83 747zm181.82-86.56-32.96-140.73 45.61-10.69c17.25-4.02 28.69-5.95 34.29-5.78 8.55.22 16.38 3.21 23.45 9.03 7.1 5.79 11.97 14.28 14.59 25.49 2.02 8.65 2.15 16.27.41 22.88-1.78 6.62-4.68 12.2-8.7 16.67-4.06 4.49-8.46 7.86-13.2 10.13-6.47 2.93-16.11 5.9-28.99 8.91l-18.52 4.36 12.41 53.05zm1.05-123.59 9.32 39.94 15.54-3.63c11.21-2.64 18.53-5.1 21.96-7.48 3.44-2.34 5.86-5.34 7.28-8.98 1.41-3.63 1.63-7.54.64-11.71-1.21-5.11-3.7-9-7.47-11.59-3.8-2.64-8.09-3.82-12.88-3.58-3.56.15-10.44 1.42-20.69 3.83zm246.81 96.02-31.76.63-13.28-32.61-57.8 1.16-11.28 33.07-30.97.61 53.47-145.69 30.86-.62zm-54.9-56.17-20.97-53.24-18.46 54.03zm100.1-81.06 52.24 10.93c11.79 2.46 20.6 5.24 26.41 8.34 7.77 4.17 13.98 10.02 18.6 17.51 4.63 7.47 7.53 16.06 8.74 25.76 1.21 9.68.42 21.18-2.38 34.44-2.42 11.66-5.96 21.38-10.61 29.22q-8.55 14.355-20.4 21.87c-5.99 3.77-13.45 6.17-22.46 7.09-6.73.69-15.38-.1-25.94-2.28l-53.82-11.25zm23.58 29.94-19.61 93.79 21.34 4.48c8 1.65 13.86 2.4 17.58 2.26 4.88-.2 9.12-1.35 12.77-3.48s7.11-6.17 10.36-12.11c3.27-5.93 6.03-14.4 8.3-25.33 2.31-10.95 3.09-19.57 2.37-25.82-.69-6.26-2.45-11.39-5.23-15.42-2.79-4.02-6.75-7.14-11.84-9.42-3.8-1.76-11.53-3.83-23.19-6.28zm208.18 198.09-29.04-12.87 1.74-35.12-52.82-23.4-24.21 25.2-28.31-12.53 110.02-109.42 28.21 12.48zm-25.98-74.05 3.51-57.15-39.6 41.18zm38.96 84.8 91.05-112.35 22.06 17.86-14.76 112.31 60.78-75.04 21.06 17.06-91.01 112.39-22.77-18.45 14.06-110-59.37 73.3zm196.02 110.85 18.69-15.66 40.39 48.31-44.19 36.96c-8.48-.89-18.17-4.36-29.09-10.35-10.88-6.02-20.17-13.6-27.81-22.75-9.68-11.58-15.73-23.74-18.07-36.46-2.34-12.68-.78-25.01 4.62-36.91 5.45-11.89 13.46-22.33 24.13-31.23 11.56-9.65 23.86-15.83 36.9-18.48 13-2.67 25.85-1.35 38.43 3.99 9.65 4.03 18.87 11.35 27.74 21.94 11.52 13.79 17.65 26.96 18.34 39.52.7 12.59-3.11 24.24-11.46 34.99l-22.77-18.79c4.13-6.09 5.99-12.64 5.51-19.59-.44-6.96-3.36-13.65-8.76-20.13-8.2-9.77-17.83-14.95-28.85-15.56-11.04-.56-22.64 4.23-34.87 14.46-13.18 11.01-20.61 22.19-22.26 33.53-1.72 11.37 1.4 21.8 9.34 31.31 3.91 4.68 8.76 8.6 14.54 11.79 5.79 3.17 11.44 5.35 16.87 6.54l14.1-11.76zm38.62 157.07 135.04-51.84 35.52 92.56-22.82 8.78-25.08-65.3-31.95 12.24 21.63 56.4-22.85 8.74-21.64-56.37-57.36 22.03z" class="fil11" style="fill:#1d1819;fill-rule:nonzero" transform="matrix(.03857 0 0 .03857 2 -15.15)"></path><path d="M148.7 1356.41c20.12 0 36.42 16.31 36.42 36.42s-16.3 36.42-36.42 36.42c-20.11 0-36.42-16.31-36.42-36.42s16.31-36.42 36.42-36.42M1566.3 1356.41c20.1 0 36.42 16.31 36.42 36.42s-16.32 36.42-36.42 36.42c-20.12 0-36.43-16.31-36.43-36.42s16.31-36.42 36.43-36.42" class="fil4" style="fill:#1d1819" transform="matrix(.03857 0 0 .03857 2 -15.15)"></path><path d="m140.75 1655.57 103.53-96.61 14.25 24.9-71.99 64.84 94.67-25.22 16.49 28.8-71.61 68.73 94-29.63 13.91 24.31-136.13 39.67-14.81-25.87 75.95-74.81-103.05 27.46zm1470.8-89.8-12.64 27.29-33.48-2.4-23.25 50.15 23.65 23.6-12.42 26.79-102.55-106.54 12.4-26.75zm-71.07 23.3-54.34-4.08 38.47 38.34zm-69.68 220.97-111.59-80.91 34.41-47.47q12.975-17.895 21.87-23.82c5.94-3.99 12.62-5.71 20.09-5.24 7.5.48 14.53 3.07 21.12 7.86 8.4 6.09 13.54 13.54 15.44 22.4 1.89 8.86.01 18.69-5.64 29.48 6.35-2.81 12.37-4.54 18.05-5.22 5.7-.7 14.84-.57 27.4.38l31.65 2.16-19.54 26.94-36.1-1.51c-12.83-.48-21.17-.45-25 .06-3.77.5-6.97 1.64-9.54 3.43-2.58 1.81-5.74 5.3-9.51 10.49l-3.32 4.58 46.6 33.78zm-47.98-69.28 12.1-16.67c7.83-10.81 12.24-17.88 13.29-21.23 1.03-3.35.99-6.62-.15-9.75-1.12-3.15-3.38-5.94-6.73-8.37-3.77-2.73-7.52-3.91-11.3-3.6-3.76.32-7.27 2.1-10.51 5.31-1.6 1.65-5.7 7.04-12.31 16.16l-12.75 17.59zm-56.72 173.96-94.77-100.1 74.1-70.15 16.03 16.92-53.84 50.95 21.05 22.23 50.05-47.38 16.02 16.92-50.06 47.38 25.67 27.13 55.8-52.81 16.01 16.91zm-87.06 60.93-60.94-97.01-34.57 21.72-12.39-19.73 92.6-58.18 12.4 19.73-34.41 21.62 60.94 96.99zm-43.09 27.95-27.45 12.27-23.68-23.79-50.47 22.57 2.36 33.33-26.95 12.05-7.42-147.69 26.92-12.04zm-68.9-29.09-38.3-38.76 3.83 54.17zm-374.14-16.96 27.9.94-2.52 74.65c-.41 11.88-.31 19.55.24 23.07.99 5.68 3.64 10.34 7.94 13.88 4.34 3.58 10.35 5.49 18.04 5.74 7.79.27 13.75-1.13 17.84-4.23 4.08-3.11 6.59-6.98 7.55-11.66.96-4.69 1.64-12.47 2.01-23.37l2.58-76.26 27.9.94-2.45 72.45c-.56 16.54-1.69 28.22-3.43 35.01-1.74 6.78-4.69 12.45-8.89 17.03-4.17 4.58-9.68 8.12-16.51 10.67-6.86 2.57-15.7 3.69-26.57 3.32-13.12-.45-23.01-2.29-29.68-5.57-6.66-3.27-11.88-7.4-15.65-12.41-3.79-5-6.18-10.16-7.25-15.56-1.56-7.95-2.07-19.66-1.54-35.08zm154.05 138.61-29.5-134.65 40.85-8.95 44.25 86.55 3.74-97.06 40.93-8.98 29.5 134.67-25.2 5.52-23.32-105.99-3.32 111.82-26.21 5.74-49.65-100.22 23.14 106.03zm-303.76-70.17 27.18 2.32c-.05 9.23 1.95 16.36 6.06 21.46 4.12 5.11 10.32 8.42 18.62 9.97 8.77 1.62 15.73.99 20.88-1.9 5.14-2.89 8.19-6.84 9.12-11.81.6-3.22.15-6.11-1.29-8.73-1.43-2.59-4.36-5.16-8.72-7.65-2.98-1.74-9.87-5.04-20.69-10-13.94-6.38-23.35-12.76-28.26-19.19-6.9-9.02-9.33-18.91-7.34-29.67 1.28-6.91 4.46-13.04 9.46-18.35 5.03-5.29 11.49-8.82 19.43-10.61 7.93-1.78 17.06-1.73 27.48.21 16.94 3.16 29.02 9.3 36.16 18.42 7.18 9.14 9.79 20.01 7.89 32.68l-27.62-4.17c.14-7.22-1.43-12.7-4.67-16.47-3.25-3.77-8.7-6.38-16.34-7.8-7.89-1.47-14.37-.98-19.43 1.47-3.27 1.58-5.24 4.12-5.9 7.65-.59 3.22.25 6.22 2.54 9 2.89 3.57 10.7 8.15 23.38 13.78 12.7 5.59 21.9 10.7 27.62 15.22 5.75 4.56 9.88 10.06 12.38 16.57 2.52 6.5 2.99 14.04 1.4 22.58-1.45 7.77-4.95 14.65-10.54 20.63-5.58 5.98-12.61 9.9-21.12 11.71-8.49 1.83-18.64 1.65-30.4-.54-17.14-3.19-29.55-9.59-37.26-19.2-7.72-9.6-11.03-22.13-10.02-37.58m-149.07-15.01 48.17-103.92-37.02-17.17 9.8-21.14 99.22 45.99-9.81 21.14-36.85-17.09-48.18 103.94zm-129.61-137.85 23.55 13.76c-4 8.31-5.26 15.6-3.73 21.99 1.53 6.37 5.71 12.02 12.54 16.98 7.23 5.23 13.78 7.65 19.68 7.25 5.88-.41 10.32-2.67 13.3-6.77 1.92-2.65 2.77-5.45 2.59-8.42-.2-2.97-1.74-6.53-4.6-10.67-1.95-2.84-6.75-8.78-14.41-17.9-9.84-11.73-15.61-21.56-17.29-29.46-2.37-11.11-.32-21.08 6.1-29.94 4.13-5.7 9.62-9.88 16.41-12.53 6.82-2.62 14.18-3.04 22.11-1.24 7.93 1.79 16.15 5.76 24.73 11.98 13.95 10.12 22.23 20.84 24.76 32.15 2.57 11.33.27 22.27-6.89 32.9l-23.15-15.62c3.21-6.45 4.15-12.07 2.84-16.87-1.32-4.81-5.13-9.5-11.42-14.07-6.49-4.7-12.57-7.05-18.18-7-3.63.03-6.5 1.48-8.61 4.38-1.92 2.66-2.45 5.72-1.56 9.22 1.08 4.47 6.16 11.95 15.21 22.48 9.07 10.5 15.19 19.06 18.42 25.6 3.22 6.58 4.6 13.33 4.08 20.28-.53 6.95-3.33 13.95-8.44 20.99-4.64 6.4-10.75 11.11-18.36 14.11-7.61 3.01-15.64 3.53-24.1 1.53-8.47-1.99-17.55-6.51-27.23-13.54-14.12-10.23-22.6-21.33-25.44-33.32-2.83-11.99-.45-24.72 7.09-38.25m-124.77-64.49 100.12-94.77 70.14 74.11-16.92 16.01-50.95-53.83-22.23 21.05 47.38 50.05-16.91 16.02-47.39-50.06-27.13 25.67 52.82 55.8-16.92 16.01z" class="fil11" style="fill:#1d1819;fill-rule:nonzero" transform="matrix(.03857 0 0 .03857 2 -15.15)"></path></g><!-- source: https://football-logos.cc --></svg>